%TF.GenerationSoftware,KiCad,Pcbnew,5.1.9+dfsg1-1~bpo10+1*%
%TF.CreationDate,2021-08-28T11:52:50+08:00*%
%TF.ProjectId,epd-clock,6570642d-636c-46f6-936b-2e6b69636164,rev?*%
%TF.SameCoordinates,Original*%
%TF.FileFunction,Legend,Bot*%
%TF.FilePolarity,Positive*%
%FSLAX46Y46*%
G04 Gerber Fmt 4.6, Leading zero omitted, Abs format (unit mm)*
G04 Created by KiCad (PCBNEW 5.1.9+dfsg1-1~bpo10+1) date 2021-08-28 11:52:50*
%MOMM*%
%LPD*%
G01*
G04 APERTURE LIST*
%ADD10C,0.120000*%
%ADD11C,0.150000*%
%ADD12C,0.200000*%
%ADD13C,0.500000*%
G04 APERTURE END LIST*
D10*
X160925000Y-115100000D02*
X160225000Y-115700000D01*
X160925000Y-108850000D02*
X160925000Y-115100000D01*
D11*
X167127380Y-110661904D02*
X167175000Y-110614285D01*
X167222619Y-110519047D01*
X167222619Y-110280952D01*
X167175000Y-110185714D01*
X167127380Y-110138095D01*
X167032142Y-110090476D01*
X166936904Y-110090476D01*
X166794047Y-110138095D01*
X166222619Y-110709523D01*
X166222619Y-110090476D01*
X166889285Y-109233333D02*
X166222619Y-109233333D01*
X167270238Y-109471428D02*
X166555952Y-109709523D01*
X166555952Y-109090476D01*
X166222619Y-125714285D02*
X166222619Y-126285714D01*
X166222619Y-126000000D02*
X167222619Y-126000000D01*
X167079761Y-126095238D01*
X166984523Y-126190476D01*
X166936904Y-126285714D01*
X115146428Y-125628571D02*
X115003571Y-125676190D01*
X114955952Y-125723809D01*
X114908333Y-125819047D01*
X114908333Y-125961904D01*
X114955952Y-126057142D01*
X115003571Y-126104761D01*
X115098809Y-126152380D01*
X115479761Y-126152380D01*
X115479761Y-125152380D01*
X115146428Y-125152380D01*
X115051190Y-125200000D01*
X115003571Y-125247619D01*
X114955952Y-125342857D01*
X114955952Y-125438095D01*
X115003571Y-125533333D01*
X115051190Y-125580952D01*
X115146428Y-125628571D01*
X115479761Y-125628571D01*
X114051190Y-126152380D02*
X114051190Y-125628571D01*
X114098809Y-125533333D01*
X114194047Y-125485714D01*
X114384523Y-125485714D01*
X114479761Y-125533333D01*
X114051190Y-126104761D02*
X114146428Y-126152380D01*
X114384523Y-126152380D01*
X114479761Y-126104761D01*
X114527380Y-126009523D01*
X114527380Y-125914285D01*
X114479761Y-125819047D01*
X114384523Y-125771428D01*
X114146428Y-125771428D01*
X114051190Y-125723809D01*
X113717857Y-125485714D02*
X113336904Y-125485714D01*
X113575000Y-125152380D02*
X113575000Y-126009523D01*
X113527380Y-126104761D01*
X113432142Y-126152380D01*
X113336904Y-126152380D01*
X113146428Y-125485714D02*
X112765476Y-125485714D01*
X113003571Y-125152380D02*
X113003571Y-126009523D01*
X112955952Y-126104761D01*
X112860714Y-126152380D01*
X112765476Y-126152380D01*
X112051190Y-126104761D02*
X112146428Y-126152380D01*
X112336904Y-126152380D01*
X112432142Y-126104761D01*
X112479761Y-126009523D01*
X112479761Y-125628571D01*
X112432142Y-125533333D01*
X112336904Y-125485714D01*
X112146428Y-125485714D01*
X112051190Y-125533333D01*
X112003571Y-125628571D01*
X112003571Y-125723809D01*
X112479761Y-125819047D01*
X111575000Y-126152380D02*
X111575000Y-125485714D01*
X111575000Y-125676190D02*
X111527380Y-125580952D01*
X111479761Y-125533333D01*
X111384523Y-125485714D01*
X111289285Y-125485714D01*
X111051190Y-125485714D02*
X110813095Y-126152380D01*
X110575000Y-125485714D02*
X110813095Y-126152380D01*
X110908333Y-126390476D01*
X110955952Y-126438095D01*
X111051190Y-126485714D01*
X110194047Y-125771428D02*
X109432142Y-125771428D01*
X109098809Y-125152380D02*
X108527380Y-125152380D01*
X108813095Y-126152380D02*
X108813095Y-125152380D01*
X108194047Y-126152380D02*
X108194047Y-125152380D01*
X107813095Y-125152380D01*
X107717857Y-125200000D01*
X107670238Y-125247619D01*
X107622619Y-125342857D01*
X107622619Y-125485714D01*
X107670238Y-125580952D01*
X107717857Y-125628571D01*
X107813095Y-125676190D01*
X108194047Y-125676190D01*
D12*
X116937690Y-101988240D02*
X116499957Y-101550507D01*
X116466286Y-102055583D01*
X116365270Y-101954568D01*
X116264255Y-101920896D01*
X116196912Y-101920896D01*
X116095896Y-101954568D01*
X115927538Y-102122927D01*
X115893866Y-102223942D01*
X115893866Y-102291286D01*
X115927538Y-102392301D01*
X116129568Y-102594331D01*
X116230583Y-102628003D01*
X116297927Y-102628003D01*
X116297927Y-101348477D02*
X115355118Y-101819881D01*
X115826522Y-100877072D01*
X115658164Y-100708713D02*
X115220431Y-100270981D01*
X115186759Y-100776057D01*
X115085744Y-100675042D01*
X114984729Y-100641370D01*
X114917385Y-100641370D01*
X114816370Y-100675042D01*
X114648011Y-100843400D01*
X114614339Y-100944416D01*
X114614339Y-101011759D01*
X114648011Y-101112774D01*
X114850042Y-101314805D01*
X114951057Y-101348477D01*
X115018400Y-101348477D01*
X119267301Y-101685194D02*
X119368316Y-101718866D01*
X119469331Y-101819881D01*
X119536675Y-101954568D01*
X119536675Y-102089255D01*
X119503003Y-102190270D01*
X119401988Y-102358629D01*
X119300973Y-102459644D01*
X119132614Y-102560660D01*
X119031599Y-102594331D01*
X118896912Y-102594331D01*
X118762225Y-102526988D01*
X118694881Y-102459644D01*
X118627538Y-102324957D01*
X118627538Y-102257614D01*
X118863240Y-102021912D01*
X118997927Y-102156599D01*
X118257148Y-102021912D02*
X118964255Y-101314805D01*
X117853087Y-101617851D01*
X118560194Y-100910744D01*
X117516370Y-101281133D02*
X118223477Y-100574026D01*
X118055118Y-100405668D01*
X117920431Y-100338324D01*
X117785744Y-100338324D01*
X117684729Y-100371996D01*
X117516370Y-100473011D01*
X117415355Y-100574026D01*
X117314339Y-100742385D01*
X117280668Y-100843400D01*
X117280668Y-100978087D01*
X117348011Y-101112774D01*
X117516370Y-101281133D01*
X121954526Y-101905076D02*
X121550465Y-101501015D01*
X121045389Y-102410152D02*
X121752496Y-101703045D01*
X121382106Y-101332656D02*
X120203595Y-101568358D01*
X120910702Y-100861251D02*
X120675000Y-102039763D01*
X119934221Y-101298984D02*
X120641328Y-100591877D01*
X120472969Y-100423519D01*
X120338282Y-100356175D01*
X120203595Y-100356175D01*
X120102580Y-100389847D01*
X119934221Y-100490862D01*
X119833206Y-100591877D01*
X119732190Y-100760236D01*
X119698519Y-100861251D01*
X119698519Y-100995938D01*
X119765862Y-101130625D01*
X119934221Y-101298984D01*
X123426522Y-102291286D02*
X123998942Y-102190270D01*
X123830583Y-102695347D02*
X124537690Y-101988240D01*
X124268316Y-101718866D01*
X124167301Y-101685194D01*
X124099957Y-101685194D01*
X123998942Y-101718866D01*
X123897927Y-101819881D01*
X123864255Y-101920896D01*
X123864255Y-101988240D01*
X123897927Y-102089255D01*
X124167301Y-102358629D01*
X123897927Y-101348477D02*
X122719416Y-101584179D01*
X123426522Y-100877072D02*
X123190820Y-102055583D01*
X122450042Y-101314805D02*
X123157148Y-100607698D01*
X122988790Y-100439339D01*
X122854103Y-100371996D01*
X122719416Y-100371996D01*
X122618400Y-100405668D01*
X122450042Y-100506683D01*
X122349026Y-100607698D01*
X122248011Y-100776057D01*
X122214339Y-100877072D01*
X122214339Y-101011759D01*
X122281683Y-101146446D01*
X122450042Y-101314805D01*
X127490228Y-102540778D02*
X127086167Y-102136717D01*
X126581091Y-103045854D02*
X127288198Y-102338748D01*
X126513748Y-102237732D02*
X126278045Y-102002030D01*
X125806641Y-102271404D02*
X126143358Y-102608122D01*
X126850465Y-101901015D01*
X126513748Y-101564297D01*
X125570938Y-101968358D02*
X125436251Y-101901015D01*
X125267893Y-101732656D01*
X125234221Y-101631641D01*
X125234221Y-101564297D01*
X125267893Y-101463282D01*
X125335236Y-101395938D01*
X125436251Y-101362267D01*
X125503595Y-101362267D01*
X125604610Y-101395938D01*
X125772969Y-101496954D01*
X125873984Y-101530625D01*
X125941328Y-101530625D01*
X126042343Y-101496954D01*
X126109687Y-101429610D01*
X126143358Y-101328595D01*
X126143358Y-101261251D01*
X126109687Y-101160236D01*
X125941328Y-100991877D01*
X125806641Y-100924534D01*
X125638282Y-100688832D02*
X125234221Y-100284771D01*
X124729145Y-101193908D02*
X125436251Y-100486801D01*
X128342343Y-102307106D02*
X128914763Y-102206091D01*
X128746404Y-102711167D02*
X129453511Y-102004061D01*
X129184137Y-101734687D01*
X129083122Y-101701015D01*
X129015778Y-101701015D01*
X128914763Y-101734687D01*
X128813748Y-101835702D01*
X128780076Y-101936717D01*
X128780076Y-102004061D01*
X128813748Y-102105076D01*
X129083122Y-102374450D01*
X128106641Y-102004061D02*
X127971954Y-101936717D01*
X127803595Y-101768358D01*
X127769923Y-101667343D01*
X127769923Y-101600000D01*
X127803595Y-101498984D01*
X127870938Y-101431641D01*
X127971954Y-101397969D01*
X128039297Y-101397969D01*
X128140312Y-101431641D01*
X128308671Y-101532656D01*
X128409687Y-101566328D01*
X128477030Y-101566328D01*
X128578045Y-101532656D01*
X128645389Y-101465312D01*
X128679061Y-101364297D01*
X128679061Y-101296954D01*
X128645389Y-101195938D01*
X128477030Y-101027580D01*
X128342343Y-100960236D01*
X128173984Y-100724534D02*
X127769923Y-100320473D01*
X127264847Y-101229610D02*
X127971954Y-100522503D01*
D10*
%TO.C,D3*%
X158325000Y-110800000D02*
X158325000Y-114700000D01*
X160325000Y-110800000D02*
X160325000Y-114700000D01*
X158325000Y-110800000D02*
X160325000Y-110800000D01*
%TO.C,Q3*%
X160585000Y-120620000D02*
X159125000Y-120620000D01*
X160585000Y-123780000D02*
X158425000Y-123780000D01*
X160585000Y-123780000D02*
X160585000Y-122850000D01*
X160585000Y-120620000D02*
X160585000Y-121550000D01*
%TO.C,L2*%
X160729000Y-120104000D02*
X160729000Y-115796000D01*
X156421000Y-115796000D02*
X156421000Y-120104000D01*
%TO.C,C10*%
X154736252Y-117485000D02*
X154213748Y-117485000D01*
X154736252Y-116015000D02*
X154213748Y-116015000D01*
%TO.C,D1*%
X153525000Y-110800000D02*
X155525000Y-110800000D01*
X155525000Y-110800000D02*
X155525000Y-114700000D01*
X153525000Y-110800000D02*
X153525000Y-114700000D01*
%TO.C,R12*%
X129812258Y-104677500D02*
X129337742Y-104677500D01*
X129812258Y-105722500D02*
X129337742Y-105722500D01*
%TO.C,R3*%
X156762258Y-123722500D02*
X156287742Y-123722500D01*
X156762258Y-122677500D02*
X156287742Y-122677500D01*
%TO.C,R9*%
X137837742Y-106622500D02*
X138312258Y-106622500D01*
X137837742Y-105577500D02*
X138312258Y-105577500D01*
%TO.C,R8*%
X144512258Y-107177500D02*
X144037742Y-107177500D01*
X144512258Y-108222500D02*
X144037742Y-108222500D01*
%TO.C,R7*%
X144512258Y-105577500D02*
X144037742Y-105577500D01*
X144512258Y-106622500D02*
X144037742Y-106622500D01*
%TO.C,R2*%
X153352500Y-105912742D02*
X153352500Y-106387258D01*
X154397500Y-105912742D02*
X154397500Y-106387258D01*
%TO.C,J1*%
X171115000Y-109273000D02*
X171115000Y-109163000D01*
X171115000Y-109163000D02*
X171715000Y-109163000D01*
X171115000Y-126703000D02*
X171115000Y-126813000D01*
X171115000Y-126813000D02*
X171715000Y-126813000D01*
X168525000Y-112038000D02*
X168925000Y-112238000D01*
X168925000Y-112238000D02*
X168525000Y-112438000D01*
X168525000Y-112438000D02*
X168525000Y-112038000D01*
%TO.C,R4*%
X156762258Y-121722500D02*
X156287742Y-121722500D01*
X156762258Y-120677500D02*
X156287742Y-120677500D01*
%TO.C,R18*%
X139412258Y-118222500D02*
X138937742Y-118222500D01*
X139412258Y-117177500D02*
X138937742Y-117177500D01*
%TO.C,R11*%
X129812258Y-103077500D02*
X129337742Y-103077500D01*
X129812258Y-104122500D02*
X129337742Y-104122500D01*
%TO.C,JP2*%
X113075000Y-114600000D02*
X114475000Y-114600000D01*
X115175000Y-113900000D02*
X115175000Y-113300000D01*
X114475000Y-112600000D02*
X113075000Y-112600000D01*
X112375000Y-113300000D02*
X112375000Y-113900000D01*
X112375000Y-113900000D02*
G75*
G03*
X113075000Y-114600000I700000J0D01*
G01*
X113075000Y-112600000D02*
G75*
G03*
X112375000Y-113300000I0J-700000D01*
G01*
X115175000Y-113300000D02*
G75*
G03*
X114475000Y-112600000I-700000J0D01*
G01*
X114475000Y-114600000D02*
G75*
G03*
X115175000Y-113900000I0J700000D01*
G01*
%TO.C,C2*%
X116665000Y-118511252D02*
X116665000Y-117088748D01*
X118485000Y-118511252D02*
X118485000Y-117088748D01*
%TO.C,BT1*%
X163401000Y-127018000D02*
X109001000Y-127018000D01*
X109001000Y-127018000D02*
X109001000Y-139518000D01*
X109001000Y-139518000D02*
X163401000Y-139518000D01*
X163401000Y-139518000D02*
X163401000Y-127018000D01*
%TO.C,JP1*%
X118375000Y-123300000D02*
X118375000Y-121900000D01*
X117675000Y-121200000D02*
X117075000Y-121200000D01*
X116375000Y-121900000D02*
X116375000Y-123300000D01*
X117075000Y-124000000D02*
X117675000Y-124000000D01*
X117675000Y-124000000D02*
G75*
G03*
X118375000Y-123300000I0J700000D01*
G01*
X116375000Y-123300000D02*
G75*
G03*
X117075000Y-124000000I700000J0D01*
G01*
X117075000Y-121200000D02*
G75*
G03*
X116375000Y-121900000I0J-700000D01*
G01*
X118375000Y-121900000D02*
G75*
G03*
X117675000Y-121200000I-700000J0D01*
G01*
%TO.C,TP6*%
X120975000Y-99100000D02*
G75*
G03*
X120975000Y-99100000I-700000J0D01*
G01*
%TO.C,TP5*%
X123475000Y-99100000D02*
G75*
G03*
X123475000Y-99100000I-700000J0D01*
G01*
%TO.C,TP4*%
X125975000Y-99100000D02*
G75*
G03*
X125975000Y-99100000I-700000J0D01*
G01*
%TO.C,TP3*%
X128475000Y-99100000D02*
G75*
G03*
X128475000Y-99100000I-700000J0D01*
G01*
%TO.C,TP2*%
X118475000Y-99100000D02*
G75*
G03*
X118475000Y-99100000I-700000J0D01*
G01*
%TO.C,TP1*%
X115975000Y-99100000D02*
G75*
G03*
X115975000Y-99100000I-700000J0D01*
G01*
%TO.C,R14*%
X144037742Y-103977500D02*
X144512258Y-103977500D01*
X144037742Y-105022500D02*
X144512258Y-105022500D01*
%TO.C,R13*%
X138312258Y-108222500D02*
X137837742Y-108222500D01*
X138312258Y-107177500D02*
X137837742Y-107177500D01*
%TO.C,R15*%
X108037742Y-116777500D02*
X108512258Y-116777500D01*
X108037742Y-117822500D02*
X108512258Y-117822500D01*
%TO.C,SW1*%
X98145000Y-116370000D02*
X98145000Y-116400000D01*
X98145000Y-122830000D02*
X98145000Y-122800000D01*
X104605000Y-122830000D02*
X104605000Y-122800000D01*
X104605000Y-116400000D02*
X104605000Y-116370000D01*
X98145000Y-118300000D02*
X98145000Y-120900000D01*
X104605000Y-116370000D02*
X98145000Y-116370000D01*
X104605000Y-118300000D02*
X104605000Y-120900000D01*
X104605000Y-122830000D02*
X98145000Y-122830000D01*
%TO.C,SW3*%
X98145000Y-99970000D02*
X98145000Y-100000000D01*
X98145000Y-106430000D02*
X98145000Y-106400000D01*
X104605000Y-106430000D02*
X104605000Y-106400000D01*
X104605000Y-100000000D02*
X104605000Y-99970000D01*
X98145000Y-101900000D02*
X98145000Y-104500000D01*
X104605000Y-99970000D02*
X98145000Y-99970000D01*
X104605000Y-101900000D02*
X104605000Y-104500000D01*
X104605000Y-106430000D02*
X98145000Y-106430000D01*
%TO.C,SW2*%
X98145000Y-108170000D02*
X98145000Y-108200000D01*
X98145000Y-114630000D02*
X98145000Y-114600000D01*
X104605000Y-114630000D02*
X104605000Y-114600000D01*
X104605000Y-108200000D02*
X104605000Y-108170000D01*
X98145000Y-110100000D02*
X98145000Y-112700000D01*
X104605000Y-108170000D02*
X98145000Y-108170000D01*
X104605000Y-110100000D02*
X104605000Y-112700000D01*
X104605000Y-114630000D02*
X98145000Y-114630000D01*
%TO.C,C17*%
X124934420Y-118410000D02*
X125215580Y-118410000D01*
X124934420Y-117390000D02*
X125215580Y-117390000D01*
%TO.C,C1*%
X120185000Y-118740580D02*
X120185000Y-118459420D01*
X119165000Y-118740580D02*
X119165000Y-118459420D01*
%TO.C,C4*%
X163415580Y-123060000D02*
X163134420Y-123060000D01*
X163415580Y-122040000D02*
X163134420Y-122040000D01*
%TO.C,C5*%
X163415580Y-124610000D02*
X163134420Y-124610000D01*
X163415580Y-123590000D02*
X163134420Y-123590000D01*
%TO.C,C12*%
X155415580Y-110260000D02*
X155134420Y-110260000D01*
X155415580Y-109240000D02*
X155134420Y-109240000D01*
%TO.C,C3*%
X163415580Y-118090000D02*
X163134420Y-118090000D01*
X163415580Y-119110000D02*
X163134420Y-119110000D01*
%TO.C,C9*%
X158715580Y-110260000D02*
X158434420Y-110260000D01*
X158715580Y-109240000D02*
X158434420Y-109240000D01*
%TO.C,C6*%
X154384420Y-119660000D02*
X154665580Y-119660000D01*
X154384420Y-118640000D02*
X154665580Y-118640000D01*
%TO.C,C7*%
X163415580Y-119640000D02*
X163134420Y-119640000D01*
X163415580Y-120660000D02*
X163134420Y-120660000D01*
%TO.C,C8*%
X163415580Y-116540000D02*
X163134420Y-116540000D01*
X163415580Y-117560000D02*
X163134420Y-117560000D01*
%TO.C,C11*%
X163415580Y-116010000D02*
X163134420Y-116010000D01*
X163415580Y-114990000D02*
X163134420Y-114990000D01*
%TO.C,C13*%
X163415580Y-114460000D02*
X163134420Y-114460000D01*
X163415580Y-113440000D02*
X163134420Y-113440000D01*
%TO.C,C14*%
X163415580Y-111890000D02*
X163134420Y-111890000D01*
X163415580Y-112910000D02*
X163134420Y-112910000D01*
%TO.C,C15*%
X163415580Y-110340000D02*
X163134420Y-110340000D01*
X163415580Y-111360000D02*
X163134420Y-111360000D01*
%TO.C,C16*%
X129741000Y-118509420D02*
X129741000Y-118790580D01*
X130761000Y-118509420D02*
X130761000Y-118790580D01*
%TO.C,C18*%
X144215580Y-115810000D02*
X143934420Y-115810000D01*
X144215580Y-114790000D02*
X143934420Y-114790000D01*
%TO.C,C19*%
X142146420Y-118404000D02*
X142427580Y-118404000D01*
X142146420Y-117384000D02*
X142427580Y-117384000D01*
%TO.C,C20*%
X142146420Y-123484000D02*
X142427580Y-123484000D01*
X142146420Y-122464000D02*
X142427580Y-122464000D01*
%TO.C,C21*%
X135390580Y-118210000D02*
X135109420Y-118210000D01*
X135390580Y-117190000D02*
X135109420Y-117190000D01*
%TO.C,D2*%
X157925000Y-115300000D02*
X157925000Y-111400000D01*
X155925000Y-115300000D02*
X155925000Y-111400000D01*
X157925000Y-115300000D02*
X155925000Y-115300000D01*
%TO.C,L1*%
X111321000Y-120346000D02*
X111321000Y-124654000D01*
X115629000Y-124654000D02*
X115629000Y-120346000D01*
%TO.C,Q1*%
X119095000Y-121840000D02*
X120025000Y-121840000D01*
X122255000Y-121840000D02*
X121325000Y-121840000D01*
X122255000Y-121840000D02*
X122255000Y-124000000D01*
X119095000Y-121840000D02*
X119095000Y-123300000D01*
%TO.C,Q2*%
X157135000Y-104570000D02*
X157135000Y-105500000D01*
X157135000Y-107730000D02*
X157135000Y-106800000D01*
X157135000Y-107730000D02*
X154975000Y-107730000D01*
X157135000Y-104570000D02*
X155675000Y-104570000D01*
%TO.C,R1*%
X121797500Y-118362742D02*
X121797500Y-118837258D01*
X120752500Y-118362742D02*
X120752500Y-118837258D01*
%TO.C,R5*%
X169337742Y-106277500D02*
X169812258Y-106277500D01*
X169337742Y-107322500D02*
X169812258Y-107322500D01*
%TO.C,R6*%
X169337742Y-104677500D02*
X169812258Y-104677500D01*
X169337742Y-105722500D02*
X169812258Y-105722500D01*
%TO.C,R10*%
X129249500Y-118887258D02*
X129249500Y-118412742D01*
X128204500Y-118887258D02*
X128204500Y-118412742D01*
%TO.C,R16*%
X108037742Y-109622500D02*
X108512258Y-109622500D01*
X108037742Y-108577500D02*
X108512258Y-108577500D01*
%TO.C,R17*%
X108037742Y-100377500D02*
X108512258Y-100377500D01*
X108037742Y-101422500D02*
X108512258Y-101422500D01*
%TO.C,U1*%
X112625000Y-115940000D02*
X111315000Y-115940000D01*
X111315000Y-115940000D02*
X111315000Y-118660000D01*
X115805000Y-119800000D02*
X115805000Y-118660000D01*
X116035000Y-115940000D02*
X114725000Y-115940000D01*
X116035000Y-118660000D02*
X116035000Y-115940000D01*
X116035000Y-118660000D02*
X115805000Y-118660000D01*
X111315000Y-118660000D02*
X111545000Y-118660000D01*
%TO.C,U2*%
X124893000Y-116477000D02*
X123603000Y-116477000D01*
X124893000Y-116752000D02*
X124893000Y-116477000D01*
X127203000Y-116752000D02*
X124893000Y-116752000D01*
X129513000Y-116752000D02*
X129513000Y-116477000D01*
X127203000Y-116752000D02*
X129513000Y-116752000D01*
X124893000Y-106832000D02*
X124893000Y-107107000D01*
X127203000Y-106832000D02*
X124893000Y-106832000D01*
X129513000Y-106832000D02*
X129513000Y-107107000D01*
X127203000Y-106832000D02*
X129513000Y-106832000D01*
%TO.C,U3*%
X138445500Y-114019000D02*
X136793000Y-114019000D01*
X138445500Y-114301500D02*
X138445500Y-114019000D01*
X141193000Y-114301500D02*
X138445500Y-114301500D01*
X143940500Y-114301500D02*
X143940500Y-114019000D01*
X141193000Y-114301500D02*
X143940500Y-114301500D01*
X138445500Y-108806500D02*
X138445500Y-109089000D01*
X141193000Y-108806500D02*
X138445500Y-108806500D01*
X143940500Y-108806500D02*
X143940500Y-109089000D01*
X141193000Y-108806500D02*
X143940500Y-108806500D01*
%TO.C,U4*%
X136953000Y-124010000D02*
X135003000Y-124010000D01*
X136953000Y-124010000D02*
X138903000Y-124010000D01*
X136953000Y-118890000D02*
X135003000Y-118890000D01*
X136953000Y-118890000D02*
X140403000Y-118890000D01*
%TO.C,Y1*%
X143913000Y-118984000D02*
X143413000Y-118984000D01*
X143413000Y-118984000D02*
X143413000Y-121884000D01*
X143413000Y-121884000D02*
X143913000Y-121884000D01*
X143413000Y-120084000D02*
X142513000Y-119484000D01*
X142513000Y-119484000D02*
X142313000Y-119484000D01*
X143413000Y-120784000D02*
X142513000Y-121384000D01*
X142513000Y-121384000D02*
X142313000Y-121384000D01*
%TO.C,D3*%
D11*
X153213095Y-111852380D02*
X153213095Y-110852380D01*
X152975000Y-110852380D01*
X152832142Y-110900000D01*
X152736904Y-110995238D01*
X152689285Y-111090476D01*
X152641666Y-111280952D01*
X152641666Y-111423809D01*
X152689285Y-111614285D01*
X152736904Y-111709523D01*
X152832142Y-111804761D01*
X152975000Y-111852380D01*
X153213095Y-111852380D01*
X152308333Y-110852380D02*
X151689285Y-110852380D01*
X152022619Y-111233333D01*
X151879761Y-111233333D01*
X151784523Y-111280952D01*
X151736904Y-111328571D01*
X151689285Y-111423809D01*
X151689285Y-111661904D01*
X151736904Y-111757142D01*
X151784523Y-111804761D01*
X151879761Y-111852380D01*
X152165476Y-111852380D01*
X152260714Y-111804761D01*
X152308333Y-111757142D01*
%TO.C,Q3*%
X159920238Y-125247619D02*
X160015476Y-125200000D01*
X160110714Y-125104761D01*
X160253571Y-124961904D01*
X160348809Y-124914285D01*
X160444047Y-124914285D01*
X160396428Y-125152380D02*
X160491666Y-125104761D01*
X160586904Y-125009523D01*
X160634523Y-124819047D01*
X160634523Y-124485714D01*
X160586904Y-124295238D01*
X160491666Y-124200000D01*
X160396428Y-124152380D01*
X160205952Y-124152380D01*
X160110714Y-124200000D01*
X160015476Y-124295238D01*
X159967857Y-124485714D01*
X159967857Y-124819047D01*
X160015476Y-125009523D01*
X160110714Y-125104761D01*
X160205952Y-125152380D01*
X160396428Y-125152380D01*
X159634523Y-124152380D02*
X159015476Y-124152380D01*
X159348809Y-124533333D01*
X159205952Y-124533333D01*
X159110714Y-124580952D01*
X159063095Y-124628571D01*
X159015476Y-124723809D01*
X159015476Y-124961904D01*
X159063095Y-125057142D01*
X159110714Y-125104761D01*
X159205952Y-125152380D01*
X159491666Y-125152380D01*
X159586904Y-125104761D01*
X159634523Y-125057142D01*
%TO.C,L2*%
X160991666Y-108552380D02*
X161467857Y-108552380D01*
X161467857Y-107552380D01*
X160705952Y-107647619D02*
X160658333Y-107600000D01*
X160563095Y-107552380D01*
X160325000Y-107552380D01*
X160229761Y-107600000D01*
X160182142Y-107647619D01*
X160134523Y-107742857D01*
X160134523Y-107838095D01*
X160182142Y-107980952D01*
X160753571Y-108552380D01*
X160134523Y-108552380D01*
%TO.C,C10*%
X151917857Y-117057142D02*
X151965476Y-117104761D01*
X152108333Y-117152380D01*
X152203571Y-117152380D01*
X152346428Y-117104761D01*
X152441666Y-117009523D01*
X152489285Y-116914285D01*
X152536904Y-116723809D01*
X152536904Y-116580952D01*
X152489285Y-116390476D01*
X152441666Y-116295238D01*
X152346428Y-116200000D01*
X152203571Y-116152380D01*
X152108333Y-116152380D01*
X151965476Y-116200000D01*
X151917857Y-116247619D01*
X150965476Y-117152380D02*
X151536904Y-117152380D01*
X151251190Y-117152380D02*
X151251190Y-116152380D01*
X151346428Y-116295238D01*
X151441666Y-116390476D01*
X151536904Y-116438095D01*
X150346428Y-116152380D02*
X150251190Y-116152380D01*
X150155952Y-116200000D01*
X150108333Y-116247619D01*
X150060714Y-116342857D01*
X150013095Y-116533333D01*
X150013095Y-116771428D01*
X150060714Y-116961904D01*
X150108333Y-117057142D01*
X150155952Y-117104761D01*
X150251190Y-117152380D01*
X150346428Y-117152380D01*
X150441666Y-117104761D01*
X150489285Y-117057142D01*
X150536904Y-116961904D01*
X150584523Y-116771428D01*
X150584523Y-116533333D01*
X150536904Y-116342857D01*
X150489285Y-116247619D01*
X150441666Y-116200000D01*
X150346428Y-116152380D01*
%TO.C,D1*%
X153213095Y-114352380D02*
X153213095Y-113352380D01*
X152975000Y-113352380D01*
X152832142Y-113400000D01*
X152736904Y-113495238D01*
X152689285Y-113590476D01*
X152641666Y-113780952D01*
X152641666Y-113923809D01*
X152689285Y-114114285D01*
X152736904Y-114209523D01*
X152832142Y-114304761D01*
X152975000Y-114352380D01*
X153213095Y-114352380D01*
X151689285Y-114352380D02*
X152260714Y-114352380D01*
X151975000Y-114352380D02*
X151975000Y-113352380D01*
X152070238Y-113495238D01*
X152165476Y-113590476D01*
X152260714Y-113638095D01*
%TO.C,R12*%
X133417857Y-105652380D02*
X133751190Y-105176190D01*
X133989285Y-105652380D02*
X133989285Y-104652380D01*
X133608333Y-104652380D01*
X133513095Y-104700000D01*
X133465476Y-104747619D01*
X133417857Y-104842857D01*
X133417857Y-104985714D01*
X133465476Y-105080952D01*
X133513095Y-105128571D01*
X133608333Y-105176190D01*
X133989285Y-105176190D01*
X132465476Y-105652380D02*
X133036904Y-105652380D01*
X132751190Y-105652380D02*
X132751190Y-104652380D01*
X132846428Y-104795238D01*
X132941666Y-104890476D01*
X133036904Y-104938095D01*
X132084523Y-104747619D02*
X132036904Y-104700000D01*
X131941666Y-104652380D01*
X131703571Y-104652380D01*
X131608333Y-104700000D01*
X131560714Y-104747619D01*
X131513095Y-104842857D01*
X131513095Y-104938095D01*
X131560714Y-105080952D01*
X132132142Y-105652380D01*
X131513095Y-105652380D01*
%TO.C,R3*%
X154141666Y-123652380D02*
X154475000Y-123176190D01*
X154713095Y-123652380D02*
X154713095Y-122652380D01*
X154332142Y-122652380D01*
X154236904Y-122700000D01*
X154189285Y-122747619D01*
X154141666Y-122842857D01*
X154141666Y-122985714D01*
X154189285Y-123080952D01*
X154236904Y-123128571D01*
X154332142Y-123176190D01*
X154713095Y-123176190D01*
X153808333Y-122652380D02*
X153189285Y-122652380D01*
X153522619Y-123033333D01*
X153379761Y-123033333D01*
X153284523Y-123080952D01*
X153236904Y-123128571D01*
X153189285Y-123223809D01*
X153189285Y-123461904D01*
X153236904Y-123557142D01*
X153284523Y-123604761D01*
X153379761Y-123652380D01*
X153665476Y-123652380D01*
X153760714Y-123604761D01*
X153808333Y-123557142D01*
%TO.C,R9*%
X135741666Y-106552380D02*
X136075000Y-106076190D01*
X136313095Y-106552380D02*
X136313095Y-105552380D01*
X135932142Y-105552380D01*
X135836904Y-105600000D01*
X135789285Y-105647619D01*
X135741666Y-105742857D01*
X135741666Y-105885714D01*
X135789285Y-105980952D01*
X135836904Y-106028571D01*
X135932142Y-106076190D01*
X136313095Y-106076190D01*
X135265476Y-106552380D02*
X135075000Y-106552380D01*
X134979761Y-106504761D01*
X134932142Y-106457142D01*
X134836904Y-106314285D01*
X134789285Y-106123809D01*
X134789285Y-105742857D01*
X134836904Y-105647619D01*
X134884523Y-105600000D01*
X134979761Y-105552380D01*
X135170238Y-105552380D01*
X135265476Y-105600000D01*
X135313095Y-105647619D01*
X135360714Y-105742857D01*
X135360714Y-105980952D01*
X135313095Y-106076190D01*
X135265476Y-106123809D01*
X135170238Y-106171428D01*
X134979761Y-106171428D01*
X134884523Y-106123809D01*
X134836904Y-106076190D01*
X134789285Y-105980952D01*
%TO.C,R8*%
X147091666Y-108152380D02*
X147425000Y-107676190D01*
X147663095Y-108152380D02*
X147663095Y-107152380D01*
X147282142Y-107152380D01*
X147186904Y-107200000D01*
X147139285Y-107247619D01*
X147091666Y-107342857D01*
X147091666Y-107485714D01*
X147139285Y-107580952D01*
X147186904Y-107628571D01*
X147282142Y-107676190D01*
X147663095Y-107676190D01*
X146520238Y-107580952D02*
X146615476Y-107533333D01*
X146663095Y-107485714D01*
X146710714Y-107390476D01*
X146710714Y-107342857D01*
X146663095Y-107247619D01*
X146615476Y-107200000D01*
X146520238Y-107152380D01*
X146329761Y-107152380D01*
X146234523Y-107200000D01*
X146186904Y-107247619D01*
X146139285Y-107342857D01*
X146139285Y-107390476D01*
X146186904Y-107485714D01*
X146234523Y-107533333D01*
X146329761Y-107580952D01*
X146520238Y-107580952D01*
X146615476Y-107628571D01*
X146663095Y-107676190D01*
X146710714Y-107771428D01*
X146710714Y-107961904D01*
X146663095Y-108057142D01*
X146615476Y-108104761D01*
X146520238Y-108152380D01*
X146329761Y-108152380D01*
X146234523Y-108104761D01*
X146186904Y-108057142D01*
X146139285Y-107961904D01*
X146139285Y-107771428D01*
X146186904Y-107676190D01*
X146234523Y-107628571D01*
X146329761Y-107580952D01*
%TO.C,R7*%
X146991666Y-106552380D02*
X147325000Y-106076190D01*
X147563095Y-106552380D02*
X147563095Y-105552380D01*
X147182142Y-105552380D01*
X147086904Y-105600000D01*
X147039285Y-105647619D01*
X146991666Y-105742857D01*
X146991666Y-105885714D01*
X147039285Y-105980952D01*
X147086904Y-106028571D01*
X147182142Y-106076190D01*
X147563095Y-106076190D01*
X146658333Y-105552380D02*
X145991666Y-105552380D01*
X146420238Y-106552380D01*
%TO.C,R2*%
X154041666Y-104202380D02*
X154375000Y-103726190D01*
X154613095Y-104202380D02*
X154613095Y-103202380D01*
X154232142Y-103202380D01*
X154136904Y-103250000D01*
X154089285Y-103297619D01*
X154041666Y-103392857D01*
X154041666Y-103535714D01*
X154089285Y-103630952D01*
X154136904Y-103678571D01*
X154232142Y-103726190D01*
X154613095Y-103726190D01*
X153660714Y-103297619D02*
X153613095Y-103250000D01*
X153517857Y-103202380D01*
X153279761Y-103202380D01*
X153184523Y-103250000D01*
X153136904Y-103297619D01*
X153089285Y-103392857D01*
X153089285Y-103488095D01*
X153136904Y-103630952D01*
X153708333Y-104202380D01*
X153089285Y-104202380D01*
%TO.C,J1*%
X169608333Y-127490380D02*
X169608333Y-128204666D01*
X169655952Y-128347523D01*
X169751190Y-128442761D01*
X169894047Y-128490380D01*
X169989285Y-128490380D01*
X168608333Y-128490380D02*
X169179761Y-128490380D01*
X168894047Y-128490380D02*
X168894047Y-127490380D01*
X168989285Y-127633238D01*
X169084523Y-127728476D01*
X169179761Y-127776095D01*
%TO.C,R4*%
X154141666Y-121652380D02*
X154475000Y-121176190D01*
X154713095Y-121652380D02*
X154713095Y-120652380D01*
X154332142Y-120652380D01*
X154236904Y-120700000D01*
X154189285Y-120747619D01*
X154141666Y-120842857D01*
X154141666Y-120985714D01*
X154189285Y-121080952D01*
X154236904Y-121128571D01*
X154332142Y-121176190D01*
X154713095Y-121176190D01*
X153284523Y-120985714D02*
X153284523Y-121652380D01*
X153522619Y-120604761D02*
X153760714Y-121319047D01*
X153141666Y-121319047D01*
%TO.C,R18*%
X139817857Y-116722380D02*
X140151190Y-116246190D01*
X140389285Y-116722380D02*
X140389285Y-115722380D01*
X140008333Y-115722380D01*
X139913095Y-115770000D01*
X139865476Y-115817619D01*
X139817857Y-115912857D01*
X139817857Y-116055714D01*
X139865476Y-116150952D01*
X139913095Y-116198571D01*
X140008333Y-116246190D01*
X140389285Y-116246190D01*
X138865476Y-116722380D02*
X139436904Y-116722380D01*
X139151190Y-116722380D02*
X139151190Y-115722380D01*
X139246428Y-115865238D01*
X139341666Y-115960476D01*
X139436904Y-116008095D01*
X138294047Y-116150952D02*
X138389285Y-116103333D01*
X138436904Y-116055714D01*
X138484523Y-115960476D01*
X138484523Y-115912857D01*
X138436904Y-115817619D01*
X138389285Y-115770000D01*
X138294047Y-115722380D01*
X138103571Y-115722380D01*
X138008333Y-115770000D01*
X137960714Y-115817619D01*
X137913095Y-115912857D01*
X137913095Y-115960476D01*
X137960714Y-116055714D01*
X138008333Y-116103333D01*
X138103571Y-116150952D01*
X138294047Y-116150952D01*
X138389285Y-116198571D01*
X138436904Y-116246190D01*
X138484523Y-116341428D01*
X138484523Y-116531904D01*
X138436904Y-116627142D01*
X138389285Y-116674761D01*
X138294047Y-116722380D01*
X138103571Y-116722380D01*
X138008333Y-116674761D01*
X137960714Y-116627142D01*
X137913095Y-116531904D01*
X137913095Y-116341428D01*
X137960714Y-116246190D01*
X138008333Y-116198571D01*
X138103571Y-116150952D01*
%TO.C,R11*%
X133317857Y-104052380D02*
X133651190Y-103576190D01*
X133889285Y-104052380D02*
X133889285Y-103052380D01*
X133508333Y-103052380D01*
X133413095Y-103100000D01*
X133365476Y-103147619D01*
X133317857Y-103242857D01*
X133317857Y-103385714D01*
X133365476Y-103480952D01*
X133413095Y-103528571D01*
X133508333Y-103576190D01*
X133889285Y-103576190D01*
X132365476Y-104052380D02*
X132936904Y-104052380D01*
X132651190Y-104052380D02*
X132651190Y-103052380D01*
X132746428Y-103195238D01*
X132841666Y-103290476D01*
X132936904Y-103338095D01*
X131413095Y-104052380D02*
X131984523Y-104052380D01*
X131698809Y-104052380D02*
X131698809Y-103052380D01*
X131794047Y-103195238D01*
X131889285Y-103290476D01*
X131984523Y-103338095D01*
%TO.C,JP2*%
X117908333Y-113052380D02*
X117908333Y-113766666D01*
X117955952Y-113909523D01*
X118051190Y-114004761D01*
X118194047Y-114052380D01*
X118289285Y-114052380D01*
X117432142Y-114052380D02*
X117432142Y-113052380D01*
X117051190Y-113052380D01*
X116955952Y-113100000D01*
X116908333Y-113147619D01*
X116860714Y-113242857D01*
X116860714Y-113385714D01*
X116908333Y-113480952D01*
X116955952Y-113528571D01*
X117051190Y-113576190D01*
X117432142Y-113576190D01*
X116479761Y-113147619D02*
X116432142Y-113100000D01*
X116336904Y-113052380D01*
X116098809Y-113052380D01*
X116003571Y-113100000D01*
X115955952Y-113147619D01*
X115908333Y-113242857D01*
X115908333Y-113338095D01*
X115955952Y-113480952D01*
X116527380Y-114052380D01*
X115908333Y-114052380D01*
%TO.C,C2*%
X117741666Y-115257142D02*
X117789285Y-115304761D01*
X117932142Y-115352380D01*
X118027380Y-115352380D01*
X118170238Y-115304761D01*
X118265476Y-115209523D01*
X118313095Y-115114285D01*
X118360714Y-114923809D01*
X118360714Y-114780952D01*
X118313095Y-114590476D01*
X118265476Y-114495238D01*
X118170238Y-114400000D01*
X118027380Y-114352380D01*
X117932142Y-114352380D01*
X117789285Y-114400000D01*
X117741666Y-114447619D01*
X117360714Y-114447619D02*
X117313095Y-114400000D01*
X117217857Y-114352380D01*
X116979761Y-114352380D01*
X116884523Y-114400000D01*
X116836904Y-114447619D01*
X116789285Y-114542857D01*
X116789285Y-114638095D01*
X116836904Y-114780952D01*
X117408333Y-115352380D01*
X116789285Y-115352380D01*
%TO.C,BT1*%
X165710714Y-128724571D02*
X165567857Y-128772190D01*
X165520238Y-128819809D01*
X165472619Y-128915047D01*
X165472619Y-129057904D01*
X165520238Y-129153142D01*
X165567857Y-129200761D01*
X165663095Y-129248380D01*
X166044047Y-129248380D01*
X166044047Y-128248380D01*
X165710714Y-128248380D01*
X165615476Y-128296000D01*
X165567857Y-128343619D01*
X165520238Y-128438857D01*
X165520238Y-128534095D01*
X165567857Y-128629333D01*
X165615476Y-128676952D01*
X165710714Y-128724571D01*
X166044047Y-128724571D01*
X165186904Y-128248380D02*
X164615476Y-128248380D01*
X164901190Y-129248380D02*
X164901190Y-128248380D01*
X163758333Y-129248380D02*
X164329761Y-129248380D01*
X164044047Y-129248380D02*
X164044047Y-128248380D01*
X164139285Y-128391238D01*
X164234523Y-128486476D01*
X164329761Y-128534095D01*
D13*
X103329761Y-132963142D02*
X99520238Y-132963142D01*
X172163761Y-132963142D02*
X168354238Y-132963142D01*
X170259000Y-134867904D02*
X170259000Y-131058380D01*
%TO.C,JP1*%
D11*
X118208333Y-125152380D02*
X118208333Y-125866666D01*
X118255952Y-126009523D01*
X118351190Y-126104761D01*
X118494047Y-126152380D01*
X118589285Y-126152380D01*
X117732142Y-126152380D02*
X117732142Y-125152380D01*
X117351190Y-125152380D01*
X117255952Y-125200000D01*
X117208333Y-125247619D01*
X117160714Y-125342857D01*
X117160714Y-125485714D01*
X117208333Y-125580952D01*
X117255952Y-125628571D01*
X117351190Y-125676190D01*
X117732142Y-125676190D01*
X116208333Y-126152380D02*
X116779761Y-126152380D01*
X116494047Y-126152380D02*
X116494047Y-125152380D01*
X116589285Y-125295238D01*
X116684523Y-125390476D01*
X116779761Y-125438095D01*
%TO.C,R14*%
X147967857Y-104952380D02*
X148301190Y-104476190D01*
X148539285Y-104952380D02*
X148539285Y-103952380D01*
X148158333Y-103952380D01*
X148063095Y-104000000D01*
X148015476Y-104047619D01*
X147967857Y-104142857D01*
X147967857Y-104285714D01*
X148015476Y-104380952D01*
X148063095Y-104428571D01*
X148158333Y-104476190D01*
X148539285Y-104476190D01*
X147015476Y-104952380D02*
X147586904Y-104952380D01*
X147301190Y-104952380D02*
X147301190Y-103952380D01*
X147396428Y-104095238D01*
X147491666Y-104190476D01*
X147586904Y-104238095D01*
X146158333Y-104285714D02*
X146158333Y-104952380D01*
X146396428Y-103904761D02*
X146634523Y-104619047D01*
X146015476Y-104619047D01*
%TO.C,R13*%
X135717857Y-108152380D02*
X136051190Y-107676190D01*
X136289285Y-108152380D02*
X136289285Y-107152380D01*
X135908333Y-107152380D01*
X135813095Y-107200000D01*
X135765476Y-107247619D01*
X135717857Y-107342857D01*
X135717857Y-107485714D01*
X135765476Y-107580952D01*
X135813095Y-107628571D01*
X135908333Y-107676190D01*
X136289285Y-107676190D01*
X134765476Y-108152380D02*
X135336904Y-108152380D01*
X135051190Y-108152380D02*
X135051190Y-107152380D01*
X135146428Y-107295238D01*
X135241666Y-107390476D01*
X135336904Y-107438095D01*
X134432142Y-107152380D02*
X133813095Y-107152380D01*
X134146428Y-107533333D01*
X134003571Y-107533333D01*
X133908333Y-107580952D01*
X133860714Y-107628571D01*
X133813095Y-107723809D01*
X133813095Y-107961904D01*
X133860714Y-108057142D01*
X133908333Y-108104761D01*
X134003571Y-108152380D01*
X134289285Y-108152380D01*
X134384523Y-108104761D01*
X134432142Y-108057142D01*
%TO.C,R15*%
X108917857Y-116252380D02*
X109251190Y-115776190D01*
X109489285Y-116252380D02*
X109489285Y-115252380D01*
X109108333Y-115252380D01*
X109013095Y-115300000D01*
X108965476Y-115347619D01*
X108917857Y-115442857D01*
X108917857Y-115585714D01*
X108965476Y-115680952D01*
X109013095Y-115728571D01*
X109108333Y-115776190D01*
X109489285Y-115776190D01*
X107965476Y-116252380D02*
X108536904Y-116252380D01*
X108251190Y-116252380D02*
X108251190Y-115252380D01*
X108346428Y-115395238D01*
X108441666Y-115490476D01*
X108536904Y-115538095D01*
X107060714Y-115252380D02*
X107536904Y-115252380D01*
X107584523Y-115728571D01*
X107536904Y-115680952D01*
X107441666Y-115633333D01*
X107203571Y-115633333D01*
X107108333Y-115680952D01*
X107060714Y-115728571D01*
X107013095Y-115823809D01*
X107013095Y-116061904D01*
X107060714Y-116157142D01*
X107108333Y-116204761D01*
X107203571Y-116252380D01*
X107441666Y-116252380D01*
X107536904Y-116204761D01*
X107584523Y-116157142D01*
%TO.C,SW1*%
X102708333Y-115954761D02*
X102565476Y-116002380D01*
X102327380Y-116002380D01*
X102232142Y-115954761D01*
X102184523Y-115907142D01*
X102136904Y-115811904D01*
X102136904Y-115716666D01*
X102184523Y-115621428D01*
X102232142Y-115573809D01*
X102327380Y-115526190D01*
X102517857Y-115478571D01*
X102613095Y-115430952D01*
X102660714Y-115383333D01*
X102708333Y-115288095D01*
X102708333Y-115192857D01*
X102660714Y-115097619D01*
X102613095Y-115050000D01*
X102517857Y-115002380D01*
X102279761Y-115002380D01*
X102136904Y-115050000D01*
X101803571Y-115002380D02*
X101565476Y-116002380D01*
X101375000Y-115288095D01*
X101184523Y-116002380D01*
X100946428Y-115002380D01*
X100041666Y-116002380D02*
X100613095Y-116002380D01*
X100327380Y-116002380D02*
X100327380Y-115002380D01*
X100422619Y-115145238D01*
X100517857Y-115240476D01*
X100613095Y-115288095D01*
%TO.C,SW3*%
X102708333Y-99554761D02*
X102565476Y-99602380D01*
X102327380Y-99602380D01*
X102232142Y-99554761D01*
X102184523Y-99507142D01*
X102136904Y-99411904D01*
X102136904Y-99316666D01*
X102184523Y-99221428D01*
X102232142Y-99173809D01*
X102327380Y-99126190D01*
X102517857Y-99078571D01*
X102613095Y-99030952D01*
X102660714Y-98983333D01*
X102708333Y-98888095D01*
X102708333Y-98792857D01*
X102660714Y-98697619D01*
X102613095Y-98650000D01*
X102517857Y-98602380D01*
X102279761Y-98602380D01*
X102136904Y-98650000D01*
X101803571Y-98602380D02*
X101565476Y-99602380D01*
X101375000Y-98888095D01*
X101184523Y-99602380D01*
X100946428Y-98602380D01*
X100660714Y-98602380D02*
X100041666Y-98602380D01*
X100375000Y-98983333D01*
X100232142Y-98983333D01*
X100136904Y-99030952D01*
X100089285Y-99078571D01*
X100041666Y-99173809D01*
X100041666Y-99411904D01*
X100089285Y-99507142D01*
X100136904Y-99554761D01*
X100232142Y-99602380D01*
X100517857Y-99602380D01*
X100613095Y-99554761D01*
X100660714Y-99507142D01*
%TO.C,SW2*%
X102708333Y-107754761D02*
X102565476Y-107802380D01*
X102327380Y-107802380D01*
X102232142Y-107754761D01*
X102184523Y-107707142D01*
X102136904Y-107611904D01*
X102136904Y-107516666D01*
X102184523Y-107421428D01*
X102232142Y-107373809D01*
X102327380Y-107326190D01*
X102517857Y-107278571D01*
X102613095Y-107230952D01*
X102660714Y-107183333D01*
X102708333Y-107088095D01*
X102708333Y-106992857D01*
X102660714Y-106897619D01*
X102613095Y-106850000D01*
X102517857Y-106802380D01*
X102279761Y-106802380D01*
X102136904Y-106850000D01*
X101803571Y-106802380D02*
X101565476Y-107802380D01*
X101375000Y-107088095D01*
X101184523Y-107802380D01*
X100946428Y-106802380D01*
X100613095Y-106897619D02*
X100565476Y-106850000D01*
X100470238Y-106802380D01*
X100232142Y-106802380D01*
X100136904Y-106850000D01*
X100089285Y-106897619D01*
X100041666Y-106992857D01*
X100041666Y-107088095D01*
X100089285Y-107230952D01*
X100660714Y-107802380D01*
X100041666Y-107802380D01*
%TO.C,C17*%
X125717857Y-119657142D02*
X125765476Y-119704761D01*
X125908333Y-119752380D01*
X126003571Y-119752380D01*
X126146428Y-119704761D01*
X126241666Y-119609523D01*
X126289285Y-119514285D01*
X126336904Y-119323809D01*
X126336904Y-119180952D01*
X126289285Y-118990476D01*
X126241666Y-118895238D01*
X126146428Y-118800000D01*
X126003571Y-118752380D01*
X125908333Y-118752380D01*
X125765476Y-118800000D01*
X125717857Y-118847619D01*
X124765476Y-119752380D02*
X125336904Y-119752380D01*
X125051190Y-119752380D02*
X125051190Y-118752380D01*
X125146428Y-118895238D01*
X125241666Y-118990476D01*
X125336904Y-119038095D01*
X124432142Y-118752380D02*
X123765476Y-118752380D01*
X124194047Y-119752380D01*
%TO.C,C1*%
X120032142Y-115833333D02*
X120079761Y-115785714D01*
X120127380Y-115642857D01*
X120127380Y-115547619D01*
X120079761Y-115404761D01*
X119984523Y-115309523D01*
X119889285Y-115261904D01*
X119698809Y-115214285D01*
X119555952Y-115214285D01*
X119365476Y-115261904D01*
X119270238Y-115309523D01*
X119175000Y-115404761D01*
X119127380Y-115547619D01*
X119127380Y-115642857D01*
X119175000Y-115785714D01*
X119222619Y-115833333D01*
X120127380Y-116785714D02*
X120127380Y-116214285D01*
X120127380Y-116500000D02*
X119127380Y-116500000D01*
X119270238Y-116404761D01*
X119365476Y-116309523D01*
X119413095Y-116214285D01*
%TO.C,C4*%
X165841666Y-122907142D02*
X165889285Y-122954761D01*
X166032142Y-123002380D01*
X166127380Y-123002380D01*
X166270238Y-122954761D01*
X166365476Y-122859523D01*
X166413095Y-122764285D01*
X166460714Y-122573809D01*
X166460714Y-122430952D01*
X166413095Y-122240476D01*
X166365476Y-122145238D01*
X166270238Y-122050000D01*
X166127380Y-122002380D01*
X166032142Y-122002380D01*
X165889285Y-122050000D01*
X165841666Y-122097619D01*
X164984523Y-122335714D02*
X164984523Y-123002380D01*
X165222619Y-121954761D02*
X165460714Y-122669047D01*
X164841666Y-122669047D01*
%TO.C,C5*%
X165841666Y-124457142D02*
X165889285Y-124504761D01*
X166032142Y-124552380D01*
X166127380Y-124552380D01*
X166270238Y-124504761D01*
X166365476Y-124409523D01*
X166413095Y-124314285D01*
X166460714Y-124123809D01*
X166460714Y-123980952D01*
X166413095Y-123790476D01*
X166365476Y-123695238D01*
X166270238Y-123600000D01*
X166127380Y-123552380D01*
X166032142Y-123552380D01*
X165889285Y-123600000D01*
X165841666Y-123647619D01*
X164936904Y-123552380D02*
X165413095Y-123552380D01*
X165460714Y-124028571D01*
X165413095Y-123980952D01*
X165317857Y-123933333D01*
X165079761Y-123933333D01*
X164984523Y-123980952D01*
X164936904Y-124028571D01*
X164889285Y-124123809D01*
X164889285Y-124361904D01*
X164936904Y-124457142D01*
X164984523Y-124504761D01*
X165079761Y-124552380D01*
X165317857Y-124552380D01*
X165413095Y-124504761D01*
X165460714Y-124457142D01*
%TO.C,C12*%
X155917857Y-108807142D02*
X155965476Y-108854761D01*
X156108333Y-108902380D01*
X156203571Y-108902380D01*
X156346428Y-108854761D01*
X156441666Y-108759523D01*
X156489285Y-108664285D01*
X156536904Y-108473809D01*
X156536904Y-108330952D01*
X156489285Y-108140476D01*
X156441666Y-108045238D01*
X156346428Y-107950000D01*
X156203571Y-107902380D01*
X156108333Y-107902380D01*
X155965476Y-107950000D01*
X155917857Y-107997619D01*
X154965476Y-108902380D02*
X155536904Y-108902380D01*
X155251190Y-108902380D02*
X155251190Y-107902380D01*
X155346428Y-108045238D01*
X155441666Y-108140476D01*
X155536904Y-108188095D01*
X154584523Y-107997619D02*
X154536904Y-107950000D01*
X154441666Y-107902380D01*
X154203571Y-107902380D01*
X154108333Y-107950000D01*
X154060714Y-107997619D01*
X154013095Y-108092857D01*
X154013095Y-108188095D01*
X154060714Y-108330952D01*
X154632142Y-108902380D01*
X154013095Y-108902380D01*
%TO.C,C3*%
X165941666Y-118907142D02*
X165989285Y-118954761D01*
X166132142Y-119002380D01*
X166227380Y-119002380D01*
X166370238Y-118954761D01*
X166465476Y-118859523D01*
X166513095Y-118764285D01*
X166560714Y-118573809D01*
X166560714Y-118430952D01*
X166513095Y-118240476D01*
X166465476Y-118145238D01*
X166370238Y-118050000D01*
X166227380Y-118002380D01*
X166132142Y-118002380D01*
X165989285Y-118050000D01*
X165941666Y-118097619D01*
X165608333Y-118002380D02*
X164989285Y-118002380D01*
X165322619Y-118383333D01*
X165179761Y-118383333D01*
X165084523Y-118430952D01*
X165036904Y-118478571D01*
X164989285Y-118573809D01*
X164989285Y-118811904D01*
X165036904Y-118907142D01*
X165084523Y-118954761D01*
X165179761Y-119002380D01*
X165465476Y-119002380D01*
X165560714Y-118954761D01*
X165608333Y-118907142D01*
%TO.C,C9*%
X158741666Y-108807142D02*
X158789285Y-108854761D01*
X158932142Y-108902380D01*
X159027380Y-108902380D01*
X159170238Y-108854761D01*
X159265476Y-108759523D01*
X159313095Y-108664285D01*
X159360714Y-108473809D01*
X159360714Y-108330952D01*
X159313095Y-108140476D01*
X159265476Y-108045238D01*
X159170238Y-107950000D01*
X159027380Y-107902380D01*
X158932142Y-107902380D01*
X158789285Y-107950000D01*
X158741666Y-107997619D01*
X158265476Y-108902380D02*
X158075000Y-108902380D01*
X157979761Y-108854761D01*
X157932142Y-108807142D01*
X157836904Y-108664285D01*
X157789285Y-108473809D01*
X157789285Y-108092857D01*
X157836904Y-107997619D01*
X157884523Y-107950000D01*
X157979761Y-107902380D01*
X158170238Y-107902380D01*
X158265476Y-107950000D01*
X158313095Y-107997619D01*
X158360714Y-108092857D01*
X158360714Y-108330952D01*
X158313095Y-108426190D01*
X158265476Y-108473809D01*
X158170238Y-108521428D01*
X157979761Y-108521428D01*
X157884523Y-108473809D01*
X157836904Y-108426190D01*
X157789285Y-108330952D01*
%TO.C,C6*%
X152091666Y-119657142D02*
X152139285Y-119704761D01*
X152282142Y-119752380D01*
X152377380Y-119752380D01*
X152520238Y-119704761D01*
X152615476Y-119609523D01*
X152663095Y-119514285D01*
X152710714Y-119323809D01*
X152710714Y-119180952D01*
X152663095Y-118990476D01*
X152615476Y-118895238D01*
X152520238Y-118800000D01*
X152377380Y-118752380D01*
X152282142Y-118752380D01*
X152139285Y-118800000D01*
X152091666Y-118847619D01*
X151234523Y-118752380D02*
X151425000Y-118752380D01*
X151520238Y-118800000D01*
X151567857Y-118847619D01*
X151663095Y-118990476D01*
X151710714Y-119180952D01*
X151710714Y-119561904D01*
X151663095Y-119657142D01*
X151615476Y-119704761D01*
X151520238Y-119752380D01*
X151329761Y-119752380D01*
X151234523Y-119704761D01*
X151186904Y-119657142D01*
X151139285Y-119561904D01*
X151139285Y-119323809D01*
X151186904Y-119228571D01*
X151234523Y-119180952D01*
X151329761Y-119133333D01*
X151520238Y-119133333D01*
X151615476Y-119180952D01*
X151663095Y-119228571D01*
X151710714Y-119323809D01*
%TO.C,C7*%
X165891666Y-120507142D02*
X165939285Y-120554761D01*
X166082142Y-120602380D01*
X166177380Y-120602380D01*
X166320238Y-120554761D01*
X166415476Y-120459523D01*
X166463095Y-120364285D01*
X166510714Y-120173809D01*
X166510714Y-120030952D01*
X166463095Y-119840476D01*
X166415476Y-119745238D01*
X166320238Y-119650000D01*
X166177380Y-119602380D01*
X166082142Y-119602380D01*
X165939285Y-119650000D01*
X165891666Y-119697619D01*
X165558333Y-119602380D02*
X164891666Y-119602380D01*
X165320238Y-120602380D01*
%TO.C,C8*%
X165891666Y-117407142D02*
X165939285Y-117454761D01*
X166082142Y-117502380D01*
X166177380Y-117502380D01*
X166320238Y-117454761D01*
X166415476Y-117359523D01*
X166463095Y-117264285D01*
X166510714Y-117073809D01*
X166510714Y-116930952D01*
X166463095Y-116740476D01*
X166415476Y-116645238D01*
X166320238Y-116550000D01*
X166177380Y-116502380D01*
X166082142Y-116502380D01*
X165939285Y-116550000D01*
X165891666Y-116597619D01*
X165320238Y-116930952D02*
X165415476Y-116883333D01*
X165463095Y-116835714D01*
X165510714Y-116740476D01*
X165510714Y-116692857D01*
X165463095Y-116597619D01*
X165415476Y-116550000D01*
X165320238Y-116502380D01*
X165129761Y-116502380D01*
X165034523Y-116550000D01*
X164986904Y-116597619D01*
X164939285Y-116692857D01*
X164939285Y-116740476D01*
X164986904Y-116835714D01*
X165034523Y-116883333D01*
X165129761Y-116930952D01*
X165320238Y-116930952D01*
X165415476Y-116978571D01*
X165463095Y-117026190D01*
X165510714Y-117121428D01*
X165510714Y-117311904D01*
X165463095Y-117407142D01*
X165415476Y-117454761D01*
X165320238Y-117502380D01*
X165129761Y-117502380D01*
X165034523Y-117454761D01*
X164986904Y-117407142D01*
X164939285Y-117311904D01*
X164939285Y-117121428D01*
X164986904Y-117026190D01*
X165034523Y-116978571D01*
X165129761Y-116930952D01*
%TO.C,C11*%
X163917857Y-109757142D02*
X163965476Y-109804761D01*
X164108333Y-109852380D01*
X164203571Y-109852380D01*
X164346428Y-109804761D01*
X164441666Y-109709523D01*
X164489285Y-109614285D01*
X164536904Y-109423809D01*
X164536904Y-109280952D01*
X164489285Y-109090476D01*
X164441666Y-108995238D01*
X164346428Y-108900000D01*
X164203571Y-108852380D01*
X164108333Y-108852380D01*
X163965476Y-108900000D01*
X163917857Y-108947619D01*
X162965476Y-109852380D02*
X163536904Y-109852380D01*
X163251190Y-109852380D02*
X163251190Y-108852380D01*
X163346428Y-108995238D01*
X163441666Y-109090476D01*
X163536904Y-109138095D01*
X162013095Y-109852380D02*
X162584523Y-109852380D01*
X162298809Y-109852380D02*
X162298809Y-108852380D01*
X162394047Y-108995238D01*
X162489285Y-109090476D01*
X162584523Y-109138095D01*
%TO.C,C13*%
X163967857Y-108507142D02*
X164015476Y-108554761D01*
X164158333Y-108602380D01*
X164253571Y-108602380D01*
X164396428Y-108554761D01*
X164491666Y-108459523D01*
X164539285Y-108364285D01*
X164586904Y-108173809D01*
X164586904Y-108030952D01*
X164539285Y-107840476D01*
X164491666Y-107745238D01*
X164396428Y-107650000D01*
X164253571Y-107602380D01*
X164158333Y-107602380D01*
X164015476Y-107650000D01*
X163967857Y-107697619D01*
X163015476Y-108602380D02*
X163586904Y-108602380D01*
X163301190Y-108602380D02*
X163301190Y-107602380D01*
X163396428Y-107745238D01*
X163491666Y-107840476D01*
X163586904Y-107888095D01*
X162682142Y-107602380D02*
X162063095Y-107602380D01*
X162396428Y-107983333D01*
X162253571Y-107983333D01*
X162158333Y-108030952D01*
X162110714Y-108078571D01*
X162063095Y-108173809D01*
X162063095Y-108411904D01*
X162110714Y-108507142D01*
X162158333Y-108554761D01*
X162253571Y-108602380D01*
X162539285Y-108602380D01*
X162634523Y-108554761D01*
X162682142Y-108507142D01*
%TO.C,C14*%
X163967857Y-107057142D02*
X164015476Y-107104761D01*
X164158333Y-107152380D01*
X164253571Y-107152380D01*
X164396428Y-107104761D01*
X164491666Y-107009523D01*
X164539285Y-106914285D01*
X164586904Y-106723809D01*
X164586904Y-106580952D01*
X164539285Y-106390476D01*
X164491666Y-106295238D01*
X164396428Y-106200000D01*
X164253571Y-106152380D01*
X164158333Y-106152380D01*
X164015476Y-106200000D01*
X163967857Y-106247619D01*
X163015476Y-107152380D02*
X163586904Y-107152380D01*
X163301190Y-107152380D02*
X163301190Y-106152380D01*
X163396428Y-106295238D01*
X163491666Y-106390476D01*
X163586904Y-106438095D01*
X162158333Y-106485714D02*
X162158333Y-107152380D01*
X162396428Y-106104761D02*
X162634523Y-106819047D01*
X162015476Y-106819047D01*
%TO.C,C15*%
X163967857Y-105507142D02*
X164015476Y-105554761D01*
X164158333Y-105602380D01*
X164253571Y-105602380D01*
X164396428Y-105554761D01*
X164491666Y-105459523D01*
X164539285Y-105364285D01*
X164586904Y-105173809D01*
X164586904Y-105030952D01*
X164539285Y-104840476D01*
X164491666Y-104745238D01*
X164396428Y-104650000D01*
X164253571Y-104602380D01*
X164158333Y-104602380D01*
X164015476Y-104650000D01*
X163967857Y-104697619D01*
X163015476Y-105602380D02*
X163586904Y-105602380D01*
X163301190Y-105602380D02*
X163301190Y-104602380D01*
X163396428Y-104745238D01*
X163491666Y-104840476D01*
X163586904Y-104888095D01*
X162110714Y-104602380D02*
X162586904Y-104602380D01*
X162634523Y-105078571D01*
X162586904Y-105030952D01*
X162491666Y-104983333D01*
X162253571Y-104983333D01*
X162158333Y-105030952D01*
X162110714Y-105078571D01*
X162063095Y-105173809D01*
X162063095Y-105411904D01*
X162110714Y-105507142D01*
X162158333Y-105554761D01*
X162253571Y-105602380D01*
X162491666Y-105602380D01*
X162586904Y-105554761D01*
X162634523Y-105507142D01*
%TO.C,C16*%
X131617857Y-121257142D02*
X131665476Y-121304761D01*
X131808333Y-121352380D01*
X131903571Y-121352380D01*
X132046428Y-121304761D01*
X132141666Y-121209523D01*
X132189285Y-121114285D01*
X132236904Y-120923809D01*
X132236904Y-120780952D01*
X132189285Y-120590476D01*
X132141666Y-120495238D01*
X132046428Y-120400000D01*
X131903571Y-120352380D01*
X131808333Y-120352380D01*
X131665476Y-120400000D01*
X131617857Y-120447619D01*
X130665476Y-121352380D02*
X131236904Y-121352380D01*
X130951190Y-121352380D02*
X130951190Y-120352380D01*
X131046428Y-120495238D01*
X131141666Y-120590476D01*
X131236904Y-120638095D01*
X129808333Y-120352380D02*
X129998809Y-120352380D01*
X130094047Y-120400000D01*
X130141666Y-120447619D01*
X130236904Y-120590476D01*
X130284523Y-120780952D01*
X130284523Y-121161904D01*
X130236904Y-121257142D01*
X130189285Y-121304761D01*
X130094047Y-121352380D01*
X129903571Y-121352380D01*
X129808333Y-121304761D01*
X129760714Y-121257142D01*
X129713095Y-121161904D01*
X129713095Y-120923809D01*
X129760714Y-120828571D01*
X129808333Y-120780952D01*
X129903571Y-120733333D01*
X130094047Y-120733333D01*
X130189285Y-120780952D01*
X130236904Y-120828571D01*
X130284523Y-120923809D01*
%TO.C,C18*%
X147717857Y-115657142D02*
X147765476Y-115704761D01*
X147908333Y-115752380D01*
X148003571Y-115752380D01*
X148146428Y-115704761D01*
X148241666Y-115609523D01*
X148289285Y-115514285D01*
X148336904Y-115323809D01*
X148336904Y-115180952D01*
X148289285Y-114990476D01*
X148241666Y-114895238D01*
X148146428Y-114800000D01*
X148003571Y-114752380D01*
X147908333Y-114752380D01*
X147765476Y-114800000D01*
X147717857Y-114847619D01*
X146765476Y-115752380D02*
X147336904Y-115752380D01*
X147051190Y-115752380D02*
X147051190Y-114752380D01*
X147146428Y-114895238D01*
X147241666Y-114990476D01*
X147336904Y-115038095D01*
X146194047Y-115180952D02*
X146289285Y-115133333D01*
X146336904Y-115085714D01*
X146384523Y-114990476D01*
X146384523Y-114942857D01*
X146336904Y-114847619D01*
X146289285Y-114800000D01*
X146194047Y-114752380D01*
X146003571Y-114752380D01*
X145908333Y-114800000D01*
X145860714Y-114847619D01*
X145813095Y-114942857D01*
X145813095Y-114990476D01*
X145860714Y-115085714D01*
X145908333Y-115133333D01*
X146003571Y-115180952D01*
X146194047Y-115180952D01*
X146289285Y-115228571D01*
X146336904Y-115276190D01*
X146384523Y-115371428D01*
X146384523Y-115561904D01*
X146336904Y-115657142D01*
X146289285Y-115704761D01*
X146194047Y-115752380D01*
X146003571Y-115752380D01*
X145908333Y-115704761D01*
X145860714Y-115657142D01*
X145813095Y-115561904D01*
X145813095Y-115371428D01*
X145860714Y-115276190D01*
X145908333Y-115228571D01*
X146003571Y-115180952D01*
%TO.C,C19*%
X145977857Y-118251142D02*
X146025476Y-118298761D01*
X146168333Y-118346380D01*
X146263571Y-118346380D01*
X146406428Y-118298761D01*
X146501666Y-118203523D01*
X146549285Y-118108285D01*
X146596904Y-117917809D01*
X146596904Y-117774952D01*
X146549285Y-117584476D01*
X146501666Y-117489238D01*
X146406428Y-117394000D01*
X146263571Y-117346380D01*
X146168333Y-117346380D01*
X146025476Y-117394000D01*
X145977857Y-117441619D01*
X145025476Y-118346380D02*
X145596904Y-118346380D01*
X145311190Y-118346380D02*
X145311190Y-117346380D01*
X145406428Y-117489238D01*
X145501666Y-117584476D01*
X145596904Y-117632095D01*
X144549285Y-118346380D02*
X144358809Y-118346380D01*
X144263571Y-118298761D01*
X144215952Y-118251142D01*
X144120714Y-118108285D01*
X144073095Y-117917809D01*
X144073095Y-117536857D01*
X144120714Y-117441619D01*
X144168333Y-117394000D01*
X144263571Y-117346380D01*
X144454047Y-117346380D01*
X144549285Y-117394000D01*
X144596904Y-117441619D01*
X144644523Y-117536857D01*
X144644523Y-117774952D01*
X144596904Y-117870190D01*
X144549285Y-117917809D01*
X144454047Y-117965428D01*
X144263571Y-117965428D01*
X144168333Y-117917809D01*
X144120714Y-117870190D01*
X144073095Y-117774952D01*
%TO.C,C20*%
X145977857Y-123331142D02*
X146025476Y-123378761D01*
X146168333Y-123426380D01*
X146263571Y-123426380D01*
X146406428Y-123378761D01*
X146501666Y-123283523D01*
X146549285Y-123188285D01*
X146596904Y-122997809D01*
X146596904Y-122854952D01*
X146549285Y-122664476D01*
X146501666Y-122569238D01*
X146406428Y-122474000D01*
X146263571Y-122426380D01*
X146168333Y-122426380D01*
X146025476Y-122474000D01*
X145977857Y-122521619D01*
X145596904Y-122521619D02*
X145549285Y-122474000D01*
X145454047Y-122426380D01*
X145215952Y-122426380D01*
X145120714Y-122474000D01*
X145073095Y-122521619D01*
X145025476Y-122616857D01*
X145025476Y-122712095D01*
X145073095Y-122854952D01*
X145644523Y-123426380D01*
X145025476Y-123426380D01*
X144406428Y-122426380D02*
X144311190Y-122426380D01*
X144215952Y-122474000D01*
X144168333Y-122521619D01*
X144120714Y-122616857D01*
X144073095Y-122807333D01*
X144073095Y-123045428D01*
X144120714Y-123235904D01*
X144168333Y-123331142D01*
X144215952Y-123378761D01*
X144311190Y-123426380D01*
X144406428Y-123426380D01*
X144501666Y-123378761D01*
X144549285Y-123331142D01*
X144596904Y-123235904D01*
X144644523Y-123045428D01*
X144644523Y-122807333D01*
X144596904Y-122616857D01*
X144549285Y-122521619D01*
X144501666Y-122474000D01*
X144406428Y-122426380D01*
%TO.C,C21*%
X135917857Y-116657142D02*
X135965476Y-116704761D01*
X136108333Y-116752380D01*
X136203571Y-116752380D01*
X136346428Y-116704761D01*
X136441666Y-116609523D01*
X136489285Y-116514285D01*
X136536904Y-116323809D01*
X136536904Y-116180952D01*
X136489285Y-115990476D01*
X136441666Y-115895238D01*
X136346428Y-115800000D01*
X136203571Y-115752380D01*
X136108333Y-115752380D01*
X135965476Y-115800000D01*
X135917857Y-115847619D01*
X135536904Y-115847619D02*
X135489285Y-115800000D01*
X135394047Y-115752380D01*
X135155952Y-115752380D01*
X135060714Y-115800000D01*
X135013095Y-115847619D01*
X134965476Y-115942857D01*
X134965476Y-116038095D01*
X135013095Y-116180952D01*
X135584523Y-116752380D01*
X134965476Y-116752380D01*
X134013095Y-116752380D02*
X134584523Y-116752380D01*
X134298809Y-116752380D02*
X134298809Y-115752380D01*
X134394047Y-115895238D01*
X134489285Y-115990476D01*
X134584523Y-116038095D01*
%TO.C,D2*%
X153213095Y-113102380D02*
X153213095Y-112102380D01*
X152975000Y-112102380D01*
X152832142Y-112150000D01*
X152736904Y-112245238D01*
X152689285Y-112340476D01*
X152641666Y-112530952D01*
X152641666Y-112673809D01*
X152689285Y-112864285D01*
X152736904Y-112959523D01*
X152832142Y-113054761D01*
X152975000Y-113102380D01*
X153213095Y-113102380D01*
X152260714Y-112197619D02*
X152213095Y-112150000D01*
X152117857Y-112102380D01*
X151879761Y-112102380D01*
X151784523Y-112150000D01*
X151736904Y-112197619D01*
X151689285Y-112292857D01*
X151689285Y-112388095D01*
X151736904Y-112530952D01*
X152308333Y-113102380D01*
X151689285Y-113102380D01*
%TO.C,L1*%
X110441666Y-123114380D02*
X110917857Y-123114380D01*
X110917857Y-122114380D01*
X109584523Y-123114380D02*
X110155952Y-123114380D01*
X109870238Y-123114380D02*
X109870238Y-122114380D01*
X109965476Y-122257238D01*
X110060714Y-122352476D01*
X110155952Y-122400095D01*
%TO.C,Q1*%
X123570238Y-123047619D02*
X123665476Y-123000000D01*
X123760714Y-122904761D01*
X123903571Y-122761904D01*
X123998809Y-122714285D01*
X124094047Y-122714285D01*
X124046428Y-122952380D02*
X124141666Y-122904761D01*
X124236904Y-122809523D01*
X124284523Y-122619047D01*
X124284523Y-122285714D01*
X124236904Y-122095238D01*
X124141666Y-122000000D01*
X124046428Y-121952380D01*
X123855952Y-121952380D01*
X123760714Y-122000000D01*
X123665476Y-122095238D01*
X123617857Y-122285714D01*
X123617857Y-122619047D01*
X123665476Y-122809523D01*
X123760714Y-122904761D01*
X123855952Y-122952380D01*
X124046428Y-122952380D01*
X122665476Y-122952380D02*
X123236904Y-122952380D01*
X122951190Y-122952380D02*
X122951190Y-121952380D01*
X123046428Y-122095238D01*
X123141666Y-122190476D01*
X123236904Y-122238095D01*
%TO.C,Q2*%
X156470238Y-104297619D02*
X156565476Y-104250000D01*
X156660714Y-104154761D01*
X156803571Y-104011904D01*
X156898809Y-103964285D01*
X156994047Y-103964285D01*
X156946428Y-104202380D02*
X157041666Y-104154761D01*
X157136904Y-104059523D01*
X157184523Y-103869047D01*
X157184523Y-103535714D01*
X157136904Y-103345238D01*
X157041666Y-103250000D01*
X156946428Y-103202380D01*
X156755952Y-103202380D01*
X156660714Y-103250000D01*
X156565476Y-103345238D01*
X156517857Y-103535714D01*
X156517857Y-103869047D01*
X156565476Y-104059523D01*
X156660714Y-104154761D01*
X156755952Y-104202380D01*
X156946428Y-104202380D01*
X156136904Y-103297619D02*
X156089285Y-103250000D01*
X155994047Y-103202380D01*
X155755952Y-103202380D01*
X155660714Y-103250000D01*
X155613095Y-103297619D01*
X155565476Y-103392857D01*
X155565476Y-103488095D01*
X155613095Y-103630952D01*
X156184523Y-104202380D01*
X155565476Y-104202380D01*
%TO.C,R1*%
X121827380Y-115833333D02*
X121351190Y-115500000D01*
X121827380Y-115261904D02*
X120827380Y-115261904D01*
X120827380Y-115642857D01*
X120875000Y-115738095D01*
X120922619Y-115785714D01*
X121017857Y-115833333D01*
X121160714Y-115833333D01*
X121255952Y-115785714D01*
X121303571Y-115738095D01*
X121351190Y-115642857D01*
X121351190Y-115261904D01*
X121827380Y-116785714D02*
X121827380Y-116214285D01*
X121827380Y-116500000D02*
X120827380Y-116500000D01*
X120970238Y-116404761D01*
X121065476Y-116309523D01*
X121113095Y-116214285D01*
%TO.C,R5*%
X172341666Y-107252380D02*
X172675000Y-106776190D01*
X172913095Y-107252380D02*
X172913095Y-106252380D01*
X172532142Y-106252380D01*
X172436904Y-106300000D01*
X172389285Y-106347619D01*
X172341666Y-106442857D01*
X172341666Y-106585714D01*
X172389285Y-106680952D01*
X172436904Y-106728571D01*
X172532142Y-106776190D01*
X172913095Y-106776190D01*
X171436904Y-106252380D02*
X171913095Y-106252380D01*
X171960714Y-106728571D01*
X171913095Y-106680952D01*
X171817857Y-106633333D01*
X171579761Y-106633333D01*
X171484523Y-106680952D01*
X171436904Y-106728571D01*
X171389285Y-106823809D01*
X171389285Y-107061904D01*
X171436904Y-107157142D01*
X171484523Y-107204761D01*
X171579761Y-107252380D01*
X171817857Y-107252380D01*
X171913095Y-107204761D01*
X171960714Y-107157142D01*
%TO.C,R6*%
X172341666Y-105652380D02*
X172675000Y-105176190D01*
X172913095Y-105652380D02*
X172913095Y-104652380D01*
X172532142Y-104652380D01*
X172436904Y-104700000D01*
X172389285Y-104747619D01*
X172341666Y-104842857D01*
X172341666Y-104985714D01*
X172389285Y-105080952D01*
X172436904Y-105128571D01*
X172532142Y-105176190D01*
X172913095Y-105176190D01*
X171484523Y-104652380D02*
X171675000Y-104652380D01*
X171770238Y-104700000D01*
X171817857Y-104747619D01*
X171913095Y-104890476D01*
X171960714Y-105080952D01*
X171960714Y-105461904D01*
X171913095Y-105557142D01*
X171865476Y-105604761D01*
X171770238Y-105652380D01*
X171579761Y-105652380D01*
X171484523Y-105604761D01*
X171436904Y-105557142D01*
X171389285Y-105461904D01*
X171389285Y-105223809D01*
X171436904Y-105128571D01*
X171484523Y-105080952D01*
X171579761Y-105033333D01*
X171770238Y-105033333D01*
X171865476Y-105080952D01*
X171913095Y-105128571D01*
X171960714Y-105223809D01*
%TO.C,R10*%
X128767857Y-121352380D02*
X129101190Y-120876190D01*
X129339285Y-121352380D02*
X129339285Y-120352380D01*
X128958333Y-120352380D01*
X128863095Y-120400000D01*
X128815476Y-120447619D01*
X128767857Y-120542857D01*
X128767857Y-120685714D01*
X128815476Y-120780952D01*
X128863095Y-120828571D01*
X128958333Y-120876190D01*
X129339285Y-120876190D01*
X127815476Y-121352380D02*
X128386904Y-121352380D01*
X128101190Y-121352380D02*
X128101190Y-120352380D01*
X128196428Y-120495238D01*
X128291666Y-120590476D01*
X128386904Y-120638095D01*
X127196428Y-120352380D02*
X127101190Y-120352380D01*
X127005952Y-120400000D01*
X126958333Y-120447619D01*
X126910714Y-120542857D01*
X126863095Y-120733333D01*
X126863095Y-120971428D01*
X126910714Y-121161904D01*
X126958333Y-121257142D01*
X127005952Y-121304761D01*
X127101190Y-121352380D01*
X127196428Y-121352380D01*
X127291666Y-121304761D01*
X127339285Y-121257142D01*
X127386904Y-121161904D01*
X127434523Y-120971428D01*
X127434523Y-120733333D01*
X127386904Y-120542857D01*
X127339285Y-120447619D01*
X127291666Y-120400000D01*
X127196428Y-120352380D01*
%TO.C,R16*%
X108917857Y-108052380D02*
X109251190Y-107576190D01*
X109489285Y-108052380D02*
X109489285Y-107052380D01*
X109108333Y-107052380D01*
X109013095Y-107100000D01*
X108965476Y-107147619D01*
X108917857Y-107242857D01*
X108917857Y-107385714D01*
X108965476Y-107480952D01*
X109013095Y-107528571D01*
X109108333Y-107576190D01*
X109489285Y-107576190D01*
X107965476Y-108052380D02*
X108536904Y-108052380D01*
X108251190Y-108052380D02*
X108251190Y-107052380D01*
X108346428Y-107195238D01*
X108441666Y-107290476D01*
X108536904Y-107338095D01*
X107108333Y-107052380D02*
X107298809Y-107052380D01*
X107394047Y-107100000D01*
X107441666Y-107147619D01*
X107536904Y-107290476D01*
X107584523Y-107480952D01*
X107584523Y-107861904D01*
X107536904Y-107957142D01*
X107489285Y-108004761D01*
X107394047Y-108052380D01*
X107203571Y-108052380D01*
X107108333Y-108004761D01*
X107060714Y-107957142D01*
X107013095Y-107861904D01*
X107013095Y-107623809D01*
X107060714Y-107528571D01*
X107108333Y-107480952D01*
X107203571Y-107433333D01*
X107394047Y-107433333D01*
X107489285Y-107480952D01*
X107536904Y-107528571D01*
X107584523Y-107623809D01*
%TO.C,R17*%
X108817857Y-99652380D02*
X109151190Y-99176190D01*
X109389285Y-99652380D02*
X109389285Y-98652380D01*
X109008333Y-98652380D01*
X108913095Y-98700000D01*
X108865476Y-98747619D01*
X108817857Y-98842857D01*
X108817857Y-98985714D01*
X108865476Y-99080952D01*
X108913095Y-99128571D01*
X109008333Y-99176190D01*
X109389285Y-99176190D01*
X107865476Y-99652380D02*
X108436904Y-99652380D01*
X108151190Y-99652380D02*
X108151190Y-98652380D01*
X108246428Y-98795238D01*
X108341666Y-98890476D01*
X108436904Y-98938095D01*
X107532142Y-98652380D02*
X106865476Y-98652380D01*
X107294047Y-99652380D01*
%TO.C,U1*%
X111272904Y-118840380D02*
X111272904Y-119649904D01*
X111225285Y-119745142D01*
X111177666Y-119792761D01*
X111082428Y-119840380D01*
X110891952Y-119840380D01*
X110796714Y-119792761D01*
X110749095Y-119745142D01*
X110701476Y-119649904D01*
X110701476Y-118840380D01*
X109701476Y-119840380D02*
X110272904Y-119840380D01*
X109987190Y-119840380D02*
X109987190Y-118840380D01*
X110082428Y-118983238D01*
X110177666Y-119078476D01*
X110272904Y-119126095D01*
%TO.C,U2*%
X127336904Y-105352380D02*
X127336904Y-106161904D01*
X127289285Y-106257142D01*
X127241666Y-106304761D01*
X127146428Y-106352380D01*
X126955952Y-106352380D01*
X126860714Y-106304761D01*
X126813095Y-106257142D01*
X126765476Y-106161904D01*
X126765476Y-105352380D01*
X126336904Y-105447619D02*
X126289285Y-105400000D01*
X126194047Y-105352380D01*
X125955952Y-105352380D01*
X125860714Y-105400000D01*
X125813095Y-105447619D01*
X125765476Y-105542857D01*
X125765476Y-105638095D01*
X125813095Y-105780952D01*
X126384523Y-106352380D01*
X125765476Y-106352380D01*
%TO.C,U3*%
X141936904Y-107052380D02*
X141936904Y-107861904D01*
X141889285Y-107957142D01*
X141841666Y-108004761D01*
X141746428Y-108052380D01*
X141555952Y-108052380D01*
X141460714Y-108004761D01*
X141413095Y-107957142D01*
X141365476Y-107861904D01*
X141365476Y-107052380D01*
X140984523Y-107052380D02*
X140365476Y-107052380D01*
X140698809Y-107433333D01*
X140555952Y-107433333D01*
X140460714Y-107480952D01*
X140413095Y-107528571D01*
X140365476Y-107623809D01*
X140365476Y-107861904D01*
X140413095Y-107957142D01*
X140460714Y-108004761D01*
X140555952Y-108052380D01*
X140841666Y-108052380D01*
X140936904Y-108004761D01*
X140984523Y-107957142D01*
%TO.C,U4*%
X137836904Y-124352380D02*
X137836904Y-125161904D01*
X137789285Y-125257142D01*
X137741666Y-125304761D01*
X137646428Y-125352380D01*
X137455952Y-125352380D01*
X137360714Y-125304761D01*
X137313095Y-125257142D01*
X137265476Y-125161904D01*
X137265476Y-124352380D01*
X136360714Y-124685714D02*
X136360714Y-125352380D01*
X136598809Y-124304761D02*
X136836904Y-125019047D01*
X136217857Y-125019047D01*
%TO.C,Y1*%
X148851190Y-122876190D02*
X148851190Y-123352380D01*
X149184523Y-122352380D02*
X148851190Y-122876190D01*
X148517857Y-122352380D01*
X147660714Y-123352380D02*
X148232142Y-123352380D01*
X147946428Y-123352380D02*
X147946428Y-122352380D01*
X148041666Y-122495238D01*
X148136904Y-122590476D01*
X148232142Y-122638095D01*
%TD*%
M02*
