M48
; DRILL file {KiCad 5.1.9+dfsg1-1~bpo10+1} date Sun Aug  1 16:53:41 2021
; FORMAT={-:-/ absolute / inch / decimal}
; #@! TF.CreationDate,2021-08-01T16:53:41+08:00
; #@! TF.GenerationSoftware,Kicad,Pcbnew,5.1.9+dfsg1-1~bpo10+1
; #@! TF.FileFunction,Plated,1,4,PTH
FMAT,2
INCH
T1C0.0157
T2C0.0197
%
G90
G05
T1
X4.2116Y-5.1969
X4.2116Y-5.248
X4.2116Y-5.2992
X4.2746Y-5.1969
X4.2746Y-5.248
X4.2746Y-5.2992
X4.2943Y-4.3465
X4.2943Y-4.6693
X4.3376Y-5.1969
X4.3376Y-5.248
X4.3376Y-5.2992
X4.3455Y-3.9724
X4.5856Y-4.4449
X4.6407Y-4.4449
X4.747Y-4.874
X4.7825Y-4.3661
X4.8056Y-4.4611
X4.8061Y-4.252
X4.8061Y-4.4213
X4.8061Y-4.5039
X4.8337Y-4.3661
X4.8967Y-4.1496
X5.0108Y-4.7008
X5.0266Y-4.5748
X5.2392Y-4.2352
X5.2402Y-4.2963
X5.2746Y-4.2638
X5.2746Y-4.3307
X5.2785Y-4.4882
X5.2943Y-4.5984
X5.3455Y-4.4173
X5.4085Y-4.5472
X5.4715Y-4.189
X5.6211Y-4.3661
X5.6211Y-4.4055
X5.6407Y-4.189
X5.6998Y-4.6024
X5.814Y-4.0354
X5.8809Y-4.1496
X6.0187Y-4.0591
X6.0731Y-4.5002
X6.082Y-4.8107
X6.082Y-4.8507
X6.1604Y-4.3228
X6.1831Y-4.4807
X6.1831Y-4.5207
X6.1831Y-4.5607
X6.2936Y-4.7802
X6.3506Y-4.4507
X6.4715Y-4.6772
X6.4715Y-4.5748
X6.5255Y-4.6231
X6.6431Y-4.8107
X6.6431Y-4.8507
X6.6631Y-4.4807
X6.6631Y-4.5207
X6.6631Y-4.5607
X6.6631Y-4.6007
X6.6631Y-4.6407
X6.6631Y-4.6807
T2
X5.5753Y-4.7277
X5.5753Y-4.8025
T0
M30
