M48
; DRILL file {KiCad 5.1.9+dfsg1-1~bpo10+1} date Sun Aug 15 14:26:25 2021
; FORMAT={-:-/ absolute / inch / decimal}
; #@! TF.CreationDate,2021-08-15T14:26:25+08:00
; #@! TF.GenerationSoftware,Kicad,Pcbnew,5.1.9+dfsg1-1~bpo10+1
; #@! TF.FileFunction,Plated,1,4,PTH
FMAT,2
INCH
T1C0.0157
T2C0.0197
%
G90
G05
T1
X3.8415Y-5.311
X3.8455Y-4.9488
X3.9715Y-5.1496
X3.9793Y-4.0551
X3.9793Y-4.3898
X3.9833Y-4.7165
X4.0384Y-5.4528
X4.1526Y-4.9213
X4.1565Y-3.9016
X4.2116Y-5.1969
X4.2116Y-5.248
X4.2116Y-5.2992
X4.2628Y-4.7283
X4.2746Y-5.1969
X4.2746Y-5.248
X4.2746Y-5.2992
X4.2943Y-4.3465
X4.2982Y-4.5669
X4.3376Y-5.0354
X4.3376Y-5.1969
X4.3376Y-5.248
X4.3376Y-5.2992
X4.3455Y-3.9724
X4.4439Y-4.0906
X4.4715Y-3.9016
X4.562Y-4.4724
X4.5817Y-4.2047
X4.6053Y-4.3819
X4.6289Y-5.4331
X4.6683Y-4.748
X4.7077Y-5.1063
X4.7156Y-4.4685
X4.7549Y-4.122
X4.7825Y-4.3661
X4.8022Y-4.815
X4.806Y-4.4608
X4.8061Y-4.4213
X4.8061Y-4.5039
X4.8337Y-4.252
X4.8337Y-4.3661
X4.8533Y-4.6417
X4.8967Y-4.1496
X4.9203Y-4.0394
X4.999Y-4.378
X4.999Y-5.4528
X5.0069Y-4.4724
X5.0226Y-4.6969
X5.0266Y-4.5748
X5.0305Y-5.0906
X5.0699Y-4.9331
X5.1014Y-4.1102
X5.2037Y-4.2362
X5.2037Y-4.2835
X5.2037Y-4.3307
X5.2549Y-4.3307
X5.2628Y-4.189
X5.2825Y-4.4646
X5.2943Y-4.5866
X5.31Y-5.0906
X5.31Y-5.3504
X5.3533Y-4.1102
X5.3573Y-4.4173
X5.3573Y-4.4646
X5.5108Y-4.5866
X5.5344Y-4.4803
X5.5344Y-5.4528
X5.5502Y-5.1102
X5.5699Y-4.185
X5.5738Y-4.3976
X5.6211Y-4.3661
X5.7037Y-4.5866
X5.7195Y-4.0433
X5.7825Y-4.1929
X5.7943Y-4.4882
X5.814Y-4.0354
X5.8376Y-5.3386
X5.8612Y-5.0709
X5.8809Y-4.1496
X5.8888Y-4.5827
X5.9085Y-3.8937
X5.9163Y-4.2992
X6.0187Y-4.0591
X6.0305Y-4.3386
X6.0974Y-4.7598
X6.0974Y-4.8228
X6.1014Y-5.1102
X6.1565Y-5.4528
X6.1998Y-4.4646
X6.2195Y-3.8937
X6.2613Y-4.4646
X6.2864Y-4.3701
X6.2943Y-4.8858
X6.3506Y-4.4016
X6.4715Y-4.6772
X6.4715Y-4.5748
X6.5255Y-4.6231
X6.6053Y-5.4331
X6.6171Y-4.0354
X6.6211Y-3.8937
X6.6801Y-4.5984
X6.6801Y-4.5354
X6.6801Y-4.811
X6.6801Y-4.4961
X6.6801Y-4.8543
X6.6801Y-4.6654
X6.6801Y-4.7047
X6.6959Y-5.0827
X6.7982Y-4.7244
X6.814Y-4.0315
X6.873Y-4.1457
X6.8967Y-5.3268
X6.9203Y-5.1102
X6.936Y-4.3622
X6.94Y-4.9055
X6.9439Y-4.7402
X6.9557Y-4.563
X6.9754Y-4.1063
X6.9872Y-3.9173
T2
X5.5753Y-4.7041
X5.5753Y-4.7789
T0
M30
