%TF.GenerationSoftware,KiCad,Pcbnew,5.1.9+dfsg1-1~bpo10+1*%
%TF.CreationDate,2021-08-15T12:40:59+08:00*%
%TF.ProjectId,epd-clock,6570642d-636c-46f6-936b-2e6b69636164,rev?*%
%TF.SameCoordinates,Original*%
%TF.FileFunction,Soldermask,Bot*%
%TF.FilePolarity,Negative*%
%FSLAX46Y46*%
G04 Gerber Fmt 4.6, Leading zero omitted, Abs format (unit mm)*
G04 Created by KiCad (PCBNEW 5.1.9+dfsg1-1~bpo10+1) date 2021-08-15 12:40:59*
%MOMM*%
%LPD*%
G01*
G04 APERTURE LIST*
%ADD10C,1.000000*%
%ADD11C,0.100000*%
%ADD12R,1.000000X1.500000*%
%ADD13R,8.000000X4.800000*%
%ADD14C,1.500000*%
%ADD15R,0.700000X0.450000*%
%ADD16R,1.550000X1.300000*%
%ADD17R,1.100000X0.300000*%
%ADD18R,3.100000X2.300000*%
%ADD19R,0.900000X1.200000*%
%ADD20R,3.400000X0.980000*%
%ADD21R,0.800000X0.900000*%
%ADD22R,0.900000X0.800000*%
%ADD23R,0.900000X1.300000*%
%ADD24R,6.000000X2.500000*%
G04 APERTURE END LIST*
%TO.C,R13*%
G36*
G01*
X138750000Y-117425000D02*
X138750000Y-117975000D01*
G75*
G02*
X138550000Y-118175000I-200000J0D01*
G01*
X138150000Y-118175000D01*
G75*
G02*
X137950000Y-117975000I0J200000D01*
G01*
X137950000Y-117425000D01*
G75*
G02*
X138150000Y-117225000I200000J0D01*
G01*
X138550000Y-117225000D01*
G75*
G02*
X138750000Y-117425000I0J-200000D01*
G01*
G37*
G36*
G01*
X140400000Y-117425000D02*
X140400000Y-117975000D01*
G75*
G02*
X140200000Y-118175000I-200000J0D01*
G01*
X139800000Y-118175000D01*
G75*
G02*
X139600000Y-117975000I0J200000D01*
G01*
X139600000Y-117425000D01*
G75*
G02*
X139800000Y-117225000I200000J0D01*
G01*
X140200000Y-117225000D01*
G75*
G02*
X140400000Y-117425000I0J-200000D01*
G01*
G37*
%TD*%
D10*
%TO.C,TP8*%
X130300000Y-99100000D03*
%TD*%
%TO.C,TP7*%
X132800000Y-99100000D03*
%TD*%
%TO.C,R7*%
G36*
G01*
X137650000Y-105925000D02*
X137650000Y-106475000D01*
G75*
G02*
X137450000Y-106675000I-200000J0D01*
G01*
X137050000Y-106675000D01*
G75*
G02*
X136850000Y-106475000I0J200000D01*
G01*
X136850000Y-105925000D01*
G75*
G02*
X137050000Y-105725000I200000J0D01*
G01*
X137450000Y-105725000D01*
G75*
G02*
X137650000Y-105925000I0J-200000D01*
G01*
G37*
G36*
G01*
X139300000Y-105925000D02*
X139300000Y-106475000D01*
G75*
G02*
X139100000Y-106675000I-200000J0D01*
G01*
X138700000Y-106675000D01*
G75*
G02*
X138500000Y-106475000I0J200000D01*
G01*
X138500000Y-105925000D01*
G75*
G02*
X138700000Y-105725000I200000J0D01*
G01*
X139100000Y-105725000D01*
G75*
G02*
X139300000Y-105925000I0J-200000D01*
G01*
G37*
%TD*%
%TO.C,R6*%
G36*
G01*
X137650000Y-104425000D02*
X137650000Y-104975000D01*
G75*
G02*
X137450000Y-105175000I-200000J0D01*
G01*
X137050000Y-105175000D01*
G75*
G02*
X136850000Y-104975000I0J200000D01*
G01*
X136850000Y-104425000D01*
G75*
G02*
X137050000Y-104225000I200000J0D01*
G01*
X137450000Y-104225000D01*
G75*
G02*
X137650000Y-104425000I0J-200000D01*
G01*
G37*
G36*
G01*
X139300000Y-104425000D02*
X139300000Y-104975000D01*
G75*
G02*
X139100000Y-105175000I-200000J0D01*
G01*
X138700000Y-105175000D01*
G75*
G02*
X138500000Y-104975000I0J200000D01*
G01*
X138500000Y-104425000D01*
G75*
G02*
X138700000Y-104225000I200000J0D01*
G01*
X139100000Y-104225000D01*
G75*
G02*
X139300000Y-104425000I0J-200000D01*
G01*
G37*
%TD*%
D11*
%TO.C,JP3*%
G36*
X169625000Y-103250000D02*
G01*
X169075000Y-103250000D01*
X169075000Y-103249398D01*
X169050466Y-103249398D01*
X169001635Y-103244588D01*
X168953510Y-103235016D01*
X168906555Y-103220772D01*
X168861222Y-103201995D01*
X168817949Y-103178864D01*
X168777150Y-103151604D01*
X168739221Y-103120476D01*
X168704524Y-103085779D01*
X168673396Y-103047850D01*
X168646136Y-103007051D01*
X168623005Y-102963778D01*
X168604228Y-102918445D01*
X168589984Y-102871490D01*
X168580412Y-102823365D01*
X168575602Y-102774534D01*
X168575602Y-102750000D01*
X168575000Y-102750000D01*
X168575000Y-102250000D01*
X168575602Y-102250000D01*
X168575602Y-102225466D01*
X168580412Y-102176635D01*
X168589984Y-102128510D01*
X168604228Y-102081555D01*
X168623005Y-102036222D01*
X168646136Y-101992949D01*
X168673396Y-101952150D01*
X168704524Y-101914221D01*
X168739221Y-101879524D01*
X168777150Y-101848396D01*
X168817949Y-101821136D01*
X168861222Y-101798005D01*
X168906555Y-101779228D01*
X168953510Y-101764984D01*
X169001635Y-101755412D01*
X169050466Y-101750602D01*
X169075000Y-101750602D01*
X169075000Y-101750000D01*
X169625000Y-101750000D01*
X169625000Y-103250000D01*
G37*
D12*
X170375000Y-102500000D03*
D11*
G36*
X171675000Y-101750602D02*
G01*
X171699534Y-101750602D01*
X171748365Y-101755412D01*
X171796490Y-101764984D01*
X171843445Y-101779228D01*
X171888778Y-101798005D01*
X171932051Y-101821136D01*
X171972850Y-101848396D01*
X172010779Y-101879524D01*
X172045476Y-101914221D01*
X172076604Y-101952150D01*
X172103864Y-101992949D01*
X172126995Y-102036222D01*
X172145772Y-102081555D01*
X172160016Y-102128510D01*
X172169588Y-102176635D01*
X172174398Y-102225466D01*
X172174398Y-102250000D01*
X172175000Y-102250000D01*
X172175000Y-102750000D01*
X172174398Y-102750000D01*
X172174398Y-102774534D01*
X172169588Y-102823365D01*
X172160016Y-102871490D01*
X172145772Y-102918445D01*
X172126995Y-102963778D01*
X172103864Y-103007051D01*
X172076604Y-103047850D01*
X172045476Y-103085779D01*
X172010779Y-103120476D01*
X171972850Y-103151604D01*
X171932051Y-103178864D01*
X171888778Y-103201995D01*
X171843445Y-103220772D01*
X171796490Y-103235016D01*
X171748365Y-103244588D01*
X171699534Y-103249398D01*
X171675000Y-103249398D01*
X171675000Y-103250000D01*
X171125000Y-103250000D01*
X171125000Y-101750000D01*
X171675000Y-101750000D01*
X171675000Y-101750602D01*
G37*
%TD*%
%TO.C,JP2*%
G36*
X114425000Y-112850602D02*
G01*
X114449534Y-112850602D01*
X114498365Y-112855412D01*
X114546490Y-112864984D01*
X114593445Y-112879228D01*
X114638778Y-112898005D01*
X114682051Y-112921136D01*
X114722850Y-112948396D01*
X114760779Y-112979524D01*
X114795476Y-113014221D01*
X114826604Y-113052150D01*
X114853864Y-113092949D01*
X114876995Y-113136222D01*
X114895772Y-113181555D01*
X114910016Y-113228510D01*
X114919588Y-113276635D01*
X114924398Y-113325466D01*
X114924398Y-113350000D01*
X114925000Y-113350000D01*
X114925000Y-113850000D01*
X114924398Y-113850000D01*
X114924398Y-113874534D01*
X114919588Y-113923365D01*
X114910016Y-113971490D01*
X114895772Y-114018445D01*
X114876995Y-114063778D01*
X114853864Y-114107051D01*
X114826604Y-114147850D01*
X114795476Y-114185779D01*
X114760779Y-114220476D01*
X114722850Y-114251604D01*
X114682051Y-114278864D01*
X114638778Y-114301995D01*
X114593445Y-114320772D01*
X114546490Y-114335016D01*
X114498365Y-114344588D01*
X114449534Y-114349398D01*
X114425000Y-114349398D01*
X114425000Y-114350000D01*
X113925000Y-114350000D01*
X113925000Y-112850000D01*
X114425000Y-112850000D01*
X114425000Y-112850602D01*
G37*
G36*
X113625000Y-114350000D02*
G01*
X113125000Y-114350000D01*
X113125000Y-114349398D01*
X113100466Y-114349398D01*
X113051635Y-114344588D01*
X113003510Y-114335016D01*
X112956555Y-114320772D01*
X112911222Y-114301995D01*
X112867949Y-114278864D01*
X112827150Y-114251604D01*
X112789221Y-114220476D01*
X112754524Y-114185779D01*
X112723396Y-114147850D01*
X112696136Y-114107051D01*
X112673005Y-114063778D01*
X112654228Y-114018445D01*
X112639984Y-113971490D01*
X112630412Y-113923365D01*
X112625602Y-113874534D01*
X112625602Y-113850000D01*
X112625000Y-113850000D01*
X112625000Y-113350000D01*
X112625602Y-113350000D01*
X112625602Y-113325466D01*
X112630412Y-113276635D01*
X112639984Y-113228510D01*
X112654228Y-113181555D01*
X112673005Y-113136222D01*
X112696136Y-113092949D01*
X112723396Y-113052150D01*
X112754524Y-113014221D01*
X112789221Y-112979524D01*
X112827150Y-112948396D01*
X112867949Y-112921136D01*
X112911222Y-112898005D01*
X112956555Y-112879228D01*
X113003510Y-112864984D01*
X113051635Y-112855412D01*
X113100466Y-112850602D01*
X113125000Y-112850602D01*
X113125000Y-112850000D01*
X113625000Y-112850000D01*
X113625000Y-114350000D01*
G37*
%TD*%
%TO.C,C2*%
G36*
G01*
X118225001Y-116900000D02*
X116924999Y-116900000D01*
G75*
G02*
X116675000Y-116650001I0J249999D01*
G01*
X116675000Y-115999999D01*
G75*
G02*
X116924999Y-115750000I249999J0D01*
G01*
X118225001Y-115750000D01*
G75*
G02*
X118475000Y-115999999I0J-249999D01*
G01*
X118475000Y-116650001D01*
G75*
G02*
X118225001Y-116900000I-249999J0D01*
G01*
G37*
G36*
G01*
X118225001Y-119850000D02*
X116924999Y-119850000D01*
G75*
G02*
X116675000Y-119600001I0J249999D01*
G01*
X116675000Y-118949999D01*
G75*
G02*
X116924999Y-118700000I249999J0D01*
G01*
X118225001Y-118700000D01*
G75*
G02*
X118475000Y-118949999I0J-249999D01*
G01*
X118475000Y-119600001D01*
G75*
G02*
X118225001Y-119850000I-249999J0D01*
G01*
G37*
%TD*%
D13*
%TO.C,BT1*%
X108551000Y-133268000D03*
X163851000Y-133268000D03*
D14*
X160901000Y-127918000D03*
%TD*%
D15*
%TO.C,Q3*%
X160877000Y-110508000D03*
X162877000Y-111158000D03*
X162877000Y-109858000D03*
%TD*%
D11*
%TO.C,JP1*%
G36*
X116625602Y-121950000D02*
G01*
X116625602Y-121925466D01*
X116630412Y-121876635D01*
X116639984Y-121828510D01*
X116654228Y-121781555D01*
X116673005Y-121736222D01*
X116696136Y-121692949D01*
X116723396Y-121652150D01*
X116754524Y-121614221D01*
X116789221Y-121579524D01*
X116827150Y-121548396D01*
X116867949Y-121521136D01*
X116911222Y-121498005D01*
X116956555Y-121479228D01*
X117003510Y-121464984D01*
X117051635Y-121455412D01*
X117100466Y-121450602D01*
X117125000Y-121450602D01*
X117125000Y-121450000D01*
X117625000Y-121450000D01*
X117625000Y-121450602D01*
X117649534Y-121450602D01*
X117698365Y-121455412D01*
X117746490Y-121464984D01*
X117793445Y-121479228D01*
X117838778Y-121498005D01*
X117882051Y-121521136D01*
X117922850Y-121548396D01*
X117960779Y-121579524D01*
X117995476Y-121614221D01*
X118026604Y-121652150D01*
X118053864Y-121692949D01*
X118076995Y-121736222D01*
X118095772Y-121781555D01*
X118110016Y-121828510D01*
X118119588Y-121876635D01*
X118124398Y-121925466D01*
X118124398Y-121950000D01*
X118125000Y-121950000D01*
X118125000Y-122450000D01*
X116625000Y-122450000D01*
X116625000Y-121950000D01*
X116625602Y-121950000D01*
G37*
G36*
X118125000Y-122750000D02*
G01*
X118125000Y-123250000D01*
X118124398Y-123250000D01*
X118124398Y-123274534D01*
X118119588Y-123323365D01*
X118110016Y-123371490D01*
X118095772Y-123418445D01*
X118076995Y-123463778D01*
X118053864Y-123507051D01*
X118026604Y-123547850D01*
X117995476Y-123585779D01*
X117960779Y-123620476D01*
X117922850Y-123651604D01*
X117882051Y-123678864D01*
X117838778Y-123701995D01*
X117793445Y-123720772D01*
X117746490Y-123735016D01*
X117698365Y-123744588D01*
X117649534Y-123749398D01*
X117625000Y-123749398D01*
X117625000Y-123750000D01*
X117125000Y-123750000D01*
X117125000Y-123749398D01*
X117100466Y-123749398D01*
X117051635Y-123744588D01*
X117003510Y-123735016D01*
X116956555Y-123720772D01*
X116911222Y-123701995D01*
X116867949Y-123678864D01*
X116827150Y-123651604D01*
X116789221Y-123620476D01*
X116754524Y-123585779D01*
X116723396Y-123547850D01*
X116696136Y-123507051D01*
X116673005Y-123463778D01*
X116654228Y-123418445D01*
X116639984Y-123371490D01*
X116630412Y-123323365D01*
X116625602Y-123274534D01*
X116625602Y-123250000D01*
X116625000Y-123250000D01*
X116625000Y-122750000D01*
X118125000Y-122750000D01*
G37*
%TD*%
D10*
%TO.C,TP6*%
X120275000Y-99100000D03*
%TD*%
%TO.C,TP5*%
X122775000Y-99100000D03*
%TD*%
%TO.C,TP4*%
X125275000Y-99100000D03*
%TD*%
%TO.C,TP3*%
X127775000Y-99100000D03*
%TD*%
%TO.C,TP2*%
X117775000Y-99100000D03*
%TD*%
%TO.C,TP1*%
X115275000Y-99100000D03*
%TD*%
%TO.C,R9*%
G36*
G01*
X143850000Y-107425000D02*
X143850000Y-107975000D01*
G75*
G02*
X143650000Y-108175000I-200000J0D01*
G01*
X143250000Y-108175000D01*
G75*
G02*
X143050000Y-107975000I0J200000D01*
G01*
X143050000Y-107425000D01*
G75*
G02*
X143250000Y-107225000I200000J0D01*
G01*
X143650000Y-107225000D01*
G75*
G02*
X143850000Y-107425000I0J-200000D01*
G01*
G37*
G36*
G01*
X145500000Y-107425000D02*
X145500000Y-107975000D01*
G75*
G02*
X145300000Y-108175000I-200000J0D01*
G01*
X144900000Y-108175000D01*
G75*
G02*
X144700000Y-107975000I0J200000D01*
G01*
X144700000Y-107425000D01*
G75*
G02*
X144900000Y-107225000I200000J0D01*
G01*
X145300000Y-107225000D01*
G75*
G02*
X145500000Y-107425000I0J-200000D01*
G01*
G37*
%TD*%
%TO.C,R8*%
G36*
G01*
X138500000Y-107975000D02*
X138500000Y-107425000D01*
G75*
G02*
X138700000Y-107225000I200000J0D01*
G01*
X139100000Y-107225000D01*
G75*
G02*
X139300000Y-107425000I0J-200000D01*
G01*
X139300000Y-107975000D01*
G75*
G02*
X139100000Y-108175000I-200000J0D01*
G01*
X138700000Y-108175000D01*
G75*
G02*
X138500000Y-107975000I0J200000D01*
G01*
G37*
G36*
G01*
X136850000Y-107975000D02*
X136850000Y-107425000D01*
G75*
G02*
X137050000Y-107225000I200000J0D01*
G01*
X137450000Y-107225000D01*
G75*
G02*
X137650000Y-107425000I0J-200000D01*
G01*
X137650000Y-107975000D01*
G75*
G02*
X137450000Y-108175000I-200000J0D01*
G01*
X137050000Y-108175000D01*
G75*
G02*
X136850000Y-107975000I0J200000D01*
G01*
G37*
%TD*%
%TO.C,R10*%
G36*
G01*
X108700000Y-117575000D02*
X108700000Y-117025000D01*
G75*
G02*
X108900000Y-116825000I200000J0D01*
G01*
X109300000Y-116825000D01*
G75*
G02*
X109500000Y-117025000I0J-200000D01*
G01*
X109500000Y-117575000D01*
G75*
G02*
X109300000Y-117775000I-200000J0D01*
G01*
X108900000Y-117775000D01*
G75*
G02*
X108700000Y-117575000I0J200000D01*
G01*
G37*
G36*
G01*
X107050000Y-117575000D02*
X107050000Y-117025000D01*
G75*
G02*
X107250000Y-116825000I200000J0D01*
G01*
X107650000Y-116825000D01*
G75*
G02*
X107850000Y-117025000I0J-200000D01*
G01*
X107850000Y-117575000D01*
G75*
G02*
X107650000Y-117775000I-200000J0D01*
G01*
X107250000Y-117775000D01*
G75*
G02*
X107050000Y-117575000I0J200000D01*
G01*
G37*
%TD*%
D16*
%TO.C,SW1*%
X97400000Y-121850000D03*
X97400000Y-117350000D03*
X105350000Y-117350000D03*
X105350000Y-121850000D03*
%TD*%
%TO.C,SW3*%
X97400000Y-105450000D03*
X97400000Y-100950000D03*
X105350000Y-100950000D03*
X105350000Y-105450000D03*
%TD*%
%TO.C,SW2*%
X97400000Y-113650000D03*
X97400000Y-109150000D03*
X105350000Y-109150000D03*
X105350000Y-113650000D03*
%TD*%
%TO.C,C18*%
G36*
G01*
X123850000Y-118150000D02*
X123850000Y-117650000D01*
G75*
G02*
X124075000Y-117425000I225000J0D01*
G01*
X124525000Y-117425000D01*
G75*
G02*
X124750000Y-117650000I0J-225000D01*
G01*
X124750000Y-118150000D01*
G75*
G02*
X124525000Y-118375000I-225000J0D01*
G01*
X124075000Y-118375000D01*
G75*
G02*
X123850000Y-118150000I0J225000D01*
G01*
G37*
G36*
G01*
X125400000Y-118150000D02*
X125400000Y-117650000D01*
G75*
G02*
X125625000Y-117425000I225000J0D01*
G01*
X126075000Y-117425000D01*
G75*
G02*
X126300000Y-117650000I0J-225000D01*
G01*
X126300000Y-118150000D01*
G75*
G02*
X126075000Y-118375000I-225000J0D01*
G01*
X125625000Y-118375000D01*
G75*
G02*
X125400000Y-118150000I0J225000D01*
G01*
G37*
%TD*%
%TO.C,U2*%
G36*
G01*
X164825000Y-102145000D02*
X164825000Y-102445000D01*
G75*
G02*
X164675000Y-102595000I-150000J0D01*
G01*
X163075000Y-102595000D01*
G75*
G02*
X162925000Y-102445000I0J150000D01*
G01*
X162925000Y-102145000D01*
G75*
G02*
X163075000Y-101995000I150000J0D01*
G01*
X164675000Y-101995000D01*
G75*
G02*
X164825000Y-102145000I0J-150000D01*
G01*
G37*
G36*
G01*
X164825000Y-103415000D02*
X164825000Y-103715000D01*
G75*
G02*
X164675000Y-103865000I-150000J0D01*
G01*
X163075000Y-103865000D01*
G75*
G02*
X162925000Y-103715000I0J150000D01*
G01*
X162925000Y-103415000D01*
G75*
G02*
X163075000Y-103265000I150000J0D01*
G01*
X164675000Y-103265000D01*
G75*
G02*
X164825000Y-103415000I0J-150000D01*
G01*
G37*
G36*
G01*
X164825000Y-104685000D02*
X164825000Y-104985000D01*
G75*
G02*
X164675000Y-105135000I-150000J0D01*
G01*
X163075000Y-105135000D01*
G75*
G02*
X162925000Y-104985000I0J150000D01*
G01*
X162925000Y-104685000D01*
G75*
G02*
X163075000Y-104535000I150000J0D01*
G01*
X164675000Y-104535000D01*
G75*
G02*
X164825000Y-104685000I0J-150000D01*
G01*
G37*
G36*
G01*
X164825000Y-105955000D02*
X164825000Y-106255000D01*
G75*
G02*
X164675000Y-106405000I-150000J0D01*
G01*
X163075000Y-106405000D01*
G75*
G02*
X162925000Y-106255000I0J150000D01*
G01*
X162925000Y-105955000D01*
G75*
G02*
X163075000Y-105805000I150000J0D01*
G01*
X164675000Y-105805000D01*
G75*
G02*
X164825000Y-105955000I0J-150000D01*
G01*
G37*
G36*
G01*
X157825000Y-105955000D02*
X157825000Y-106255000D01*
G75*
G02*
X157675000Y-106405000I-150000J0D01*
G01*
X156075000Y-106405000D01*
G75*
G02*
X155925000Y-106255000I0J150000D01*
G01*
X155925000Y-105955000D01*
G75*
G02*
X156075000Y-105805000I150000J0D01*
G01*
X157675000Y-105805000D01*
G75*
G02*
X157825000Y-105955000I0J-150000D01*
G01*
G37*
G36*
G01*
X157825000Y-104685000D02*
X157825000Y-104985000D01*
G75*
G02*
X157675000Y-105135000I-150000J0D01*
G01*
X156075000Y-105135000D01*
G75*
G02*
X155925000Y-104985000I0J150000D01*
G01*
X155925000Y-104685000D01*
G75*
G02*
X156075000Y-104535000I150000J0D01*
G01*
X157675000Y-104535000D01*
G75*
G02*
X157825000Y-104685000I0J-150000D01*
G01*
G37*
G36*
G01*
X157825000Y-103415000D02*
X157825000Y-103715000D01*
G75*
G02*
X157675000Y-103865000I-150000J0D01*
G01*
X156075000Y-103865000D01*
G75*
G02*
X155925000Y-103715000I0J150000D01*
G01*
X155925000Y-103415000D01*
G75*
G02*
X156075000Y-103265000I150000J0D01*
G01*
X157675000Y-103265000D01*
G75*
G02*
X157825000Y-103415000I0J-150000D01*
G01*
G37*
G36*
G01*
X157825000Y-102145000D02*
X157825000Y-102445000D01*
G75*
G02*
X157675000Y-102595000I-150000J0D01*
G01*
X156075000Y-102595000D01*
G75*
G02*
X155925000Y-102445000I0J150000D01*
G01*
X155925000Y-102145000D01*
G75*
G02*
X156075000Y-101995000I150000J0D01*
G01*
X157675000Y-101995000D01*
G75*
G02*
X157825000Y-102145000I0J-150000D01*
G01*
G37*
%TD*%
%TO.C,C16*%
G36*
G01*
X154625000Y-101175000D02*
X155125000Y-101175000D01*
G75*
G02*
X155350000Y-101400000I0J-225000D01*
G01*
X155350000Y-101850000D01*
G75*
G02*
X155125000Y-102075000I-225000J0D01*
G01*
X154625000Y-102075000D01*
G75*
G02*
X154400000Y-101850000I0J225000D01*
G01*
X154400000Y-101400000D01*
G75*
G02*
X154625000Y-101175000I225000J0D01*
G01*
G37*
G36*
G01*
X154625000Y-102725000D02*
X155125000Y-102725000D01*
G75*
G02*
X155350000Y-102950000I0J-225000D01*
G01*
X155350000Y-103400000D01*
G75*
G02*
X155125000Y-103625000I-225000J0D01*
G01*
X154625000Y-103625000D01*
G75*
G02*
X154400000Y-103400000I0J225000D01*
G01*
X154400000Y-102950000D01*
G75*
G02*
X154625000Y-102725000I225000J0D01*
G01*
G37*
%TD*%
D17*
%TO.C,J1*%
X167725000Y-112238000D03*
X167725000Y-112738000D03*
X167725000Y-113238000D03*
X167725000Y-113738000D03*
X167725000Y-114238000D03*
X167725000Y-114738000D03*
X167725000Y-115238000D03*
X167725000Y-115738000D03*
X167725000Y-116238000D03*
X167725000Y-116738000D03*
X167725000Y-117238000D03*
X167725000Y-117738000D03*
X167725000Y-118238000D03*
X167725000Y-118738000D03*
X167725000Y-119238000D03*
X167725000Y-119738000D03*
X167725000Y-120238000D03*
X167725000Y-120738000D03*
X167725000Y-121238000D03*
X167725000Y-121738000D03*
X167725000Y-122238000D03*
X167725000Y-122738000D03*
X167725000Y-123238000D03*
X167725000Y-123738000D03*
D18*
X169425000Y-110568000D03*
X169425000Y-125408000D03*
%TD*%
%TO.C,C1*%
G36*
G01*
X119925000Y-119825000D02*
X119425000Y-119825000D01*
G75*
G02*
X119200000Y-119600000I0J225000D01*
G01*
X119200000Y-119150000D01*
G75*
G02*
X119425000Y-118925000I225000J0D01*
G01*
X119925000Y-118925000D01*
G75*
G02*
X120150000Y-119150000I0J-225000D01*
G01*
X120150000Y-119600000D01*
G75*
G02*
X119925000Y-119825000I-225000J0D01*
G01*
G37*
G36*
G01*
X119925000Y-118275000D02*
X119425000Y-118275000D01*
G75*
G02*
X119200000Y-118050000I0J225000D01*
G01*
X119200000Y-117600000D01*
G75*
G02*
X119425000Y-117375000I225000J0D01*
G01*
X119925000Y-117375000D01*
G75*
G02*
X120150000Y-117600000I0J-225000D01*
G01*
X120150000Y-118050000D01*
G75*
G02*
X119925000Y-118275000I-225000J0D01*
G01*
G37*
%TD*%
%TO.C,C3*%
G36*
G01*
X161806000Y-115846000D02*
X161806000Y-116346000D01*
G75*
G02*
X161581000Y-116571000I-225000J0D01*
G01*
X161131000Y-116571000D01*
G75*
G02*
X160906000Y-116346000I0J225000D01*
G01*
X160906000Y-115846000D01*
G75*
G02*
X161131000Y-115621000I225000J0D01*
G01*
X161581000Y-115621000D01*
G75*
G02*
X161806000Y-115846000I0J-225000D01*
G01*
G37*
G36*
G01*
X163356000Y-115846000D02*
X163356000Y-116346000D01*
G75*
G02*
X163131000Y-116571000I-225000J0D01*
G01*
X162681000Y-116571000D01*
G75*
G02*
X162456000Y-116346000I0J225000D01*
G01*
X162456000Y-115846000D01*
G75*
G02*
X162681000Y-115621000I225000J0D01*
G01*
X163131000Y-115621000D01*
G75*
G02*
X163356000Y-115846000I0J-225000D01*
G01*
G37*
%TD*%
%TO.C,C4*%
G36*
G01*
X161806000Y-114322000D02*
X161806000Y-114822000D01*
G75*
G02*
X161581000Y-115047000I-225000J0D01*
G01*
X161131000Y-115047000D01*
G75*
G02*
X160906000Y-114822000I0J225000D01*
G01*
X160906000Y-114322000D01*
G75*
G02*
X161131000Y-114097000I225000J0D01*
G01*
X161581000Y-114097000D01*
G75*
G02*
X161806000Y-114322000I0J-225000D01*
G01*
G37*
G36*
G01*
X163356000Y-114322000D02*
X163356000Y-114822000D01*
G75*
G02*
X163131000Y-115047000I-225000J0D01*
G01*
X162681000Y-115047000D01*
G75*
G02*
X162456000Y-114822000I0J225000D01*
G01*
X162456000Y-114322000D01*
G75*
G02*
X162681000Y-114097000I225000J0D01*
G01*
X163131000Y-114097000D01*
G75*
G02*
X163356000Y-114322000I0J-225000D01*
G01*
G37*
%TD*%
%TO.C,C5*%
G36*
G01*
X159408000Y-120094000D02*
X159408000Y-119594000D01*
G75*
G02*
X159633000Y-119369000I225000J0D01*
G01*
X160083000Y-119369000D01*
G75*
G02*
X160308000Y-119594000I0J-225000D01*
G01*
X160308000Y-120094000D01*
G75*
G02*
X160083000Y-120319000I-225000J0D01*
G01*
X159633000Y-120319000D01*
G75*
G02*
X159408000Y-120094000I0J225000D01*
G01*
G37*
G36*
G01*
X157858000Y-120094000D02*
X157858000Y-119594000D01*
G75*
G02*
X158083000Y-119369000I225000J0D01*
G01*
X158533000Y-119369000D01*
G75*
G02*
X158758000Y-119594000I0J-225000D01*
G01*
X158758000Y-120094000D01*
G75*
G02*
X158533000Y-120319000I-225000J0D01*
G01*
X158083000Y-120319000D01*
G75*
G02*
X157858000Y-120094000I0J225000D01*
G01*
G37*
%TD*%
%TO.C,C6*%
G36*
G01*
X163356000Y-118070000D02*
X163356000Y-118570000D01*
G75*
G02*
X163131000Y-118795000I-225000J0D01*
G01*
X162681000Y-118795000D01*
G75*
G02*
X162456000Y-118570000I0J225000D01*
G01*
X162456000Y-118070000D01*
G75*
G02*
X162681000Y-117845000I225000J0D01*
G01*
X163131000Y-117845000D01*
G75*
G02*
X163356000Y-118070000I0J-225000D01*
G01*
G37*
G36*
G01*
X161806000Y-118070000D02*
X161806000Y-118570000D01*
G75*
G02*
X161581000Y-118795000I-225000J0D01*
G01*
X161131000Y-118795000D01*
G75*
G02*
X160906000Y-118570000I0J225000D01*
G01*
X160906000Y-118070000D01*
G75*
G02*
X161131000Y-117845000I225000J0D01*
G01*
X161581000Y-117845000D01*
G75*
G02*
X161806000Y-118070000I0J-225000D01*
G01*
G37*
%TD*%
%TO.C,C7*%
G36*
G01*
X159408000Y-118570000D02*
X159408000Y-118070000D01*
G75*
G02*
X159633000Y-117845000I225000J0D01*
G01*
X160083000Y-117845000D01*
G75*
G02*
X160308000Y-118070000I0J-225000D01*
G01*
X160308000Y-118570000D01*
G75*
G02*
X160083000Y-118795000I-225000J0D01*
G01*
X159633000Y-118795000D01*
G75*
G02*
X159408000Y-118570000I0J225000D01*
G01*
G37*
G36*
G01*
X157858000Y-118570000D02*
X157858000Y-118070000D01*
G75*
G02*
X158083000Y-117845000I225000J0D01*
G01*
X158533000Y-117845000D01*
G75*
G02*
X158758000Y-118070000I0J-225000D01*
G01*
X158758000Y-118570000D01*
G75*
G02*
X158533000Y-118795000I-225000J0D01*
G01*
X158083000Y-118795000D01*
G75*
G02*
X157858000Y-118570000I0J225000D01*
G01*
G37*
%TD*%
%TO.C,C8*%
G36*
G01*
X155300000Y-116150000D02*
X155300000Y-115650000D01*
G75*
G02*
X155525000Y-115425000I225000J0D01*
G01*
X155975000Y-115425000D01*
G75*
G02*
X156200000Y-115650000I0J-225000D01*
G01*
X156200000Y-116150000D01*
G75*
G02*
X155975000Y-116375000I-225000J0D01*
G01*
X155525000Y-116375000D01*
G75*
G02*
X155300000Y-116150000I0J225000D01*
G01*
G37*
G36*
G01*
X153750000Y-116150000D02*
X153750000Y-115650000D01*
G75*
G02*
X153975000Y-115425000I225000J0D01*
G01*
X154425000Y-115425000D01*
G75*
G02*
X154650000Y-115650000I0J-225000D01*
G01*
X154650000Y-116150000D01*
G75*
G02*
X154425000Y-116375000I-225000J0D01*
G01*
X153975000Y-116375000D01*
G75*
G02*
X153750000Y-116150000I0J225000D01*
G01*
G37*
%TD*%
%TO.C,C9*%
G36*
G01*
X154007000Y-109791000D02*
X154507000Y-109791000D01*
G75*
G02*
X154732000Y-110016000I0J-225000D01*
G01*
X154732000Y-110466000D01*
G75*
G02*
X154507000Y-110691000I-225000J0D01*
G01*
X154007000Y-110691000D01*
G75*
G02*
X153782000Y-110466000I0J225000D01*
G01*
X153782000Y-110016000D01*
G75*
G02*
X154007000Y-109791000I225000J0D01*
G01*
G37*
G36*
G01*
X154007000Y-111341000D02*
X154507000Y-111341000D01*
G75*
G02*
X154732000Y-111566000I0J-225000D01*
G01*
X154732000Y-112016000D01*
G75*
G02*
X154507000Y-112241000I-225000J0D01*
G01*
X154007000Y-112241000D01*
G75*
G02*
X153782000Y-112016000I0J225000D01*
G01*
X153782000Y-111566000D01*
G75*
G02*
X154007000Y-111341000I225000J0D01*
G01*
G37*
%TD*%
%TO.C,C10*%
G36*
G01*
X163356000Y-119594000D02*
X163356000Y-120094000D01*
G75*
G02*
X163131000Y-120319000I-225000J0D01*
G01*
X162681000Y-120319000D01*
G75*
G02*
X162456000Y-120094000I0J225000D01*
G01*
X162456000Y-119594000D01*
G75*
G02*
X162681000Y-119369000I225000J0D01*
G01*
X163131000Y-119369000D01*
G75*
G02*
X163356000Y-119594000I0J-225000D01*
G01*
G37*
G36*
G01*
X161806000Y-119594000D02*
X161806000Y-120094000D01*
G75*
G02*
X161581000Y-120319000I-225000J0D01*
G01*
X161131000Y-120319000D01*
G75*
G02*
X160906000Y-120094000I0J225000D01*
G01*
X160906000Y-119594000D01*
G75*
G02*
X161131000Y-119369000I225000J0D01*
G01*
X161581000Y-119369000D01*
G75*
G02*
X161806000Y-119594000I0J-225000D01*
G01*
G37*
%TD*%
%TO.C,C11*%
G36*
G01*
X163356000Y-121118000D02*
X163356000Y-121618000D01*
G75*
G02*
X163131000Y-121843000I-225000J0D01*
G01*
X162681000Y-121843000D01*
G75*
G02*
X162456000Y-121618000I0J225000D01*
G01*
X162456000Y-121118000D01*
G75*
G02*
X162681000Y-120893000I225000J0D01*
G01*
X163131000Y-120893000D01*
G75*
G02*
X163356000Y-121118000I0J-225000D01*
G01*
G37*
G36*
G01*
X161806000Y-121118000D02*
X161806000Y-121618000D01*
G75*
G02*
X161581000Y-121843000I-225000J0D01*
G01*
X161131000Y-121843000D01*
G75*
G02*
X160906000Y-121618000I0J225000D01*
G01*
X160906000Y-121118000D01*
G75*
G02*
X161131000Y-120893000I225000J0D01*
G01*
X161581000Y-120893000D01*
G75*
G02*
X161806000Y-121118000I0J-225000D01*
G01*
G37*
%TD*%
%TO.C,C12*%
G36*
G01*
X161806000Y-122642000D02*
X161806000Y-123142000D01*
G75*
G02*
X161581000Y-123367000I-225000J0D01*
G01*
X161131000Y-123367000D01*
G75*
G02*
X160906000Y-123142000I0J225000D01*
G01*
X160906000Y-122642000D01*
G75*
G02*
X161131000Y-122417000I225000J0D01*
G01*
X161581000Y-122417000D01*
G75*
G02*
X161806000Y-122642000I0J-225000D01*
G01*
G37*
G36*
G01*
X163356000Y-122642000D02*
X163356000Y-123142000D01*
G75*
G02*
X163131000Y-123367000I-225000J0D01*
G01*
X162681000Y-123367000D01*
G75*
G02*
X162456000Y-123142000I0J225000D01*
G01*
X162456000Y-122642000D01*
G75*
G02*
X162681000Y-122417000I225000J0D01*
G01*
X163131000Y-122417000D01*
G75*
G02*
X163356000Y-122642000I0J-225000D01*
G01*
G37*
%TD*%
%TO.C,C13*%
G36*
G01*
X161806000Y-124166000D02*
X161806000Y-124666000D01*
G75*
G02*
X161581000Y-124891000I-225000J0D01*
G01*
X161131000Y-124891000D01*
G75*
G02*
X160906000Y-124666000I0J225000D01*
G01*
X160906000Y-124166000D01*
G75*
G02*
X161131000Y-123941000I225000J0D01*
G01*
X161581000Y-123941000D01*
G75*
G02*
X161806000Y-124166000I0J-225000D01*
G01*
G37*
G36*
G01*
X163356000Y-124166000D02*
X163356000Y-124666000D01*
G75*
G02*
X163131000Y-124891000I-225000J0D01*
G01*
X162681000Y-124891000D01*
G75*
G02*
X162456000Y-124666000I0J225000D01*
G01*
X162456000Y-124166000D01*
G75*
G02*
X162681000Y-123941000I225000J0D01*
G01*
X163131000Y-123941000D01*
G75*
G02*
X163356000Y-124166000I0J-225000D01*
G01*
G37*
%TD*%
%TO.C,C14*%
G36*
G01*
X157858000Y-123142000D02*
X157858000Y-122642000D01*
G75*
G02*
X158083000Y-122417000I225000J0D01*
G01*
X158533000Y-122417000D01*
G75*
G02*
X158758000Y-122642000I0J-225000D01*
G01*
X158758000Y-123142000D01*
G75*
G02*
X158533000Y-123367000I-225000J0D01*
G01*
X158083000Y-123367000D01*
G75*
G02*
X157858000Y-123142000I0J225000D01*
G01*
G37*
G36*
G01*
X159408000Y-123142000D02*
X159408000Y-122642000D01*
G75*
G02*
X159633000Y-122417000I225000J0D01*
G01*
X160083000Y-122417000D01*
G75*
G02*
X160308000Y-122642000I0J-225000D01*
G01*
X160308000Y-123142000D01*
G75*
G02*
X160083000Y-123367000I-225000J0D01*
G01*
X159633000Y-123367000D01*
G75*
G02*
X159408000Y-123142000I0J225000D01*
G01*
G37*
%TD*%
%TO.C,C15*%
G36*
G01*
X157858000Y-121618000D02*
X157858000Y-121118000D01*
G75*
G02*
X158083000Y-120893000I225000J0D01*
G01*
X158533000Y-120893000D01*
G75*
G02*
X158758000Y-121118000I0J-225000D01*
G01*
X158758000Y-121618000D01*
G75*
G02*
X158533000Y-121843000I-225000J0D01*
G01*
X158083000Y-121843000D01*
G75*
G02*
X157858000Y-121618000I0J225000D01*
G01*
G37*
G36*
G01*
X159408000Y-121618000D02*
X159408000Y-121118000D01*
G75*
G02*
X159633000Y-120893000I225000J0D01*
G01*
X160083000Y-120893000D01*
G75*
G02*
X160308000Y-121118000I0J-225000D01*
G01*
X160308000Y-121618000D01*
G75*
G02*
X160083000Y-121843000I-225000J0D01*
G01*
X159633000Y-121843000D01*
G75*
G02*
X159408000Y-121618000I0J225000D01*
G01*
G37*
%TD*%
%TO.C,C17*%
G36*
G01*
X130001000Y-117425000D02*
X130501000Y-117425000D01*
G75*
G02*
X130726000Y-117650000I0J-225000D01*
G01*
X130726000Y-118100000D01*
G75*
G02*
X130501000Y-118325000I-225000J0D01*
G01*
X130001000Y-118325000D01*
G75*
G02*
X129776000Y-118100000I0J225000D01*
G01*
X129776000Y-117650000D01*
G75*
G02*
X130001000Y-117425000I225000J0D01*
G01*
G37*
G36*
G01*
X130001000Y-118975000D02*
X130501000Y-118975000D01*
G75*
G02*
X130726000Y-119200000I0J-225000D01*
G01*
X130726000Y-119650000D01*
G75*
G02*
X130501000Y-119875000I-225000J0D01*
G01*
X130001000Y-119875000D01*
G75*
G02*
X129776000Y-119650000I0J225000D01*
G01*
X129776000Y-119200000D01*
G75*
G02*
X130001000Y-118975000I225000J0D01*
G01*
G37*
%TD*%
%TO.C,C19*%
G36*
G01*
X143750000Y-115050000D02*
X143750000Y-115550000D01*
G75*
G02*
X143525000Y-115775000I-225000J0D01*
G01*
X143075000Y-115775000D01*
G75*
G02*
X142850000Y-115550000I0J225000D01*
G01*
X142850000Y-115050000D01*
G75*
G02*
X143075000Y-114825000I225000J0D01*
G01*
X143525000Y-114825000D01*
G75*
G02*
X143750000Y-115050000I0J-225000D01*
G01*
G37*
G36*
G01*
X145300000Y-115050000D02*
X145300000Y-115550000D01*
G75*
G02*
X145075000Y-115775000I-225000J0D01*
G01*
X144625000Y-115775000D01*
G75*
G02*
X144400000Y-115550000I0J225000D01*
G01*
X144400000Y-115050000D01*
G75*
G02*
X144625000Y-114825000I225000J0D01*
G01*
X145075000Y-114825000D01*
G75*
G02*
X145300000Y-115050000I0J-225000D01*
G01*
G37*
%TD*%
%TO.C,C20*%
G36*
G01*
X141062000Y-118144000D02*
X141062000Y-117644000D01*
G75*
G02*
X141287000Y-117419000I225000J0D01*
G01*
X141737000Y-117419000D01*
G75*
G02*
X141962000Y-117644000I0J-225000D01*
G01*
X141962000Y-118144000D01*
G75*
G02*
X141737000Y-118369000I-225000J0D01*
G01*
X141287000Y-118369000D01*
G75*
G02*
X141062000Y-118144000I0J225000D01*
G01*
G37*
G36*
G01*
X142612000Y-118144000D02*
X142612000Y-117644000D01*
G75*
G02*
X142837000Y-117419000I225000J0D01*
G01*
X143287000Y-117419000D01*
G75*
G02*
X143512000Y-117644000I0J-225000D01*
G01*
X143512000Y-118144000D01*
G75*
G02*
X143287000Y-118369000I-225000J0D01*
G01*
X142837000Y-118369000D01*
G75*
G02*
X142612000Y-118144000I0J225000D01*
G01*
G37*
%TD*%
%TO.C,C21*%
G36*
G01*
X141062000Y-123224000D02*
X141062000Y-122724000D01*
G75*
G02*
X141287000Y-122499000I225000J0D01*
G01*
X141737000Y-122499000D01*
G75*
G02*
X141962000Y-122724000I0J-225000D01*
G01*
X141962000Y-123224000D01*
G75*
G02*
X141737000Y-123449000I-225000J0D01*
G01*
X141287000Y-123449000D01*
G75*
G02*
X141062000Y-123224000I0J225000D01*
G01*
G37*
G36*
G01*
X142612000Y-123224000D02*
X142612000Y-122724000D01*
G75*
G02*
X142837000Y-122499000I225000J0D01*
G01*
X143287000Y-122499000D01*
G75*
G02*
X143512000Y-122724000I0J-225000D01*
G01*
X143512000Y-123224000D01*
G75*
G02*
X143287000Y-123449000I-225000J0D01*
G01*
X142837000Y-123449000D01*
G75*
G02*
X142612000Y-123224000I0J225000D01*
G01*
G37*
%TD*%
%TO.C,C22*%
G36*
G01*
X134925000Y-117450000D02*
X134925000Y-117950000D01*
G75*
G02*
X134700000Y-118175000I-225000J0D01*
G01*
X134250000Y-118175000D01*
G75*
G02*
X134025000Y-117950000I0J225000D01*
G01*
X134025000Y-117450000D01*
G75*
G02*
X134250000Y-117225000I225000J0D01*
G01*
X134700000Y-117225000D01*
G75*
G02*
X134925000Y-117450000I0J-225000D01*
G01*
G37*
G36*
G01*
X136475000Y-117450000D02*
X136475000Y-117950000D01*
G75*
G02*
X136250000Y-118175000I-225000J0D01*
G01*
X135800000Y-118175000D01*
G75*
G02*
X135575000Y-117950000I0J225000D01*
G01*
X135575000Y-117450000D01*
G75*
G02*
X135800000Y-117225000I225000J0D01*
G01*
X136250000Y-117225000D01*
G75*
G02*
X136475000Y-117450000I0J-225000D01*
G01*
G37*
%TD*%
D19*
%TO.C,D1*%
X156669000Y-122700000D03*
X153369000Y-122700000D03*
%TD*%
%TO.C,D2*%
X156669000Y-120300000D03*
X153369000Y-120300000D03*
%TD*%
%TO.C,D3*%
X153369000Y-117874000D03*
X156669000Y-117874000D03*
%TD*%
D20*
%TO.C,L1*%
X113475000Y-123685000D03*
X113475000Y-121315000D03*
%TD*%
%TO.C,L2*%
X157559000Y-109831000D03*
X157559000Y-112201000D03*
%TD*%
D21*
%TO.C,Q1*%
X121625000Y-123600000D03*
X119725000Y-123600000D03*
X120675000Y-121600000D03*
%TD*%
D22*
%TO.C,Q2*%
X149375000Y-104050000D03*
X149375000Y-102150000D03*
X151375000Y-103100000D03*
%TD*%
%TO.C,R1*%
G36*
G01*
X121000000Y-119025000D02*
X121550000Y-119025000D01*
G75*
G02*
X121750000Y-119225000I0J-200000D01*
G01*
X121750000Y-119625000D01*
G75*
G02*
X121550000Y-119825000I-200000J0D01*
G01*
X121000000Y-119825000D01*
G75*
G02*
X120800000Y-119625000I0J200000D01*
G01*
X120800000Y-119225000D01*
G75*
G02*
X121000000Y-119025000I200000J0D01*
G01*
G37*
G36*
G01*
X121000000Y-117375000D02*
X121550000Y-117375000D01*
G75*
G02*
X121750000Y-117575000I0J-200000D01*
G01*
X121750000Y-117975000D01*
G75*
G02*
X121550000Y-118175000I-200000J0D01*
G01*
X121000000Y-118175000D01*
G75*
G02*
X120800000Y-117975000I0J200000D01*
G01*
X120800000Y-117575000D01*
G75*
G02*
X121000000Y-117375000I200000J0D01*
G01*
G37*
%TD*%
%TO.C,R2*%
G36*
G01*
X158658000Y-115821000D02*
X158658000Y-116371000D01*
G75*
G02*
X158458000Y-116571000I-200000J0D01*
G01*
X158058000Y-116571000D01*
G75*
G02*
X157858000Y-116371000I0J200000D01*
G01*
X157858000Y-115821000D01*
G75*
G02*
X158058000Y-115621000I200000J0D01*
G01*
X158458000Y-115621000D01*
G75*
G02*
X158658000Y-115821000I0J-200000D01*
G01*
G37*
G36*
G01*
X160308000Y-115821000D02*
X160308000Y-116371000D01*
G75*
G02*
X160108000Y-116571000I-200000J0D01*
G01*
X159708000Y-116571000D01*
G75*
G02*
X159508000Y-116371000I0J200000D01*
G01*
X159508000Y-115821000D01*
G75*
G02*
X159708000Y-115621000I200000J0D01*
G01*
X160108000Y-115621000D01*
G75*
G02*
X160308000Y-115821000I0J-200000D01*
G01*
G37*
%TD*%
%TO.C,R3*%
G36*
G01*
X158658000Y-114297000D02*
X158658000Y-114847000D01*
G75*
G02*
X158458000Y-115047000I-200000J0D01*
G01*
X158058000Y-115047000D01*
G75*
G02*
X157858000Y-114847000I0J200000D01*
G01*
X157858000Y-114297000D01*
G75*
G02*
X158058000Y-114097000I200000J0D01*
G01*
X158458000Y-114097000D01*
G75*
G02*
X158658000Y-114297000I0J-200000D01*
G01*
G37*
G36*
G01*
X160308000Y-114297000D02*
X160308000Y-114847000D01*
G75*
G02*
X160108000Y-115047000I-200000J0D01*
G01*
X159708000Y-115047000D01*
G75*
G02*
X159508000Y-114847000I0J200000D01*
G01*
X159508000Y-114297000D01*
G75*
G02*
X159708000Y-114097000I200000J0D01*
G01*
X160108000Y-114097000D01*
G75*
G02*
X160308000Y-114297000I0J-200000D01*
G01*
G37*
%TD*%
%TO.C,R4*%
G36*
G01*
X162556000Y-113323000D02*
X162556000Y-112773000D01*
G75*
G02*
X162756000Y-112573000I200000J0D01*
G01*
X163156000Y-112573000D01*
G75*
G02*
X163356000Y-112773000I0J-200000D01*
G01*
X163356000Y-113323000D01*
G75*
G02*
X163156000Y-113523000I-200000J0D01*
G01*
X162756000Y-113523000D01*
G75*
G02*
X162556000Y-113323000I0J200000D01*
G01*
G37*
G36*
G01*
X160906000Y-113323000D02*
X160906000Y-112773000D01*
G75*
G02*
X161106000Y-112573000I200000J0D01*
G01*
X161506000Y-112573000D01*
G75*
G02*
X161706000Y-112773000I0J-200000D01*
G01*
X161706000Y-113323000D01*
G75*
G02*
X161506000Y-113523000I-200000J0D01*
G01*
X161106000Y-113523000D01*
G75*
G02*
X160906000Y-113323000I0J200000D01*
G01*
G37*
%TD*%
%TO.C,R5*%
G36*
G01*
X129002000Y-119875000D02*
X128452000Y-119875000D01*
G75*
G02*
X128252000Y-119675000I0J200000D01*
G01*
X128252000Y-119275000D01*
G75*
G02*
X128452000Y-119075000I200000J0D01*
G01*
X129002000Y-119075000D01*
G75*
G02*
X129202000Y-119275000I0J-200000D01*
G01*
X129202000Y-119675000D01*
G75*
G02*
X129002000Y-119875000I-200000J0D01*
G01*
G37*
G36*
G01*
X129002000Y-118225000D02*
X128452000Y-118225000D01*
G75*
G02*
X128252000Y-118025000I0J200000D01*
G01*
X128252000Y-117625000D01*
G75*
G02*
X128452000Y-117425000I200000J0D01*
G01*
X129002000Y-117425000D01*
G75*
G02*
X129202000Y-117625000I0J-200000D01*
G01*
X129202000Y-118025000D01*
G75*
G02*
X129002000Y-118225000I-200000J0D01*
G01*
G37*
%TD*%
%TO.C,R11*%
G36*
G01*
X107050000Y-109375000D02*
X107050000Y-108825000D01*
G75*
G02*
X107250000Y-108625000I200000J0D01*
G01*
X107650000Y-108625000D01*
G75*
G02*
X107850000Y-108825000I0J-200000D01*
G01*
X107850000Y-109375000D01*
G75*
G02*
X107650000Y-109575000I-200000J0D01*
G01*
X107250000Y-109575000D01*
G75*
G02*
X107050000Y-109375000I0J200000D01*
G01*
G37*
G36*
G01*
X108700000Y-109375000D02*
X108700000Y-108825000D01*
G75*
G02*
X108900000Y-108625000I200000J0D01*
G01*
X109300000Y-108625000D01*
G75*
G02*
X109500000Y-108825000I0J-200000D01*
G01*
X109500000Y-109375000D01*
G75*
G02*
X109300000Y-109575000I-200000J0D01*
G01*
X108900000Y-109575000D01*
G75*
G02*
X108700000Y-109375000I0J200000D01*
G01*
G37*
%TD*%
%TO.C,R12*%
G36*
G01*
X108700000Y-101175000D02*
X108700000Y-100625000D01*
G75*
G02*
X108900000Y-100425000I200000J0D01*
G01*
X109300000Y-100425000D01*
G75*
G02*
X109500000Y-100625000I0J-200000D01*
G01*
X109500000Y-101175000D01*
G75*
G02*
X109300000Y-101375000I-200000J0D01*
G01*
X108900000Y-101375000D01*
G75*
G02*
X108700000Y-101175000I0J200000D01*
G01*
G37*
G36*
G01*
X107050000Y-101175000D02*
X107050000Y-100625000D01*
G75*
G02*
X107250000Y-100425000I200000J0D01*
G01*
X107650000Y-100425000D01*
G75*
G02*
X107850000Y-100625000I0J-200000D01*
G01*
X107850000Y-101175000D01*
G75*
G02*
X107650000Y-101375000I-200000J0D01*
G01*
X107250000Y-101375000D01*
G75*
G02*
X107050000Y-101175000I0J200000D01*
G01*
G37*
%TD*%
D23*
%TO.C,U1*%
X115175000Y-119250000D03*
X112175000Y-119250000D03*
D11*
G36*
X114541500Y-115300000D02*
G01*
X114541500Y-118425000D01*
X114125000Y-118425000D01*
X114125000Y-119900000D01*
X113225000Y-119900000D01*
X113225000Y-118425000D01*
X112808500Y-118425000D01*
X112808500Y-115300000D01*
X114541500Y-115300000D01*
G37*
%TD*%
%TO.C,U3*%
G36*
G01*
X129328000Y-116117000D02*
X129328000Y-115917000D01*
G75*
G02*
X129428000Y-115817000I100000J0D01*
G01*
X130703000Y-115817000D01*
G75*
G02*
X130803000Y-115917000I0J-100000D01*
G01*
X130803000Y-116117000D01*
G75*
G02*
X130703000Y-116217000I-100000J0D01*
G01*
X129428000Y-116217000D01*
G75*
G02*
X129328000Y-116117000I0J100000D01*
G01*
G37*
G36*
G01*
X129328000Y-115467000D02*
X129328000Y-115267000D01*
G75*
G02*
X129428000Y-115167000I100000J0D01*
G01*
X130703000Y-115167000D01*
G75*
G02*
X130803000Y-115267000I0J-100000D01*
G01*
X130803000Y-115467000D01*
G75*
G02*
X130703000Y-115567000I-100000J0D01*
G01*
X129428000Y-115567000D01*
G75*
G02*
X129328000Y-115467000I0J100000D01*
G01*
G37*
G36*
G01*
X129328000Y-114817000D02*
X129328000Y-114617000D01*
G75*
G02*
X129428000Y-114517000I100000J0D01*
G01*
X130703000Y-114517000D01*
G75*
G02*
X130803000Y-114617000I0J-100000D01*
G01*
X130803000Y-114817000D01*
G75*
G02*
X130703000Y-114917000I-100000J0D01*
G01*
X129428000Y-114917000D01*
G75*
G02*
X129328000Y-114817000I0J100000D01*
G01*
G37*
G36*
G01*
X129328000Y-114167000D02*
X129328000Y-113967000D01*
G75*
G02*
X129428000Y-113867000I100000J0D01*
G01*
X130703000Y-113867000D01*
G75*
G02*
X130803000Y-113967000I0J-100000D01*
G01*
X130803000Y-114167000D01*
G75*
G02*
X130703000Y-114267000I-100000J0D01*
G01*
X129428000Y-114267000D01*
G75*
G02*
X129328000Y-114167000I0J100000D01*
G01*
G37*
G36*
G01*
X129328000Y-113517000D02*
X129328000Y-113317000D01*
G75*
G02*
X129428000Y-113217000I100000J0D01*
G01*
X130703000Y-113217000D01*
G75*
G02*
X130803000Y-113317000I0J-100000D01*
G01*
X130803000Y-113517000D01*
G75*
G02*
X130703000Y-113617000I-100000J0D01*
G01*
X129428000Y-113617000D01*
G75*
G02*
X129328000Y-113517000I0J100000D01*
G01*
G37*
G36*
G01*
X129328000Y-112867000D02*
X129328000Y-112667000D01*
G75*
G02*
X129428000Y-112567000I100000J0D01*
G01*
X130703000Y-112567000D01*
G75*
G02*
X130803000Y-112667000I0J-100000D01*
G01*
X130803000Y-112867000D01*
G75*
G02*
X130703000Y-112967000I-100000J0D01*
G01*
X129428000Y-112967000D01*
G75*
G02*
X129328000Y-112867000I0J100000D01*
G01*
G37*
G36*
G01*
X129328000Y-112217000D02*
X129328000Y-112017000D01*
G75*
G02*
X129428000Y-111917000I100000J0D01*
G01*
X130703000Y-111917000D01*
G75*
G02*
X130803000Y-112017000I0J-100000D01*
G01*
X130803000Y-112217000D01*
G75*
G02*
X130703000Y-112317000I-100000J0D01*
G01*
X129428000Y-112317000D01*
G75*
G02*
X129328000Y-112217000I0J100000D01*
G01*
G37*
G36*
G01*
X129328000Y-111567000D02*
X129328000Y-111367000D01*
G75*
G02*
X129428000Y-111267000I100000J0D01*
G01*
X130703000Y-111267000D01*
G75*
G02*
X130803000Y-111367000I0J-100000D01*
G01*
X130803000Y-111567000D01*
G75*
G02*
X130703000Y-111667000I-100000J0D01*
G01*
X129428000Y-111667000D01*
G75*
G02*
X129328000Y-111567000I0J100000D01*
G01*
G37*
G36*
G01*
X129328000Y-110917000D02*
X129328000Y-110717000D01*
G75*
G02*
X129428000Y-110617000I100000J0D01*
G01*
X130703000Y-110617000D01*
G75*
G02*
X130803000Y-110717000I0J-100000D01*
G01*
X130803000Y-110917000D01*
G75*
G02*
X130703000Y-111017000I-100000J0D01*
G01*
X129428000Y-111017000D01*
G75*
G02*
X129328000Y-110917000I0J100000D01*
G01*
G37*
G36*
G01*
X129328000Y-110267000D02*
X129328000Y-110067000D01*
G75*
G02*
X129428000Y-109967000I100000J0D01*
G01*
X130703000Y-109967000D01*
G75*
G02*
X130803000Y-110067000I0J-100000D01*
G01*
X130803000Y-110267000D01*
G75*
G02*
X130703000Y-110367000I-100000J0D01*
G01*
X129428000Y-110367000D01*
G75*
G02*
X129328000Y-110267000I0J100000D01*
G01*
G37*
G36*
G01*
X129328000Y-109617000D02*
X129328000Y-109417000D01*
G75*
G02*
X129428000Y-109317000I100000J0D01*
G01*
X130703000Y-109317000D01*
G75*
G02*
X130803000Y-109417000I0J-100000D01*
G01*
X130803000Y-109617000D01*
G75*
G02*
X130703000Y-109717000I-100000J0D01*
G01*
X129428000Y-109717000D01*
G75*
G02*
X129328000Y-109617000I0J100000D01*
G01*
G37*
G36*
G01*
X129328000Y-108967000D02*
X129328000Y-108767000D01*
G75*
G02*
X129428000Y-108667000I100000J0D01*
G01*
X130703000Y-108667000D01*
G75*
G02*
X130803000Y-108767000I0J-100000D01*
G01*
X130803000Y-108967000D01*
G75*
G02*
X130703000Y-109067000I-100000J0D01*
G01*
X129428000Y-109067000D01*
G75*
G02*
X129328000Y-108967000I0J100000D01*
G01*
G37*
G36*
G01*
X129328000Y-108317000D02*
X129328000Y-108117000D01*
G75*
G02*
X129428000Y-108017000I100000J0D01*
G01*
X130703000Y-108017000D01*
G75*
G02*
X130803000Y-108117000I0J-100000D01*
G01*
X130803000Y-108317000D01*
G75*
G02*
X130703000Y-108417000I-100000J0D01*
G01*
X129428000Y-108417000D01*
G75*
G02*
X129328000Y-108317000I0J100000D01*
G01*
G37*
G36*
G01*
X129328000Y-107667000D02*
X129328000Y-107467000D01*
G75*
G02*
X129428000Y-107367000I100000J0D01*
G01*
X130703000Y-107367000D01*
G75*
G02*
X130803000Y-107467000I0J-100000D01*
G01*
X130803000Y-107667000D01*
G75*
G02*
X130703000Y-107767000I-100000J0D01*
G01*
X129428000Y-107767000D01*
G75*
G02*
X129328000Y-107667000I0J100000D01*
G01*
G37*
G36*
G01*
X123603000Y-107667000D02*
X123603000Y-107467000D01*
G75*
G02*
X123703000Y-107367000I100000J0D01*
G01*
X124978000Y-107367000D01*
G75*
G02*
X125078000Y-107467000I0J-100000D01*
G01*
X125078000Y-107667000D01*
G75*
G02*
X124978000Y-107767000I-100000J0D01*
G01*
X123703000Y-107767000D01*
G75*
G02*
X123603000Y-107667000I0J100000D01*
G01*
G37*
G36*
G01*
X123603000Y-108317000D02*
X123603000Y-108117000D01*
G75*
G02*
X123703000Y-108017000I100000J0D01*
G01*
X124978000Y-108017000D01*
G75*
G02*
X125078000Y-108117000I0J-100000D01*
G01*
X125078000Y-108317000D01*
G75*
G02*
X124978000Y-108417000I-100000J0D01*
G01*
X123703000Y-108417000D01*
G75*
G02*
X123603000Y-108317000I0J100000D01*
G01*
G37*
G36*
G01*
X123603000Y-108967000D02*
X123603000Y-108767000D01*
G75*
G02*
X123703000Y-108667000I100000J0D01*
G01*
X124978000Y-108667000D01*
G75*
G02*
X125078000Y-108767000I0J-100000D01*
G01*
X125078000Y-108967000D01*
G75*
G02*
X124978000Y-109067000I-100000J0D01*
G01*
X123703000Y-109067000D01*
G75*
G02*
X123603000Y-108967000I0J100000D01*
G01*
G37*
G36*
G01*
X123603000Y-109617000D02*
X123603000Y-109417000D01*
G75*
G02*
X123703000Y-109317000I100000J0D01*
G01*
X124978000Y-109317000D01*
G75*
G02*
X125078000Y-109417000I0J-100000D01*
G01*
X125078000Y-109617000D01*
G75*
G02*
X124978000Y-109717000I-100000J0D01*
G01*
X123703000Y-109717000D01*
G75*
G02*
X123603000Y-109617000I0J100000D01*
G01*
G37*
G36*
G01*
X123603000Y-110267000D02*
X123603000Y-110067000D01*
G75*
G02*
X123703000Y-109967000I100000J0D01*
G01*
X124978000Y-109967000D01*
G75*
G02*
X125078000Y-110067000I0J-100000D01*
G01*
X125078000Y-110267000D01*
G75*
G02*
X124978000Y-110367000I-100000J0D01*
G01*
X123703000Y-110367000D01*
G75*
G02*
X123603000Y-110267000I0J100000D01*
G01*
G37*
G36*
G01*
X123603000Y-110917000D02*
X123603000Y-110717000D01*
G75*
G02*
X123703000Y-110617000I100000J0D01*
G01*
X124978000Y-110617000D01*
G75*
G02*
X125078000Y-110717000I0J-100000D01*
G01*
X125078000Y-110917000D01*
G75*
G02*
X124978000Y-111017000I-100000J0D01*
G01*
X123703000Y-111017000D01*
G75*
G02*
X123603000Y-110917000I0J100000D01*
G01*
G37*
G36*
G01*
X123603000Y-111567000D02*
X123603000Y-111367000D01*
G75*
G02*
X123703000Y-111267000I100000J0D01*
G01*
X124978000Y-111267000D01*
G75*
G02*
X125078000Y-111367000I0J-100000D01*
G01*
X125078000Y-111567000D01*
G75*
G02*
X124978000Y-111667000I-100000J0D01*
G01*
X123703000Y-111667000D01*
G75*
G02*
X123603000Y-111567000I0J100000D01*
G01*
G37*
G36*
G01*
X123603000Y-112217000D02*
X123603000Y-112017000D01*
G75*
G02*
X123703000Y-111917000I100000J0D01*
G01*
X124978000Y-111917000D01*
G75*
G02*
X125078000Y-112017000I0J-100000D01*
G01*
X125078000Y-112217000D01*
G75*
G02*
X124978000Y-112317000I-100000J0D01*
G01*
X123703000Y-112317000D01*
G75*
G02*
X123603000Y-112217000I0J100000D01*
G01*
G37*
G36*
G01*
X123603000Y-112867000D02*
X123603000Y-112667000D01*
G75*
G02*
X123703000Y-112567000I100000J0D01*
G01*
X124978000Y-112567000D01*
G75*
G02*
X125078000Y-112667000I0J-100000D01*
G01*
X125078000Y-112867000D01*
G75*
G02*
X124978000Y-112967000I-100000J0D01*
G01*
X123703000Y-112967000D01*
G75*
G02*
X123603000Y-112867000I0J100000D01*
G01*
G37*
G36*
G01*
X123603000Y-113517000D02*
X123603000Y-113317000D01*
G75*
G02*
X123703000Y-113217000I100000J0D01*
G01*
X124978000Y-113217000D01*
G75*
G02*
X125078000Y-113317000I0J-100000D01*
G01*
X125078000Y-113517000D01*
G75*
G02*
X124978000Y-113617000I-100000J0D01*
G01*
X123703000Y-113617000D01*
G75*
G02*
X123603000Y-113517000I0J100000D01*
G01*
G37*
G36*
G01*
X123603000Y-114167000D02*
X123603000Y-113967000D01*
G75*
G02*
X123703000Y-113867000I100000J0D01*
G01*
X124978000Y-113867000D01*
G75*
G02*
X125078000Y-113967000I0J-100000D01*
G01*
X125078000Y-114167000D01*
G75*
G02*
X124978000Y-114267000I-100000J0D01*
G01*
X123703000Y-114267000D01*
G75*
G02*
X123603000Y-114167000I0J100000D01*
G01*
G37*
G36*
G01*
X123603000Y-114817000D02*
X123603000Y-114617000D01*
G75*
G02*
X123703000Y-114517000I100000J0D01*
G01*
X124978000Y-114517000D01*
G75*
G02*
X125078000Y-114617000I0J-100000D01*
G01*
X125078000Y-114817000D01*
G75*
G02*
X124978000Y-114917000I-100000J0D01*
G01*
X123703000Y-114917000D01*
G75*
G02*
X123603000Y-114817000I0J100000D01*
G01*
G37*
G36*
G01*
X123603000Y-115467000D02*
X123603000Y-115267000D01*
G75*
G02*
X123703000Y-115167000I100000J0D01*
G01*
X124978000Y-115167000D01*
G75*
G02*
X125078000Y-115267000I0J-100000D01*
G01*
X125078000Y-115467000D01*
G75*
G02*
X124978000Y-115567000I-100000J0D01*
G01*
X123703000Y-115567000D01*
G75*
G02*
X123603000Y-115467000I0J100000D01*
G01*
G37*
G36*
G01*
X123603000Y-116117000D02*
X123603000Y-115917000D01*
G75*
G02*
X123703000Y-115817000I100000J0D01*
G01*
X124978000Y-115817000D01*
G75*
G02*
X125078000Y-115917000I0J-100000D01*
G01*
X125078000Y-116117000D01*
G75*
G02*
X124978000Y-116217000I-100000J0D01*
G01*
X123703000Y-116217000D01*
G75*
G02*
X123603000Y-116117000I0J100000D01*
G01*
G37*
%TD*%
%TO.C,U4*%
G36*
G01*
X143993000Y-113609000D02*
X143993000Y-113309000D01*
G75*
G02*
X144143000Y-113159000I150000J0D01*
G01*
X145443000Y-113159000D01*
G75*
G02*
X145593000Y-113309000I0J-150000D01*
G01*
X145593000Y-113609000D01*
G75*
G02*
X145443000Y-113759000I-150000J0D01*
G01*
X144143000Y-113759000D01*
G75*
G02*
X143993000Y-113609000I0J150000D01*
G01*
G37*
G36*
G01*
X143993000Y-112339000D02*
X143993000Y-112039000D01*
G75*
G02*
X144143000Y-111889000I150000J0D01*
G01*
X145443000Y-111889000D01*
G75*
G02*
X145593000Y-112039000I0J-150000D01*
G01*
X145593000Y-112339000D01*
G75*
G02*
X145443000Y-112489000I-150000J0D01*
G01*
X144143000Y-112489000D01*
G75*
G02*
X143993000Y-112339000I0J150000D01*
G01*
G37*
G36*
G01*
X143993000Y-111069000D02*
X143993000Y-110769000D01*
G75*
G02*
X144143000Y-110619000I150000J0D01*
G01*
X145443000Y-110619000D01*
G75*
G02*
X145593000Y-110769000I0J-150000D01*
G01*
X145593000Y-111069000D01*
G75*
G02*
X145443000Y-111219000I-150000J0D01*
G01*
X144143000Y-111219000D01*
G75*
G02*
X143993000Y-111069000I0J150000D01*
G01*
G37*
G36*
G01*
X143993000Y-109799000D02*
X143993000Y-109499000D01*
G75*
G02*
X144143000Y-109349000I150000J0D01*
G01*
X145443000Y-109349000D01*
G75*
G02*
X145593000Y-109499000I0J-150000D01*
G01*
X145593000Y-109799000D01*
G75*
G02*
X145443000Y-109949000I-150000J0D01*
G01*
X144143000Y-109949000D01*
G75*
G02*
X143993000Y-109799000I0J150000D01*
G01*
G37*
G36*
G01*
X136793000Y-109799000D02*
X136793000Y-109499000D01*
G75*
G02*
X136943000Y-109349000I150000J0D01*
G01*
X138243000Y-109349000D01*
G75*
G02*
X138393000Y-109499000I0J-150000D01*
G01*
X138393000Y-109799000D01*
G75*
G02*
X138243000Y-109949000I-150000J0D01*
G01*
X136943000Y-109949000D01*
G75*
G02*
X136793000Y-109799000I0J150000D01*
G01*
G37*
G36*
G01*
X136793000Y-111069000D02*
X136793000Y-110769000D01*
G75*
G02*
X136943000Y-110619000I150000J0D01*
G01*
X138243000Y-110619000D01*
G75*
G02*
X138393000Y-110769000I0J-150000D01*
G01*
X138393000Y-111069000D01*
G75*
G02*
X138243000Y-111219000I-150000J0D01*
G01*
X136943000Y-111219000D01*
G75*
G02*
X136793000Y-111069000I0J150000D01*
G01*
G37*
G36*
G01*
X136793000Y-112339000D02*
X136793000Y-112039000D01*
G75*
G02*
X136943000Y-111889000I150000J0D01*
G01*
X138243000Y-111889000D01*
G75*
G02*
X138393000Y-112039000I0J-150000D01*
G01*
X138393000Y-112339000D01*
G75*
G02*
X138243000Y-112489000I-150000J0D01*
G01*
X136943000Y-112489000D01*
G75*
G02*
X136793000Y-112339000I0J150000D01*
G01*
G37*
G36*
G01*
X136793000Y-113609000D02*
X136793000Y-113309000D01*
G75*
G02*
X136943000Y-113159000I150000J0D01*
G01*
X138243000Y-113159000D01*
G75*
G02*
X138393000Y-113309000I0J-150000D01*
G01*
X138393000Y-113609000D01*
G75*
G02*
X138243000Y-113759000I-150000J0D01*
G01*
X136943000Y-113759000D01*
G75*
G02*
X136793000Y-113609000I0J150000D01*
G01*
G37*
%TD*%
%TO.C,U5*%
G36*
G01*
X140403000Y-119395000D02*
X140403000Y-119695000D01*
G75*
G02*
X140253000Y-119845000I-150000J0D01*
G01*
X138603000Y-119845000D01*
G75*
G02*
X138453000Y-119695000I0J150000D01*
G01*
X138453000Y-119395000D01*
G75*
G02*
X138603000Y-119245000I150000J0D01*
G01*
X140253000Y-119245000D01*
G75*
G02*
X140403000Y-119395000I0J-150000D01*
G01*
G37*
G36*
G01*
X140403000Y-120665000D02*
X140403000Y-120965000D01*
G75*
G02*
X140253000Y-121115000I-150000J0D01*
G01*
X138603000Y-121115000D01*
G75*
G02*
X138453000Y-120965000I0J150000D01*
G01*
X138453000Y-120665000D01*
G75*
G02*
X138603000Y-120515000I150000J0D01*
G01*
X140253000Y-120515000D01*
G75*
G02*
X140403000Y-120665000I0J-150000D01*
G01*
G37*
G36*
G01*
X140403000Y-121935000D02*
X140403000Y-122235000D01*
G75*
G02*
X140253000Y-122385000I-150000J0D01*
G01*
X138603000Y-122385000D01*
G75*
G02*
X138453000Y-122235000I0J150000D01*
G01*
X138453000Y-121935000D01*
G75*
G02*
X138603000Y-121785000I150000J0D01*
G01*
X140253000Y-121785000D01*
G75*
G02*
X140403000Y-121935000I0J-150000D01*
G01*
G37*
G36*
G01*
X140403000Y-123205000D02*
X140403000Y-123505000D01*
G75*
G02*
X140253000Y-123655000I-150000J0D01*
G01*
X138603000Y-123655000D01*
G75*
G02*
X138453000Y-123505000I0J150000D01*
G01*
X138453000Y-123205000D01*
G75*
G02*
X138603000Y-123055000I150000J0D01*
G01*
X140253000Y-123055000D01*
G75*
G02*
X140403000Y-123205000I0J-150000D01*
G01*
G37*
G36*
G01*
X135453000Y-123205000D02*
X135453000Y-123505000D01*
G75*
G02*
X135303000Y-123655000I-150000J0D01*
G01*
X133653000Y-123655000D01*
G75*
G02*
X133503000Y-123505000I0J150000D01*
G01*
X133503000Y-123205000D01*
G75*
G02*
X133653000Y-123055000I150000J0D01*
G01*
X135303000Y-123055000D01*
G75*
G02*
X135453000Y-123205000I0J-150000D01*
G01*
G37*
G36*
G01*
X135453000Y-121935000D02*
X135453000Y-122235000D01*
G75*
G02*
X135303000Y-122385000I-150000J0D01*
G01*
X133653000Y-122385000D01*
G75*
G02*
X133503000Y-122235000I0J150000D01*
G01*
X133503000Y-121935000D01*
G75*
G02*
X133653000Y-121785000I150000J0D01*
G01*
X135303000Y-121785000D01*
G75*
G02*
X135453000Y-121935000I0J-150000D01*
G01*
G37*
G36*
G01*
X135453000Y-120665000D02*
X135453000Y-120965000D01*
G75*
G02*
X135303000Y-121115000I-150000J0D01*
G01*
X133653000Y-121115000D01*
G75*
G02*
X133503000Y-120965000I0J150000D01*
G01*
X133503000Y-120665000D01*
G75*
G02*
X133653000Y-120515000I150000J0D01*
G01*
X135303000Y-120515000D01*
G75*
G02*
X135453000Y-120665000I0J-150000D01*
G01*
G37*
G36*
G01*
X135453000Y-119395000D02*
X135453000Y-119695000D01*
G75*
G02*
X135303000Y-119845000I-150000J0D01*
G01*
X133653000Y-119845000D01*
G75*
G02*
X133503000Y-119695000I0J150000D01*
G01*
X133503000Y-119395000D01*
G75*
G02*
X133653000Y-119245000I150000J0D01*
G01*
X135303000Y-119245000D01*
G75*
G02*
X135453000Y-119395000I0J-150000D01*
G01*
G37*
%TD*%
D10*
%TO.C,Y1*%
X141613000Y-119484000D03*
X141613000Y-121384000D03*
D24*
X147113000Y-120434000D03*
%TD*%
M02*
