%TF.GenerationSoftware,KiCad,Pcbnew,5.1.9+dfsg1-1~bpo10+1*%
%TF.CreationDate,2021-08-01T16:53:38+08:00*%
%TF.ProjectId,epd-clock,6570642d-636c-46f6-936b-2e6b69636164,rev?*%
%TF.SameCoordinates,Original*%
%TF.FileFunction,Copper,L1,Top*%
%TF.FilePolarity,Positive*%
%FSLAX46Y46*%
G04 Gerber Fmt 4.6, Leading zero omitted, Abs format (unit mm)*
G04 Created by KiCad (PCBNEW 5.1.9+dfsg1-1~bpo10+1) date 2021-08-01 16:53:38*
%MOMM*%
%LPD*%
G01*
G04 APERTURE LIST*
%TA.AperFunction,ComponentPad*%
%ADD10C,1.000000*%
%TD*%
%TA.AperFunction,ViaPad*%
%ADD11C,0.800000*%
%TD*%
%TA.AperFunction,Conductor*%
%ADD12C,0.250000*%
%TD*%
G04 APERTURE END LIST*
D10*
%TO.P,Y1,1*%
%TO.N,Net-(C20-Pad1)*%
X141613000Y-120084000D03*
%TO.P,Y1,2*%
%TO.N,Net-(C21-Pad1)*%
X141613000Y-121984000D03*
%TD*%
D11*
%TO.N,GND*%
X110175000Y-132000000D03*
X108575000Y-132000000D03*
X106975000Y-132000000D03*
X161306000Y-113048000D03*
X159858000Y-121417000D03*
X108575000Y-133300000D03*
X110175000Y-133300000D03*
X106975000Y-133300000D03*
X108575000Y-134600000D03*
X106975000Y-134600000D03*
X110175000Y-134600000D03*
X127675000Y-116200000D03*
%TO.N,+3V3*%
X116475000Y-112900000D03*
X117875000Y-112900000D03*
X134475000Y-116800000D03*
X144775000Y-116900000D03*
X147675000Y-102500000D03*
X110375000Y-100900000D03*
X109075000Y-110400000D03*
X127275000Y-119400000D03*
X143275000Y-106400000D03*
X138975000Y-106400000D03*
X109075000Y-118600000D03*
%TO.N,/epd/PREVGL*%
X154483000Y-123208000D03*
X168735000Y-123208000D03*
%TO.N,VCC*%
X152875000Y-103100000D03*
%TO.N,/epd/PREVGH*%
X154483000Y-122192000D03*
X168735000Y-122192000D03*
%TO.N,Net-(C8-Pad1)*%
X156475000Y-109800000D03*
X154257000Y-114305000D03*
%TO.N,/mcu/EPD_PWR_EN*%
X124375000Y-105400000D03*
X149375000Y-105400000D03*
%TO.N,/epd/DIN*%
X169243000Y-118890000D03*
X142775000Y-111900000D03*
X121475000Y-110900000D03*
%TO.N,/epd/CLK*%
X164375000Y-118800000D03*
X142774998Y-110899998D03*
X122074996Y-108000000D03*
%TO.N,/epd/CS#*%
X169243000Y-117874000D03*
X133975000Y-110000000D03*
%TO.N,/epd/DC#*%
X165747162Y-117426162D03*
X133099995Y-109125001D03*
%TO.N,/mcu/EPD_RST#*%
X169243000Y-116858000D03*
X133975000Y-108300000D03*
%TO.N,/epd/BUSY*%
X164375004Y-116200000D03*
X133075000Y-107574990D03*
%TO.N,/epd/TSCL*%
X157051000Y-113810000D03*
X169243000Y-113810000D03*
%TO.N,/epd/TSDA*%
X157051000Y-114826000D03*
X169243000Y-114826000D03*
%TO.N,/epd/BS1*%
X157051000Y-115842000D03*
X169243000Y-115842000D03*
%TO.N,/power/ADEN#*%
X122062340Y-113312660D03*
X120575000Y-123800000D03*
%TO.N,/rtc/INT*%
X137375000Y-115500000D03*
X122075000Y-112300000D03*
%TO.N,/flash/MISO*%
X135775000Y-112200000D03*
X122775000Y-110900002D03*
%TO.N,/flash/CS*%
X134075000Y-114000000D03*
X122075000Y-114400000D03*
%TD*%
D12*
%TO.N,/epd/PREVGL*%
X168735000Y-123208000D02*
X154483000Y-123208000D01*
%TO.N,/epd/PREVGH*%
X168735000Y-122192000D02*
X154483000Y-122192000D01*
%TO.N,Net-(C8-Pad1)*%
X156475000Y-112087000D02*
X154257000Y-114305000D01*
X156475000Y-109800000D02*
X156475000Y-112087000D01*
%TO.N,/mcu/EPD_PWR_EN*%
X149375000Y-105400000D02*
X124375000Y-105400000D01*
%TO.N,/epd/DIN*%
X147275000Y-111900000D02*
X142775002Y-111900000D01*
X154900001Y-119525001D02*
X147275000Y-111900000D01*
X169243000Y-118890000D02*
X168607999Y-119525001D01*
X168607999Y-119525001D02*
X154900001Y-119525001D01*
X142209315Y-111900000D02*
X141709314Y-111399999D01*
X133574999Y-111399999D02*
X131975000Y-109800000D01*
X141709314Y-111399999D02*
X133574999Y-111399999D01*
X122575000Y-109800000D02*
X121475000Y-110900000D01*
X142775000Y-111900000D02*
X142209315Y-111900000D01*
X131975000Y-109800000D02*
X122575000Y-109800000D01*
%TO.N,/epd/CLK*%
X146924998Y-110899998D02*
X142774998Y-110899998D01*
X164375000Y-118800000D02*
X154825000Y-118800000D01*
X154825000Y-118800000D02*
X146924998Y-110899998D01*
X130875000Y-108000000D02*
X122074996Y-108000000D01*
X133774998Y-110899998D02*
X130875000Y-108000000D01*
X142774998Y-110899998D02*
X133774998Y-110899998D01*
%TO.N,/epd/CS#*%
X169243000Y-117874000D02*
X169001000Y-117874000D01*
X133975000Y-110000000D02*
X133975000Y-110000000D01*
X154675000Y-118000000D02*
X146675000Y-110000000D01*
X165175000Y-118000000D02*
X154675000Y-118000000D01*
X165448999Y-118273999D02*
X165175000Y-118000000D01*
X146675000Y-110000000D02*
X133975000Y-110000000D01*
X169243000Y-117874000D02*
X168843001Y-118273999D01*
X168843001Y-118273999D02*
X165448999Y-118273999D01*
%TO.N,/epd/DC#*%
X165673326Y-117499998D02*
X154874998Y-117499998D01*
X154874998Y-117499998D02*
X146500001Y-109125001D01*
X165747162Y-117426162D02*
X165673326Y-117499998D01*
X146500001Y-109125001D02*
X133099995Y-109125001D01*
%TO.N,/mcu/EPD_RST#*%
X169243000Y-116858000D02*
X168843001Y-116458001D01*
X168843001Y-116458001D02*
X165303501Y-116458001D01*
X164711515Y-117049987D02*
X155061397Y-117049987D01*
X165303501Y-116458001D02*
X164711515Y-117049987D01*
X146311410Y-108300000D02*
X133975000Y-108300000D01*
X155061397Y-117049987D02*
X146311410Y-108300000D01*
%TO.N,/epd/BUSY*%
X133075000Y-107600000D02*
X133075000Y-107600000D01*
X155247796Y-116599976D02*
X146222810Y-107574990D01*
X146222810Y-107574990D02*
X133075000Y-107574990D01*
X163975028Y-116599976D02*
X155247796Y-116599976D01*
X164375004Y-116200000D02*
X163975028Y-116599976D01*
%TO.N,/epd/TSCL*%
X169243000Y-113810000D02*
X168677315Y-113810000D01*
X168677315Y-113810000D02*
X157051000Y-113810000D01*
%TO.N,/epd/TSDA*%
X169243000Y-114826000D02*
X157051000Y-114826000D01*
%TO.N,/epd/BS1*%
X168875999Y-115474999D02*
X157418001Y-115474999D01*
X169243000Y-115842000D02*
X168875999Y-115474999D01*
X157418001Y-115474999D02*
X157051000Y-115842000D01*
%TO.N,/power/ADEN#*%
X120575000Y-123800000D02*
X120575000Y-123800000D01*
X121175000Y-123200000D02*
X120575000Y-123800000D01*
X122062340Y-113312660D02*
X121175000Y-114200000D01*
X121175000Y-114200000D02*
X121175000Y-123200000D01*
%TO.N,/rtc/INT*%
X122474999Y-112699999D02*
X122075000Y-112300000D01*
X137375000Y-115500000D02*
X134574999Y-112699999D01*
X134574999Y-112699999D02*
X122474999Y-112699999D01*
%TO.N,/flash/MISO*%
X124074998Y-112200000D02*
X122775000Y-110900002D01*
X135775000Y-112200000D02*
X124074998Y-112200000D01*
%TO.N,/flash/CS*%
X133675000Y-114400000D02*
X122075000Y-114400000D01*
X134075000Y-114000000D02*
X133675000Y-114400000D01*
%TD*%
M02*
