%TF.GenerationSoftware,KiCad,Pcbnew,5.1.9+dfsg1-1~bpo10+1*%
%TF.CreationDate,2021-08-01T16:53:39+08:00*%
%TF.ProjectId,epd-clock,6570642d-636c-46f6-936b-2e6b69636164,rev?*%
%TF.SameCoordinates,Original*%
%TF.FileFunction,Legend,Top*%
%TF.FilePolarity,Positive*%
%FSLAX46Y46*%
G04 Gerber Fmt 4.6, Leading zero omitted, Abs format (unit mm)*
G04 Created by KiCad (PCBNEW 5.1.9+dfsg1-1~bpo10+1) date 2021-08-01 16:53:39*
%MOMM*%
%LPD*%
G01*
G04 APERTURE LIST*
%ADD10C,0.150000*%
%ADD11C,0.120000*%
G04 APERTURE END LIST*
D10*
X171611904Y-101154761D02*
X171516666Y-101202380D01*
X171326190Y-101202380D01*
X171230952Y-101154761D01*
X171183333Y-101059523D01*
X171183333Y-100678571D01*
X171230952Y-100583333D01*
X171326190Y-100535714D01*
X171516666Y-100535714D01*
X171611904Y-100583333D01*
X171659523Y-100678571D01*
X171659523Y-100773809D01*
X171183333Y-100869047D01*
X172088095Y-100535714D02*
X172088095Y-101535714D01*
X172088095Y-100583333D02*
X172183333Y-100535714D01*
X172373809Y-100535714D01*
X172469047Y-100583333D01*
X172516666Y-100630952D01*
X172564285Y-100726190D01*
X172564285Y-101011904D01*
X172516666Y-101107142D01*
X172469047Y-101154761D01*
X172373809Y-101202380D01*
X172183333Y-101202380D01*
X172088095Y-101154761D01*
X173421428Y-101202380D02*
X173421428Y-100202380D01*
X173421428Y-101154761D02*
X173326190Y-101202380D01*
X173135714Y-101202380D01*
X173040476Y-101154761D01*
X172992857Y-101107142D01*
X172945238Y-101011904D01*
X172945238Y-100726190D01*
X172992857Y-100630952D01*
X173040476Y-100583333D01*
X173135714Y-100535714D01*
X173326190Y-100535714D01*
X173421428Y-100583333D01*
X174516666Y-100535714D02*
X174897619Y-100535714D01*
X174659523Y-101202380D02*
X174659523Y-100345238D01*
X174707142Y-100250000D01*
X174802380Y-100202380D01*
X174897619Y-100202380D01*
X175230952Y-101202380D02*
X175230952Y-100535714D01*
X175230952Y-100726190D02*
X175278571Y-100630952D01*
X175326190Y-100583333D01*
X175421428Y-100535714D01*
X175516666Y-100535714D01*
X176278571Y-101202380D02*
X176278571Y-100678571D01*
X176230952Y-100583333D01*
X176135714Y-100535714D01*
X175945238Y-100535714D01*
X175850000Y-100583333D01*
X176278571Y-101154761D02*
X176183333Y-101202380D01*
X175945238Y-101202380D01*
X175850000Y-101154761D01*
X175802380Y-101059523D01*
X175802380Y-100964285D01*
X175850000Y-100869047D01*
X175945238Y-100821428D01*
X176183333Y-100821428D01*
X176278571Y-100773809D01*
X176754761Y-101202380D02*
X176754761Y-100535714D01*
X176754761Y-100630952D02*
X176802380Y-100583333D01*
X176897619Y-100535714D01*
X177040476Y-100535714D01*
X177135714Y-100583333D01*
X177183333Y-100678571D01*
X177183333Y-101202380D01*
X177183333Y-100678571D02*
X177230952Y-100583333D01*
X177326190Y-100535714D01*
X177469047Y-100535714D01*
X177564285Y-100583333D01*
X177611904Y-100678571D01*
X177611904Y-101202380D01*
X178469047Y-101154761D02*
X178373809Y-101202380D01*
X178183333Y-101202380D01*
X178088095Y-101154761D01*
X178040476Y-101059523D01*
X178040476Y-100678571D01*
X178088095Y-100583333D01*
X178183333Y-100535714D01*
X178373809Y-100535714D01*
X178469047Y-100583333D01*
X178516666Y-100678571D01*
X178516666Y-100773809D01*
X178040476Y-100869047D01*
X161225000Y-105277380D02*
X161225000Y-104277380D01*
X161225000Y-105229761D02*
X161129761Y-105277380D01*
X160939285Y-105277380D01*
X160844047Y-105229761D01*
X160796428Y-105182142D01*
X160748809Y-105086904D01*
X160748809Y-104801190D01*
X160796428Y-104705952D01*
X160844047Y-104658333D01*
X160939285Y-104610714D01*
X161129761Y-104610714D01*
X161225000Y-104658333D01*
X161701190Y-105277380D02*
X161701190Y-104610714D01*
X161701190Y-104277380D02*
X161653571Y-104325000D01*
X161701190Y-104372619D01*
X161748809Y-104325000D01*
X161701190Y-104277380D01*
X161701190Y-104372619D01*
X162129761Y-105229761D02*
X162225000Y-105277380D01*
X162415476Y-105277380D01*
X162510714Y-105229761D01*
X162558333Y-105134523D01*
X162558333Y-105086904D01*
X162510714Y-104991666D01*
X162415476Y-104944047D01*
X162272619Y-104944047D01*
X162177380Y-104896428D01*
X162129761Y-104801190D01*
X162129761Y-104753571D01*
X162177380Y-104658333D01*
X162272619Y-104610714D01*
X162415476Y-104610714D01*
X162510714Y-104658333D01*
X162986904Y-104610714D02*
X162986904Y-105610714D01*
X162986904Y-104658333D02*
X163082142Y-104610714D01*
X163272619Y-104610714D01*
X163367857Y-104658333D01*
X163415476Y-104705952D01*
X163463095Y-104801190D01*
X163463095Y-105086904D01*
X163415476Y-105182142D01*
X163367857Y-105229761D01*
X163272619Y-105277380D01*
X163082142Y-105277380D01*
X162986904Y-105229761D01*
X164034523Y-105277380D02*
X163939285Y-105229761D01*
X163891666Y-105134523D01*
X163891666Y-104277380D01*
X164844047Y-105277380D02*
X164844047Y-104753571D01*
X164796428Y-104658333D01*
X164701190Y-104610714D01*
X164510714Y-104610714D01*
X164415476Y-104658333D01*
X164844047Y-105229761D02*
X164748809Y-105277380D01*
X164510714Y-105277380D01*
X164415476Y-105229761D01*
X164367857Y-105134523D01*
X164367857Y-105039285D01*
X164415476Y-104944047D01*
X164510714Y-104896428D01*
X164748809Y-104896428D01*
X164844047Y-104848809D01*
X165225000Y-104610714D02*
X165463095Y-105277380D01*
X165701190Y-104610714D02*
X165463095Y-105277380D01*
X165367857Y-105515476D01*
X165320238Y-105563095D01*
X165225000Y-105610714D01*
X167272619Y-105277380D02*
X167272619Y-104753571D01*
X167225000Y-104658333D01*
X167129761Y-104610714D01*
X166939285Y-104610714D01*
X166844047Y-104658333D01*
X167272619Y-105229761D02*
X167177380Y-105277380D01*
X166939285Y-105277380D01*
X166844047Y-105229761D01*
X166796428Y-105134523D01*
X166796428Y-105039285D01*
X166844047Y-104944047D01*
X166939285Y-104896428D01*
X167177380Y-104896428D01*
X167272619Y-104848809D01*
X167748809Y-105277380D02*
X167748809Y-104610714D01*
X167748809Y-104801190D02*
X167796428Y-104705952D01*
X167844047Y-104658333D01*
X167939285Y-104610714D01*
X168034523Y-104610714D01*
X168748809Y-105229761D02*
X168653571Y-105277380D01*
X168463095Y-105277380D01*
X168367857Y-105229761D01*
X168320238Y-105134523D01*
X168320238Y-104753571D01*
X168367857Y-104658333D01*
X168463095Y-104610714D01*
X168653571Y-104610714D01*
X168748809Y-104658333D01*
X168796428Y-104753571D01*
X168796428Y-104848809D01*
X168320238Y-104944047D01*
X169653571Y-105277380D02*
X169653571Y-104753571D01*
X169605952Y-104658333D01*
X169510714Y-104610714D01*
X169320238Y-104610714D01*
X169225000Y-104658333D01*
X169653571Y-105229761D02*
X169558333Y-105277380D01*
X169320238Y-105277380D01*
X169225000Y-105229761D01*
X169177380Y-105134523D01*
X169177380Y-105039285D01*
X169225000Y-104944047D01*
X169320238Y-104896428D01*
X169558333Y-104896428D01*
X169653571Y-104848809D01*
D11*
X103000000Y-103975000D02*
X170000000Y-104000000D01*
X103000000Y-133000000D02*
X170000000Y-133000000D01*
X103000000Y-104000000D02*
X103000000Y-133000000D01*
X170000000Y-104000000D02*
X170000000Y-133000000D01*
X100000000Y-100000000D02*
X100000000Y-137000000D01*
X100000000Y-137000000D02*
X179000000Y-137000000D01*
X179000000Y-100000000D02*
X179000000Y-137000000D01*
X100000000Y-100000000D02*
X179000000Y-100000000D01*
M02*
