%TF.GenerationSoftware,KiCad,Pcbnew,5.1.9+dfsg1-1~bpo10+1*%
%TF.CreationDate,2021-08-15T12:40:59+08:00*%
%TF.ProjectId,epd-clock,6570642d-636c-46f6-936b-2e6b69636164,rev?*%
%TF.SameCoordinates,Original*%
%TF.FileFunction,Copper,L3,Inr*%
%TF.FilePolarity,Positive*%
%FSLAX46Y46*%
G04 Gerber Fmt 4.6, Leading zero omitted, Abs format (unit mm)*
G04 Created by KiCad (PCBNEW 5.1.9+dfsg1-1~bpo10+1) date 2021-08-15 12:40:59*
%MOMM*%
%LPD*%
G01*
G04 APERTURE LIST*
%TA.AperFunction,ComponentPad*%
%ADD10C,1.000000*%
%TD*%
%TA.AperFunction,ViaPad*%
%ADD11C,0.800000*%
%TD*%
%TA.AperFunction,Conductor*%
%ADD12C,0.254000*%
%TD*%
%TA.AperFunction,Conductor*%
%ADD13C,0.100000*%
%TD*%
G04 APERTURE END LIST*
D10*
%TO.N,Net-(C20-Pad1)*%
%TO.C,Y1*%
X141613000Y-119484000D03*
%TO.N,Net-(C21-Pad1)*%
X141613000Y-121384000D03*
%TD*%
D11*
%TO.N,GND*%
X110175000Y-132000000D03*
X108575000Y-132000000D03*
X106975000Y-132000000D03*
X161306000Y-111800000D03*
X159875000Y-124100000D03*
X108575000Y-133300000D03*
X110175000Y-133300000D03*
X106975000Y-133300000D03*
X108575000Y-134600000D03*
X106975000Y-134600000D03*
X110175000Y-134600000D03*
X127675000Y-116200000D03*
X174575000Y-105300000D03*
X97675000Y-125700000D03*
X100875000Y-130800000D03*
X97575000Y-134900000D03*
X102575000Y-138500000D03*
X119575000Y-129700000D03*
X117575000Y-138000000D03*
X126975000Y-138500000D03*
X134875000Y-129300000D03*
X140975000Y-129800000D03*
X148875000Y-128800000D03*
X154975000Y-129800000D03*
X134875000Y-135900000D03*
X140575000Y-138500000D03*
X148275000Y-135600000D03*
X156375000Y-138500000D03*
X167775000Y-138000000D03*
X175175000Y-135300000D03*
X175775000Y-129800000D03*
X176275000Y-124600000D03*
X176675000Y-115900000D03*
X176175000Y-110800000D03*
X177475000Y-99500000D03*
X177175000Y-104300000D03*
X101075000Y-103000000D03*
X101075000Y-111500000D03*
X101175000Y-119800000D03*
X112875000Y-103900000D03*
X116375000Y-106800000D03*
X105575000Y-99100000D03*
X150075000Y-98900000D03*
X157975000Y-98900000D03*
X168175000Y-98900000D03*
X141475000Y-106300000D03*
X145275000Y-102700000D03*
X150275000Y-109200000D03*
X149575000Y-116400000D03*
X147175000Y-114000000D03*
X140575000Y-113800000D03*
X116975000Y-111300000D03*
X119775000Y-113500000D03*
X108275000Y-120100000D03*
X105475000Y-125000000D03*
X172675000Y-120000000D03*
X176375000Y-120400000D03*
X170075000Y-129100000D03*
X128775000Y-125300000D03*
X127775000Y-129300000D03*
X110175000Y-127900000D03*
X127175000Y-113600000D03*
X126975000Y-111200000D03*
X118575000Y-120600000D03*
X168075000Y-102500000D03*
X120775000Y-104700000D03*
X124975000Y-102600000D03*
X133675000Y-106400000D03*
%TO.N,+3V3*%
X139975000Y-116500000D03*
X134475000Y-116500000D03*
X147675000Y-102500000D03*
X110375000Y-100900000D03*
X109075000Y-110400000D03*
X109175000Y-116000000D03*
X123275000Y-117900000D03*
X127575000Y-119300000D03*
X146875000Y-106500002D03*
X144875000Y-116500000D03*
X115875000Y-113600000D03*
X113575000Y-99100000D03*
%TO.N,/epd/PREVGL*%
X169675000Y-123299998D03*
X154875000Y-122500000D03*
%TO.N,VCC*%
X159675000Y-111000000D03*
X152875000Y-103100000D03*
X173075000Y-102400000D03*
X153175000Y-110200000D03*
%TO.N,/epd/PREVGH*%
X169674998Y-122200000D03*
X154875000Y-120900000D03*
%TO.N,/mcu/EPD_PWR_EN*%
X124375000Y-105400000D03*
X149375000Y-105400000D03*
%TO.N,/epd/DIN*%
X121475000Y-110900000D03*
X169675006Y-119500000D03*
X141575000Y-111700000D03*
%TO.N,/epd/CLK*%
X164375000Y-118800000D03*
X142774998Y-110899998D03*
X122775000Y-108000000D03*
%TO.N,/epd/CS#*%
X169675006Y-118500000D03*
X133475000Y-110000000D03*
%TO.N,/epd/DC#*%
X165747162Y-117426162D03*
X132175000Y-110000000D03*
%TO.N,/mcu/EPD_RST#*%
X169674988Y-116800000D03*
X132175000Y-108800000D03*
%TO.N,/epd/BUSY*%
X164375004Y-116200000D03*
X132175000Y-107600000D03*
%TO.N,/epd/TSCL*%
X157075000Y-114300000D03*
X169675000Y-114200000D03*
%TO.N,/epd/TSDA*%
X157085617Y-115400000D03*
X169674998Y-115200000D03*
%TO.N,/power/ADEN#*%
X121975000Y-122300000D03*
X122072837Y-113303245D03*
%TO.N,/rtc/INT*%
X122075000Y-112300000D03*
X134175000Y-113400000D03*
%TO.N,/flash/MISO*%
X122775000Y-110900002D03*
X136075000Y-112200000D03*
%TO.N,/flash/CS*%
X122075000Y-114400000D03*
X136075000Y-113400000D03*
%TO.N,/mcu/SDA*%
X135975000Y-104400000D03*
X129575000Y-104400006D03*
%TD*%
D12*
%TO.N,GND*%
X180415000Y-107767721D02*
X180405420Y-107865424D01*
X180386420Y-107928357D01*
X180355554Y-107986406D01*
X180314011Y-108037343D01*
X180263356Y-108079248D01*
X180205529Y-108110515D01*
X180142728Y-108129956D01*
X180047165Y-108140000D01*
X179107419Y-108140000D01*
X179075000Y-108136807D01*
X179029432Y-108141295D01*
X178945617Y-108149550D01*
X178821207Y-108187290D01*
X178706550Y-108248575D01*
X178606052Y-108331052D01*
X178523575Y-108431550D01*
X178462290Y-108546207D01*
X178424550Y-108670617D01*
X178411807Y-108800000D01*
X178415000Y-108832419D01*
X178415001Y-130267571D01*
X178411807Y-130300000D01*
X178424550Y-130429383D01*
X178462290Y-130553793D01*
X178523575Y-130668450D01*
X178606052Y-130768948D01*
X178706550Y-130851425D01*
X178821207Y-130912710D01*
X178945617Y-130950450D01*
X179042581Y-130960000D01*
X179075000Y-130963193D01*
X179107419Y-130960000D01*
X180042721Y-130960000D01*
X180140424Y-130969580D01*
X180203356Y-130988580D01*
X180261405Y-131019445D01*
X180312343Y-131060989D01*
X180354248Y-131111644D01*
X180385515Y-131169471D01*
X180404956Y-131232272D01*
X180415000Y-131327835D01*
X180415001Y-140315192D01*
X95759622Y-140339809D01*
X95752439Y-127781589D01*
X159516000Y-127781589D01*
X159516000Y-128054411D01*
X159569225Y-128321989D01*
X159673629Y-128574043D01*
X159825201Y-128800886D01*
X160018114Y-128993799D01*
X160244957Y-129145371D01*
X160497011Y-129249775D01*
X160764589Y-129303000D01*
X161037411Y-129303000D01*
X161304989Y-129249775D01*
X161557043Y-129145371D01*
X161783886Y-128993799D01*
X161976799Y-128800886D01*
X162128371Y-128574043D01*
X162232775Y-128321989D01*
X162286000Y-128054411D01*
X162286000Y-127781589D01*
X162232775Y-127514011D01*
X162128371Y-127261957D01*
X161976799Y-127035114D01*
X161783886Y-126842201D01*
X161557043Y-126690629D01*
X161304989Y-126586225D01*
X161037411Y-126533000D01*
X160764589Y-126533000D01*
X160497011Y-126586225D01*
X160244957Y-126690629D01*
X160018114Y-126842201D01*
X159825201Y-127035114D01*
X159673629Y-127261957D01*
X159569225Y-127514011D01*
X159516000Y-127781589D01*
X95752439Y-127781589D01*
X95749244Y-122198061D01*
X120940000Y-122198061D01*
X120940000Y-122401939D01*
X120979774Y-122601898D01*
X121057795Y-122790256D01*
X121171063Y-122959774D01*
X121315226Y-123103937D01*
X121484744Y-123217205D01*
X121673102Y-123295226D01*
X121873061Y-123335000D01*
X122076939Y-123335000D01*
X122276898Y-123295226D01*
X122465256Y-123217205D01*
X122634774Y-123103937D01*
X122778937Y-122959774D01*
X122892205Y-122790256D01*
X122970226Y-122601898D01*
X123010000Y-122401939D01*
X123010000Y-122198061D01*
X122970226Y-121998102D01*
X122892205Y-121809744D01*
X122778937Y-121640226D01*
X122634774Y-121496063D01*
X122465256Y-121382795D01*
X122276898Y-121304774D01*
X122076939Y-121265000D01*
X121873061Y-121265000D01*
X121673102Y-121304774D01*
X121484744Y-121382795D01*
X121315226Y-121496063D01*
X121171063Y-121640226D01*
X121057795Y-121809744D01*
X120979774Y-121998102D01*
X120940000Y-122198061D01*
X95749244Y-122198061D01*
X95747528Y-119198061D01*
X126540000Y-119198061D01*
X126540000Y-119401939D01*
X126579774Y-119601898D01*
X126657795Y-119790256D01*
X126771063Y-119959774D01*
X126915226Y-120103937D01*
X127084744Y-120217205D01*
X127273102Y-120295226D01*
X127473061Y-120335000D01*
X127676939Y-120335000D01*
X127876898Y-120295226D01*
X128065256Y-120217205D01*
X128234774Y-120103937D01*
X128378937Y-119959774D01*
X128492205Y-119790256D01*
X128570226Y-119601898D01*
X128610000Y-119401939D01*
X128610000Y-119372212D01*
X140478000Y-119372212D01*
X140478000Y-119595788D01*
X140521617Y-119815067D01*
X140607176Y-120021624D01*
X140731388Y-120207520D01*
X140889480Y-120365612D01*
X140991830Y-120434000D01*
X140889480Y-120502388D01*
X140731388Y-120660480D01*
X140607176Y-120846376D01*
X140521617Y-121052933D01*
X140478000Y-121272212D01*
X140478000Y-121495788D01*
X140521617Y-121715067D01*
X140607176Y-121921624D01*
X140731388Y-122107520D01*
X140889480Y-122265612D01*
X141075376Y-122389824D01*
X141281933Y-122475383D01*
X141501212Y-122519000D01*
X141724788Y-122519000D01*
X141944067Y-122475383D01*
X142150624Y-122389824D01*
X142336520Y-122265612D01*
X142494612Y-122107520D01*
X142618824Y-121921624D01*
X142704383Y-121715067D01*
X142748000Y-121495788D01*
X142748000Y-121272212D01*
X142704383Y-121052933D01*
X142618824Y-120846376D01*
X142586541Y-120798061D01*
X153840000Y-120798061D01*
X153840000Y-121001939D01*
X153879774Y-121201898D01*
X153957795Y-121390256D01*
X154071063Y-121559774D01*
X154211289Y-121700000D01*
X154071063Y-121840226D01*
X153957795Y-122009744D01*
X153879774Y-122198102D01*
X153840000Y-122398061D01*
X153840000Y-122601939D01*
X153879774Y-122801898D01*
X153957795Y-122990256D01*
X154071063Y-123159774D01*
X154215226Y-123303937D01*
X154384744Y-123417205D01*
X154573102Y-123495226D01*
X154773061Y-123535000D01*
X154976939Y-123535000D01*
X155176898Y-123495226D01*
X155365256Y-123417205D01*
X155534774Y-123303937D01*
X155678937Y-123159774D01*
X155792205Y-122990256D01*
X155870226Y-122801898D01*
X155910000Y-122601939D01*
X155910000Y-122398061D01*
X155870226Y-122198102D01*
X155828788Y-122098061D01*
X168639998Y-122098061D01*
X168639998Y-122301939D01*
X168679772Y-122501898D01*
X168757793Y-122690256D01*
X168797713Y-122750000D01*
X168757795Y-122809742D01*
X168679774Y-122998100D01*
X168640000Y-123198059D01*
X168640000Y-123401937D01*
X168679774Y-123601896D01*
X168757795Y-123790254D01*
X168871063Y-123959772D01*
X169015226Y-124103935D01*
X169184744Y-124217203D01*
X169373102Y-124295224D01*
X169573061Y-124334998D01*
X169776939Y-124334998D01*
X169976898Y-124295224D01*
X170165256Y-124217203D01*
X170334774Y-124103935D01*
X170478937Y-123959772D01*
X170592205Y-123790254D01*
X170670226Y-123601896D01*
X170710000Y-123401937D01*
X170710000Y-123198059D01*
X170670226Y-122998100D01*
X170592205Y-122809742D01*
X170552285Y-122749998D01*
X170592203Y-122690256D01*
X170670224Y-122501898D01*
X170709998Y-122301939D01*
X170709998Y-122098061D01*
X170670224Y-121898102D01*
X170592203Y-121709744D01*
X170478935Y-121540226D01*
X170334772Y-121396063D01*
X170165254Y-121282795D01*
X169976896Y-121204774D01*
X169776937Y-121165000D01*
X169573059Y-121165000D01*
X169373100Y-121204774D01*
X169184742Y-121282795D01*
X169015224Y-121396063D01*
X168871061Y-121540226D01*
X168757793Y-121709744D01*
X168679772Y-121898102D01*
X168639998Y-122098061D01*
X155828788Y-122098061D01*
X155792205Y-122009744D01*
X155678937Y-121840226D01*
X155538711Y-121700000D01*
X155678937Y-121559774D01*
X155792205Y-121390256D01*
X155870226Y-121201898D01*
X155910000Y-121001939D01*
X155910000Y-120798061D01*
X155870226Y-120598102D01*
X155792205Y-120409744D01*
X155678937Y-120240226D01*
X155534774Y-120096063D01*
X155365256Y-119982795D01*
X155176898Y-119904774D01*
X154976939Y-119865000D01*
X154773061Y-119865000D01*
X154573102Y-119904774D01*
X154384744Y-119982795D01*
X154215226Y-120096063D01*
X154071063Y-120240226D01*
X153957795Y-120409744D01*
X153879774Y-120598102D01*
X153840000Y-120798061D01*
X142586541Y-120798061D01*
X142494612Y-120660480D01*
X142336520Y-120502388D01*
X142234170Y-120434000D01*
X142336520Y-120365612D01*
X142494612Y-120207520D01*
X142618824Y-120021624D01*
X142704383Y-119815067D01*
X142748000Y-119595788D01*
X142748000Y-119372212D01*
X142704383Y-119152933D01*
X142618824Y-118946376D01*
X142494612Y-118760480D01*
X142432193Y-118698061D01*
X163340000Y-118698061D01*
X163340000Y-118901939D01*
X163379774Y-119101898D01*
X163457795Y-119290256D01*
X163571063Y-119459774D01*
X163715226Y-119603937D01*
X163884744Y-119717205D01*
X164073102Y-119795226D01*
X164273061Y-119835000D01*
X164476939Y-119835000D01*
X164676898Y-119795226D01*
X164865256Y-119717205D01*
X165034774Y-119603937D01*
X165178937Y-119459774D01*
X165292205Y-119290256D01*
X165370226Y-119101898D01*
X165410000Y-118901939D01*
X165410000Y-118698061D01*
X165370226Y-118498102D01*
X165316327Y-118367980D01*
X165445264Y-118421388D01*
X165645223Y-118461162D01*
X165849101Y-118461162D01*
X166049060Y-118421388D01*
X166237418Y-118343367D01*
X166406936Y-118230099D01*
X166551099Y-118085936D01*
X166664367Y-117916418D01*
X166742388Y-117728060D01*
X166782162Y-117528101D01*
X166782162Y-117324223D01*
X166742388Y-117124264D01*
X166664367Y-116935906D01*
X166551099Y-116766388D01*
X166482772Y-116698061D01*
X168639988Y-116698061D01*
X168639988Y-116901939D01*
X168679762Y-117101898D01*
X168757783Y-117290256D01*
X168871051Y-117459774D01*
X169015214Y-117603937D01*
X169084161Y-117650006D01*
X169015232Y-117696063D01*
X168871069Y-117840226D01*
X168757801Y-118009744D01*
X168679780Y-118198102D01*
X168640006Y-118398061D01*
X168640006Y-118601939D01*
X168679780Y-118801898D01*
X168757801Y-118990256D01*
X168764312Y-119000000D01*
X168757801Y-119009744D01*
X168679780Y-119198102D01*
X168640006Y-119398061D01*
X168640006Y-119601939D01*
X168679780Y-119801898D01*
X168757801Y-119990256D01*
X168871069Y-120159774D01*
X169015232Y-120303937D01*
X169184750Y-120417205D01*
X169373108Y-120495226D01*
X169573067Y-120535000D01*
X169776945Y-120535000D01*
X169976904Y-120495226D01*
X170165262Y-120417205D01*
X170334780Y-120303937D01*
X170478943Y-120159774D01*
X170592211Y-119990256D01*
X170670232Y-119801898D01*
X170710006Y-119601939D01*
X170710006Y-119398061D01*
X170670232Y-119198102D01*
X170592211Y-119009744D01*
X170585700Y-119000000D01*
X170592211Y-118990256D01*
X170670232Y-118801898D01*
X170710006Y-118601939D01*
X170710006Y-118398061D01*
X170670232Y-118198102D01*
X170592211Y-118009744D01*
X170478943Y-117840226D01*
X170334780Y-117696063D01*
X170265833Y-117649994D01*
X170334762Y-117603937D01*
X170478925Y-117459774D01*
X170592193Y-117290256D01*
X170670214Y-117101898D01*
X170709988Y-116901939D01*
X170709988Y-116698061D01*
X170670214Y-116498102D01*
X170592193Y-116309744D01*
X170478925Y-116140226D01*
X170338704Y-116000005D01*
X170478935Y-115859774D01*
X170592203Y-115690256D01*
X170670224Y-115501898D01*
X170709998Y-115301939D01*
X170709998Y-115098061D01*
X170670224Y-114898102D01*
X170592203Y-114709744D01*
X170585693Y-114700001D01*
X170592205Y-114690256D01*
X170670226Y-114501898D01*
X170710000Y-114301939D01*
X170710000Y-114098061D01*
X170670226Y-113898102D01*
X170592205Y-113709744D01*
X170478937Y-113540226D01*
X170334774Y-113396063D01*
X170165256Y-113282795D01*
X169976898Y-113204774D01*
X169776939Y-113165000D01*
X169573061Y-113165000D01*
X169373102Y-113204774D01*
X169184744Y-113282795D01*
X169015226Y-113396063D01*
X168871063Y-113540226D01*
X168757795Y-113709744D01*
X168679774Y-113898102D01*
X168640000Y-114098061D01*
X168640000Y-114301939D01*
X168679774Y-114501898D01*
X168757795Y-114690256D01*
X168764305Y-114699999D01*
X168757793Y-114709744D01*
X168679772Y-114898102D01*
X168639998Y-115098061D01*
X168639998Y-115301939D01*
X168679772Y-115501898D01*
X168757793Y-115690256D01*
X168871061Y-115859774D01*
X169011282Y-115999995D01*
X168871051Y-116140226D01*
X168757783Y-116309744D01*
X168679762Y-116498102D01*
X168639988Y-116698061D01*
X166482772Y-116698061D01*
X166406936Y-116622225D01*
X166237418Y-116508957D01*
X166049060Y-116430936D01*
X165849101Y-116391162D01*
X165645223Y-116391162D01*
X165445264Y-116430936D01*
X165378875Y-116458435D01*
X165410004Y-116301939D01*
X165410004Y-116098061D01*
X165370230Y-115898102D01*
X165292209Y-115709744D01*
X165178941Y-115540226D01*
X165034778Y-115396063D01*
X164865260Y-115282795D01*
X164676902Y-115204774D01*
X164476943Y-115165000D01*
X164273065Y-115165000D01*
X164073106Y-115204774D01*
X163884748Y-115282795D01*
X163715230Y-115396063D01*
X163571067Y-115540226D01*
X163457799Y-115709744D01*
X163379778Y-115898102D01*
X163340004Y-116098061D01*
X163340004Y-116301939D01*
X163379778Y-116501898D01*
X163457799Y-116690256D01*
X163571067Y-116859774D01*
X163715230Y-117003937D01*
X163884748Y-117117205D01*
X164073106Y-117195226D01*
X164273065Y-117235000D01*
X164476943Y-117235000D01*
X164676902Y-117195226D01*
X164743291Y-117167727D01*
X164712162Y-117324223D01*
X164712162Y-117528101D01*
X164751936Y-117728060D01*
X164805835Y-117858182D01*
X164676898Y-117804774D01*
X164476939Y-117765000D01*
X164273061Y-117765000D01*
X164073102Y-117804774D01*
X163884744Y-117882795D01*
X163715226Y-117996063D01*
X163571063Y-118140226D01*
X163457795Y-118309744D01*
X163379774Y-118498102D01*
X163340000Y-118698061D01*
X142432193Y-118698061D01*
X142336520Y-118602388D01*
X142150624Y-118478176D01*
X141944067Y-118392617D01*
X141724788Y-118349000D01*
X141501212Y-118349000D01*
X141281933Y-118392617D01*
X141075376Y-118478176D01*
X140889480Y-118602388D01*
X140731388Y-118760480D01*
X140607176Y-118946376D01*
X140521617Y-119152933D01*
X140478000Y-119372212D01*
X128610000Y-119372212D01*
X128610000Y-119198061D01*
X128570226Y-118998102D01*
X128492205Y-118809744D01*
X128378937Y-118640226D01*
X128234774Y-118496063D01*
X128065256Y-118382795D01*
X127876898Y-118304774D01*
X127676939Y-118265000D01*
X127473061Y-118265000D01*
X127273102Y-118304774D01*
X127084744Y-118382795D01*
X126915226Y-118496063D01*
X126771063Y-118640226D01*
X126657795Y-118809744D01*
X126579774Y-118998102D01*
X126540000Y-119198061D01*
X95747528Y-119198061D01*
X95746727Y-117798061D01*
X122240000Y-117798061D01*
X122240000Y-118001939D01*
X122279774Y-118201898D01*
X122357795Y-118390256D01*
X122471063Y-118559774D01*
X122615226Y-118703937D01*
X122784744Y-118817205D01*
X122973102Y-118895226D01*
X123173061Y-118935000D01*
X123376939Y-118935000D01*
X123576898Y-118895226D01*
X123765256Y-118817205D01*
X123934774Y-118703937D01*
X124078937Y-118559774D01*
X124192205Y-118390256D01*
X124270226Y-118201898D01*
X124310000Y-118001939D01*
X124310000Y-117798061D01*
X124270226Y-117598102D01*
X124192205Y-117409744D01*
X124078937Y-117240226D01*
X123934774Y-117096063D01*
X123765256Y-116982795D01*
X123576898Y-116904774D01*
X123376939Y-116865000D01*
X123173061Y-116865000D01*
X122973102Y-116904774D01*
X122784744Y-116982795D01*
X122615226Y-117096063D01*
X122471063Y-117240226D01*
X122357795Y-117409744D01*
X122279774Y-117598102D01*
X122240000Y-117798061D01*
X95746727Y-117798061D01*
X95745640Y-115898061D01*
X108140000Y-115898061D01*
X108140000Y-116101939D01*
X108179774Y-116301898D01*
X108257795Y-116490256D01*
X108371063Y-116659774D01*
X108515226Y-116803937D01*
X108684744Y-116917205D01*
X108873102Y-116995226D01*
X109073061Y-117035000D01*
X109276939Y-117035000D01*
X109476898Y-116995226D01*
X109665256Y-116917205D01*
X109834774Y-116803937D01*
X109978937Y-116659774D01*
X110092205Y-116490256D01*
X110130393Y-116398061D01*
X133440000Y-116398061D01*
X133440000Y-116601939D01*
X133479774Y-116801898D01*
X133557795Y-116990256D01*
X133671063Y-117159774D01*
X133815226Y-117303937D01*
X133984744Y-117417205D01*
X134173102Y-117495226D01*
X134373061Y-117535000D01*
X134576939Y-117535000D01*
X134776898Y-117495226D01*
X134965256Y-117417205D01*
X135134774Y-117303937D01*
X135278937Y-117159774D01*
X135392205Y-116990256D01*
X135470226Y-116801898D01*
X135510000Y-116601939D01*
X135510000Y-116398061D01*
X138940000Y-116398061D01*
X138940000Y-116601939D01*
X138979774Y-116801898D01*
X139057795Y-116990256D01*
X139171063Y-117159774D01*
X139315226Y-117303937D01*
X139484744Y-117417205D01*
X139673102Y-117495226D01*
X139873061Y-117535000D01*
X140076939Y-117535000D01*
X140276898Y-117495226D01*
X140465256Y-117417205D01*
X140634774Y-117303937D01*
X140778937Y-117159774D01*
X140892205Y-116990256D01*
X140970226Y-116801898D01*
X141010000Y-116601939D01*
X141010000Y-116398061D01*
X143840000Y-116398061D01*
X143840000Y-116601939D01*
X143879774Y-116801898D01*
X143957795Y-116990256D01*
X144071063Y-117159774D01*
X144215226Y-117303937D01*
X144384744Y-117417205D01*
X144573102Y-117495226D01*
X144773061Y-117535000D01*
X144976939Y-117535000D01*
X145176898Y-117495226D01*
X145365256Y-117417205D01*
X145534774Y-117303937D01*
X145678937Y-117159774D01*
X145792205Y-116990256D01*
X145870226Y-116801898D01*
X145910000Y-116601939D01*
X145910000Y-116398061D01*
X145870226Y-116198102D01*
X145792205Y-116009744D01*
X145678937Y-115840226D01*
X145534774Y-115696063D01*
X145365256Y-115582795D01*
X145176898Y-115504774D01*
X144976939Y-115465000D01*
X144773061Y-115465000D01*
X144573102Y-115504774D01*
X144384744Y-115582795D01*
X144215226Y-115696063D01*
X144071063Y-115840226D01*
X143957795Y-116009744D01*
X143879774Y-116198102D01*
X143840000Y-116398061D01*
X141010000Y-116398061D01*
X140970226Y-116198102D01*
X140892205Y-116009744D01*
X140778937Y-115840226D01*
X140634774Y-115696063D01*
X140465256Y-115582795D01*
X140276898Y-115504774D01*
X140076939Y-115465000D01*
X139873061Y-115465000D01*
X139673102Y-115504774D01*
X139484744Y-115582795D01*
X139315226Y-115696063D01*
X139171063Y-115840226D01*
X139057795Y-116009744D01*
X138979774Y-116198102D01*
X138940000Y-116398061D01*
X135510000Y-116398061D01*
X135470226Y-116198102D01*
X135392205Y-116009744D01*
X135278937Y-115840226D01*
X135134774Y-115696063D01*
X134965256Y-115582795D01*
X134776898Y-115504774D01*
X134576939Y-115465000D01*
X134373061Y-115465000D01*
X134173102Y-115504774D01*
X133984744Y-115582795D01*
X133815226Y-115696063D01*
X133671063Y-115840226D01*
X133557795Y-116009744D01*
X133479774Y-116198102D01*
X133440000Y-116398061D01*
X110130393Y-116398061D01*
X110170226Y-116301898D01*
X110210000Y-116101939D01*
X110210000Y-115898061D01*
X110170226Y-115698102D01*
X110092205Y-115509744D01*
X109978937Y-115340226D01*
X109834774Y-115196063D01*
X109665256Y-115082795D01*
X109476898Y-115004774D01*
X109276939Y-114965000D01*
X109073061Y-114965000D01*
X108873102Y-115004774D01*
X108684744Y-115082795D01*
X108515226Y-115196063D01*
X108371063Y-115340226D01*
X108257795Y-115509744D01*
X108179774Y-115698102D01*
X108140000Y-115898061D01*
X95745640Y-115898061D01*
X95744267Y-113498061D01*
X114840000Y-113498061D01*
X114840000Y-113701939D01*
X114879774Y-113901898D01*
X114957795Y-114090256D01*
X115071063Y-114259774D01*
X115215226Y-114403937D01*
X115384744Y-114517205D01*
X115573102Y-114595226D01*
X115773061Y-114635000D01*
X115976939Y-114635000D01*
X116176898Y-114595226D01*
X116365256Y-114517205D01*
X116534774Y-114403937D01*
X116678937Y-114259774D01*
X116792205Y-114090256D01*
X116870226Y-113901898D01*
X116910000Y-113701939D01*
X116910000Y-113498061D01*
X116870226Y-113298102D01*
X116792205Y-113109744D01*
X116678937Y-112940226D01*
X116534774Y-112796063D01*
X116365256Y-112682795D01*
X116176898Y-112604774D01*
X115976939Y-112565000D01*
X115773061Y-112565000D01*
X115573102Y-112604774D01*
X115384744Y-112682795D01*
X115215226Y-112796063D01*
X115071063Y-112940226D01*
X114957795Y-113109744D01*
X114879774Y-113298102D01*
X114840000Y-113498061D01*
X95744267Y-113498061D01*
X95742436Y-110298061D01*
X108040000Y-110298061D01*
X108040000Y-110501939D01*
X108079774Y-110701898D01*
X108157795Y-110890256D01*
X108271063Y-111059774D01*
X108415226Y-111203937D01*
X108584744Y-111317205D01*
X108773102Y-111395226D01*
X108973061Y-111435000D01*
X109176939Y-111435000D01*
X109376898Y-111395226D01*
X109565256Y-111317205D01*
X109734774Y-111203937D01*
X109878937Y-111059774D01*
X109992205Y-110890256D01*
X110030393Y-110798061D01*
X120440000Y-110798061D01*
X120440000Y-111001939D01*
X120479774Y-111201898D01*
X120557795Y-111390256D01*
X120671063Y-111559774D01*
X120815226Y-111703937D01*
X120984744Y-111817205D01*
X121129814Y-111877295D01*
X121079774Y-111998102D01*
X121040000Y-112198061D01*
X121040000Y-112401939D01*
X121079774Y-112601898D01*
X121157795Y-112790256D01*
X121164308Y-112800004D01*
X121155632Y-112812989D01*
X121077611Y-113001347D01*
X121037837Y-113201306D01*
X121037837Y-113405184D01*
X121077611Y-113605143D01*
X121155632Y-113793501D01*
X121195549Y-113853241D01*
X121157795Y-113909744D01*
X121079774Y-114098102D01*
X121040000Y-114298061D01*
X121040000Y-114501939D01*
X121079774Y-114701898D01*
X121157795Y-114890256D01*
X121271063Y-115059774D01*
X121415226Y-115203937D01*
X121584744Y-115317205D01*
X121773102Y-115395226D01*
X121973061Y-115435000D01*
X122176939Y-115435000D01*
X122376898Y-115395226D01*
X122565256Y-115317205D01*
X122734774Y-115203937D01*
X122878937Y-115059774D01*
X122992205Y-114890256D01*
X123070226Y-114701898D01*
X123110000Y-114501939D01*
X123110000Y-114298061D01*
X123070226Y-114098102D01*
X122992205Y-113909744D01*
X122952288Y-113850004D01*
X122990042Y-113793501D01*
X123068063Y-113605143D01*
X123107837Y-113405184D01*
X123107837Y-113298061D01*
X133140000Y-113298061D01*
X133140000Y-113501939D01*
X133179774Y-113701898D01*
X133257795Y-113890256D01*
X133371063Y-114059774D01*
X133515226Y-114203937D01*
X133684744Y-114317205D01*
X133873102Y-114395226D01*
X134073061Y-114435000D01*
X134276939Y-114435000D01*
X134476898Y-114395226D01*
X134665256Y-114317205D01*
X134834774Y-114203937D01*
X134978937Y-114059774D01*
X135092205Y-113890256D01*
X135125000Y-113811082D01*
X135157795Y-113890256D01*
X135271063Y-114059774D01*
X135415226Y-114203937D01*
X135584744Y-114317205D01*
X135773102Y-114395226D01*
X135973061Y-114435000D01*
X136176939Y-114435000D01*
X136376898Y-114395226D01*
X136565256Y-114317205D01*
X136734774Y-114203937D01*
X136740650Y-114198061D01*
X156040000Y-114198061D01*
X156040000Y-114401939D01*
X156079774Y-114601898D01*
X156157795Y-114790256D01*
X156203023Y-114857945D01*
X156168412Y-114909744D01*
X156090391Y-115098102D01*
X156050617Y-115298061D01*
X156050617Y-115501939D01*
X156090391Y-115701898D01*
X156168412Y-115890256D01*
X156281680Y-116059774D01*
X156425843Y-116203937D01*
X156595361Y-116317205D01*
X156783719Y-116395226D01*
X156983678Y-116435000D01*
X157187556Y-116435000D01*
X157387515Y-116395226D01*
X157575873Y-116317205D01*
X157745391Y-116203937D01*
X157889554Y-116059774D01*
X158002822Y-115890256D01*
X158080843Y-115701898D01*
X158120617Y-115501939D01*
X158120617Y-115298061D01*
X158080843Y-115098102D01*
X158002822Y-114909744D01*
X157957594Y-114842055D01*
X157992205Y-114790256D01*
X158070226Y-114601898D01*
X158110000Y-114401939D01*
X158110000Y-114198061D01*
X158070226Y-113998102D01*
X157992205Y-113809744D01*
X157878937Y-113640226D01*
X157734774Y-113496063D01*
X157565256Y-113382795D01*
X157376898Y-113304774D01*
X157176939Y-113265000D01*
X156973061Y-113265000D01*
X156773102Y-113304774D01*
X156584744Y-113382795D01*
X156415226Y-113496063D01*
X156271063Y-113640226D01*
X156157795Y-113809744D01*
X156079774Y-113998102D01*
X156040000Y-114198061D01*
X136740650Y-114198061D01*
X136878937Y-114059774D01*
X136992205Y-113890256D01*
X137070226Y-113701898D01*
X137110000Y-113501939D01*
X137110000Y-113298061D01*
X137070226Y-113098102D01*
X136992205Y-112909744D01*
X136918877Y-112800000D01*
X136992205Y-112690256D01*
X137070226Y-112501898D01*
X137110000Y-112301939D01*
X137110000Y-112098061D01*
X137070226Y-111898102D01*
X136992205Y-111709744D01*
X136917582Y-111598061D01*
X140540000Y-111598061D01*
X140540000Y-111801939D01*
X140579774Y-112001898D01*
X140657795Y-112190256D01*
X140771063Y-112359774D01*
X140915226Y-112503937D01*
X141084744Y-112617205D01*
X141273102Y-112695226D01*
X141473061Y-112735000D01*
X141676939Y-112735000D01*
X141876898Y-112695226D01*
X142065256Y-112617205D01*
X142234774Y-112503937D01*
X142378937Y-112359774D01*
X142492205Y-112190256D01*
X142570226Y-112001898D01*
X142586940Y-111917868D01*
X142673059Y-111934998D01*
X142876937Y-111934998D01*
X143076896Y-111895224D01*
X143265254Y-111817203D01*
X143434772Y-111703935D01*
X143578935Y-111559772D01*
X143692203Y-111390254D01*
X143770224Y-111201896D01*
X143809998Y-111001937D01*
X143809998Y-110798059D01*
X143770224Y-110598100D01*
X143692203Y-110409742D01*
X143578935Y-110240224D01*
X143436772Y-110098061D01*
X152140000Y-110098061D01*
X152140000Y-110301939D01*
X152179774Y-110501898D01*
X152257795Y-110690256D01*
X152371063Y-110859774D01*
X152515226Y-111003937D01*
X152684744Y-111117205D01*
X152873102Y-111195226D01*
X153073061Y-111235000D01*
X153276939Y-111235000D01*
X153476898Y-111195226D01*
X153665256Y-111117205D01*
X153834774Y-111003937D01*
X153940650Y-110898061D01*
X158640000Y-110898061D01*
X158640000Y-111101939D01*
X158679774Y-111301898D01*
X158757795Y-111490256D01*
X158871063Y-111659774D01*
X159015226Y-111803937D01*
X159184744Y-111917205D01*
X159373102Y-111995226D01*
X159573061Y-112035000D01*
X159776939Y-112035000D01*
X159976898Y-111995226D01*
X160165256Y-111917205D01*
X160334774Y-111803937D01*
X160478937Y-111659774D01*
X160592205Y-111490256D01*
X160670226Y-111301898D01*
X160710000Y-111101939D01*
X160710000Y-110898061D01*
X160670226Y-110698102D01*
X160592205Y-110509744D01*
X160478937Y-110340226D01*
X160334774Y-110196063D01*
X160165256Y-110082795D01*
X159976898Y-110004774D01*
X159776939Y-109965000D01*
X159573061Y-109965000D01*
X159373102Y-110004774D01*
X159184744Y-110082795D01*
X159015226Y-110196063D01*
X158871063Y-110340226D01*
X158757795Y-110509744D01*
X158679774Y-110698102D01*
X158640000Y-110898061D01*
X153940650Y-110898061D01*
X153978937Y-110859774D01*
X154092205Y-110690256D01*
X154170226Y-110501898D01*
X154210000Y-110301939D01*
X154210000Y-110098061D01*
X154170226Y-109898102D01*
X154092205Y-109709744D01*
X153978937Y-109540226D01*
X153834774Y-109396063D01*
X153665256Y-109282795D01*
X153476898Y-109204774D01*
X153276939Y-109165000D01*
X153073061Y-109165000D01*
X152873102Y-109204774D01*
X152684744Y-109282795D01*
X152515226Y-109396063D01*
X152371063Y-109540226D01*
X152257795Y-109709744D01*
X152179774Y-109898102D01*
X152140000Y-110098061D01*
X143436772Y-110098061D01*
X143434772Y-110096061D01*
X143265254Y-109982793D01*
X143076896Y-109904772D01*
X142876937Y-109864998D01*
X142673059Y-109864998D01*
X142473100Y-109904772D01*
X142284742Y-109982793D01*
X142115224Y-110096061D01*
X141971061Y-110240224D01*
X141857793Y-110409742D01*
X141779772Y-110598100D01*
X141763058Y-110682130D01*
X141676939Y-110665000D01*
X141473061Y-110665000D01*
X141273102Y-110704774D01*
X141084744Y-110782795D01*
X140915226Y-110896063D01*
X140771063Y-111040226D01*
X140657795Y-111209744D01*
X140579774Y-111398102D01*
X140540000Y-111598061D01*
X136917582Y-111598061D01*
X136878937Y-111540226D01*
X136734774Y-111396063D01*
X136565256Y-111282795D01*
X136376898Y-111204774D01*
X136176939Y-111165000D01*
X135973061Y-111165000D01*
X135773102Y-111204774D01*
X135584744Y-111282795D01*
X135415226Y-111396063D01*
X135271063Y-111540226D01*
X135157795Y-111709744D01*
X135079774Y-111898102D01*
X135040000Y-112098061D01*
X135040000Y-112301939D01*
X135079774Y-112501898D01*
X135157795Y-112690256D01*
X135231123Y-112800000D01*
X135157795Y-112909744D01*
X135125000Y-112988918D01*
X135092205Y-112909744D01*
X134978937Y-112740226D01*
X134834774Y-112596063D01*
X134665256Y-112482795D01*
X134476898Y-112404774D01*
X134276939Y-112365000D01*
X134073061Y-112365000D01*
X133873102Y-112404774D01*
X133684744Y-112482795D01*
X133515226Y-112596063D01*
X133371063Y-112740226D01*
X133257795Y-112909744D01*
X133179774Y-113098102D01*
X133140000Y-113298061D01*
X123107837Y-113298061D01*
X123107837Y-113201306D01*
X123068063Y-113001347D01*
X122990042Y-112812989D01*
X122983529Y-112803241D01*
X122992205Y-112790256D01*
X123070226Y-112601898D01*
X123110000Y-112401939D01*
X123110000Y-112198061D01*
X123070226Y-111998102D01*
X123031365Y-111904285D01*
X123076898Y-111895228D01*
X123265256Y-111817207D01*
X123434774Y-111703939D01*
X123578937Y-111559776D01*
X123692205Y-111390258D01*
X123770226Y-111201900D01*
X123810000Y-111001941D01*
X123810000Y-110798063D01*
X123770226Y-110598104D01*
X123692205Y-110409746D01*
X123578937Y-110240228D01*
X123434774Y-110096065D01*
X123265256Y-109982797D01*
X123076898Y-109904776D01*
X122876939Y-109865002D01*
X122673061Y-109865002D01*
X122473102Y-109904776D01*
X122284744Y-109982797D01*
X122125001Y-110089533D01*
X121965256Y-109982795D01*
X121776898Y-109904774D01*
X121576939Y-109865000D01*
X121373061Y-109865000D01*
X121173102Y-109904774D01*
X120984744Y-109982795D01*
X120815226Y-110096063D01*
X120671063Y-110240226D01*
X120557795Y-110409744D01*
X120479774Y-110598102D01*
X120440000Y-110798061D01*
X110030393Y-110798061D01*
X110070226Y-110701898D01*
X110110000Y-110501939D01*
X110110000Y-110298061D01*
X110070226Y-110098102D01*
X109992205Y-109909744D01*
X109878937Y-109740226D01*
X109734774Y-109596063D01*
X109565256Y-109482795D01*
X109376898Y-109404774D01*
X109176939Y-109365000D01*
X108973061Y-109365000D01*
X108773102Y-109404774D01*
X108584744Y-109482795D01*
X108415226Y-109596063D01*
X108271063Y-109740226D01*
X108157795Y-109909744D01*
X108079774Y-110098102D01*
X108040000Y-110298061D01*
X95742436Y-110298061D01*
X95741063Y-107898061D01*
X121740000Y-107898061D01*
X121740000Y-108101939D01*
X121779774Y-108301898D01*
X121857795Y-108490256D01*
X121971063Y-108659774D01*
X122115226Y-108803937D01*
X122284744Y-108917205D01*
X122473102Y-108995226D01*
X122673061Y-109035000D01*
X122876939Y-109035000D01*
X123076898Y-108995226D01*
X123265256Y-108917205D01*
X123434774Y-108803937D01*
X123578937Y-108659774D01*
X123692205Y-108490256D01*
X123770226Y-108301898D01*
X123810000Y-108101939D01*
X123810000Y-107898061D01*
X123770226Y-107698102D01*
X123692205Y-107509744D01*
X123684399Y-107498061D01*
X131140000Y-107498061D01*
X131140000Y-107701939D01*
X131179774Y-107901898D01*
X131257795Y-108090256D01*
X131331123Y-108200000D01*
X131257795Y-108309744D01*
X131179774Y-108498102D01*
X131140000Y-108698061D01*
X131140000Y-108901939D01*
X131179774Y-109101898D01*
X131257795Y-109290256D01*
X131331123Y-109400000D01*
X131257795Y-109509744D01*
X131179774Y-109698102D01*
X131140000Y-109898061D01*
X131140000Y-110101939D01*
X131179774Y-110301898D01*
X131257795Y-110490256D01*
X131371063Y-110659774D01*
X131515226Y-110803937D01*
X131684744Y-110917205D01*
X131873102Y-110995226D01*
X132073061Y-111035000D01*
X132276939Y-111035000D01*
X132476898Y-110995226D01*
X132665256Y-110917205D01*
X132825000Y-110810468D01*
X132984744Y-110917205D01*
X133173102Y-110995226D01*
X133373061Y-111035000D01*
X133576939Y-111035000D01*
X133776898Y-110995226D01*
X133965256Y-110917205D01*
X134134774Y-110803937D01*
X134278937Y-110659774D01*
X134392205Y-110490256D01*
X134470226Y-110301898D01*
X134510000Y-110101939D01*
X134510000Y-109898061D01*
X134470226Y-109698102D01*
X134392205Y-109509744D01*
X134278937Y-109340226D01*
X134134774Y-109196063D01*
X133965256Y-109082795D01*
X133776898Y-109004774D01*
X133576939Y-108965000D01*
X133373061Y-108965000D01*
X133190222Y-109001369D01*
X133210000Y-108901939D01*
X133210000Y-108698061D01*
X133170226Y-108498102D01*
X133092205Y-108309744D01*
X133018877Y-108200000D01*
X133092205Y-108090256D01*
X133170226Y-107901898D01*
X133210000Y-107701939D01*
X133210000Y-107498061D01*
X133170226Y-107298102D01*
X133092205Y-107109744D01*
X132978937Y-106940226D01*
X132834774Y-106796063D01*
X132665256Y-106682795D01*
X132476898Y-106604774D01*
X132276939Y-106565000D01*
X132073061Y-106565000D01*
X131873102Y-106604774D01*
X131684744Y-106682795D01*
X131515226Y-106796063D01*
X131371063Y-106940226D01*
X131257795Y-107109744D01*
X131179774Y-107298102D01*
X131140000Y-107498061D01*
X123684399Y-107498061D01*
X123578937Y-107340226D01*
X123434774Y-107196063D01*
X123265256Y-107082795D01*
X123076898Y-107004774D01*
X122876939Y-106965000D01*
X122673061Y-106965000D01*
X122473102Y-107004774D01*
X122284744Y-107082795D01*
X122115226Y-107196063D01*
X121971063Y-107340226D01*
X121857795Y-107509744D01*
X121779774Y-107698102D01*
X121740000Y-107898061D01*
X95741063Y-107898061D01*
X95739576Y-105298061D01*
X123340000Y-105298061D01*
X123340000Y-105501939D01*
X123379774Y-105701898D01*
X123457795Y-105890256D01*
X123571063Y-106059774D01*
X123715226Y-106203937D01*
X123884744Y-106317205D01*
X124073102Y-106395226D01*
X124273061Y-106435000D01*
X124476939Y-106435000D01*
X124662635Y-106398063D01*
X145840000Y-106398063D01*
X145840000Y-106601941D01*
X145879774Y-106801900D01*
X145957795Y-106990258D01*
X146071063Y-107159776D01*
X146215226Y-107303939D01*
X146384744Y-107417207D01*
X146573102Y-107495228D01*
X146773061Y-107535002D01*
X146976939Y-107535002D01*
X147176898Y-107495228D01*
X147365256Y-107417207D01*
X147534774Y-107303939D01*
X147678937Y-107159776D01*
X147792205Y-106990258D01*
X147870226Y-106801900D01*
X147910000Y-106601941D01*
X147910000Y-106398063D01*
X147870226Y-106198104D01*
X147792205Y-106009746D01*
X147678937Y-105840228D01*
X147534774Y-105696065D01*
X147365256Y-105582797D01*
X147176898Y-105504776D01*
X146976939Y-105465002D01*
X146773061Y-105465002D01*
X146573102Y-105504776D01*
X146384744Y-105582797D01*
X146215226Y-105696065D01*
X146071063Y-105840228D01*
X145957795Y-106009746D01*
X145879774Y-106198104D01*
X145840000Y-106398063D01*
X124662635Y-106398063D01*
X124676898Y-106395226D01*
X124865256Y-106317205D01*
X125034774Y-106203937D01*
X125178937Y-106059774D01*
X125292205Y-105890256D01*
X125370226Y-105701898D01*
X125410000Y-105501939D01*
X125410000Y-105298061D01*
X125370226Y-105098102D01*
X125292205Y-104909744D01*
X125178937Y-104740226D01*
X125034774Y-104596063D01*
X124865256Y-104482795D01*
X124676898Y-104404774D01*
X124476939Y-104365000D01*
X124273061Y-104365000D01*
X124073102Y-104404774D01*
X123884744Y-104482795D01*
X123715226Y-104596063D01*
X123571063Y-104740226D01*
X123457795Y-104909744D01*
X123379774Y-105098102D01*
X123340000Y-105298061D01*
X95739576Y-105298061D01*
X95739004Y-104298067D01*
X128540000Y-104298067D01*
X128540000Y-104501945D01*
X128579774Y-104701904D01*
X128657795Y-104890262D01*
X128771063Y-105059780D01*
X128915226Y-105203943D01*
X129084744Y-105317211D01*
X129273102Y-105395232D01*
X129473061Y-105435006D01*
X129676939Y-105435006D01*
X129876898Y-105395232D01*
X130065256Y-105317211D01*
X130234774Y-105203943D01*
X130378937Y-105059780D01*
X130492205Y-104890262D01*
X130570226Y-104701904D01*
X130610000Y-104501945D01*
X130610000Y-104298067D01*
X130609999Y-104298061D01*
X134940000Y-104298061D01*
X134940000Y-104501939D01*
X134979774Y-104701898D01*
X135057795Y-104890256D01*
X135171063Y-105059774D01*
X135315226Y-105203937D01*
X135484744Y-105317205D01*
X135673102Y-105395226D01*
X135873061Y-105435000D01*
X136076939Y-105435000D01*
X136276898Y-105395226D01*
X136465256Y-105317205D01*
X136493907Y-105298061D01*
X148340000Y-105298061D01*
X148340000Y-105501939D01*
X148379774Y-105701898D01*
X148457795Y-105890256D01*
X148571063Y-106059774D01*
X148715226Y-106203937D01*
X148884744Y-106317205D01*
X149073102Y-106395226D01*
X149273061Y-106435000D01*
X149476939Y-106435000D01*
X149676898Y-106395226D01*
X149865256Y-106317205D01*
X150034774Y-106203937D01*
X150178937Y-106059774D01*
X150292205Y-105890256D01*
X150370226Y-105701898D01*
X150410000Y-105501939D01*
X150410000Y-105298061D01*
X150370226Y-105098102D01*
X150292205Y-104909744D01*
X150178937Y-104740226D01*
X150034774Y-104596063D01*
X149865256Y-104482795D01*
X149676898Y-104404774D01*
X149476939Y-104365000D01*
X149273061Y-104365000D01*
X149073102Y-104404774D01*
X148884744Y-104482795D01*
X148715226Y-104596063D01*
X148571063Y-104740226D01*
X148457795Y-104909744D01*
X148379774Y-105098102D01*
X148340000Y-105298061D01*
X136493907Y-105298061D01*
X136634774Y-105203937D01*
X136778937Y-105059774D01*
X136892205Y-104890256D01*
X136970226Y-104701898D01*
X137010000Y-104501939D01*
X137010000Y-104298061D01*
X136970226Y-104098102D01*
X136892205Y-103909744D01*
X136778937Y-103740226D01*
X136634774Y-103596063D01*
X136465256Y-103482795D01*
X136276898Y-103404774D01*
X136076939Y-103365000D01*
X135873061Y-103365000D01*
X135673102Y-103404774D01*
X135484744Y-103482795D01*
X135315226Y-103596063D01*
X135171063Y-103740226D01*
X135057795Y-103909744D01*
X134979774Y-104098102D01*
X134940000Y-104298061D01*
X130609999Y-104298061D01*
X130570226Y-104098108D01*
X130492205Y-103909750D01*
X130378937Y-103740232D01*
X130234774Y-103596069D01*
X130065256Y-103482801D01*
X129876898Y-103404780D01*
X129676939Y-103365006D01*
X129473061Y-103365006D01*
X129273102Y-103404780D01*
X129084744Y-103482801D01*
X128915226Y-103596069D01*
X128771063Y-103740232D01*
X128657795Y-103909750D01*
X128579774Y-104098108D01*
X128540000Y-104298067D01*
X95739004Y-104298067D01*
X95737917Y-102398061D01*
X146640000Y-102398061D01*
X146640000Y-102601939D01*
X146679774Y-102801898D01*
X146757795Y-102990256D01*
X146871063Y-103159774D01*
X147015226Y-103303937D01*
X147184744Y-103417205D01*
X147373102Y-103495226D01*
X147573061Y-103535000D01*
X147776939Y-103535000D01*
X147976898Y-103495226D01*
X148165256Y-103417205D01*
X148334774Y-103303937D01*
X148478937Y-103159774D01*
X148586989Y-102998061D01*
X151840000Y-102998061D01*
X151840000Y-103201939D01*
X151879774Y-103401898D01*
X151957795Y-103590256D01*
X152071063Y-103759774D01*
X152215226Y-103903937D01*
X152384744Y-104017205D01*
X152573102Y-104095226D01*
X152773061Y-104135000D01*
X152976939Y-104135000D01*
X153176898Y-104095226D01*
X153365256Y-104017205D01*
X153534774Y-103903937D01*
X153678937Y-103759774D01*
X153792205Y-103590256D01*
X153870226Y-103401898D01*
X153910000Y-103201939D01*
X153910000Y-102998061D01*
X153870226Y-102798102D01*
X153792205Y-102609744D01*
X153678937Y-102440226D01*
X153536772Y-102298061D01*
X172040000Y-102298061D01*
X172040000Y-102501939D01*
X172079774Y-102701898D01*
X172157795Y-102890256D01*
X172271063Y-103059774D01*
X172415226Y-103203937D01*
X172584744Y-103317205D01*
X172773102Y-103395226D01*
X172973061Y-103435000D01*
X173176939Y-103435000D01*
X173376898Y-103395226D01*
X173565256Y-103317205D01*
X173734774Y-103203937D01*
X173878937Y-103059774D01*
X173992205Y-102890256D01*
X174070226Y-102701898D01*
X174110000Y-102501939D01*
X174110000Y-102298061D01*
X174070226Y-102098102D01*
X173992205Y-101909744D01*
X173878937Y-101740226D01*
X173734774Y-101596063D01*
X173565256Y-101482795D01*
X173376898Y-101404774D01*
X173176939Y-101365000D01*
X172973061Y-101365000D01*
X172773102Y-101404774D01*
X172584744Y-101482795D01*
X172415226Y-101596063D01*
X172271063Y-101740226D01*
X172157795Y-101909744D01*
X172079774Y-102098102D01*
X172040000Y-102298061D01*
X153536772Y-102298061D01*
X153534774Y-102296063D01*
X153365256Y-102182795D01*
X153176898Y-102104774D01*
X152976939Y-102065000D01*
X152773061Y-102065000D01*
X152573102Y-102104774D01*
X152384744Y-102182795D01*
X152215226Y-102296063D01*
X152071063Y-102440226D01*
X151957795Y-102609744D01*
X151879774Y-102798102D01*
X151840000Y-102998061D01*
X148586989Y-102998061D01*
X148592205Y-102990256D01*
X148670226Y-102801898D01*
X148710000Y-102601939D01*
X148710000Y-102398061D01*
X148670226Y-102198102D01*
X148592205Y-102009744D01*
X148478937Y-101840226D01*
X148334774Y-101696063D01*
X148165256Y-101582795D01*
X147976898Y-101504774D01*
X147776939Y-101465000D01*
X147573061Y-101465000D01*
X147373102Y-101504774D01*
X147184744Y-101582795D01*
X147015226Y-101696063D01*
X146871063Y-101840226D01*
X146757795Y-102009744D01*
X146679774Y-102198102D01*
X146640000Y-102398061D01*
X95737917Y-102398061D01*
X95737001Y-100798061D01*
X109340000Y-100798061D01*
X109340000Y-101001939D01*
X109379774Y-101201898D01*
X109457795Y-101390256D01*
X109571063Y-101559774D01*
X109715226Y-101703937D01*
X109884744Y-101817205D01*
X110073102Y-101895226D01*
X110273061Y-101935000D01*
X110476939Y-101935000D01*
X110676898Y-101895226D01*
X110865256Y-101817205D01*
X111034774Y-101703937D01*
X111178937Y-101559774D01*
X111292205Y-101390256D01*
X111370226Y-101201898D01*
X111410000Y-101001939D01*
X111410000Y-100798061D01*
X111370226Y-100598102D01*
X111292205Y-100409744D01*
X111178937Y-100240226D01*
X111034774Y-100096063D01*
X110865256Y-99982795D01*
X110676898Y-99904774D01*
X110476939Y-99865000D01*
X110273061Y-99865000D01*
X110073102Y-99904774D01*
X109884744Y-99982795D01*
X109715226Y-100096063D01*
X109571063Y-100240226D01*
X109457795Y-100409744D01*
X109379774Y-100598102D01*
X109340000Y-100798061D01*
X95737001Y-100798061D01*
X95735972Y-98998061D01*
X112540000Y-98998061D01*
X112540000Y-99201939D01*
X112579774Y-99401898D01*
X112657795Y-99590256D01*
X112771063Y-99759774D01*
X112915226Y-99903937D01*
X113084744Y-100017205D01*
X113273102Y-100095226D01*
X113473061Y-100135000D01*
X113676939Y-100135000D01*
X113876898Y-100095226D01*
X114065256Y-100017205D01*
X114234774Y-99903937D01*
X114378937Y-99759774D01*
X114492205Y-99590256D01*
X114570226Y-99401898D01*
X114610000Y-99201939D01*
X114610000Y-98998061D01*
X114570226Y-98798102D01*
X114492205Y-98609744D01*
X114378937Y-98440226D01*
X114234774Y-98296063D01*
X114065256Y-98182795D01*
X113876898Y-98104774D01*
X113676939Y-98065000D01*
X113473061Y-98065000D01*
X113273102Y-98104774D01*
X113084744Y-98182795D01*
X112915226Y-98296063D01*
X112771063Y-98440226D01*
X112657795Y-98609744D01*
X112579774Y-98798102D01*
X112540000Y-98998061D01*
X95735972Y-98998061D01*
X95735377Y-97960000D01*
X180415001Y-97960000D01*
X180415000Y-107767721D01*
%TA.AperFunction,Conductor*%
D13*
G36*
X180415000Y-107767721D02*
G01*
X180405420Y-107865424D01*
X180386420Y-107928357D01*
X180355554Y-107986406D01*
X180314011Y-108037343D01*
X180263356Y-108079248D01*
X180205529Y-108110515D01*
X180142728Y-108129956D01*
X180047165Y-108140000D01*
X179107419Y-108140000D01*
X179075000Y-108136807D01*
X179029432Y-108141295D01*
X178945617Y-108149550D01*
X178821207Y-108187290D01*
X178706550Y-108248575D01*
X178606052Y-108331052D01*
X178523575Y-108431550D01*
X178462290Y-108546207D01*
X178424550Y-108670617D01*
X178411807Y-108800000D01*
X178415000Y-108832419D01*
X178415001Y-130267571D01*
X178411807Y-130300000D01*
X178424550Y-130429383D01*
X178462290Y-130553793D01*
X178523575Y-130668450D01*
X178606052Y-130768948D01*
X178706550Y-130851425D01*
X178821207Y-130912710D01*
X178945617Y-130950450D01*
X179042581Y-130960000D01*
X179075000Y-130963193D01*
X179107419Y-130960000D01*
X180042721Y-130960000D01*
X180140424Y-130969580D01*
X180203356Y-130988580D01*
X180261405Y-131019445D01*
X180312343Y-131060989D01*
X180354248Y-131111644D01*
X180385515Y-131169471D01*
X180404956Y-131232272D01*
X180415000Y-131327835D01*
X180415001Y-140315192D01*
X95759622Y-140339809D01*
X95752439Y-127781589D01*
X159516000Y-127781589D01*
X159516000Y-128054411D01*
X159569225Y-128321989D01*
X159673629Y-128574043D01*
X159825201Y-128800886D01*
X160018114Y-128993799D01*
X160244957Y-129145371D01*
X160497011Y-129249775D01*
X160764589Y-129303000D01*
X161037411Y-129303000D01*
X161304989Y-129249775D01*
X161557043Y-129145371D01*
X161783886Y-128993799D01*
X161976799Y-128800886D01*
X162128371Y-128574043D01*
X162232775Y-128321989D01*
X162286000Y-128054411D01*
X162286000Y-127781589D01*
X162232775Y-127514011D01*
X162128371Y-127261957D01*
X161976799Y-127035114D01*
X161783886Y-126842201D01*
X161557043Y-126690629D01*
X161304989Y-126586225D01*
X161037411Y-126533000D01*
X160764589Y-126533000D01*
X160497011Y-126586225D01*
X160244957Y-126690629D01*
X160018114Y-126842201D01*
X159825201Y-127035114D01*
X159673629Y-127261957D01*
X159569225Y-127514011D01*
X159516000Y-127781589D01*
X95752439Y-127781589D01*
X95749244Y-122198061D01*
X120940000Y-122198061D01*
X120940000Y-122401939D01*
X120979774Y-122601898D01*
X121057795Y-122790256D01*
X121171063Y-122959774D01*
X121315226Y-123103937D01*
X121484744Y-123217205D01*
X121673102Y-123295226D01*
X121873061Y-123335000D01*
X122076939Y-123335000D01*
X122276898Y-123295226D01*
X122465256Y-123217205D01*
X122634774Y-123103937D01*
X122778937Y-122959774D01*
X122892205Y-122790256D01*
X122970226Y-122601898D01*
X123010000Y-122401939D01*
X123010000Y-122198061D01*
X122970226Y-121998102D01*
X122892205Y-121809744D01*
X122778937Y-121640226D01*
X122634774Y-121496063D01*
X122465256Y-121382795D01*
X122276898Y-121304774D01*
X122076939Y-121265000D01*
X121873061Y-121265000D01*
X121673102Y-121304774D01*
X121484744Y-121382795D01*
X121315226Y-121496063D01*
X121171063Y-121640226D01*
X121057795Y-121809744D01*
X120979774Y-121998102D01*
X120940000Y-122198061D01*
X95749244Y-122198061D01*
X95747528Y-119198061D01*
X126540000Y-119198061D01*
X126540000Y-119401939D01*
X126579774Y-119601898D01*
X126657795Y-119790256D01*
X126771063Y-119959774D01*
X126915226Y-120103937D01*
X127084744Y-120217205D01*
X127273102Y-120295226D01*
X127473061Y-120335000D01*
X127676939Y-120335000D01*
X127876898Y-120295226D01*
X128065256Y-120217205D01*
X128234774Y-120103937D01*
X128378937Y-119959774D01*
X128492205Y-119790256D01*
X128570226Y-119601898D01*
X128610000Y-119401939D01*
X128610000Y-119372212D01*
X140478000Y-119372212D01*
X140478000Y-119595788D01*
X140521617Y-119815067D01*
X140607176Y-120021624D01*
X140731388Y-120207520D01*
X140889480Y-120365612D01*
X140991830Y-120434000D01*
X140889480Y-120502388D01*
X140731388Y-120660480D01*
X140607176Y-120846376D01*
X140521617Y-121052933D01*
X140478000Y-121272212D01*
X140478000Y-121495788D01*
X140521617Y-121715067D01*
X140607176Y-121921624D01*
X140731388Y-122107520D01*
X140889480Y-122265612D01*
X141075376Y-122389824D01*
X141281933Y-122475383D01*
X141501212Y-122519000D01*
X141724788Y-122519000D01*
X141944067Y-122475383D01*
X142150624Y-122389824D01*
X142336520Y-122265612D01*
X142494612Y-122107520D01*
X142618824Y-121921624D01*
X142704383Y-121715067D01*
X142748000Y-121495788D01*
X142748000Y-121272212D01*
X142704383Y-121052933D01*
X142618824Y-120846376D01*
X142586541Y-120798061D01*
X153840000Y-120798061D01*
X153840000Y-121001939D01*
X153879774Y-121201898D01*
X153957795Y-121390256D01*
X154071063Y-121559774D01*
X154211289Y-121700000D01*
X154071063Y-121840226D01*
X153957795Y-122009744D01*
X153879774Y-122198102D01*
X153840000Y-122398061D01*
X153840000Y-122601939D01*
X153879774Y-122801898D01*
X153957795Y-122990256D01*
X154071063Y-123159774D01*
X154215226Y-123303937D01*
X154384744Y-123417205D01*
X154573102Y-123495226D01*
X154773061Y-123535000D01*
X154976939Y-123535000D01*
X155176898Y-123495226D01*
X155365256Y-123417205D01*
X155534774Y-123303937D01*
X155678937Y-123159774D01*
X155792205Y-122990256D01*
X155870226Y-122801898D01*
X155910000Y-122601939D01*
X155910000Y-122398061D01*
X155870226Y-122198102D01*
X155828788Y-122098061D01*
X168639998Y-122098061D01*
X168639998Y-122301939D01*
X168679772Y-122501898D01*
X168757793Y-122690256D01*
X168797713Y-122750000D01*
X168757795Y-122809742D01*
X168679774Y-122998100D01*
X168640000Y-123198059D01*
X168640000Y-123401937D01*
X168679774Y-123601896D01*
X168757795Y-123790254D01*
X168871063Y-123959772D01*
X169015226Y-124103935D01*
X169184744Y-124217203D01*
X169373102Y-124295224D01*
X169573061Y-124334998D01*
X169776939Y-124334998D01*
X169976898Y-124295224D01*
X170165256Y-124217203D01*
X170334774Y-124103935D01*
X170478937Y-123959772D01*
X170592205Y-123790254D01*
X170670226Y-123601896D01*
X170710000Y-123401937D01*
X170710000Y-123198059D01*
X170670226Y-122998100D01*
X170592205Y-122809742D01*
X170552285Y-122749998D01*
X170592203Y-122690256D01*
X170670224Y-122501898D01*
X170709998Y-122301939D01*
X170709998Y-122098061D01*
X170670224Y-121898102D01*
X170592203Y-121709744D01*
X170478935Y-121540226D01*
X170334772Y-121396063D01*
X170165254Y-121282795D01*
X169976896Y-121204774D01*
X169776937Y-121165000D01*
X169573059Y-121165000D01*
X169373100Y-121204774D01*
X169184742Y-121282795D01*
X169015224Y-121396063D01*
X168871061Y-121540226D01*
X168757793Y-121709744D01*
X168679772Y-121898102D01*
X168639998Y-122098061D01*
X155828788Y-122098061D01*
X155792205Y-122009744D01*
X155678937Y-121840226D01*
X155538711Y-121700000D01*
X155678937Y-121559774D01*
X155792205Y-121390256D01*
X155870226Y-121201898D01*
X155910000Y-121001939D01*
X155910000Y-120798061D01*
X155870226Y-120598102D01*
X155792205Y-120409744D01*
X155678937Y-120240226D01*
X155534774Y-120096063D01*
X155365256Y-119982795D01*
X155176898Y-119904774D01*
X154976939Y-119865000D01*
X154773061Y-119865000D01*
X154573102Y-119904774D01*
X154384744Y-119982795D01*
X154215226Y-120096063D01*
X154071063Y-120240226D01*
X153957795Y-120409744D01*
X153879774Y-120598102D01*
X153840000Y-120798061D01*
X142586541Y-120798061D01*
X142494612Y-120660480D01*
X142336520Y-120502388D01*
X142234170Y-120434000D01*
X142336520Y-120365612D01*
X142494612Y-120207520D01*
X142618824Y-120021624D01*
X142704383Y-119815067D01*
X142748000Y-119595788D01*
X142748000Y-119372212D01*
X142704383Y-119152933D01*
X142618824Y-118946376D01*
X142494612Y-118760480D01*
X142432193Y-118698061D01*
X163340000Y-118698061D01*
X163340000Y-118901939D01*
X163379774Y-119101898D01*
X163457795Y-119290256D01*
X163571063Y-119459774D01*
X163715226Y-119603937D01*
X163884744Y-119717205D01*
X164073102Y-119795226D01*
X164273061Y-119835000D01*
X164476939Y-119835000D01*
X164676898Y-119795226D01*
X164865256Y-119717205D01*
X165034774Y-119603937D01*
X165178937Y-119459774D01*
X165292205Y-119290256D01*
X165370226Y-119101898D01*
X165410000Y-118901939D01*
X165410000Y-118698061D01*
X165370226Y-118498102D01*
X165316327Y-118367980D01*
X165445264Y-118421388D01*
X165645223Y-118461162D01*
X165849101Y-118461162D01*
X166049060Y-118421388D01*
X166237418Y-118343367D01*
X166406936Y-118230099D01*
X166551099Y-118085936D01*
X166664367Y-117916418D01*
X166742388Y-117728060D01*
X166782162Y-117528101D01*
X166782162Y-117324223D01*
X166742388Y-117124264D01*
X166664367Y-116935906D01*
X166551099Y-116766388D01*
X166482772Y-116698061D01*
X168639988Y-116698061D01*
X168639988Y-116901939D01*
X168679762Y-117101898D01*
X168757783Y-117290256D01*
X168871051Y-117459774D01*
X169015214Y-117603937D01*
X169084161Y-117650006D01*
X169015232Y-117696063D01*
X168871069Y-117840226D01*
X168757801Y-118009744D01*
X168679780Y-118198102D01*
X168640006Y-118398061D01*
X168640006Y-118601939D01*
X168679780Y-118801898D01*
X168757801Y-118990256D01*
X168764312Y-119000000D01*
X168757801Y-119009744D01*
X168679780Y-119198102D01*
X168640006Y-119398061D01*
X168640006Y-119601939D01*
X168679780Y-119801898D01*
X168757801Y-119990256D01*
X168871069Y-120159774D01*
X169015232Y-120303937D01*
X169184750Y-120417205D01*
X169373108Y-120495226D01*
X169573067Y-120535000D01*
X169776945Y-120535000D01*
X169976904Y-120495226D01*
X170165262Y-120417205D01*
X170334780Y-120303937D01*
X170478943Y-120159774D01*
X170592211Y-119990256D01*
X170670232Y-119801898D01*
X170710006Y-119601939D01*
X170710006Y-119398061D01*
X170670232Y-119198102D01*
X170592211Y-119009744D01*
X170585700Y-119000000D01*
X170592211Y-118990256D01*
X170670232Y-118801898D01*
X170710006Y-118601939D01*
X170710006Y-118398061D01*
X170670232Y-118198102D01*
X170592211Y-118009744D01*
X170478943Y-117840226D01*
X170334780Y-117696063D01*
X170265833Y-117649994D01*
X170334762Y-117603937D01*
X170478925Y-117459774D01*
X170592193Y-117290256D01*
X170670214Y-117101898D01*
X170709988Y-116901939D01*
X170709988Y-116698061D01*
X170670214Y-116498102D01*
X170592193Y-116309744D01*
X170478925Y-116140226D01*
X170338704Y-116000005D01*
X170478935Y-115859774D01*
X170592203Y-115690256D01*
X170670224Y-115501898D01*
X170709998Y-115301939D01*
X170709998Y-115098061D01*
X170670224Y-114898102D01*
X170592203Y-114709744D01*
X170585693Y-114700001D01*
X170592205Y-114690256D01*
X170670226Y-114501898D01*
X170710000Y-114301939D01*
X170710000Y-114098061D01*
X170670226Y-113898102D01*
X170592205Y-113709744D01*
X170478937Y-113540226D01*
X170334774Y-113396063D01*
X170165256Y-113282795D01*
X169976898Y-113204774D01*
X169776939Y-113165000D01*
X169573061Y-113165000D01*
X169373102Y-113204774D01*
X169184744Y-113282795D01*
X169015226Y-113396063D01*
X168871063Y-113540226D01*
X168757795Y-113709744D01*
X168679774Y-113898102D01*
X168640000Y-114098061D01*
X168640000Y-114301939D01*
X168679774Y-114501898D01*
X168757795Y-114690256D01*
X168764305Y-114699999D01*
X168757793Y-114709744D01*
X168679772Y-114898102D01*
X168639998Y-115098061D01*
X168639998Y-115301939D01*
X168679772Y-115501898D01*
X168757793Y-115690256D01*
X168871061Y-115859774D01*
X169011282Y-115999995D01*
X168871051Y-116140226D01*
X168757783Y-116309744D01*
X168679762Y-116498102D01*
X168639988Y-116698061D01*
X166482772Y-116698061D01*
X166406936Y-116622225D01*
X166237418Y-116508957D01*
X166049060Y-116430936D01*
X165849101Y-116391162D01*
X165645223Y-116391162D01*
X165445264Y-116430936D01*
X165378875Y-116458435D01*
X165410004Y-116301939D01*
X165410004Y-116098061D01*
X165370230Y-115898102D01*
X165292209Y-115709744D01*
X165178941Y-115540226D01*
X165034778Y-115396063D01*
X164865260Y-115282795D01*
X164676902Y-115204774D01*
X164476943Y-115165000D01*
X164273065Y-115165000D01*
X164073106Y-115204774D01*
X163884748Y-115282795D01*
X163715230Y-115396063D01*
X163571067Y-115540226D01*
X163457799Y-115709744D01*
X163379778Y-115898102D01*
X163340004Y-116098061D01*
X163340004Y-116301939D01*
X163379778Y-116501898D01*
X163457799Y-116690256D01*
X163571067Y-116859774D01*
X163715230Y-117003937D01*
X163884748Y-117117205D01*
X164073106Y-117195226D01*
X164273065Y-117235000D01*
X164476943Y-117235000D01*
X164676902Y-117195226D01*
X164743291Y-117167727D01*
X164712162Y-117324223D01*
X164712162Y-117528101D01*
X164751936Y-117728060D01*
X164805835Y-117858182D01*
X164676898Y-117804774D01*
X164476939Y-117765000D01*
X164273061Y-117765000D01*
X164073102Y-117804774D01*
X163884744Y-117882795D01*
X163715226Y-117996063D01*
X163571063Y-118140226D01*
X163457795Y-118309744D01*
X163379774Y-118498102D01*
X163340000Y-118698061D01*
X142432193Y-118698061D01*
X142336520Y-118602388D01*
X142150624Y-118478176D01*
X141944067Y-118392617D01*
X141724788Y-118349000D01*
X141501212Y-118349000D01*
X141281933Y-118392617D01*
X141075376Y-118478176D01*
X140889480Y-118602388D01*
X140731388Y-118760480D01*
X140607176Y-118946376D01*
X140521617Y-119152933D01*
X140478000Y-119372212D01*
X128610000Y-119372212D01*
X128610000Y-119198061D01*
X128570226Y-118998102D01*
X128492205Y-118809744D01*
X128378937Y-118640226D01*
X128234774Y-118496063D01*
X128065256Y-118382795D01*
X127876898Y-118304774D01*
X127676939Y-118265000D01*
X127473061Y-118265000D01*
X127273102Y-118304774D01*
X127084744Y-118382795D01*
X126915226Y-118496063D01*
X126771063Y-118640226D01*
X126657795Y-118809744D01*
X126579774Y-118998102D01*
X126540000Y-119198061D01*
X95747528Y-119198061D01*
X95746727Y-117798061D01*
X122240000Y-117798061D01*
X122240000Y-118001939D01*
X122279774Y-118201898D01*
X122357795Y-118390256D01*
X122471063Y-118559774D01*
X122615226Y-118703937D01*
X122784744Y-118817205D01*
X122973102Y-118895226D01*
X123173061Y-118935000D01*
X123376939Y-118935000D01*
X123576898Y-118895226D01*
X123765256Y-118817205D01*
X123934774Y-118703937D01*
X124078937Y-118559774D01*
X124192205Y-118390256D01*
X124270226Y-118201898D01*
X124310000Y-118001939D01*
X124310000Y-117798061D01*
X124270226Y-117598102D01*
X124192205Y-117409744D01*
X124078937Y-117240226D01*
X123934774Y-117096063D01*
X123765256Y-116982795D01*
X123576898Y-116904774D01*
X123376939Y-116865000D01*
X123173061Y-116865000D01*
X122973102Y-116904774D01*
X122784744Y-116982795D01*
X122615226Y-117096063D01*
X122471063Y-117240226D01*
X122357795Y-117409744D01*
X122279774Y-117598102D01*
X122240000Y-117798061D01*
X95746727Y-117798061D01*
X95745640Y-115898061D01*
X108140000Y-115898061D01*
X108140000Y-116101939D01*
X108179774Y-116301898D01*
X108257795Y-116490256D01*
X108371063Y-116659774D01*
X108515226Y-116803937D01*
X108684744Y-116917205D01*
X108873102Y-116995226D01*
X109073061Y-117035000D01*
X109276939Y-117035000D01*
X109476898Y-116995226D01*
X109665256Y-116917205D01*
X109834774Y-116803937D01*
X109978937Y-116659774D01*
X110092205Y-116490256D01*
X110130393Y-116398061D01*
X133440000Y-116398061D01*
X133440000Y-116601939D01*
X133479774Y-116801898D01*
X133557795Y-116990256D01*
X133671063Y-117159774D01*
X133815226Y-117303937D01*
X133984744Y-117417205D01*
X134173102Y-117495226D01*
X134373061Y-117535000D01*
X134576939Y-117535000D01*
X134776898Y-117495226D01*
X134965256Y-117417205D01*
X135134774Y-117303937D01*
X135278937Y-117159774D01*
X135392205Y-116990256D01*
X135470226Y-116801898D01*
X135510000Y-116601939D01*
X135510000Y-116398061D01*
X138940000Y-116398061D01*
X138940000Y-116601939D01*
X138979774Y-116801898D01*
X139057795Y-116990256D01*
X139171063Y-117159774D01*
X139315226Y-117303937D01*
X139484744Y-117417205D01*
X139673102Y-117495226D01*
X139873061Y-117535000D01*
X140076939Y-117535000D01*
X140276898Y-117495226D01*
X140465256Y-117417205D01*
X140634774Y-117303937D01*
X140778937Y-117159774D01*
X140892205Y-116990256D01*
X140970226Y-116801898D01*
X141010000Y-116601939D01*
X141010000Y-116398061D01*
X143840000Y-116398061D01*
X143840000Y-116601939D01*
X143879774Y-116801898D01*
X143957795Y-116990256D01*
X144071063Y-117159774D01*
X144215226Y-117303937D01*
X144384744Y-117417205D01*
X144573102Y-117495226D01*
X144773061Y-117535000D01*
X144976939Y-117535000D01*
X145176898Y-117495226D01*
X145365256Y-117417205D01*
X145534774Y-117303937D01*
X145678937Y-117159774D01*
X145792205Y-116990256D01*
X145870226Y-116801898D01*
X145910000Y-116601939D01*
X145910000Y-116398061D01*
X145870226Y-116198102D01*
X145792205Y-116009744D01*
X145678937Y-115840226D01*
X145534774Y-115696063D01*
X145365256Y-115582795D01*
X145176898Y-115504774D01*
X144976939Y-115465000D01*
X144773061Y-115465000D01*
X144573102Y-115504774D01*
X144384744Y-115582795D01*
X144215226Y-115696063D01*
X144071063Y-115840226D01*
X143957795Y-116009744D01*
X143879774Y-116198102D01*
X143840000Y-116398061D01*
X141010000Y-116398061D01*
X140970226Y-116198102D01*
X140892205Y-116009744D01*
X140778937Y-115840226D01*
X140634774Y-115696063D01*
X140465256Y-115582795D01*
X140276898Y-115504774D01*
X140076939Y-115465000D01*
X139873061Y-115465000D01*
X139673102Y-115504774D01*
X139484744Y-115582795D01*
X139315226Y-115696063D01*
X139171063Y-115840226D01*
X139057795Y-116009744D01*
X138979774Y-116198102D01*
X138940000Y-116398061D01*
X135510000Y-116398061D01*
X135470226Y-116198102D01*
X135392205Y-116009744D01*
X135278937Y-115840226D01*
X135134774Y-115696063D01*
X134965256Y-115582795D01*
X134776898Y-115504774D01*
X134576939Y-115465000D01*
X134373061Y-115465000D01*
X134173102Y-115504774D01*
X133984744Y-115582795D01*
X133815226Y-115696063D01*
X133671063Y-115840226D01*
X133557795Y-116009744D01*
X133479774Y-116198102D01*
X133440000Y-116398061D01*
X110130393Y-116398061D01*
X110170226Y-116301898D01*
X110210000Y-116101939D01*
X110210000Y-115898061D01*
X110170226Y-115698102D01*
X110092205Y-115509744D01*
X109978937Y-115340226D01*
X109834774Y-115196063D01*
X109665256Y-115082795D01*
X109476898Y-115004774D01*
X109276939Y-114965000D01*
X109073061Y-114965000D01*
X108873102Y-115004774D01*
X108684744Y-115082795D01*
X108515226Y-115196063D01*
X108371063Y-115340226D01*
X108257795Y-115509744D01*
X108179774Y-115698102D01*
X108140000Y-115898061D01*
X95745640Y-115898061D01*
X95744267Y-113498061D01*
X114840000Y-113498061D01*
X114840000Y-113701939D01*
X114879774Y-113901898D01*
X114957795Y-114090256D01*
X115071063Y-114259774D01*
X115215226Y-114403937D01*
X115384744Y-114517205D01*
X115573102Y-114595226D01*
X115773061Y-114635000D01*
X115976939Y-114635000D01*
X116176898Y-114595226D01*
X116365256Y-114517205D01*
X116534774Y-114403937D01*
X116678937Y-114259774D01*
X116792205Y-114090256D01*
X116870226Y-113901898D01*
X116910000Y-113701939D01*
X116910000Y-113498061D01*
X116870226Y-113298102D01*
X116792205Y-113109744D01*
X116678937Y-112940226D01*
X116534774Y-112796063D01*
X116365256Y-112682795D01*
X116176898Y-112604774D01*
X115976939Y-112565000D01*
X115773061Y-112565000D01*
X115573102Y-112604774D01*
X115384744Y-112682795D01*
X115215226Y-112796063D01*
X115071063Y-112940226D01*
X114957795Y-113109744D01*
X114879774Y-113298102D01*
X114840000Y-113498061D01*
X95744267Y-113498061D01*
X95742436Y-110298061D01*
X108040000Y-110298061D01*
X108040000Y-110501939D01*
X108079774Y-110701898D01*
X108157795Y-110890256D01*
X108271063Y-111059774D01*
X108415226Y-111203937D01*
X108584744Y-111317205D01*
X108773102Y-111395226D01*
X108973061Y-111435000D01*
X109176939Y-111435000D01*
X109376898Y-111395226D01*
X109565256Y-111317205D01*
X109734774Y-111203937D01*
X109878937Y-111059774D01*
X109992205Y-110890256D01*
X110030393Y-110798061D01*
X120440000Y-110798061D01*
X120440000Y-111001939D01*
X120479774Y-111201898D01*
X120557795Y-111390256D01*
X120671063Y-111559774D01*
X120815226Y-111703937D01*
X120984744Y-111817205D01*
X121129814Y-111877295D01*
X121079774Y-111998102D01*
X121040000Y-112198061D01*
X121040000Y-112401939D01*
X121079774Y-112601898D01*
X121157795Y-112790256D01*
X121164308Y-112800004D01*
X121155632Y-112812989D01*
X121077611Y-113001347D01*
X121037837Y-113201306D01*
X121037837Y-113405184D01*
X121077611Y-113605143D01*
X121155632Y-113793501D01*
X121195549Y-113853241D01*
X121157795Y-113909744D01*
X121079774Y-114098102D01*
X121040000Y-114298061D01*
X121040000Y-114501939D01*
X121079774Y-114701898D01*
X121157795Y-114890256D01*
X121271063Y-115059774D01*
X121415226Y-115203937D01*
X121584744Y-115317205D01*
X121773102Y-115395226D01*
X121973061Y-115435000D01*
X122176939Y-115435000D01*
X122376898Y-115395226D01*
X122565256Y-115317205D01*
X122734774Y-115203937D01*
X122878937Y-115059774D01*
X122992205Y-114890256D01*
X123070226Y-114701898D01*
X123110000Y-114501939D01*
X123110000Y-114298061D01*
X123070226Y-114098102D01*
X122992205Y-113909744D01*
X122952288Y-113850004D01*
X122990042Y-113793501D01*
X123068063Y-113605143D01*
X123107837Y-113405184D01*
X123107837Y-113298061D01*
X133140000Y-113298061D01*
X133140000Y-113501939D01*
X133179774Y-113701898D01*
X133257795Y-113890256D01*
X133371063Y-114059774D01*
X133515226Y-114203937D01*
X133684744Y-114317205D01*
X133873102Y-114395226D01*
X134073061Y-114435000D01*
X134276939Y-114435000D01*
X134476898Y-114395226D01*
X134665256Y-114317205D01*
X134834774Y-114203937D01*
X134978937Y-114059774D01*
X135092205Y-113890256D01*
X135125000Y-113811082D01*
X135157795Y-113890256D01*
X135271063Y-114059774D01*
X135415226Y-114203937D01*
X135584744Y-114317205D01*
X135773102Y-114395226D01*
X135973061Y-114435000D01*
X136176939Y-114435000D01*
X136376898Y-114395226D01*
X136565256Y-114317205D01*
X136734774Y-114203937D01*
X136740650Y-114198061D01*
X156040000Y-114198061D01*
X156040000Y-114401939D01*
X156079774Y-114601898D01*
X156157795Y-114790256D01*
X156203023Y-114857945D01*
X156168412Y-114909744D01*
X156090391Y-115098102D01*
X156050617Y-115298061D01*
X156050617Y-115501939D01*
X156090391Y-115701898D01*
X156168412Y-115890256D01*
X156281680Y-116059774D01*
X156425843Y-116203937D01*
X156595361Y-116317205D01*
X156783719Y-116395226D01*
X156983678Y-116435000D01*
X157187556Y-116435000D01*
X157387515Y-116395226D01*
X157575873Y-116317205D01*
X157745391Y-116203937D01*
X157889554Y-116059774D01*
X158002822Y-115890256D01*
X158080843Y-115701898D01*
X158120617Y-115501939D01*
X158120617Y-115298061D01*
X158080843Y-115098102D01*
X158002822Y-114909744D01*
X157957594Y-114842055D01*
X157992205Y-114790256D01*
X158070226Y-114601898D01*
X158110000Y-114401939D01*
X158110000Y-114198061D01*
X158070226Y-113998102D01*
X157992205Y-113809744D01*
X157878937Y-113640226D01*
X157734774Y-113496063D01*
X157565256Y-113382795D01*
X157376898Y-113304774D01*
X157176939Y-113265000D01*
X156973061Y-113265000D01*
X156773102Y-113304774D01*
X156584744Y-113382795D01*
X156415226Y-113496063D01*
X156271063Y-113640226D01*
X156157795Y-113809744D01*
X156079774Y-113998102D01*
X156040000Y-114198061D01*
X136740650Y-114198061D01*
X136878937Y-114059774D01*
X136992205Y-113890256D01*
X137070226Y-113701898D01*
X137110000Y-113501939D01*
X137110000Y-113298061D01*
X137070226Y-113098102D01*
X136992205Y-112909744D01*
X136918877Y-112800000D01*
X136992205Y-112690256D01*
X137070226Y-112501898D01*
X137110000Y-112301939D01*
X137110000Y-112098061D01*
X137070226Y-111898102D01*
X136992205Y-111709744D01*
X136917582Y-111598061D01*
X140540000Y-111598061D01*
X140540000Y-111801939D01*
X140579774Y-112001898D01*
X140657795Y-112190256D01*
X140771063Y-112359774D01*
X140915226Y-112503937D01*
X141084744Y-112617205D01*
X141273102Y-112695226D01*
X141473061Y-112735000D01*
X141676939Y-112735000D01*
X141876898Y-112695226D01*
X142065256Y-112617205D01*
X142234774Y-112503937D01*
X142378937Y-112359774D01*
X142492205Y-112190256D01*
X142570226Y-112001898D01*
X142586940Y-111917868D01*
X142673059Y-111934998D01*
X142876937Y-111934998D01*
X143076896Y-111895224D01*
X143265254Y-111817203D01*
X143434772Y-111703935D01*
X143578935Y-111559772D01*
X143692203Y-111390254D01*
X143770224Y-111201896D01*
X143809998Y-111001937D01*
X143809998Y-110798059D01*
X143770224Y-110598100D01*
X143692203Y-110409742D01*
X143578935Y-110240224D01*
X143436772Y-110098061D01*
X152140000Y-110098061D01*
X152140000Y-110301939D01*
X152179774Y-110501898D01*
X152257795Y-110690256D01*
X152371063Y-110859774D01*
X152515226Y-111003937D01*
X152684744Y-111117205D01*
X152873102Y-111195226D01*
X153073061Y-111235000D01*
X153276939Y-111235000D01*
X153476898Y-111195226D01*
X153665256Y-111117205D01*
X153834774Y-111003937D01*
X153940650Y-110898061D01*
X158640000Y-110898061D01*
X158640000Y-111101939D01*
X158679774Y-111301898D01*
X158757795Y-111490256D01*
X158871063Y-111659774D01*
X159015226Y-111803937D01*
X159184744Y-111917205D01*
X159373102Y-111995226D01*
X159573061Y-112035000D01*
X159776939Y-112035000D01*
X159976898Y-111995226D01*
X160165256Y-111917205D01*
X160334774Y-111803937D01*
X160478937Y-111659774D01*
X160592205Y-111490256D01*
X160670226Y-111301898D01*
X160710000Y-111101939D01*
X160710000Y-110898061D01*
X160670226Y-110698102D01*
X160592205Y-110509744D01*
X160478937Y-110340226D01*
X160334774Y-110196063D01*
X160165256Y-110082795D01*
X159976898Y-110004774D01*
X159776939Y-109965000D01*
X159573061Y-109965000D01*
X159373102Y-110004774D01*
X159184744Y-110082795D01*
X159015226Y-110196063D01*
X158871063Y-110340226D01*
X158757795Y-110509744D01*
X158679774Y-110698102D01*
X158640000Y-110898061D01*
X153940650Y-110898061D01*
X153978937Y-110859774D01*
X154092205Y-110690256D01*
X154170226Y-110501898D01*
X154210000Y-110301939D01*
X154210000Y-110098061D01*
X154170226Y-109898102D01*
X154092205Y-109709744D01*
X153978937Y-109540226D01*
X153834774Y-109396063D01*
X153665256Y-109282795D01*
X153476898Y-109204774D01*
X153276939Y-109165000D01*
X153073061Y-109165000D01*
X152873102Y-109204774D01*
X152684744Y-109282795D01*
X152515226Y-109396063D01*
X152371063Y-109540226D01*
X152257795Y-109709744D01*
X152179774Y-109898102D01*
X152140000Y-110098061D01*
X143436772Y-110098061D01*
X143434772Y-110096061D01*
X143265254Y-109982793D01*
X143076896Y-109904772D01*
X142876937Y-109864998D01*
X142673059Y-109864998D01*
X142473100Y-109904772D01*
X142284742Y-109982793D01*
X142115224Y-110096061D01*
X141971061Y-110240224D01*
X141857793Y-110409742D01*
X141779772Y-110598100D01*
X141763058Y-110682130D01*
X141676939Y-110665000D01*
X141473061Y-110665000D01*
X141273102Y-110704774D01*
X141084744Y-110782795D01*
X140915226Y-110896063D01*
X140771063Y-111040226D01*
X140657795Y-111209744D01*
X140579774Y-111398102D01*
X140540000Y-111598061D01*
X136917582Y-111598061D01*
X136878937Y-111540226D01*
X136734774Y-111396063D01*
X136565256Y-111282795D01*
X136376898Y-111204774D01*
X136176939Y-111165000D01*
X135973061Y-111165000D01*
X135773102Y-111204774D01*
X135584744Y-111282795D01*
X135415226Y-111396063D01*
X135271063Y-111540226D01*
X135157795Y-111709744D01*
X135079774Y-111898102D01*
X135040000Y-112098061D01*
X135040000Y-112301939D01*
X135079774Y-112501898D01*
X135157795Y-112690256D01*
X135231123Y-112800000D01*
X135157795Y-112909744D01*
X135125000Y-112988918D01*
X135092205Y-112909744D01*
X134978937Y-112740226D01*
X134834774Y-112596063D01*
X134665256Y-112482795D01*
X134476898Y-112404774D01*
X134276939Y-112365000D01*
X134073061Y-112365000D01*
X133873102Y-112404774D01*
X133684744Y-112482795D01*
X133515226Y-112596063D01*
X133371063Y-112740226D01*
X133257795Y-112909744D01*
X133179774Y-113098102D01*
X133140000Y-113298061D01*
X123107837Y-113298061D01*
X123107837Y-113201306D01*
X123068063Y-113001347D01*
X122990042Y-112812989D01*
X122983529Y-112803241D01*
X122992205Y-112790256D01*
X123070226Y-112601898D01*
X123110000Y-112401939D01*
X123110000Y-112198061D01*
X123070226Y-111998102D01*
X123031365Y-111904285D01*
X123076898Y-111895228D01*
X123265256Y-111817207D01*
X123434774Y-111703939D01*
X123578937Y-111559776D01*
X123692205Y-111390258D01*
X123770226Y-111201900D01*
X123810000Y-111001941D01*
X123810000Y-110798063D01*
X123770226Y-110598104D01*
X123692205Y-110409746D01*
X123578937Y-110240228D01*
X123434774Y-110096065D01*
X123265256Y-109982797D01*
X123076898Y-109904776D01*
X122876939Y-109865002D01*
X122673061Y-109865002D01*
X122473102Y-109904776D01*
X122284744Y-109982797D01*
X122125001Y-110089533D01*
X121965256Y-109982795D01*
X121776898Y-109904774D01*
X121576939Y-109865000D01*
X121373061Y-109865000D01*
X121173102Y-109904774D01*
X120984744Y-109982795D01*
X120815226Y-110096063D01*
X120671063Y-110240226D01*
X120557795Y-110409744D01*
X120479774Y-110598102D01*
X120440000Y-110798061D01*
X110030393Y-110798061D01*
X110070226Y-110701898D01*
X110110000Y-110501939D01*
X110110000Y-110298061D01*
X110070226Y-110098102D01*
X109992205Y-109909744D01*
X109878937Y-109740226D01*
X109734774Y-109596063D01*
X109565256Y-109482795D01*
X109376898Y-109404774D01*
X109176939Y-109365000D01*
X108973061Y-109365000D01*
X108773102Y-109404774D01*
X108584744Y-109482795D01*
X108415226Y-109596063D01*
X108271063Y-109740226D01*
X108157795Y-109909744D01*
X108079774Y-110098102D01*
X108040000Y-110298061D01*
X95742436Y-110298061D01*
X95741063Y-107898061D01*
X121740000Y-107898061D01*
X121740000Y-108101939D01*
X121779774Y-108301898D01*
X121857795Y-108490256D01*
X121971063Y-108659774D01*
X122115226Y-108803937D01*
X122284744Y-108917205D01*
X122473102Y-108995226D01*
X122673061Y-109035000D01*
X122876939Y-109035000D01*
X123076898Y-108995226D01*
X123265256Y-108917205D01*
X123434774Y-108803937D01*
X123578937Y-108659774D01*
X123692205Y-108490256D01*
X123770226Y-108301898D01*
X123810000Y-108101939D01*
X123810000Y-107898061D01*
X123770226Y-107698102D01*
X123692205Y-107509744D01*
X123684399Y-107498061D01*
X131140000Y-107498061D01*
X131140000Y-107701939D01*
X131179774Y-107901898D01*
X131257795Y-108090256D01*
X131331123Y-108200000D01*
X131257795Y-108309744D01*
X131179774Y-108498102D01*
X131140000Y-108698061D01*
X131140000Y-108901939D01*
X131179774Y-109101898D01*
X131257795Y-109290256D01*
X131331123Y-109400000D01*
X131257795Y-109509744D01*
X131179774Y-109698102D01*
X131140000Y-109898061D01*
X131140000Y-110101939D01*
X131179774Y-110301898D01*
X131257795Y-110490256D01*
X131371063Y-110659774D01*
X131515226Y-110803937D01*
X131684744Y-110917205D01*
X131873102Y-110995226D01*
X132073061Y-111035000D01*
X132276939Y-111035000D01*
X132476898Y-110995226D01*
X132665256Y-110917205D01*
X132825000Y-110810468D01*
X132984744Y-110917205D01*
X133173102Y-110995226D01*
X133373061Y-111035000D01*
X133576939Y-111035000D01*
X133776898Y-110995226D01*
X133965256Y-110917205D01*
X134134774Y-110803937D01*
X134278937Y-110659774D01*
X134392205Y-110490256D01*
X134470226Y-110301898D01*
X134510000Y-110101939D01*
X134510000Y-109898061D01*
X134470226Y-109698102D01*
X134392205Y-109509744D01*
X134278937Y-109340226D01*
X134134774Y-109196063D01*
X133965256Y-109082795D01*
X133776898Y-109004774D01*
X133576939Y-108965000D01*
X133373061Y-108965000D01*
X133190222Y-109001369D01*
X133210000Y-108901939D01*
X133210000Y-108698061D01*
X133170226Y-108498102D01*
X133092205Y-108309744D01*
X133018877Y-108200000D01*
X133092205Y-108090256D01*
X133170226Y-107901898D01*
X133210000Y-107701939D01*
X133210000Y-107498061D01*
X133170226Y-107298102D01*
X133092205Y-107109744D01*
X132978937Y-106940226D01*
X132834774Y-106796063D01*
X132665256Y-106682795D01*
X132476898Y-106604774D01*
X132276939Y-106565000D01*
X132073061Y-106565000D01*
X131873102Y-106604774D01*
X131684744Y-106682795D01*
X131515226Y-106796063D01*
X131371063Y-106940226D01*
X131257795Y-107109744D01*
X131179774Y-107298102D01*
X131140000Y-107498061D01*
X123684399Y-107498061D01*
X123578937Y-107340226D01*
X123434774Y-107196063D01*
X123265256Y-107082795D01*
X123076898Y-107004774D01*
X122876939Y-106965000D01*
X122673061Y-106965000D01*
X122473102Y-107004774D01*
X122284744Y-107082795D01*
X122115226Y-107196063D01*
X121971063Y-107340226D01*
X121857795Y-107509744D01*
X121779774Y-107698102D01*
X121740000Y-107898061D01*
X95741063Y-107898061D01*
X95739576Y-105298061D01*
X123340000Y-105298061D01*
X123340000Y-105501939D01*
X123379774Y-105701898D01*
X123457795Y-105890256D01*
X123571063Y-106059774D01*
X123715226Y-106203937D01*
X123884744Y-106317205D01*
X124073102Y-106395226D01*
X124273061Y-106435000D01*
X124476939Y-106435000D01*
X124662635Y-106398063D01*
X145840000Y-106398063D01*
X145840000Y-106601941D01*
X145879774Y-106801900D01*
X145957795Y-106990258D01*
X146071063Y-107159776D01*
X146215226Y-107303939D01*
X146384744Y-107417207D01*
X146573102Y-107495228D01*
X146773061Y-107535002D01*
X146976939Y-107535002D01*
X147176898Y-107495228D01*
X147365256Y-107417207D01*
X147534774Y-107303939D01*
X147678937Y-107159776D01*
X147792205Y-106990258D01*
X147870226Y-106801900D01*
X147910000Y-106601941D01*
X147910000Y-106398063D01*
X147870226Y-106198104D01*
X147792205Y-106009746D01*
X147678937Y-105840228D01*
X147534774Y-105696065D01*
X147365256Y-105582797D01*
X147176898Y-105504776D01*
X146976939Y-105465002D01*
X146773061Y-105465002D01*
X146573102Y-105504776D01*
X146384744Y-105582797D01*
X146215226Y-105696065D01*
X146071063Y-105840228D01*
X145957795Y-106009746D01*
X145879774Y-106198104D01*
X145840000Y-106398063D01*
X124662635Y-106398063D01*
X124676898Y-106395226D01*
X124865256Y-106317205D01*
X125034774Y-106203937D01*
X125178937Y-106059774D01*
X125292205Y-105890256D01*
X125370226Y-105701898D01*
X125410000Y-105501939D01*
X125410000Y-105298061D01*
X125370226Y-105098102D01*
X125292205Y-104909744D01*
X125178937Y-104740226D01*
X125034774Y-104596063D01*
X124865256Y-104482795D01*
X124676898Y-104404774D01*
X124476939Y-104365000D01*
X124273061Y-104365000D01*
X124073102Y-104404774D01*
X123884744Y-104482795D01*
X123715226Y-104596063D01*
X123571063Y-104740226D01*
X123457795Y-104909744D01*
X123379774Y-105098102D01*
X123340000Y-105298061D01*
X95739576Y-105298061D01*
X95739004Y-104298067D01*
X128540000Y-104298067D01*
X128540000Y-104501945D01*
X128579774Y-104701904D01*
X128657795Y-104890262D01*
X128771063Y-105059780D01*
X128915226Y-105203943D01*
X129084744Y-105317211D01*
X129273102Y-105395232D01*
X129473061Y-105435006D01*
X129676939Y-105435006D01*
X129876898Y-105395232D01*
X130065256Y-105317211D01*
X130234774Y-105203943D01*
X130378937Y-105059780D01*
X130492205Y-104890262D01*
X130570226Y-104701904D01*
X130610000Y-104501945D01*
X130610000Y-104298067D01*
X130609999Y-104298061D01*
X134940000Y-104298061D01*
X134940000Y-104501939D01*
X134979774Y-104701898D01*
X135057795Y-104890256D01*
X135171063Y-105059774D01*
X135315226Y-105203937D01*
X135484744Y-105317205D01*
X135673102Y-105395226D01*
X135873061Y-105435000D01*
X136076939Y-105435000D01*
X136276898Y-105395226D01*
X136465256Y-105317205D01*
X136493907Y-105298061D01*
X148340000Y-105298061D01*
X148340000Y-105501939D01*
X148379774Y-105701898D01*
X148457795Y-105890256D01*
X148571063Y-106059774D01*
X148715226Y-106203937D01*
X148884744Y-106317205D01*
X149073102Y-106395226D01*
X149273061Y-106435000D01*
X149476939Y-106435000D01*
X149676898Y-106395226D01*
X149865256Y-106317205D01*
X150034774Y-106203937D01*
X150178937Y-106059774D01*
X150292205Y-105890256D01*
X150370226Y-105701898D01*
X150410000Y-105501939D01*
X150410000Y-105298061D01*
X150370226Y-105098102D01*
X150292205Y-104909744D01*
X150178937Y-104740226D01*
X150034774Y-104596063D01*
X149865256Y-104482795D01*
X149676898Y-104404774D01*
X149476939Y-104365000D01*
X149273061Y-104365000D01*
X149073102Y-104404774D01*
X148884744Y-104482795D01*
X148715226Y-104596063D01*
X148571063Y-104740226D01*
X148457795Y-104909744D01*
X148379774Y-105098102D01*
X148340000Y-105298061D01*
X136493907Y-105298061D01*
X136634774Y-105203937D01*
X136778937Y-105059774D01*
X136892205Y-104890256D01*
X136970226Y-104701898D01*
X137010000Y-104501939D01*
X137010000Y-104298061D01*
X136970226Y-104098102D01*
X136892205Y-103909744D01*
X136778937Y-103740226D01*
X136634774Y-103596063D01*
X136465256Y-103482795D01*
X136276898Y-103404774D01*
X136076939Y-103365000D01*
X135873061Y-103365000D01*
X135673102Y-103404774D01*
X135484744Y-103482795D01*
X135315226Y-103596063D01*
X135171063Y-103740226D01*
X135057795Y-103909744D01*
X134979774Y-104098102D01*
X134940000Y-104298061D01*
X130609999Y-104298061D01*
X130570226Y-104098108D01*
X130492205Y-103909750D01*
X130378937Y-103740232D01*
X130234774Y-103596069D01*
X130065256Y-103482801D01*
X129876898Y-103404780D01*
X129676939Y-103365006D01*
X129473061Y-103365006D01*
X129273102Y-103404780D01*
X129084744Y-103482801D01*
X128915226Y-103596069D01*
X128771063Y-103740232D01*
X128657795Y-103909750D01*
X128579774Y-104098108D01*
X128540000Y-104298067D01*
X95739004Y-104298067D01*
X95737917Y-102398061D01*
X146640000Y-102398061D01*
X146640000Y-102601939D01*
X146679774Y-102801898D01*
X146757795Y-102990256D01*
X146871063Y-103159774D01*
X147015226Y-103303937D01*
X147184744Y-103417205D01*
X147373102Y-103495226D01*
X147573061Y-103535000D01*
X147776939Y-103535000D01*
X147976898Y-103495226D01*
X148165256Y-103417205D01*
X148334774Y-103303937D01*
X148478937Y-103159774D01*
X148586989Y-102998061D01*
X151840000Y-102998061D01*
X151840000Y-103201939D01*
X151879774Y-103401898D01*
X151957795Y-103590256D01*
X152071063Y-103759774D01*
X152215226Y-103903937D01*
X152384744Y-104017205D01*
X152573102Y-104095226D01*
X152773061Y-104135000D01*
X152976939Y-104135000D01*
X153176898Y-104095226D01*
X153365256Y-104017205D01*
X153534774Y-103903937D01*
X153678937Y-103759774D01*
X153792205Y-103590256D01*
X153870226Y-103401898D01*
X153910000Y-103201939D01*
X153910000Y-102998061D01*
X153870226Y-102798102D01*
X153792205Y-102609744D01*
X153678937Y-102440226D01*
X153536772Y-102298061D01*
X172040000Y-102298061D01*
X172040000Y-102501939D01*
X172079774Y-102701898D01*
X172157795Y-102890256D01*
X172271063Y-103059774D01*
X172415226Y-103203937D01*
X172584744Y-103317205D01*
X172773102Y-103395226D01*
X172973061Y-103435000D01*
X173176939Y-103435000D01*
X173376898Y-103395226D01*
X173565256Y-103317205D01*
X173734774Y-103203937D01*
X173878937Y-103059774D01*
X173992205Y-102890256D01*
X174070226Y-102701898D01*
X174110000Y-102501939D01*
X174110000Y-102298061D01*
X174070226Y-102098102D01*
X173992205Y-101909744D01*
X173878937Y-101740226D01*
X173734774Y-101596063D01*
X173565256Y-101482795D01*
X173376898Y-101404774D01*
X173176939Y-101365000D01*
X172973061Y-101365000D01*
X172773102Y-101404774D01*
X172584744Y-101482795D01*
X172415226Y-101596063D01*
X172271063Y-101740226D01*
X172157795Y-101909744D01*
X172079774Y-102098102D01*
X172040000Y-102298061D01*
X153536772Y-102298061D01*
X153534774Y-102296063D01*
X153365256Y-102182795D01*
X153176898Y-102104774D01*
X152976939Y-102065000D01*
X152773061Y-102065000D01*
X152573102Y-102104774D01*
X152384744Y-102182795D01*
X152215226Y-102296063D01*
X152071063Y-102440226D01*
X151957795Y-102609744D01*
X151879774Y-102798102D01*
X151840000Y-102998061D01*
X148586989Y-102998061D01*
X148592205Y-102990256D01*
X148670226Y-102801898D01*
X148710000Y-102601939D01*
X148710000Y-102398061D01*
X148670226Y-102198102D01*
X148592205Y-102009744D01*
X148478937Y-101840226D01*
X148334774Y-101696063D01*
X148165256Y-101582795D01*
X147976898Y-101504774D01*
X147776939Y-101465000D01*
X147573061Y-101465000D01*
X147373102Y-101504774D01*
X147184744Y-101582795D01*
X147015226Y-101696063D01*
X146871063Y-101840226D01*
X146757795Y-102009744D01*
X146679774Y-102198102D01*
X146640000Y-102398061D01*
X95737917Y-102398061D01*
X95737001Y-100798061D01*
X109340000Y-100798061D01*
X109340000Y-101001939D01*
X109379774Y-101201898D01*
X109457795Y-101390256D01*
X109571063Y-101559774D01*
X109715226Y-101703937D01*
X109884744Y-101817205D01*
X110073102Y-101895226D01*
X110273061Y-101935000D01*
X110476939Y-101935000D01*
X110676898Y-101895226D01*
X110865256Y-101817205D01*
X111034774Y-101703937D01*
X111178937Y-101559774D01*
X111292205Y-101390256D01*
X111370226Y-101201898D01*
X111410000Y-101001939D01*
X111410000Y-100798061D01*
X111370226Y-100598102D01*
X111292205Y-100409744D01*
X111178937Y-100240226D01*
X111034774Y-100096063D01*
X110865256Y-99982795D01*
X110676898Y-99904774D01*
X110476939Y-99865000D01*
X110273061Y-99865000D01*
X110073102Y-99904774D01*
X109884744Y-99982795D01*
X109715226Y-100096063D01*
X109571063Y-100240226D01*
X109457795Y-100409744D01*
X109379774Y-100598102D01*
X109340000Y-100798061D01*
X95737001Y-100798061D01*
X95735972Y-98998061D01*
X112540000Y-98998061D01*
X112540000Y-99201939D01*
X112579774Y-99401898D01*
X112657795Y-99590256D01*
X112771063Y-99759774D01*
X112915226Y-99903937D01*
X113084744Y-100017205D01*
X113273102Y-100095226D01*
X113473061Y-100135000D01*
X113676939Y-100135000D01*
X113876898Y-100095226D01*
X114065256Y-100017205D01*
X114234774Y-99903937D01*
X114378937Y-99759774D01*
X114492205Y-99590256D01*
X114570226Y-99401898D01*
X114610000Y-99201939D01*
X114610000Y-98998061D01*
X114570226Y-98798102D01*
X114492205Y-98609744D01*
X114378937Y-98440226D01*
X114234774Y-98296063D01*
X114065256Y-98182795D01*
X113876898Y-98104774D01*
X113676939Y-98065000D01*
X113473061Y-98065000D01*
X113273102Y-98104774D01*
X113084744Y-98182795D01*
X112915226Y-98296063D01*
X112771063Y-98440226D01*
X112657795Y-98609744D01*
X112579774Y-98798102D01*
X112540000Y-98998061D01*
X95735972Y-98998061D01*
X95735377Y-97960000D01*
X180415001Y-97960000D01*
X180415000Y-107767721D01*
G37*
%TD.AperFunction*%
%TD*%
M02*
