%TF.GenerationSoftware,KiCad,Pcbnew,5.1.9+dfsg1-1~bpo10+1*%
%TF.CreationDate,2021-08-28T11:52:50+08:00*%
%TF.ProjectId,epd-clock,6570642d-636c-46f6-936b-2e6b69636164,rev?*%
%TF.SameCoordinates,Original*%
%TF.FileFunction,Copper,L2,Inr*%
%TF.FilePolarity,Positive*%
%FSLAX46Y46*%
G04 Gerber Fmt 4.6, Leading zero omitted, Abs format (unit mm)*
G04 Created by KiCad (PCBNEW 5.1.9+dfsg1-1~bpo10+1) date 2021-08-28 11:52:50*
%MOMM*%
%LPD*%
G01*
G04 APERTURE LIST*
%TA.AperFunction,ComponentPad*%
%ADD10C,1.000000*%
%TD*%
%TA.AperFunction,ViaPad*%
%ADD11C,0.800000*%
%TD*%
%TA.AperFunction,Conductor*%
%ADD12C,0.254000*%
%TD*%
%TA.AperFunction,Conductor*%
%ADD13C,0.100000*%
%TD*%
G04 APERTURE END LIST*
D10*
%TO.N,Net-(C19-Pad1)*%
%TO.C,Y1*%
X141613000Y-119484000D03*
%TO.N,Net-(C20-Pad1)*%
X141613000Y-121384000D03*
%TD*%
D11*
%TO.N,VCC*%
X154275000Y-121050000D03*
X164075000Y-121350000D03*
X158625000Y-106150000D03*
%TO.N,GND*%
X97675000Y-125700000D03*
X100875000Y-130800000D03*
X97575000Y-134900000D03*
X102575000Y-138500000D03*
X119575000Y-129700000D03*
X117575000Y-138000000D03*
X126975000Y-138500000D03*
X132025000Y-125750000D03*
X141175000Y-129950000D03*
X149975000Y-125550000D03*
X154975000Y-129800000D03*
X129475000Y-131200000D03*
X140575000Y-138500000D03*
X148275000Y-135600000D03*
X156375000Y-138500000D03*
X167775000Y-138000000D03*
X174075000Y-133450000D03*
X176875000Y-127950000D03*
X101075000Y-103000000D03*
X101075000Y-111500000D03*
X101175000Y-119800000D03*
X105575000Y-99100000D03*
X116975000Y-111300000D03*
X119775000Y-113500000D03*
X108275000Y-120100000D03*
X105475000Y-125000000D03*
X170075000Y-129100000D03*
X124575000Y-124850000D03*
X110175000Y-127900000D03*
X127475000Y-116000000D03*
X137175000Y-122400000D03*
X165925000Y-120700000D03*
X133175000Y-115300000D03*
X133575000Y-99350000D03*
X140275000Y-98600000D03*
X147275000Y-99400000D03*
X154125000Y-98550000D03*
X161125000Y-99450000D03*
X166625000Y-98650000D03*
X174325000Y-99350000D03*
X177325000Y-102100000D03*
X175675000Y-109000000D03*
X176675000Y-115300000D03*
X175375000Y-122150000D03*
X177525000Y-137850000D03*
X170175000Y-102550000D03*
X163975000Y-102700000D03*
X156825000Y-102200000D03*
X150475000Y-102300000D03*
X143075000Y-101950000D03*
X136725000Y-101850000D03*
X117775000Y-103100000D03*
X114975000Y-106650000D03*
X150725000Y-109850000D03*
%TO.N,+3V3*%
X146275000Y-104500000D03*
X137275000Y-104500000D03*
X139975000Y-116500000D03*
X134475000Y-116500000D03*
X110375000Y-100900000D03*
X109075000Y-110400000D03*
X109175000Y-116000000D03*
X123275000Y-117900000D03*
X127575000Y-119300000D03*
X144875000Y-116500000D03*
X115875000Y-113600000D03*
X113575000Y-99100000D03*
X152425000Y-105325000D03*
%TO.N,/epd/PREVGL*%
X165325000Y-111700000D03*
X156925000Y-112550000D03*
%TO.N,VCC*%
X167475000Y-106800000D03*
X167475000Y-105200000D03*
%TO.N,/epd/PREVGH*%
X165325000Y-113450000D03*
X159325000Y-113450000D03*
%TO.N,/mcu/EPD_PWR_EN*%
X121775000Y-106900000D03*
X153875000Y-107950000D03*
%TO.N,/epd/DIN*%
X147075000Y-109600000D03*
X170175004Y-115700000D03*
X132175000Y-107250000D03*
%TO.N,/epd/CLK*%
X147075002Y-110999998D03*
X170175000Y-116750000D03*
X121775002Y-108000000D03*
%TO.N,/epd/CS#*%
X170175000Y-117799988D03*
X132175000Y-108725010D03*
%TO.N,/epd/DC#*%
X170175000Y-118850000D03*
X132175000Y-109725023D03*
%TO.N,/mcu/EPD_RST#*%
X132175000Y-110800006D03*
X170175000Y-119900000D03*
%TO.N,/epd/BUSY*%
X121761295Y-112111614D03*
X170175000Y-120949992D03*
%TO.N,/power/ADEN#*%
X121774936Y-114111426D03*
X121775000Y-122400002D03*
%TO.N,/rtc/INT*%
X121780956Y-113111432D03*
X133775000Y-113150000D03*
%TO.N,/flash/MISO*%
X139675000Y-111674990D03*
X121775000Y-110999996D03*
%TO.N,/flash/CS*%
X121775000Y-115172693D03*
X135975000Y-113449974D03*
%TD*%
D12*
%TO.N,+3V3*%
X114048000Y-100273000D02*
X110875000Y-100273000D01*
X110850224Y-100275440D01*
X110826399Y-100282667D01*
X110804443Y-100294403D01*
X110785197Y-100310197D01*
X110769403Y-100329443D01*
X110757667Y-100351399D01*
X110750440Y-100375224D01*
X110748000Y-100400000D01*
X110748000Y-112200000D01*
X110750440Y-112224776D01*
X110757667Y-112248601D01*
X110769403Y-112270557D01*
X110785197Y-112289803D01*
X110804443Y-112305597D01*
X110826399Y-112317333D01*
X110850224Y-112324560D01*
X110875000Y-112327000D01*
X116832842Y-112327000D01*
X116873061Y-112335000D01*
X117076939Y-112335000D01*
X117117158Y-112327000D01*
X120748861Y-112327000D01*
X120766069Y-112413512D01*
X120844090Y-112601870D01*
X120861164Y-112627423D01*
X120785730Y-112809534D01*
X120745956Y-113009493D01*
X120745956Y-113139509D01*
X120692205Y-113009744D01*
X120578937Y-112840226D01*
X120434774Y-112696063D01*
X120265256Y-112582795D01*
X120076898Y-112504774D01*
X119876939Y-112465000D01*
X119673061Y-112465000D01*
X119473102Y-112504774D01*
X119284744Y-112582795D01*
X119115226Y-112696063D01*
X118971063Y-112840226D01*
X118857795Y-113009744D01*
X118779774Y-113198102D01*
X118740000Y-113398061D01*
X118740000Y-113601939D01*
X118779774Y-113801898D01*
X118857795Y-113990256D01*
X118971063Y-114159774D01*
X119115226Y-114303937D01*
X119284744Y-114417205D01*
X119473102Y-114495226D01*
X119673061Y-114535000D01*
X119876939Y-114535000D01*
X120076898Y-114495226D01*
X120265256Y-114417205D01*
X120434774Y-114303937D01*
X120578937Y-114159774D01*
X120692205Y-113990256D01*
X120770226Y-113801898D01*
X120810000Y-113601939D01*
X120810000Y-113471923D01*
X120863751Y-113601688D01*
X120867250Y-113606924D01*
X120857731Y-113621170D01*
X120779710Y-113809528D01*
X120739936Y-114009487D01*
X120739936Y-114213365D01*
X120779710Y-114413324D01*
X120857731Y-114601682D01*
X120884742Y-114642107D01*
X120857795Y-114682437D01*
X120779774Y-114870795D01*
X120740000Y-115070754D01*
X120740000Y-115274632D01*
X120779774Y-115474591D01*
X120857795Y-115662949D01*
X120971063Y-115832467D01*
X121115226Y-115976630D01*
X121284744Y-116089898D01*
X121473102Y-116167919D01*
X121673061Y-116207693D01*
X121876939Y-116207693D01*
X122076898Y-116167919D01*
X122265256Y-116089898D01*
X122434774Y-115976630D01*
X122513343Y-115898061D01*
X126440000Y-115898061D01*
X126440000Y-116101939D01*
X126479774Y-116301898D01*
X126557795Y-116490256D01*
X126671063Y-116659774D01*
X126815226Y-116803937D01*
X126984744Y-116917205D01*
X127173102Y-116995226D01*
X127373061Y-117035000D01*
X127576939Y-117035000D01*
X127776898Y-116995226D01*
X127965256Y-116917205D01*
X128134774Y-116803937D01*
X128278937Y-116659774D01*
X128392205Y-116490256D01*
X128470226Y-116301898D01*
X128510000Y-116101939D01*
X128510000Y-115898061D01*
X128470226Y-115698102D01*
X128392205Y-115509744D01*
X128278937Y-115340226D01*
X128136772Y-115198061D01*
X132140000Y-115198061D01*
X132140000Y-115401939D01*
X132179774Y-115601898D01*
X132257795Y-115790256D01*
X132371063Y-115959774D01*
X132515226Y-116103937D01*
X132684744Y-116217205D01*
X132873102Y-116295226D01*
X133073061Y-116335000D01*
X133276939Y-116335000D01*
X133476898Y-116295226D01*
X133665256Y-116217205D01*
X133834774Y-116103937D01*
X133978937Y-115959774D01*
X134092205Y-115790256D01*
X134170226Y-115601898D01*
X134210000Y-115401939D01*
X134210000Y-115198061D01*
X134170226Y-114998102D01*
X134092205Y-114809744D01*
X133978937Y-114640226D01*
X133834774Y-114496063D01*
X133665256Y-114382795D01*
X133476898Y-114304774D01*
X133276939Y-114265000D01*
X133073061Y-114265000D01*
X132873102Y-114304774D01*
X132684744Y-114382795D01*
X132515226Y-114496063D01*
X132371063Y-114640226D01*
X132257795Y-114809744D01*
X132179774Y-114998102D01*
X132140000Y-115198061D01*
X128136772Y-115198061D01*
X128134774Y-115196063D01*
X127965256Y-115082795D01*
X127776898Y-115004774D01*
X127576939Y-114965000D01*
X127373061Y-114965000D01*
X127173102Y-115004774D01*
X126984744Y-115082795D01*
X126815226Y-115196063D01*
X126671063Y-115340226D01*
X126557795Y-115509744D01*
X126479774Y-115698102D01*
X126440000Y-115898061D01*
X122513343Y-115898061D01*
X122578937Y-115832467D01*
X122692205Y-115662949D01*
X122770226Y-115474591D01*
X122810000Y-115274632D01*
X122810000Y-115070754D01*
X122770226Y-114870795D01*
X122692205Y-114682437D01*
X122665194Y-114642012D01*
X122692141Y-114601682D01*
X122770162Y-114413324D01*
X122809936Y-114213365D01*
X122809936Y-114009487D01*
X122770162Y-113809528D01*
X122692141Y-113621170D01*
X122688642Y-113615934D01*
X122698161Y-113601688D01*
X122776182Y-113413330D01*
X122815956Y-113213371D01*
X122815956Y-113009493D01*
X122776182Y-112809534D01*
X122698161Y-112621176D01*
X122681087Y-112595623D01*
X122756521Y-112413512D01*
X122773729Y-112327000D01*
X133143756Y-112327000D01*
X133115226Y-112346063D01*
X132971063Y-112490226D01*
X132857795Y-112659744D01*
X132779774Y-112848102D01*
X132740000Y-113048061D01*
X132740000Y-113251939D01*
X132779774Y-113451898D01*
X132857795Y-113640256D01*
X132971063Y-113809774D01*
X133115226Y-113953937D01*
X133284744Y-114067205D01*
X133473102Y-114145226D01*
X133673061Y-114185000D01*
X133876939Y-114185000D01*
X134076898Y-114145226D01*
X134265256Y-114067205D01*
X134434774Y-113953937D01*
X134578937Y-113809774D01*
X134692205Y-113640256D01*
X134770226Y-113451898D01*
X134790885Y-113348035D01*
X134940000Y-113348035D01*
X134940000Y-113551913D01*
X134979774Y-113751872D01*
X135057795Y-113940230D01*
X135171063Y-114109748D01*
X135315226Y-114253911D01*
X135484744Y-114367179D01*
X135673102Y-114445200D01*
X135873061Y-114484974D01*
X136076939Y-114484974D01*
X136276898Y-114445200D01*
X136465256Y-114367179D01*
X136634774Y-114253911D01*
X136778937Y-114109748D01*
X136892205Y-113940230D01*
X136970226Y-113751872D01*
X137010000Y-113551913D01*
X137010000Y-113348035D01*
X136970226Y-113148076D01*
X136892205Y-112959718D01*
X136778937Y-112790200D01*
X136634774Y-112646037D01*
X136465256Y-112532769D01*
X136276898Y-112454748D01*
X136076939Y-112414974D01*
X135873061Y-112414974D01*
X135673102Y-112454748D01*
X135484744Y-112532769D01*
X135315226Y-112646037D01*
X135171063Y-112790200D01*
X135057795Y-112959718D01*
X134979774Y-113148076D01*
X134940000Y-113348035D01*
X134790885Y-113348035D01*
X134810000Y-113251939D01*
X134810000Y-113048061D01*
X134770226Y-112848102D01*
X134692205Y-112659744D01*
X134578937Y-112490226D01*
X134434774Y-112346063D01*
X134406244Y-112327000D01*
X138865875Y-112327000D01*
X138871063Y-112334764D01*
X139015226Y-112478927D01*
X139184744Y-112592195D01*
X139373102Y-112670216D01*
X139573061Y-112709990D01*
X139776939Y-112709990D01*
X139976898Y-112670216D01*
X140165256Y-112592195D01*
X140334774Y-112478927D01*
X140478937Y-112334764D01*
X140484125Y-112327000D01*
X143875000Y-112327000D01*
X143899776Y-112324560D01*
X143923601Y-112317333D01*
X143945557Y-112305597D01*
X143964803Y-112289803D01*
X143980597Y-112270557D01*
X143992333Y-112248601D01*
X143999560Y-112224776D01*
X144002000Y-112200000D01*
X144002000Y-109498061D01*
X146040000Y-109498061D01*
X146040000Y-109701939D01*
X146079774Y-109901898D01*
X146157795Y-110090256D01*
X146271063Y-110259774D01*
X146311289Y-110300000D01*
X146271065Y-110340224D01*
X146157797Y-110509742D01*
X146079776Y-110698100D01*
X146040002Y-110898059D01*
X146040002Y-111101937D01*
X146079776Y-111301896D01*
X146157797Y-111490254D01*
X146271065Y-111659772D01*
X146415228Y-111803935D01*
X146584746Y-111917203D01*
X146773104Y-111995224D01*
X146973063Y-112034998D01*
X147176941Y-112034998D01*
X147376900Y-111995224D01*
X147565258Y-111917203D01*
X147734776Y-111803935D01*
X147878939Y-111659772D01*
X147992207Y-111490254D01*
X148070228Y-111301896D01*
X148110002Y-111101937D01*
X148110002Y-110898059D01*
X148070228Y-110698100D01*
X147992207Y-110509742D01*
X147878939Y-110340224D01*
X147838713Y-110299998D01*
X147878937Y-110259774D01*
X147992205Y-110090256D01*
X148070226Y-109901898D01*
X148110000Y-109701939D01*
X148110000Y-109498061D01*
X148070226Y-109298102D01*
X147992205Y-109109744D01*
X147878937Y-108940226D01*
X147734774Y-108796063D01*
X147565256Y-108682795D01*
X147376898Y-108604774D01*
X147176939Y-108565000D01*
X146973061Y-108565000D01*
X146773102Y-108604774D01*
X146584744Y-108682795D01*
X146415226Y-108796063D01*
X146271063Y-108940226D01*
X146157795Y-109109744D01*
X146079774Y-109298102D01*
X146040000Y-109498061D01*
X144002000Y-109498061D01*
X144002000Y-108000000D01*
X143999560Y-107975224D01*
X143992333Y-107951399D01*
X143980597Y-107929443D01*
X143964803Y-107910197D01*
X143945557Y-107894403D01*
X143923601Y-107882667D01*
X143899776Y-107875440D01*
X143875000Y-107873000D01*
X136702000Y-107873000D01*
X136702000Y-103927000D01*
X152848000Y-103927000D01*
X152848000Y-106823000D01*
X148675000Y-106823000D01*
X148650224Y-106825440D01*
X148626399Y-106832667D01*
X148604443Y-106844403D01*
X148585197Y-106860197D01*
X148569403Y-106879443D01*
X148557667Y-106901399D01*
X148550440Y-106925224D01*
X148548000Y-106950000D01*
X148548000Y-117273000D01*
X128475000Y-117273000D01*
X128450224Y-117275440D01*
X128426399Y-117282667D01*
X128404443Y-117294403D01*
X128385197Y-117310197D01*
X128369403Y-117329443D01*
X128357667Y-117351399D01*
X128350440Y-117375224D01*
X128348000Y-117400000D01*
X128348000Y-120023000D01*
X122602000Y-120023000D01*
X122602000Y-117400000D01*
X122599560Y-117375224D01*
X122592333Y-117351399D01*
X122580597Y-117329443D01*
X122564803Y-117310197D01*
X122545557Y-117294403D01*
X122523601Y-117282667D01*
X122499776Y-117275440D01*
X122475000Y-117273000D01*
X107602000Y-117273000D01*
X107602000Y-98427000D01*
X114048000Y-98427000D01*
X114048000Y-100273000D01*
%TA.AperFunction,Conductor*%
D13*
G36*
X114048000Y-100273000D02*
G01*
X110875000Y-100273000D01*
X110850224Y-100275440D01*
X110826399Y-100282667D01*
X110804443Y-100294403D01*
X110785197Y-100310197D01*
X110769403Y-100329443D01*
X110757667Y-100351399D01*
X110750440Y-100375224D01*
X110748000Y-100400000D01*
X110748000Y-112200000D01*
X110750440Y-112224776D01*
X110757667Y-112248601D01*
X110769403Y-112270557D01*
X110785197Y-112289803D01*
X110804443Y-112305597D01*
X110826399Y-112317333D01*
X110850224Y-112324560D01*
X110875000Y-112327000D01*
X116832842Y-112327000D01*
X116873061Y-112335000D01*
X117076939Y-112335000D01*
X117117158Y-112327000D01*
X120748861Y-112327000D01*
X120766069Y-112413512D01*
X120844090Y-112601870D01*
X120861164Y-112627423D01*
X120785730Y-112809534D01*
X120745956Y-113009493D01*
X120745956Y-113139509D01*
X120692205Y-113009744D01*
X120578937Y-112840226D01*
X120434774Y-112696063D01*
X120265256Y-112582795D01*
X120076898Y-112504774D01*
X119876939Y-112465000D01*
X119673061Y-112465000D01*
X119473102Y-112504774D01*
X119284744Y-112582795D01*
X119115226Y-112696063D01*
X118971063Y-112840226D01*
X118857795Y-113009744D01*
X118779774Y-113198102D01*
X118740000Y-113398061D01*
X118740000Y-113601939D01*
X118779774Y-113801898D01*
X118857795Y-113990256D01*
X118971063Y-114159774D01*
X119115226Y-114303937D01*
X119284744Y-114417205D01*
X119473102Y-114495226D01*
X119673061Y-114535000D01*
X119876939Y-114535000D01*
X120076898Y-114495226D01*
X120265256Y-114417205D01*
X120434774Y-114303937D01*
X120578937Y-114159774D01*
X120692205Y-113990256D01*
X120770226Y-113801898D01*
X120810000Y-113601939D01*
X120810000Y-113471923D01*
X120863751Y-113601688D01*
X120867250Y-113606924D01*
X120857731Y-113621170D01*
X120779710Y-113809528D01*
X120739936Y-114009487D01*
X120739936Y-114213365D01*
X120779710Y-114413324D01*
X120857731Y-114601682D01*
X120884742Y-114642107D01*
X120857795Y-114682437D01*
X120779774Y-114870795D01*
X120740000Y-115070754D01*
X120740000Y-115274632D01*
X120779774Y-115474591D01*
X120857795Y-115662949D01*
X120971063Y-115832467D01*
X121115226Y-115976630D01*
X121284744Y-116089898D01*
X121473102Y-116167919D01*
X121673061Y-116207693D01*
X121876939Y-116207693D01*
X122076898Y-116167919D01*
X122265256Y-116089898D01*
X122434774Y-115976630D01*
X122513343Y-115898061D01*
X126440000Y-115898061D01*
X126440000Y-116101939D01*
X126479774Y-116301898D01*
X126557795Y-116490256D01*
X126671063Y-116659774D01*
X126815226Y-116803937D01*
X126984744Y-116917205D01*
X127173102Y-116995226D01*
X127373061Y-117035000D01*
X127576939Y-117035000D01*
X127776898Y-116995226D01*
X127965256Y-116917205D01*
X128134774Y-116803937D01*
X128278937Y-116659774D01*
X128392205Y-116490256D01*
X128470226Y-116301898D01*
X128510000Y-116101939D01*
X128510000Y-115898061D01*
X128470226Y-115698102D01*
X128392205Y-115509744D01*
X128278937Y-115340226D01*
X128136772Y-115198061D01*
X132140000Y-115198061D01*
X132140000Y-115401939D01*
X132179774Y-115601898D01*
X132257795Y-115790256D01*
X132371063Y-115959774D01*
X132515226Y-116103937D01*
X132684744Y-116217205D01*
X132873102Y-116295226D01*
X133073061Y-116335000D01*
X133276939Y-116335000D01*
X133476898Y-116295226D01*
X133665256Y-116217205D01*
X133834774Y-116103937D01*
X133978937Y-115959774D01*
X134092205Y-115790256D01*
X134170226Y-115601898D01*
X134210000Y-115401939D01*
X134210000Y-115198061D01*
X134170226Y-114998102D01*
X134092205Y-114809744D01*
X133978937Y-114640226D01*
X133834774Y-114496063D01*
X133665256Y-114382795D01*
X133476898Y-114304774D01*
X133276939Y-114265000D01*
X133073061Y-114265000D01*
X132873102Y-114304774D01*
X132684744Y-114382795D01*
X132515226Y-114496063D01*
X132371063Y-114640226D01*
X132257795Y-114809744D01*
X132179774Y-114998102D01*
X132140000Y-115198061D01*
X128136772Y-115198061D01*
X128134774Y-115196063D01*
X127965256Y-115082795D01*
X127776898Y-115004774D01*
X127576939Y-114965000D01*
X127373061Y-114965000D01*
X127173102Y-115004774D01*
X126984744Y-115082795D01*
X126815226Y-115196063D01*
X126671063Y-115340226D01*
X126557795Y-115509744D01*
X126479774Y-115698102D01*
X126440000Y-115898061D01*
X122513343Y-115898061D01*
X122578937Y-115832467D01*
X122692205Y-115662949D01*
X122770226Y-115474591D01*
X122810000Y-115274632D01*
X122810000Y-115070754D01*
X122770226Y-114870795D01*
X122692205Y-114682437D01*
X122665194Y-114642012D01*
X122692141Y-114601682D01*
X122770162Y-114413324D01*
X122809936Y-114213365D01*
X122809936Y-114009487D01*
X122770162Y-113809528D01*
X122692141Y-113621170D01*
X122688642Y-113615934D01*
X122698161Y-113601688D01*
X122776182Y-113413330D01*
X122815956Y-113213371D01*
X122815956Y-113009493D01*
X122776182Y-112809534D01*
X122698161Y-112621176D01*
X122681087Y-112595623D01*
X122756521Y-112413512D01*
X122773729Y-112327000D01*
X133143756Y-112327000D01*
X133115226Y-112346063D01*
X132971063Y-112490226D01*
X132857795Y-112659744D01*
X132779774Y-112848102D01*
X132740000Y-113048061D01*
X132740000Y-113251939D01*
X132779774Y-113451898D01*
X132857795Y-113640256D01*
X132971063Y-113809774D01*
X133115226Y-113953937D01*
X133284744Y-114067205D01*
X133473102Y-114145226D01*
X133673061Y-114185000D01*
X133876939Y-114185000D01*
X134076898Y-114145226D01*
X134265256Y-114067205D01*
X134434774Y-113953937D01*
X134578937Y-113809774D01*
X134692205Y-113640256D01*
X134770226Y-113451898D01*
X134790885Y-113348035D01*
X134940000Y-113348035D01*
X134940000Y-113551913D01*
X134979774Y-113751872D01*
X135057795Y-113940230D01*
X135171063Y-114109748D01*
X135315226Y-114253911D01*
X135484744Y-114367179D01*
X135673102Y-114445200D01*
X135873061Y-114484974D01*
X136076939Y-114484974D01*
X136276898Y-114445200D01*
X136465256Y-114367179D01*
X136634774Y-114253911D01*
X136778937Y-114109748D01*
X136892205Y-113940230D01*
X136970226Y-113751872D01*
X137010000Y-113551913D01*
X137010000Y-113348035D01*
X136970226Y-113148076D01*
X136892205Y-112959718D01*
X136778937Y-112790200D01*
X136634774Y-112646037D01*
X136465256Y-112532769D01*
X136276898Y-112454748D01*
X136076939Y-112414974D01*
X135873061Y-112414974D01*
X135673102Y-112454748D01*
X135484744Y-112532769D01*
X135315226Y-112646037D01*
X135171063Y-112790200D01*
X135057795Y-112959718D01*
X134979774Y-113148076D01*
X134940000Y-113348035D01*
X134790885Y-113348035D01*
X134810000Y-113251939D01*
X134810000Y-113048061D01*
X134770226Y-112848102D01*
X134692205Y-112659744D01*
X134578937Y-112490226D01*
X134434774Y-112346063D01*
X134406244Y-112327000D01*
X138865875Y-112327000D01*
X138871063Y-112334764D01*
X139015226Y-112478927D01*
X139184744Y-112592195D01*
X139373102Y-112670216D01*
X139573061Y-112709990D01*
X139776939Y-112709990D01*
X139976898Y-112670216D01*
X140165256Y-112592195D01*
X140334774Y-112478927D01*
X140478937Y-112334764D01*
X140484125Y-112327000D01*
X143875000Y-112327000D01*
X143899776Y-112324560D01*
X143923601Y-112317333D01*
X143945557Y-112305597D01*
X143964803Y-112289803D01*
X143980597Y-112270557D01*
X143992333Y-112248601D01*
X143999560Y-112224776D01*
X144002000Y-112200000D01*
X144002000Y-109498061D01*
X146040000Y-109498061D01*
X146040000Y-109701939D01*
X146079774Y-109901898D01*
X146157795Y-110090256D01*
X146271063Y-110259774D01*
X146311289Y-110300000D01*
X146271065Y-110340224D01*
X146157797Y-110509742D01*
X146079776Y-110698100D01*
X146040002Y-110898059D01*
X146040002Y-111101937D01*
X146079776Y-111301896D01*
X146157797Y-111490254D01*
X146271065Y-111659772D01*
X146415228Y-111803935D01*
X146584746Y-111917203D01*
X146773104Y-111995224D01*
X146973063Y-112034998D01*
X147176941Y-112034998D01*
X147376900Y-111995224D01*
X147565258Y-111917203D01*
X147734776Y-111803935D01*
X147878939Y-111659772D01*
X147992207Y-111490254D01*
X148070228Y-111301896D01*
X148110002Y-111101937D01*
X148110002Y-110898059D01*
X148070228Y-110698100D01*
X147992207Y-110509742D01*
X147878939Y-110340224D01*
X147838713Y-110299998D01*
X147878937Y-110259774D01*
X147992205Y-110090256D01*
X148070226Y-109901898D01*
X148110000Y-109701939D01*
X148110000Y-109498061D01*
X148070226Y-109298102D01*
X147992205Y-109109744D01*
X147878937Y-108940226D01*
X147734774Y-108796063D01*
X147565256Y-108682795D01*
X147376898Y-108604774D01*
X147176939Y-108565000D01*
X146973061Y-108565000D01*
X146773102Y-108604774D01*
X146584744Y-108682795D01*
X146415226Y-108796063D01*
X146271063Y-108940226D01*
X146157795Y-109109744D01*
X146079774Y-109298102D01*
X146040000Y-109498061D01*
X144002000Y-109498061D01*
X144002000Y-108000000D01*
X143999560Y-107975224D01*
X143992333Y-107951399D01*
X143980597Y-107929443D01*
X143964803Y-107910197D01*
X143945557Y-107894403D01*
X143923601Y-107882667D01*
X143899776Y-107875440D01*
X143875000Y-107873000D01*
X136702000Y-107873000D01*
X136702000Y-103927000D01*
X152848000Y-103927000D01*
X152848000Y-106823000D01*
X148675000Y-106823000D01*
X148650224Y-106825440D01*
X148626399Y-106832667D01*
X148604443Y-106844403D01*
X148585197Y-106860197D01*
X148569403Y-106879443D01*
X148557667Y-106901399D01*
X148550440Y-106925224D01*
X148548000Y-106950000D01*
X148548000Y-117273000D01*
X128475000Y-117273000D01*
X128450224Y-117275440D01*
X128426399Y-117282667D01*
X128404443Y-117294403D01*
X128385197Y-117310197D01*
X128369403Y-117329443D01*
X128357667Y-117351399D01*
X128350440Y-117375224D01*
X128348000Y-117400000D01*
X128348000Y-120023000D01*
X122602000Y-120023000D01*
X122602000Y-117400000D01*
X122599560Y-117375224D01*
X122592333Y-117351399D01*
X122580597Y-117329443D01*
X122564803Y-117310197D01*
X122545557Y-117294403D01*
X122523601Y-117282667D01*
X122499776Y-117275440D01*
X122475000Y-117273000D01*
X107602000Y-117273000D01*
X107602000Y-98427000D01*
X114048000Y-98427000D01*
X114048000Y-100273000D01*
G37*
%TD.AperFunction*%
%TD*%
D12*
%TO.N,VCC*%
X168348000Y-107373000D02*
X164825000Y-107373000D01*
X164800224Y-107375440D01*
X164776399Y-107382667D01*
X164754443Y-107394403D01*
X164735197Y-107410197D01*
X164719403Y-107429443D01*
X164707667Y-107451399D01*
X164700440Y-107475224D01*
X164698001Y-107499568D01*
X164686497Y-110881850D01*
X164665226Y-110896063D01*
X164521063Y-111040226D01*
X164407795Y-111209744D01*
X164329774Y-111398102D01*
X164290000Y-111598061D01*
X164290000Y-111801939D01*
X164329774Y-112001898D01*
X164407795Y-112190256D01*
X164521063Y-112359774D01*
X164665226Y-112503937D01*
X164680944Y-112514439D01*
X164680531Y-112635837D01*
X164665226Y-112646063D01*
X164521063Y-112790226D01*
X164407795Y-112959744D01*
X164329774Y-113148102D01*
X164290000Y-113348061D01*
X164290000Y-113551939D01*
X164329774Y-113751898D01*
X164407795Y-113940256D01*
X164521063Y-114109774D01*
X164665226Y-114253937D01*
X164675005Y-114260471D01*
X164648432Y-122073000D01*
X152402000Y-122073000D01*
X152402000Y-118477000D01*
X160975000Y-118477000D01*
X160999776Y-118474560D01*
X161023601Y-118467333D01*
X161045557Y-118455597D01*
X161064803Y-118439803D01*
X161080597Y-118420557D01*
X161092333Y-118398601D01*
X161099560Y-118374776D01*
X161102000Y-118350000D01*
X161102000Y-107500000D01*
X161099560Y-107475224D01*
X161092333Y-107451399D01*
X161080597Y-107429443D01*
X161064803Y-107410197D01*
X161045557Y-107394403D01*
X161023601Y-107382667D01*
X160999776Y-107375440D01*
X160975000Y-107373000D01*
X157302000Y-107373000D01*
X157302000Y-104527000D01*
X168348000Y-104527000D01*
X168348000Y-107373000D01*
%TA.AperFunction,Conductor*%
D13*
G36*
X168348000Y-107373000D02*
G01*
X164825000Y-107373000D01*
X164800224Y-107375440D01*
X164776399Y-107382667D01*
X164754443Y-107394403D01*
X164735197Y-107410197D01*
X164719403Y-107429443D01*
X164707667Y-107451399D01*
X164700440Y-107475224D01*
X164698001Y-107499568D01*
X164686497Y-110881850D01*
X164665226Y-110896063D01*
X164521063Y-111040226D01*
X164407795Y-111209744D01*
X164329774Y-111398102D01*
X164290000Y-111598061D01*
X164290000Y-111801939D01*
X164329774Y-112001898D01*
X164407795Y-112190256D01*
X164521063Y-112359774D01*
X164665226Y-112503937D01*
X164680944Y-112514439D01*
X164680531Y-112635837D01*
X164665226Y-112646063D01*
X164521063Y-112790226D01*
X164407795Y-112959744D01*
X164329774Y-113148102D01*
X164290000Y-113348061D01*
X164290000Y-113551939D01*
X164329774Y-113751898D01*
X164407795Y-113940256D01*
X164521063Y-114109774D01*
X164665226Y-114253937D01*
X164675005Y-114260471D01*
X164648432Y-122073000D01*
X152402000Y-122073000D01*
X152402000Y-118477000D01*
X160975000Y-118477000D01*
X160999776Y-118474560D01*
X161023601Y-118467333D01*
X161045557Y-118455597D01*
X161064803Y-118439803D01*
X161080597Y-118420557D01*
X161092333Y-118398601D01*
X161099560Y-118374776D01*
X161102000Y-118350000D01*
X161102000Y-107500000D01*
X161099560Y-107475224D01*
X161092333Y-107451399D01*
X161080597Y-107429443D01*
X161064803Y-107410197D01*
X161045557Y-107394403D01*
X161023601Y-107382667D01*
X160999776Y-107375440D01*
X160975000Y-107373000D01*
X157302000Y-107373000D01*
X157302000Y-104527000D01*
X168348000Y-104527000D01*
X168348000Y-107373000D01*
G37*
%TD.AperFunction*%
%TD*%
M02*
