%TF.GenerationSoftware,KiCad,Pcbnew,5.1.9+dfsg1-1~bpo10+1*%
%TF.CreationDate,2021-08-01T16:53:38+08:00*%
%TF.ProjectId,epd-clock,6570642d-636c-46f6-936b-2e6b69636164,rev?*%
%TF.SameCoordinates,Original*%
%TF.FileFunction,Copper,L2,Inr*%
%TF.FilePolarity,Positive*%
%FSLAX46Y46*%
G04 Gerber Fmt 4.6, Leading zero omitted, Abs format (unit mm)*
G04 Created by KiCad (PCBNEW 5.1.9+dfsg1-1~bpo10+1) date 2021-08-01 16:53:38*
%MOMM*%
%LPD*%
G01*
G04 APERTURE LIST*
%TA.AperFunction,ComponentPad*%
%ADD10C,1.000000*%
%TD*%
%TA.AperFunction,ViaPad*%
%ADD11C,0.800000*%
%TD*%
%TA.AperFunction,Conductor*%
%ADD12C,0.254000*%
%TD*%
%TA.AperFunction,Conductor*%
%ADD13C,0.100000*%
%TD*%
G04 APERTURE END LIST*
D10*
%TO.N,Net-(C20-Pad1)*%
%TO.C,Y1*%
X141613000Y-120084000D03*
%TO.N,Net-(C21-Pad1)*%
X141613000Y-121984000D03*
%TD*%
D11*
%TO.N,GND*%
X110175000Y-132000000D03*
X108575000Y-132000000D03*
X106975000Y-132000000D03*
X161306000Y-113048000D03*
X159858000Y-121417000D03*
X108575000Y-133300000D03*
X110175000Y-133300000D03*
X106975000Y-133300000D03*
X108575000Y-134600000D03*
X106975000Y-134600000D03*
X110175000Y-134600000D03*
X127675000Y-116200000D03*
%TO.N,+3V3*%
X116475000Y-112900000D03*
X117875000Y-112900000D03*
X134475000Y-116800000D03*
X144775000Y-116900000D03*
X147675000Y-102500000D03*
X110375000Y-100900000D03*
X109075000Y-110400000D03*
X127275000Y-119400000D03*
X143275000Y-106400000D03*
X138975000Y-106400000D03*
X109075000Y-118600000D03*
%TO.N,/epd/PREVGL*%
X154483000Y-123208000D03*
X168735000Y-123208000D03*
%TO.N,VCC*%
X152875000Y-103100000D03*
%TO.N,/epd/PREVGH*%
X154483000Y-122192000D03*
X168735000Y-122192000D03*
%TO.N,Net-(C8-Pad1)*%
X156475000Y-109800000D03*
X154257000Y-114305000D03*
%TO.N,/mcu/EPD_PWR_EN*%
X124375000Y-105400000D03*
X149375000Y-105400000D03*
%TO.N,/epd/DIN*%
X169243000Y-118890000D03*
X142775000Y-111900000D03*
X121475000Y-110900000D03*
%TO.N,/epd/CLK*%
X164375000Y-118800000D03*
X142774998Y-110899998D03*
X122074996Y-108000000D03*
%TO.N,/epd/CS#*%
X169243000Y-117874000D03*
X133975000Y-110000000D03*
%TO.N,/epd/DC#*%
X165747162Y-117426162D03*
X133099995Y-109125001D03*
%TO.N,/mcu/EPD_RST#*%
X169243000Y-116858000D03*
X133975000Y-108300000D03*
%TO.N,/epd/BUSY*%
X164375004Y-116200000D03*
X133075000Y-107574990D03*
%TO.N,/epd/TSCL*%
X157051000Y-113810000D03*
X169243000Y-113810000D03*
%TO.N,/epd/TSDA*%
X157051000Y-114826000D03*
X169243000Y-114826000D03*
%TO.N,/epd/BS1*%
X157051000Y-115842000D03*
X169243000Y-115842000D03*
%TO.N,/power/ADEN#*%
X122062340Y-113312660D03*
X120575000Y-123800000D03*
%TO.N,/rtc/INT*%
X137375000Y-115500000D03*
X122075000Y-112300000D03*
%TO.N,/flash/MISO*%
X135775000Y-112200000D03*
X122775000Y-110900002D03*
%TO.N,/flash/CS*%
X134075000Y-114000000D03*
X122075000Y-114400000D03*
%TD*%
D12*
%TO.N,+3V3*%
X148566317Y-104747329D02*
X148457795Y-104909744D01*
X148379774Y-105098102D01*
X148340000Y-105298061D01*
X148340000Y-105501939D01*
X148379774Y-105701898D01*
X148457795Y-105890256D01*
X148570987Y-106059660D01*
X148647547Y-127573000D01*
X107602000Y-127573000D01*
X107602000Y-123698061D01*
X119540000Y-123698061D01*
X119540000Y-123901939D01*
X119579774Y-124101898D01*
X119657795Y-124290256D01*
X119771063Y-124459774D01*
X119915226Y-124603937D01*
X120084744Y-124717205D01*
X120273102Y-124795226D01*
X120473061Y-124835000D01*
X120676939Y-124835000D01*
X120876898Y-124795226D01*
X121065256Y-124717205D01*
X121234774Y-124603937D01*
X121378937Y-124459774D01*
X121492205Y-124290256D01*
X121570226Y-124101898D01*
X121610000Y-123901939D01*
X121610000Y-123698061D01*
X121570226Y-123498102D01*
X121492205Y-123309744D01*
X121378937Y-123140226D01*
X121234774Y-122996063D01*
X121065256Y-122882795D01*
X120876898Y-122804774D01*
X120676939Y-122765000D01*
X120473061Y-122765000D01*
X120273102Y-122804774D01*
X120084744Y-122882795D01*
X119915226Y-122996063D01*
X119771063Y-123140226D01*
X119657795Y-123309744D01*
X119579774Y-123498102D01*
X119540000Y-123698061D01*
X107602000Y-123698061D01*
X107602000Y-119972212D01*
X140478000Y-119972212D01*
X140478000Y-120195788D01*
X140521617Y-120415067D01*
X140607176Y-120621624D01*
X140731388Y-120807520D01*
X140889480Y-120965612D01*
X140991830Y-121034000D01*
X140889480Y-121102388D01*
X140731388Y-121260480D01*
X140607176Y-121446376D01*
X140521617Y-121652933D01*
X140478000Y-121872212D01*
X140478000Y-122095788D01*
X140521617Y-122315067D01*
X140607176Y-122521624D01*
X140731388Y-122707520D01*
X140889480Y-122865612D01*
X141075376Y-122989824D01*
X141281933Y-123075383D01*
X141501212Y-123119000D01*
X141724788Y-123119000D01*
X141944067Y-123075383D01*
X142150624Y-122989824D01*
X142336520Y-122865612D01*
X142494612Y-122707520D01*
X142618824Y-122521624D01*
X142704383Y-122315067D01*
X142748000Y-122095788D01*
X142748000Y-121872212D01*
X142704383Y-121652933D01*
X142618824Y-121446376D01*
X142494612Y-121260480D01*
X142336520Y-121102388D01*
X142234170Y-121034000D01*
X142336520Y-120965612D01*
X142494612Y-120807520D01*
X142618824Y-120621624D01*
X142704383Y-120415067D01*
X142748000Y-120195788D01*
X142748000Y-119972212D01*
X142704383Y-119752933D01*
X142618824Y-119546376D01*
X142494612Y-119360480D01*
X142336520Y-119202388D01*
X142150624Y-119078176D01*
X141944067Y-118992617D01*
X141724788Y-118949000D01*
X141501212Y-118949000D01*
X141281933Y-118992617D01*
X141075376Y-119078176D01*
X140889480Y-119202388D01*
X140731388Y-119360480D01*
X140607176Y-119546376D01*
X140521617Y-119752933D01*
X140478000Y-119972212D01*
X107602000Y-119972212D01*
X107602000Y-116098061D01*
X126640000Y-116098061D01*
X126640000Y-116301939D01*
X126679774Y-116501898D01*
X126757795Y-116690256D01*
X126871063Y-116859774D01*
X127015226Y-117003937D01*
X127184744Y-117117205D01*
X127373102Y-117195226D01*
X127573061Y-117235000D01*
X127776939Y-117235000D01*
X127976898Y-117195226D01*
X128165256Y-117117205D01*
X128334774Y-117003937D01*
X128478937Y-116859774D01*
X128592205Y-116690256D01*
X128670226Y-116501898D01*
X128710000Y-116301939D01*
X128710000Y-116098061D01*
X128670226Y-115898102D01*
X128592205Y-115709744D01*
X128478937Y-115540226D01*
X128336772Y-115398061D01*
X136340000Y-115398061D01*
X136340000Y-115601939D01*
X136379774Y-115801898D01*
X136457795Y-115990256D01*
X136571063Y-116159774D01*
X136715226Y-116303937D01*
X136884744Y-116417205D01*
X137073102Y-116495226D01*
X137273061Y-116535000D01*
X137476939Y-116535000D01*
X137676898Y-116495226D01*
X137865256Y-116417205D01*
X138034774Y-116303937D01*
X138178937Y-116159774D01*
X138292205Y-115990256D01*
X138370226Y-115801898D01*
X138410000Y-115601939D01*
X138410000Y-115398061D01*
X138370226Y-115198102D01*
X138292205Y-115009744D01*
X138178937Y-114840226D01*
X138034774Y-114696063D01*
X137865256Y-114582795D01*
X137676898Y-114504774D01*
X137476939Y-114465000D01*
X137273061Y-114465000D01*
X137073102Y-114504774D01*
X136884744Y-114582795D01*
X136715226Y-114696063D01*
X136571063Y-114840226D01*
X136457795Y-115009744D01*
X136379774Y-115198102D01*
X136340000Y-115398061D01*
X128336772Y-115398061D01*
X128334774Y-115396063D01*
X128165256Y-115282795D01*
X127976898Y-115204774D01*
X127776939Y-115165000D01*
X127573061Y-115165000D01*
X127373102Y-115204774D01*
X127184744Y-115282795D01*
X127015226Y-115396063D01*
X126871063Y-115540226D01*
X126757795Y-115709744D01*
X126679774Y-115898102D01*
X126640000Y-116098061D01*
X107602000Y-116098061D01*
X107602000Y-110798061D01*
X120440000Y-110798061D01*
X120440000Y-111001939D01*
X120479774Y-111201898D01*
X120557795Y-111390256D01*
X120671063Y-111559774D01*
X120815226Y-111703937D01*
X120984744Y-111817205D01*
X121129814Y-111877295D01*
X121079774Y-111998102D01*
X121040000Y-112198061D01*
X121040000Y-112401939D01*
X121079774Y-112601898D01*
X121157795Y-112790256D01*
X121162205Y-112796856D01*
X121145135Y-112822404D01*
X121067114Y-113010762D01*
X121027340Y-113210721D01*
X121027340Y-113414599D01*
X121067114Y-113614558D01*
X121145135Y-113802916D01*
X121187155Y-113865804D01*
X121157795Y-113909744D01*
X121079774Y-114098102D01*
X121040000Y-114298061D01*
X121040000Y-114501939D01*
X121079774Y-114701898D01*
X121157795Y-114890256D01*
X121271063Y-115059774D01*
X121415226Y-115203937D01*
X121584744Y-115317205D01*
X121773102Y-115395226D01*
X121973061Y-115435000D01*
X122176939Y-115435000D01*
X122376898Y-115395226D01*
X122565256Y-115317205D01*
X122734774Y-115203937D01*
X122878937Y-115059774D01*
X122992205Y-114890256D01*
X123070226Y-114701898D01*
X123110000Y-114501939D01*
X123110000Y-114298061D01*
X123070226Y-114098102D01*
X122992205Y-113909744D01*
X122984399Y-113898061D01*
X133040000Y-113898061D01*
X133040000Y-114101939D01*
X133079774Y-114301898D01*
X133157795Y-114490256D01*
X133271063Y-114659774D01*
X133415226Y-114803937D01*
X133584744Y-114917205D01*
X133773102Y-114995226D01*
X133973061Y-115035000D01*
X134176939Y-115035000D01*
X134376898Y-114995226D01*
X134565256Y-114917205D01*
X134734774Y-114803937D01*
X134878937Y-114659774D01*
X134992205Y-114490256D01*
X135070226Y-114301898D01*
X135110000Y-114101939D01*
X135110000Y-113898061D01*
X135070226Y-113698102D01*
X134992205Y-113509744D01*
X134878937Y-113340226D01*
X134734774Y-113196063D01*
X134565256Y-113082795D01*
X134376898Y-113004774D01*
X134176939Y-112965000D01*
X133973061Y-112965000D01*
X133773102Y-113004774D01*
X133584744Y-113082795D01*
X133415226Y-113196063D01*
X133271063Y-113340226D01*
X133157795Y-113509744D01*
X133079774Y-113698102D01*
X133040000Y-113898061D01*
X122984399Y-113898061D01*
X122950185Y-113846856D01*
X122979545Y-113802916D01*
X123057566Y-113614558D01*
X123097340Y-113414599D01*
X123097340Y-113210721D01*
X123057566Y-113010762D01*
X122979545Y-112822404D01*
X122975135Y-112815804D01*
X122992205Y-112790256D01*
X123070226Y-112601898D01*
X123110000Y-112401939D01*
X123110000Y-112198061D01*
X123090109Y-112098061D01*
X134740000Y-112098061D01*
X134740000Y-112301939D01*
X134779774Y-112501898D01*
X134857795Y-112690256D01*
X134971063Y-112859774D01*
X135115226Y-113003937D01*
X135284744Y-113117205D01*
X135473102Y-113195226D01*
X135673061Y-113235000D01*
X135876939Y-113235000D01*
X136076898Y-113195226D01*
X136265256Y-113117205D01*
X136434774Y-113003937D01*
X136578937Y-112859774D01*
X136692205Y-112690256D01*
X136770226Y-112501898D01*
X136810000Y-112301939D01*
X136810000Y-112098061D01*
X136770226Y-111898102D01*
X136692205Y-111709744D01*
X136578937Y-111540226D01*
X136434774Y-111396063D01*
X136265256Y-111282795D01*
X136076898Y-111204774D01*
X135876939Y-111165000D01*
X135673061Y-111165000D01*
X135473102Y-111204774D01*
X135284744Y-111282795D01*
X135115226Y-111396063D01*
X134971063Y-111540226D01*
X134857795Y-111709744D01*
X134779774Y-111898102D01*
X134740000Y-112098061D01*
X123090109Y-112098061D01*
X123070226Y-111998102D01*
X123031365Y-111904285D01*
X123076898Y-111895228D01*
X123265256Y-111817207D01*
X123434774Y-111703939D01*
X123578937Y-111559776D01*
X123692205Y-111390258D01*
X123770226Y-111201900D01*
X123810000Y-111001941D01*
X123810000Y-110798063D01*
X123770226Y-110598104D01*
X123692205Y-110409746D01*
X123578937Y-110240228D01*
X123434774Y-110096065D01*
X123265256Y-109982797D01*
X123076898Y-109904776D01*
X122876939Y-109865002D01*
X122673061Y-109865002D01*
X122473102Y-109904776D01*
X122284744Y-109982797D01*
X122125001Y-110089533D01*
X121965256Y-109982795D01*
X121776898Y-109904774D01*
X121576939Y-109865000D01*
X121373061Y-109865000D01*
X121173102Y-109904774D01*
X120984744Y-109982795D01*
X120815226Y-110096063D01*
X120671063Y-110240226D01*
X120557795Y-110409744D01*
X120479774Y-110598102D01*
X120440000Y-110798061D01*
X107602000Y-110798061D01*
X107602000Y-107898061D01*
X121039996Y-107898061D01*
X121039996Y-108101939D01*
X121079770Y-108301898D01*
X121157791Y-108490256D01*
X121271059Y-108659774D01*
X121415222Y-108803937D01*
X121584740Y-108917205D01*
X121773098Y-108995226D01*
X121973057Y-109035000D01*
X122176935Y-109035000D01*
X122376894Y-108995226D01*
X122565252Y-108917205D01*
X122734770Y-108803937D01*
X122878933Y-108659774D01*
X122992201Y-108490256D01*
X123070222Y-108301898D01*
X123109996Y-108101939D01*
X123109996Y-107898061D01*
X123070222Y-107698102D01*
X122992201Y-107509744D01*
X122967684Y-107473051D01*
X132040000Y-107473051D01*
X132040000Y-107676929D01*
X132079774Y-107876888D01*
X132157795Y-108065246D01*
X132271063Y-108234764D01*
X132398792Y-108362493D01*
X132296058Y-108465227D01*
X132182790Y-108634745D01*
X132104769Y-108823103D01*
X132064995Y-109023062D01*
X132064995Y-109226940D01*
X132104769Y-109426899D01*
X132182790Y-109615257D01*
X132296058Y-109784775D01*
X132440221Y-109928938D01*
X132609739Y-110042206D01*
X132798097Y-110120227D01*
X132949633Y-110150369D01*
X132979774Y-110301898D01*
X133057795Y-110490256D01*
X133171063Y-110659774D01*
X133315226Y-110803937D01*
X133484744Y-110917205D01*
X133673102Y-110995226D01*
X133873061Y-111035000D01*
X134076939Y-111035000D01*
X134276898Y-110995226D01*
X134465256Y-110917205D01*
X134634774Y-110803937D01*
X134640652Y-110798059D01*
X141739998Y-110798059D01*
X141739998Y-111001937D01*
X141779772Y-111201896D01*
X141857793Y-111390254D01*
X141864305Y-111400000D01*
X141857795Y-111409744D01*
X141779774Y-111598102D01*
X141740000Y-111798061D01*
X141740000Y-112001939D01*
X141779774Y-112201898D01*
X141857795Y-112390256D01*
X141971063Y-112559774D01*
X142115226Y-112703937D01*
X142284744Y-112817205D01*
X142473102Y-112895226D01*
X142673061Y-112935000D01*
X142876939Y-112935000D01*
X143076898Y-112895226D01*
X143265256Y-112817205D01*
X143434774Y-112703937D01*
X143578937Y-112559774D01*
X143692205Y-112390256D01*
X143770226Y-112201898D01*
X143810000Y-112001939D01*
X143810000Y-111798061D01*
X143770226Y-111598102D01*
X143692205Y-111409744D01*
X143685693Y-111399998D01*
X143692203Y-111390254D01*
X143770224Y-111201896D01*
X143809998Y-111001937D01*
X143809998Y-110798059D01*
X143770224Y-110598100D01*
X143692203Y-110409742D01*
X143578935Y-110240224D01*
X143434772Y-110096061D01*
X143265254Y-109982793D01*
X143076896Y-109904772D01*
X142876937Y-109864998D01*
X142673059Y-109864998D01*
X142473100Y-109904772D01*
X142284742Y-109982793D01*
X142115224Y-110096061D01*
X141971061Y-110240224D01*
X141857793Y-110409742D01*
X141779772Y-110598100D01*
X141739998Y-110798059D01*
X134640652Y-110798059D01*
X134778937Y-110659774D01*
X134892205Y-110490256D01*
X134970226Y-110301898D01*
X135010000Y-110101939D01*
X135010000Y-109898061D01*
X134970226Y-109698102D01*
X134892205Y-109509744D01*
X134778937Y-109340226D01*
X134634774Y-109196063D01*
X134565836Y-109150000D01*
X134634774Y-109103937D01*
X134778937Y-108959774D01*
X134892205Y-108790256D01*
X134970226Y-108601898D01*
X135010000Y-108401939D01*
X135010000Y-108198061D01*
X134970226Y-107998102D01*
X134892205Y-107809744D01*
X134778937Y-107640226D01*
X134634774Y-107496063D01*
X134465256Y-107382795D01*
X134276898Y-107304774D01*
X134076939Y-107265000D01*
X134066874Y-107265000D01*
X133992205Y-107084734D01*
X133878937Y-106915216D01*
X133734774Y-106771053D01*
X133565256Y-106657785D01*
X133376898Y-106579764D01*
X133176939Y-106539990D01*
X132973061Y-106539990D01*
X132773102Y-106579764D01*
X132584744Y-106657785D01*
X132415226Y-106771053D01*
X132271063Y-106915216D01*
X132157795Y-107084734D01*
X132079774Y-107273092D01*
X132040000Y-107473051D01*
X122967684Y-107473051D01*
X122878933Y-107340226D01*
X122734770Y-107196063D01*
X122565252Y-107082795D01*
X122376894Y-107004774D01*
X122176935Y-106965000D01*
X121973057Y-106965000D01*
X121773098Y-107004774D01*
X121584740Y-107082795D01*
X121415222Y-107196063D01*
X121271059Y-107340226D01*
X121157791Y-107509744D01*
X121079770Y-107698102D01*
X121039996Y-107898061D01*
X107602000Y-107898061D01*
X107602000Y-105298061D01*
X123340000Y-105298061D01*
X123340000Y-105501939D01*
X123379774Y-105701898D01*
X123457795Y-105890256D01*
X123571063Y-106059774D01*
X123715226Y-106203937D01*
X123884744Y-106317205D01*
X124073102Y-106395226D01*
X124273061Y-106435000D01*
X124476939Y-106435000D01*
X124676898Y-106395226D01*
X124865256Y-106317205D01*
X125034774Y-106203937D01*
X125178937Y-106059774D01*
X125292205Y-105890256D01*
X125370226Y-105701898D01*
X125410000Y-105501939D01*
X125410000Y-105298061D01*
X125370226Y-105098102D01*
X125292205Y-104909744D01*
X125178937Y-104740226D01*
X125034774Y-104596063D01*
X124865256Y-104482795D01*
X124676898Y-104404774D01*
X124476939Y-104365000D01*
X124273061Y-104365000D01*
X124073102Y-104404774D01*
X123884744Y-104482795D01*
X123715226Y-104596063D01*
X123571063Y-104740226D01*
X123457795Y-104909744D01*
X123379774Y-105098102D01*
X123340000Y-105298061D01*
X107602000Y-105298061D01*
X107602000Y-99727000D01*
X148548451Y-99727000D01*
X148566317Y-104747329D01*
%TA.AperFunction,Conductor*%
D13*
G36*
X148566317Y-104747329D02*
G01*
X148457795Y-104909744D01*
X148379774Y-105098102D01*
X148340000Y-105298061D01*
X148340000Y-105501939D01*
X148379774Y-105701898D01*
X148457795Y-105890256D01*
X148570987Y-106059660D01*
X148647547Y-127573000D01*
X107602000Y-127573000D01*
X107602000Y-123698061D01*
X119540000Y-123698061D01*
X119540000Y-123901939D01*
X119579774Y-124101898D01*
X119657795Y-124290256D01*
X119771063Y-124459774D01*
X119915226Y-124603937D01*
X120084744Y-124717205D01*
X120273102Y-124795226D01*
X120473061Y-124835000D01*
X120676939Y-124835000D01*
X120876898Y-124795226D01*
X121065256Y-124717205D01*
X121234774Y-124603937D01*
X121378937Y-124459774D01*
X121492205Y-124290256D01*
X121570226Y-124101898D01*
X121610000Y-123901939D01*
X121610000Y-123698061D01*
X121570226Y-123498102D01*
X121492205Y-123309744D01*
X121378937Y-123140226D01*
X121234774Y-122996063D01*
X121065256Y-122882795D01*
X120876898Y-122804774D01*
X120676939Y-122765000D01*
X120473061Y-122765000D01*
X120273102Y-122804774D01*
X120084744Y-122882795D01*
X119915226Y-122996063D01*
X119771063Y-123140226D01*
X119657795Y-123309744D01*
X119579774Y-123498102D01*
X119540000Y-123698061D01*
X107602000Y-123698061D01*
X107602000Y-119972212D01*
X140478000Y-119972212D01*
X140478000Y-120195788D01*
X140521617Y-120415067D01*
X140607176Y-120621624D01*
X140731388Y-120807520D01*
X140889480Y-120965612D01*
X140991830Y-121034000D01*
X140889480Y-121102388D01*
X140731388Y-121260480D01*
X140607176Y-121446376D01*
X140521617Y-121652933D01*
X140478000Y-121872212D01*
X140478000Y-122095788D01*
X140521617Y-122315067D01*
X140607176Y-122521624D01*
X140731388Y-122707520D01*
X140889480Y-122865612D01*
X141075376Y-122989824D01*
X141281933Y-123075383D01*
X141501212Y-123119000D01*
X141724788Y-123119000D01*
X141944067Y-123075383D01*
X142150624Y-122989824D01*
X142336520Y-122865612D01*
X142494612Y-122707520D01*
X142618824Y-122521624D01*
X142704383Y-122315067D01*
X142748000Y-122095788D01*
X142748000Y-121872212D01*
X142704383Y-121652933D01*
X142618824Y-121446376D01*
X142494612Y-121260480D01*
X142336520Y-121102388D01*
X142234170Y-121034000D01*
X142336520Y-120965612D01*
X142494612Y-120807520D01*
X142618824Y-120621624D01*
X142704383Y-120415067D01*
X142748000Y-120195788D01*
X142748000Y-119972212D01*
X142704383Y-119752933D01*
X142618824Y-119546376D01*
X142494612Y-119360480D01*
X142336520Y-119202388D01*
X142150624Y-119078176D01*
X141944067Y-118992617D01*
X141724788Y-118949000D01*
X141501212Y-118949000D01*
X141281933Y-118992617D01*
X141075376Y-119078176D01*
X140889480Y-119202388D01*
X140731388Y-119360480D01*
X140607176Y-119546376D01*
X140521617Y-119752933D01*
X140478000Y-119972212D01*
X107602000Y-119972212D01*
X107602000Y-116098061D01*
X126640000Y-116098061D01*
X126640000Y-116301939D01*
X126679774Y-116501898D01*
X126757795Y-116690256D01*
X126871063Y-116859774D01*
X127015226Y-117003937D01*
X127184744Y-117117205D01*
X127373102Y-117195226D01*
X127573061Y-117235000D01*
X127776939Y-117235000D01*
X127976898Y-117195226D01*
X128165256Y-117117205D01*
X128334774Y-117003937D01*
X128478937Y-116859774D01*
X128592205Y-116690256D01*
X128670226Y-116501898D01*
X128710000Y-116301939D01*
X128710000Y-116098061D01*
X128670226Y-115898102D01*
X128592205Y-115709744D01*
X128478937Y-115540226D01*
X128336772Y-115398061D01*
X136340000Y-115398061D01*
X136340000Y-115601939D01*
X136379774Y-115801898D01*
X136457795Y-115990256D01*
X136571063Y-116159774D01*
X136715226Y-116303937D01*
X136884744Y-116417205D01*
X137073102Y-116495226D01*
X137273061Y-116535000D01*
X137476939Y-116535000D01*
X137676898Y-116495226D01*
X137865256Y-116417205D01*
X138034774Y-116303937D01*
X138178937Y-116159774D01*
X138292205Y-115990256D01*
X138370226Y-115801898D01*
X138410000Y-115601939D01*
X138410000Y-115398061D01*
X138370226Y-115198102D01*
X138292205Y-115009744D01*
X138178937Y-114840226D01*
X138034774Y-114696063D01*
X137865256Y-114582795D01*
X137676898Y-114504774D01*
X137476939Y-114465000D01*
X137273061Y-114465000D01*
X137073102Y-114504774D01*
X136884744Y-114582795D01*
X136715226Y-114696063D01*
X136571063Y-114840226D01*
X136457795Y-115009744D01*
X136379774Y-115198102D01*
X136340000Y-115398061D01*
X128336772Y-115398061D01*
X128334774Y-115396063D01*
X128165256Y-115282795D01*
X127976898Y-115204774D01*
X127776939Y-115165000D01*
X127573061Y-115165000D01*
X127373102Y-115204774D01*
X127184744Y-115282795D01*
X127015226Y-115396063D01*
X126871063Y-115540226D01*
X126757795Y-115709744D01*
X126679774Y-115898102D01*
X126640000Y-116098061D01*
X107602000Y-116098061D01*
X107602000Y-110798061D01*
X120440000Y-110798061D01*
X120440000Y-111001939D01*
X120479774Y-111201898D01*
X120557795Y-111390256D01*
X120671063Y-111559774D01*
X120815226Y-111703937D01*
X120984744Y-111817205D01*
X121129814Y-111877295D01*
X121079774Y-111998102D01*
X121040000Y-112198061D01*
X121040000Y-112401939D01*
X121079774Y-112601898D01*
X121157795Y-112790256D01*
X121162205Y-112796856D01*
X121145135Y-112822404D01*
X121067114Y-113010762D01*
X121027340Y-113210721D01*
X121027340Y-113414599D01*
X121067114Y-113614558D01*
X121145135Y-113802916D01*
X121187155Y-113865804D01*
X121157795Y-113909744D01*
X121079774Y-114098102D01*
X121040000Y-114298061D01*
X121040000Y-114501939D01*
X121079774Y-114701898D01*
X121157795Y-114890256D01*
X121271063Y-115059774D01*
X121415226Y-115203937D01*
X121584744Y-115317205D01*
X121773102Y-115395226D01*
X121973061Y-115435000D01*
X122176939Y-115435000D01*
X122376898Y-115395226D01*
X122565256Y-115317205D01*
X122734774Y-115203937D01*
X122878937Y-115059774D01*
X122992205Y-114890256D01*
X123070226Y-114701898D01*
X123110000Y-114501939D01*
X123110000Y-114298061D01*
X123070226Y-114098102D01*
X122992205Y-113909744D01*
X122984399Y-113898061D01*
X133040000Y-113898061D01*
X133040000Y-114101939D01*
X133079774Y-114301898D01*
X133157795Y-114490256D01*
X133271063Y-114659774D01*
X133415226Y-114803937D01*
X133584744Y-114917205D01*
X133773102Y-114995226D01*
X133973061Y-115035000D01*
X134176939Y-115035000D01*
X134376898Y-114995226D01*
X134565256Y-114917205D01*
X134734774Y-114803937D01*
X134878937Y-114659774D01*
X134992205Y-114490256D01*
X135070226Y-114301898D01*
X135110000Y-114101939D01*
X135110000Y-113898061D01*
X135070226Y-113698102D01*
X134992205Y-113509744D01*
X134878937Y-113340226D01*
X134734774Y-113196063D01*
X134565256Y-113082795D01*
X134376898Y-113004774D01*
X134176939Y-112965000D01*
X133973061Y-112965000D01*
X133773102Y-113004774D01*
X133584744Y-113082795D01*
X133415226Y-113196063D01*
X133271063Y-113340226D01*
X133157795Y-113509744D01*
X133079774Y-113698102D01*
X133040000Y-113898061D01*
X122984399Y-113898061D01*
X122950185Y-113846856D01*
X122979545Y-113802916D01*
X123057566Y-113614558D01*
X123097340Y-113414599D01*
X123097340Y-113210721D01*
X123057566Y-113010762D01*
X122979545Y-112822404D01*
X122975135Y-112815804D01*
X122992205Y-112790256D01*
X123070226Y-112601898D01*
X123110000Y-112401939D01*
X123110000Y-112198061D01*
X123090109Y-112098061D01*
X134740000Y-112098061D01*
X134740000Y-112301939D01*
X134779774Y-112501898D01*
X134857795Y-112690256D01*
X134971063Y-112859774D01*
X135115226Y-113003937D01*
X135284744Y-113117205D01*
X135473102Y-113195226D01*
X135673061Y-113235000D01*
X135876939Y-113235000D01*
X136076898Y-113195226D01*
X136265256Y-113117205D01*
X136434774Y-113003937D01*
X136578937Y-112859774D01*
X136692205Y-112690256D01*
X136770226Y-112501898D01*
X136810000Y-112301939D01*
X136810000Y-112098061D01*
X136770226Y-111898102D01*
X136692205Y-111709744D01*
X136578937Y-111540226D01*
X136434774Y-111396063D01*
X136265256Y-111282795D01*
X136076898Y-111204774D01*
X135876939Y-111165000D01*
X135673061Y-111165000D01*
X135473102Y-111204774D01*
X135284744Y-111282795D01*
X135115226Y-111396063D01*
X134971063Y-111540226D01*
X134857795Y-111709744D01*
X134779774Y-111898102D01*
X134740000Y-112098061D01*
X123090109Y-112098061D01*
X123070226Y-111998102D01*
X123031365Y-111904285D01*
X123076898Y-111895228D01*
X123265256Y-111817207D01*
X123434774Y-111703939D01*
X123578937Y-111559776D01*
X123692205Y-111390258D01*
X123770226Y-111201900D01*
X123810000Y-111001941D01*
X123810000Y-110798063D01*
X123770226Y-110598104D01*
X123692205Y-110409746D01*
X123578937Y-110240228D01*
X123434774Y-110096065D01*
X123265256Y-109982797D01*
X123076898Y-109904776D01*
X122876939Y-109865002D01*
X122673061Y-109865002D01*
X122473102Y-109904776D01*
X122284744Y-109982797D01*
X122125001Y-110089533D01*
X121965256Y-109982795D01*
X121776898Y-109904774D01*
X121576939Y-109865000D01*
X121373061Y-109865000D01*
X121173102Y-109904774D01*
X120984744Y-109982795D01*
X120815226Y-110096063D01*
X120671063Y-110240226D01*
X120557795Y-110409744D01*
X120479774Y-110598102D01*
X120440000Y-110798061D01*
X107602000Y-110798061D01*
X107602000Y-107898061D01*
X121039996Y-107898061D01*
X121039996Y-108101939D01*
X121079770Y-108301898D01*
X121157791Y-108490256D01*
X121271059Y-108659774D01*
X121415222Y-108803937D01*
X121584740Y-108917205D01*
X121773098Y-108995226D01*
X121973057Y-109035000D01*
X122176935Y-109035000D01*
X122376894Y-108995226D01*
X122565252Y-108917205D01*
X122734770Y-108803937D01*
X122878933Y-108659774D01*
X122992201Y-108490256D01*
X123070222Y-108301898D01*
X123109996Y-108101939D01*
X123109996Y-107898061D01*
X123070222Y-107698102D01*
X122992201Y-107509744D01*
X122967684Y-107473051D01*
X132040000Y-107473051D01*
X132040000Y-107676929D01*
X132079774Y-107876888D01*
X132157795Y-108065246D01*
X132271063Y-108234764D01*
X132398792Y-108362493D01*
X132296058Y-108465227D01*
X132182790Y-108634745D01*
X132104769Y-108823103D01*
X132064995Y-109023062D01*
X132064995Y-109226940D01*
X132104769Y-109426899D01*
X132182790Y-109615257D01*
X132296058Y-109784775D01*
X132440221Y-109928938D01*
X132609739Y-110042206D01*
X132798097Y-110120227D01*
X132949633Y-110150369D01*
X132979774Y-110301898D01*
X133057795Y-110490256D01*
X133171063Y-110659774D01*
X133315226Y-110803937D01*
X133484744Y-110917205D01*
X133673102Y-110995226D01*
X133873061Y-111035000D01*
X134076939Y-111035000D01*
X134276898Y-110995226D01*
X134465256Y-110917205D01*
X134634774Y-110803937D01*
X134640652Y-110798059D01*
X141739998Y-110798059D01*
X141739998Y-111001937D01*
X141779772Y-111201896D01*
X141857793Y-111390254D01*
X141864305Y-111400000D01*
X141857795Y-111409744D01*
X141779774Y-111598102D01*
X141740000Y-111798061D01*
X141740000Y-112001939D01*
X141779774Y-112201898D01*
X141857795Y-112390256D01*
X141971063Y-112559774D01*
X142115226Y-112703937D01*
X142284744Y-112817205D01*
X142473102Y-112895226D01*
X142673061Y-112935000D01*
X142876939Y-112935000D01*
X143076898Y-112895226D01*
X143265256Y-112817205D01*
X143434774Y-112703937D01*
X143578937Y-112559774D01*
X143692205Y-112390256D01*
X143770226Y-112201898D01*
X143810000Y-112001939D01*
X143810000Y-111798061D01*
X143770226Y-111598102D01*
X143692205Y-111409744D01*
X143685693Y-111399998D01*
X143692203Y-111390254D01*
X143770224Y-111201896D01*
X143809998Y-111001937D01*
X143809998Y-110798059D01*
X143770224Y-110598100D01*
X143692203Y-110409742D01*
X143578935Y-110240224D01*
X143434772Y-110096061D01*
X143265254Y-109982793D01*
X143076896Y-109904772D01*
X142876937Y-109864998D01*
X142673059Y-109864998D01*
X142473100Y-109904772D01*
X142284742Y-109982793D01*
X142115224Y-110096061D01*
X141971061Y-110240224D01*
X141857793Y-110409742D01*
X141779772Y-110598100D01*
X141739998Y-110798059D01*
X134640652Y-110798059D01*
X134778937Y-110659774D01*
X134892205Y-110490256D01*
X134970226Y-110301898D01*
X135010000Y-110101939D01*
X135010000Y-109898061D01*
X134970226Y-109698102D01*
X134892205Y-109509744D01*
X134778937Y-109340226D01*
X134634774Y-109196063D01*
X134565836Y-109150000D01*
X134634774Y-109103937D01*
X134778937Y-108959774D01*
X134892205Y-108790256D01*
X134970226Y-108601898D01*
X135010000Y-108401939D01*
X135010000Y-108198061D01*
X134970226Y-107998102D01*
X134892205Y-107809744D01*
X134778937Y-107640226D01*
X134634774Y-107496063D01*
X134465256Y-107382795D01*
X134276898Y-107304774D01*
X134076939Y-107265000D01*
X134066874Y-107265000D01*
X133992205Y-107084734D01*
X133878937Y-106915216D01*
X133734774Y-106771053D01*
X133565256Y-106657785D01*
X133376898Y-106579764D01*
X133176939Y-106539990D01*
X132973061Y-106539990D01*
X132773102Y-106579764D01*
X132584744Y-106657785D01*
X132415226Y-106771053D01*
X132271063Y-106915216D01*
X132157795Y-107084734D01*
X132079774Y-107273092D01*
X132040000Y-107473051D01*
X122967684Y-107473051D01*
X122878933Y-107340226D01*
X122734770Y-107196063D01*
X122565252Y-107082795D01*
X122376894Y-107004774D01*
X122176935Y-106965000D01*
X121973057Y-106965000D01*
X121773098Y-107004774D01*
X121584740Y-107082795D01*
X121415222Y-107196063D01*
X121271059Y-107340226D01*
X121157791Y-107509744D01*
X121079770Y-107698102D01*
X121039996Y-107898061D01*
X107602000Y-107898061D01*
X107602000Y-105298061D01*
X123340000Y-105298061D01*
X123340000Y-105501939D01*
X123379774Y-105701898D01*
X123457795Y-105890256D01*
X123571063Y-106059774D01*
X123715226Y-106203937D01*
X123884744Y-106317205D01*
X124073102Y-106395226D01*
X124273061Y-106435000D01*
X124476939Y-106435000D01*
X124676898Y-106395226D01*
X124865256Y-106317205D01*
X125034774Y-106203937D01*
X125178937Y-106059774D01*
X125292205Y-105890256D01*
X125370226Y-105701898D01*
X125410000Y-105501939D01*
X125410000Y-105298061D01*
X125370226Y-105098102D01*
X125292205Y-104909744D01*
X125178937Y-104740226D01*
X125034774Y-104596063D01*
X124865256Y-104482795D01*
X124676898Y-104404774D01*
X124476939Y-104365000D01*
X124273061Y-104365000D01*
X124073102Y-104404774D01*
X123884744Y-104482795D01*
X123715226Y-104596063D01*
X123571063Y-104740226D01*
X123457795Y-104909744D01*
X123379774Y-105098102D01*
X123340000Y-105298061D01*
X107602000Y-105298061D01*
X107602000Y-99727000D01*
X148548451Y-99727000D01*
X148566317Y-104747329D01*
G37*
%TD.AperFunction*%
%TD*%
D12*
%TO.N,VCC*%
X158848000Y-107773000D02*
X150702000Y-107773000D01*
X150702000Y-99727000D01*
X158848000Y-99727000D01*
X158848000Y-107773000D01*
%TA.AperFunction,Conductor*%
D13*
G36*
X158848000Y-107773000D02*
G01*
X150702000Y-107773000D01*
X150702000Y-99727000D01*
X158848000Y-99727000D01*
X158848000Y-107773000D01*
G37*
%TD.AperFunction*%
%TD*%
M02*
