%TF.GenerationSoftware,KiCad,Pcbnew,5.1.9+dfsg1-1~bpo10+1*%
%TF.CreationDate,2021-08-28T11:52:50+08:00*%
%TF.ProjectId,epd-clock,6570642d-636c-46f6-936b-2e6b69636164,rev?*%
%TF.SameCoordinates,Original*%
%TF.FileFunction,Copper,L1,Top*%
%TF.FilePolarity,Positive*%
%FSLAX46Y46*%
G04 Gerber Fmt 4.6, Leading zero omitted, Abs format (unit mm)*
G04 Created by KiCad (PCBNEW 5.1.9+dfsg1-1~bpo10+1) date 2021-08-28 11:52:50*
%MOMM*%
%LPD*%
G01*
G04 APERTURE LIST*
%TA.AperFunction,ComponentPad*%
%ADD10C,1.000000*%
%TD*%
%TA.AperFunction,ViaPad*%
%ADD11C,0.800000*%
%TD*%
%TA.AperFunction,Conductor*%
%ADD12C,0.250000*%
%TD*%
%TA.AperFunction,Conductor*%
%ADD13C,0.254000*%
%TD*%
%TA.AperFunction,Conductor*%
%ADD14C,0.100000*%
%TD*%
G04 APERTURE END LIST*
D10*
%TO.P,Y1,1*%
%TO.N,Net-(C19-Pad1)*%
X141613000Y-119484000D03*
%TO.P,Y1,2*%
%TO.N,Net-(C20-Pad1)*%
X141613000Y-121384000D03*
%TD*%
D11*
%TO.N,VCC*%
X154275000Y-121050000D03*
X164075000Y-121350000D03*
X158625000Y-106150000D03*
%TO.N,GND*%
X97675000Y-125700000D03*
X100875000Y-130800000D03*
X97575000Y-134900000D03*
X102575000Y-138500000D03*
X119575000Y-129700000D03*
X117575000Y-138000000D03*
X126975000Y-138500000D03*
X132025000Y-125750000D03*
X141175000Y-129950000D03*
X149975000Y-125550000D03*
X154975000Y-129800000D03*
X129475000Y-131200000D03*
X140575000Y-138500000D03*
X148275000Y-135600000D03*
X156375000Y-138500000D03*
X167775000Y-138000000D03*
X174075000Y-133450000D03*
X176875000Y-127950000D03*
X101075000Y-103000000D03*
X101075000Y-111500000D03*
X101175000Y-119800000D03*
X105575000Y-99100000D03*
X116975000Y-111300000D03*
X119775000Y-113500000D03*
X108275000Y-120100000D03*
X105475000Y-125000000D03*
X170075000Y-129100000D03*
X124575000Y-124850000D03*
X110175000Y-127900000D03*
X127475000Y-116000000D03*
X137175000Y-122400000D03*
X165925000Y-120700000D03*
X133175000Y-115300000D03*
X133575000Y-99350000D03*
X140275000Y-98600000D03*
X147275000Y-99400000D03*
X154125000Y-98550000D03*
X161125000Y-99450000D03*
X166625000Y-98650000D03*
X174325000Y-99350000D03*
X177325000Y-102100000D03*
X175675000Y-109000000D03*
X176675000Y-115300000D03*
X175375000Y-122150000D03*
X177525000Y-137850000D03*
X170175000Y-102550000D03*
X163975000Y-102700000D03*
X156825000Y-102200000D03*
X150475000Y-102300000D03*
X143075000Y-101950000D03*
X136725000Y-101850000D03*
X117775000Y-103100000D03*
X114975000Y-106650000D03*
X150725000Y-109850000D03*
%TO.N,+3V3*%
X146275000Y-104500000D03*
X137275000Y-104500000D03*
X139975000Y-116500000D03*
X134475000Y-116500000D03*
X110375000Y-100900000D03*
X109075000Y-110400000D03*
X109175000Y-116000000D03*
X123275000Y-117900000D03*
X127575000Y-119300000D03*
X144875000Y-116500000D03*
X115875000Y-113600000D03*
X113575000Y-99100000D03*
X152425000Y-105325000D03*
%TO.N,/epd/PREVGL*%
X165325000Y-111700000D03*
X156925000Y-112550000D03*
%TO.N,VCC*%
X167475000Y-106800000D03*
X167475000Y-105200000D03*
%TO.N,/epd/PREVGH*%
X165325000Y-113450000D03*
X159325000Y-113450000D03*
%TO.N,/mcu/EPD_PWR_EN*%
X121775000Y-106900000D03*
X153875000Y-107950000D03*
%TO.N,/epd/DIN*%
X147075000Y-109600000D03*
X170175004Y-115700000D03*
X132175000Y-107250000D03*
%TO.N,/epd/CLK*%
X147075002Y-110999998D03*
X170175000Y-116750000D03*
X121775002Y-108000000D03*
%TO.N,/epd/CS#*%
X170175000Y-117799988D03*
X132175000Y-108725010D03*
%TO.N,/epd/DC#*%
X170175000Y-118850000D03*
X132175000Y-109725023D03*
%TO.N,/mcu/EPD_RST#*%
X132175000Y-110800006D03*
X170175000Y-119900000D03*
%TO.N,/epd/BUSY*%
X121761295Y-112111614D03*
X170175000Y-120949992D03*
%TO.N,/power/ADEN#*%
X121774936Y-114111426D03*
X121775000Y-122400002D03*
%TO.N,/rtc/INT*%
X121780956Y-113111432D03*
X133775000Y-113150000D03*
%TO.N,/flash/MISO*%
X139675000Y-111674990D03*
X121775000Y-110999996D03*
%TO.N,/flash/CS*%
X121775000Y-115172693D03*
X135975000Y-113449974D03*
%TD*%
D12*
%TO.N,/epd/PREVGL*%
X164475000Y-112550000D02*
X156925000Y-112550000D01*
X165325000Y-111700000D02*
X164475000Y-112550000D01*
%TO.N,/epd/PREVGH*%
X165325000Y-113450000D02*
X159325000Y-113450000D01*
%TO.N,/mcu/EPD_PWR_EN*%
X152375000Y-106450000D02*
X153875000Y-107950000D01*
X121775000Y-106900000D02*
X122225000Y-106450000D01*
X122225000Y-106450000D02*
X152375000Y-106450000D01*
%TO.N,/epd/DIN*%
X168625004Y-117250000D02*
X170175004Y-115700000D01*
X147075000Y-109600000D02*
X154725000Y-117250000D01*
X154725000Y-117250000D02*
X168625004Y-117250000D01*
X147075000Y-109600000D02*
X144725000Y-107250000D01*
X144725000Y-107250000D02*
X132175000Y-107250000D01*
%TO.N,/epd/CLK*%
X170075000Y-116750000D02*
X170175000Y-116750000D01*
X169075000Y-117750000D02*
X170075000Y-116750000D01*
X147075002Y-110999998D02*
X153825004Y-117750000D01*
X153825004Y-117750000D02*
X169075000Y-117750000D01*
X144075004Y-108000000D02*
X121775002Y-108000000D01*
X147075002Y-110999998D02*
X144075004Y-108000000D01*
%TO.N,/epd/CS#*%
X143550010Y-108725010D02*
X132175000Y-108725010D01*
X169525000Y-118250000D02*
X153075000Y-118250000D01*
X153075000Y-118250000D02*
X143550010Y-108725010D01*
X170175000Y-117799988D02*
X169975012Y-117799988D01*
X169975012Y-117799988D02*
X169525000Y-118250000D01*
%TO.N,/epd/DC#*%
X132740685Y-109725023D02*
X132175000Y-109725023D01*
X143750023Y-109725023D02*
X132740685Y-109725023D01*
X152775000Y-118750000D02*
X143750023Y-109725023D01*
X170175000Y-118850000D02*
X170075000Y-118750000D01*
X170075000Y-118750000D02*
X152775000Y-118750000D01*
%TO.N,/mcu/EPD_RST#*%
X169525000Y-119250000D02*
X170175000Y-119900000D01*
X152475000Y-119250000D02*
X169525000Y-119250000D01*
X132175000Y-110800006D02*
X144025006Y-110800006D01*
X144025006Y-110800006D02*
X152475000Y-119250000D01*
%TO.N,/epd/BUSY*%
X152175000Y-119750000D02*
X168975008Y-119750000D01*
X144825010Y-112400010D02*
X152175000Y-119750000D01*
X121761295Y-112111614D02*
X122049691Y-112400010D01*
X168975008Y-119750000D02*
X170175000Y-120949992D01*
X122049691Y-112400010D02*
X144825010Y-112400010D01*
%TO.N,/power/ADEN#*%
X121049999Y-114836363D02*
X121049999Y-121675001D01*
X121049999Y-121675001D02*
X121775000Y-122400002D01*
X121774936Y-114111426D02*
X121049999Y-114836363D01*
%TO.N,/rtc/INT*%
X121780956Y-113111432D02*
X133736432Y-113111432D01*
X133736432Y-113111432D02*
X133775000Y-113150000D01*
%TO.N,/flash/MISO*%
X139675000Y-111700000D02*
X139675000Y-111700000D01*
X122449994Y-111674990D02*
X121775000Y-110999996D01*
X139675000Y-111674990D02*
X122449994Y-111674990D01*
%TO.N,/flash/CS*%
X135524974Y-113900000D02*
X135975000Y-113449974D01*
X121775000Y-115172693D02*
X123047693Y-113900000D01*
X123047693Y-113900000D02*
X135524974Y-113900000D01*
%TD*%
D13*
%TO.N,GND*%
X180415000Y-107767721D02*
X180405420Y-107865424D01*
X180386420Y-107928357D01*
X180355554Y-107986406D01*
X180314011Y-108037343D01*
X180263356Y-108079248D01*
X180205529Y-108110515D01*
X180142728Y-108129956D01*
X180047165Y-108140000D01*
X179107419Y-108140000D01*
X179075000Y-108136807D01*
X179029432Y-108141295D01*
X178945617Y-108149550D01*
X178821207Y-108187290D01*
X178706550Y-108248575D01*
X178606052Y-108331052D01*
X178523575Y-108431550D01*
X178462290Y-108546207D01*
X178424550Y-108670617D01*
X178411807Y-108800000D01*
X178415000Y-108832419D01*
X178415001Y-130267571D01*
X178411807Y-130300000D01*
X178424550Y-130429383D01*
X178462290Y-130553793D01*
X178523575Y-130668450D01*
X178606052Y-130768948D01*
X178706550Y-130851425D01*
X178821207Y-130912710D01*
X178945617Y-130950450D01*
X179042581Y-130960000D01*
X179075000Y-130963193D01*
X179107419Y-130960000D01*
X180042721Y-130960000D01*
X180140424Y-130969580D01*
X180203356Y-130988580D01*
X180261405Y-131019445D01*
X180312343Y-131060989D01*
X180354248Y-131111644D01*
X180385515Y-131169471D01*
X180404956Y-131232272D01*
X180415000Y-131327835D01*
X180415001Y-140315192D01*
X95759622Y-140339809D01*
X95752439Y-127781589D01*
X159516000Y-127781589D01*
X159516000Y-128054411D01*
X159569225Y-128321989D01*
X159673629Y-128574043D01*
X159825201Y-128800886D01*
X160018114Y-128993799D01*
X160244957Y-129145371D01*
X160497011Y-129249775D01*
X160764589Y-129303000D01*
X161037411Y-129303000D01*
X161304989Y-129249775D01*
X161557043Y-129145371D01*
X161783886Y-128993799D01*
X161976799Y-128800886D01*
X162128371Y-128574043D01*
X162232775Y-128321989D01*
X162286000Y-128054411D01*
X162286000Y-127781589D01*
X162232775Y-127514011D01*
X162128371Y-127261957D01*
X161976799Y-127035114D01*
X161783886Y-126842201D01*
X161557043Y-126690629D01*
X161304989Y-126586225D01*
X161037411Y-126533000D01*
X160764589Y-126533000D01*
X160497011Y-126586225D01*
X160244957Y-126690629D01*
X160018114Y-126842201D01*
X159825201Y-127035114D01*
X159673629Y-127261957D01*
X159569225Y-127514011D01*
X159516000Y-127781589D01*
X95752439Y-127781589D01*
X95745640Y-115898061D01*
X108140000Y-115898061D01*
X108140000Y-116101939D01*
X108179774Y-116301898D01*
X108257795Y-116490256D01*
X108371063Y-116659774D01*
X108515226Y-116803937D01*
X108684744Y-116917205D01*
X108873102Y-116995226D01*
X109073061Y-117035000D01*
X109276939Y-117035000D01*
X109476898Y-116995226D01*
X109665256Y-116917205D01*
X109834774Y-116803937D01*
X109978937Y-116659774D01*
X110092205Y-116490256D01*
X110170226Y-116301898D01*
X110210000Y-116101939D01*
X110210000Y-115898061D01*
X110170226Y-115698102D01*
X110092205Y-115509744D01*
X109978937Y-115340226D01*
X109834774Y-115196063D01*
X109665256Y-115082795D01*
X109476898Y-115004774D01*
X109276939Y-114965000D01*
X109073061Y-114965000D01*
X108873102Y-115004774D01*
X108684744Y-115082795D01*
X108515226Y-115196063D01*
X108371063Y-115340226D01*
X108257795Y-115509744D01*
X108179774Y-115698102D01*
X108140000Y-115898061D01*
X95745640Y-115898061D01*
X95745033Y-114836363D01*
X120286323Y-114836363D01*
X120289999Y-114873686D01*
X120290000Y-121637669D01*
X120286323Y-121675001D01*
X120300997Y-121823986D01*
X120344453Y-121967247D01*
X120415025Y-122099277D01*
X120459884Y-122153937D01*
X120509999Y-122215002D01*
X120538997Y-122238800D01*
X120740000Y-122439803D01*
X120740000Y-122501941D01*
X120779774Y-122701900D01*
X120857795Y-122890258D01*
X120971063Y-123059776D01*
X121115226Y-123203939D01*
X121284744Y-123317207D01*
X121473102Y-123395228D01*
X121673061Y-123435002D01*
X121876939Y-123435002D01*
X122076898Y-123395228D01*
X122265256Y-123317207D01*
X122434774Y-123203939D01*
X122578937Y-123059776D01*
X122692205Y-122890258D01*
X122770226Y-122701900D01*
X122810000Y-122501941D01*
X122810000Y-122298063D01*
X122770226Y-122098104D01*
X122692205Y-121909746D01*
X122578937Y-121740228D01*
X122434774Y-121596065D01*
X122265256Y-121482797D01*
X122076898Y-121404776D01*
X121876939Y-121365002D01*
X121814801Y-121365002D01*
X121809999Y-121360200D01*
X121809999Y-119198061D01*
X126540000Y-119198061D01*
X126540000Y-119401939D01*
X126579774Y-119601898D01*
X126657795Y-119790256D01*
X126771063Y-119959774D01*
X126915226Y-120103937D01*
X127084744Y-120217205D01*
X127273102Y-120295226D01*
X127473061Y-120335000D01*
X127676939Y-120335000D01*
X127876898Y-120295226D01*
X128065256Y-120217205D01*
X128234774Y-120103937D01*
X128378937Y-119959774D01*
X128492205Y-119790256D01*
X128570226Y-119601898D01*
X128610000Y-119401939D01*
X128610000Y-119372212D01*
X140478000Y-119372212D01*
X140478000Y-119595788D01*
X140521617Y-119815067D01*
X140607176Y-120021624D01*
X140731388Y-120207520D01*
X140889480Y-120365612D01*
X140991830Y-120434000D01*
X140889480Y-120502388D01*
X140731388Y-120660480D01*
X140607176Y-120846376D01*
X140521617Y-121052933D01*
X140478000Y-121272212D01*
X140478000Y-121495788D01*
X140521617Y-121715067D01*
X140607176Y-121921624D01*
X140731388Y-122107520D01*
X140889480Y-122265612D01*
X141075376Y-122389824D01*
X141281933Y-122475383D01*
X141501212Y-122519000D01*
X141724788Y-122519000D01*
X141944067Y-122475383D01*
X142150624Y-122389824D01*
X142336520Y-122265612D01*
X142494612Y-122107520D01*
X142618824Y-121921624D01*
X142704383Y-121715067D01*
X142748000Y-121495788D01*
X142748000Y-121272212D01*
X142704383Y-121052933D01*
X142618824Y-120846376D01*
X142494612Y-120660480D01*
X142336520Y-120502388D01*
X142234170Y-120434000D01*
X142336520Y-120365612D01*
X142494612Y-120207520D01*
X142618824Y-120021624D01*
X142704383Y-119815067D01*
X142748000Y-119595788D01*
X142748000Y-119372212D01*
X142704383Y-119152933D01*
X142618824Y-118946376D01*
X142494612Y-118760480D01*
X142336520Y-118602388D01*
X142150624Y-118478176D01*
X141944067Y-118392617D01*
X141724788Y-118349000D01*
X141501212Y-118349000D01*
X141281933Y-118392617D01*
X141075376Y-118478176D01*
X140889480Y-118602388D01*
X140731388Y-118760480D01*
X140607176Y-118946376D01*
X140521617Y-119152933D01*
X140478000Y-119372212D01*
X128610000Y-119372212D01*
X128610000Y-119198061D01*
X128570226Y-118998102D01*
X128492205Y-118809744D01*
X128378937Y-118640226D01*
X128234774Y-118496063D01*
X128065256Y-118382795D01*
X127876898Y-118304774D01*
X127676939Y-118265000D01*
X127473061Y-118265000D01*
X127273102Y-118304774D01*
X127084744Y-118382795D01*
X126915226Y-118496063D01*
X126771063Y-118640226D01*
X126657795Y-118809744D01*
X126579774Y-118998102D01*
X126540000Y-119198061D01*
X121809999Y-119198061D01*
X121809999Y-117798061D01*
X122240000Y-117798061D01*
X122240000Y-118001939D01*
X122279774Y-118201898D01*
X122357795Y-118390256D01*
X122471063Y-118559774D01*
X122615226Y-118703937D01*
X122784744Y-118817205D01*
X122973102Y-118895226D01*
X123173061Y-118935000D01*
X123376939Y-118935000D01*
X123576898Y-118895226D01*
X123765256Y-118817205D01*
X123934774Y-118703937D01*
X124078937Y-118559774D01*
X124192205Y-118390256D01*
X124270226Y-118201898D01*
X124310000Y-118001939D01*
X124310000Y-117798061D01*
X124270226Y-117598102D01*
X124192205Y-117409744D01*
X124078937Y-117240226D01*
X123934774Y-117096063D01*
X123765256Y-116982795D01*
X123576898Y-116904774D01*
X123376939Y-116865000D01*
X123173061Y-116865000D01*
X122973102Y-116904774D01*
X122784744Y-116982795D01*
X122615226Y-117096063D01*
X122471063Y-117240226D01*
X122357795Y-117409744D01*
X122279774Y-117598102D01*
X122240000Y-117798061D01*
X121809999Y-117798061D01*
X121809999Y-116398061D01*
X133440000Y-116398061D01*
X133440000Y-116601939D01*
X133479774Y-116801898D01*
X133557795Y-116990256D01*
X133671063Y-117159774D01*
X133815226Y-117303937D01*
X133984744Y-117417205D01*
X134173102Y-117495226D01*
X134373061Y-117535000D01*
X134576939Y-117535000D01*
X134776898Y-117495226D01*
X134965256Y-117417205D01*
X135134774Y-117303937D01*
X135278937Y-117159774D01*
X135392205Y-116990256D01*
X135470226Y-116801898D01*
X135510000Y-116601939D01*
X135510000Y-116398061D01*
X138940000Y-116398061D01*
X138940000Y-116601939D01*
X138979774Y-116801898D01*
X139057795Y-116990256D01*
X139171063Y-117159774D01*
X139315226Y-117303937D01*
X139484744Y-117417205D01*
X139673102Y-117495226D01*
X139873061Y-117535000D01*
X140076939Y-117535000D01*
X140276898Y-117495226D01*
X140465256Y-117417205D01*
X140634774Y-117303937D01*
X140778937Y-117159774D01*
X140892205Y-116990256D01*
X140970226Y-116801898D01*
X141010000Y-116601939D01*
X141010000Y-116398061D01*
X143840000Y-116398061D01*
X143840000Y-116601939D01*
X143879774Y-116801898D01*
X143957795Y-116990256D01*
X144071063Y-117159774D01*
X144215226Y-117303937D01*
X144384744Y-117417205D01*
X144573102Y-117495226D01*
X144773061Y-117535000D01*
X144976939Y-117535000D01*
X145176898Y-117495226D01*
X145365256Y-117417205D01*
X145534774Y-117303937D01*
X145678937Y-117159774D01*
X145792205Y-116990256D01*
X145870226Y-116801898D01*
X145910000Y-116601939D01*
X145910000Y-116398061D01*
X145870226Y-116198102D01*
X145792205Y-116009744D01*
X145678937Y-115840226D01*
X145534774Y-115696063D01*
X145365256Y-115582795D01*
X145176898Y-115504774D01*
X144976939Y-115465000D01*
X144773061Y-115465000D01*
X144573102Y-115504774D01*
X144384744Y-115582795D01*
X144215226Y-115696063D01*
X144071063Y-115840226D01*
X143957795Y-116009744D01*
X143879774Y-116198102D01*
X143840000Y-116398061D01*
X141010000Y-116398061D01*
X140970226Y-116198102D01*
X140892205Y-116009744D01*
X140778937Y-115840226D01*
X140634774Y-115696063D01*
X140465256Y-115582795D01*
X140276898Y-115504774D01*
X140076939Y-115465000D01*
X139873061Y-115465000D01*
X139673102Y-115504774D01*
X139484744Y-115582795D01*
X139315226Y-115696063D01*
X139171063Y-115840226D01*
X139057795Y-116009744D01*
X138979774Y-116198102D01*
X138940000Y-116398061D01*
X135510000Y-116398061D01*
X135470226Y-116198102D01*
X135392205Y-116009744D01*
X135278937Y-115840226D01*
X135134774Y-115696063D01*
X134965256Y-115582795D01*
X134776898Y-115504774D01*
X134576939Y-115465000D01*
X134373061Y-115465000D01*
X134173102Y-115504774D01*
X133984744Y-115582795D01*
X133815226Y-115696063D01*
X133671063Y-115840226D01*
X133557795Y-116009744D01*
X133479774Y-116198102D01*
X133440000Y-116398061D01*
X121809999Y-116398061D01*
X121809999Y-116207693D01*
X121876939Y-116207693D01*
X122076898Y-116167919D01*
X122265256Y-116089898D01*
X122434774Y-115976630D01*
X122578937Y-115832467D01*
X122692205Y-115662949D01*
X122770226Y-115474591D01*
X122810000Y-115274632D01*
X122810000Y-115212494D01*
X123362495Y-114660000D01*
X135487652Y-114660000D01*
X135524974Y-114663676D01*
X135562296Y-114660000D01*
X135562307Y-114660000D01*
X135673960Y-114649003D01*
X135817221Y-114605546D01*
X135949250Y-114534974D01*
X136010175Y-114484974D01*
X136076939Y-114484974D01*
X136276898Y-114445200D01*
X136465256Y-114367179D01*
X136634774Y-114253911D01*
X136778937Y-114109748D01*
X136892205Y-113940230D01*
X136970226Y-113751872D01*
X137010000Y-113551913D01*
X137010000Y-113348035D01*
X136972600Y-113160010D01*
X144510209Y-113160010D01*
X151611200Y-120261002D01*
X151634999Y-120290001D01*
X151663997Y-120313799D01*
X151750724Y-120384974D01*
X151882753Y-120455546D01*
X152026014Y-120499003D01*
X152175000Y-120513677D01*
X152212333Y-120510000D01*
X153391033Y-120510000D01*
X153357795Y-120559744D01*
X153279774Y-120748102D01*
X153240000Y-120948061D01*
X153240000Y-121151939D01*
X153279774Y-121351898D01*
X153357795Y-121540256D01*
X153471063Y-121709774D01*
X153615226Y-121853937D01*
X153784744Y-121967205D01*
X153973102Y-122045226D01*
X154173061Y-122085000D01*
X154376939Y-122085000D01*
X154576898Y-122045226D01*
X154765256Y-121967205D01*
X154934774Y-121853937D01*
X155078937Y-121709774D01*
X155192205Y-121540256D01*
X155270226Y-121351898D01*
X155310000Y-121151939D01*
X155310000Y-120948061D01*
X155270226Y-120748102D01*
X155192205Y-120559744D01*
X155158967Y-120510000D01*
X163469198Y-120510000D01*
X163415226Y-120546063D01*
X163271063Y-120690226D01*
X163157795Y-120859744D01*
X163079774Y-121048102D01*
X163040000Y-121248061D01*
X163040000Y-121451939D01*
X163079774Y-121651898D01*
X163157795Y-121840256D01*
X163271063Y-122009774D01*
X163415226Y-122153937D01*
X163584744Y-122267205D01*
X163773102Y-122345226D01*
X163973061Y-122385000D01*
X164176939Y-122385000D01*
X164376898Y-122345226D01*
X164565256Y-122267205D01*
X164734774Y-122153937D01*
X164878937Y-122009774D01*
X164992205Y-121840256D01*
X165070226Y-121651898D01*
X165110000Y-121451939D01*
X165110000Y-121248061D01*
X165070226Y-121048102D01*
X164992205Y-120859744D01*
X164878937Y-120690226D01*
X164734774Y-120546063D01*
X164680802Y-120510000D01*
X168660207Y-120510000D01*
X169140000Y-120989794D01*
X169140000Y-121051931D01*
X169179774Y-121251890D01*
X169257795Y-121440248D01*
X169371063Y-121609766D01*
X169515226Y-121753929D01*
X169684744Y-121867197D01*
X169873102Y-121945218D01*
X170073061Y-121984992D01*
X170276939Y-121984992D01*
X170476898Y-121945218D01*
X170665256Y-121867197D01*
X170834774Y-121753929D01*
X170978937Y-121609766D01*
X171092205Y-121440248D01*
X171170226Y-121251890D01*
X171210000Y-121051931D01*
X171210000Y-120848053D01*
X171170226Y-120648094D01*
X171092205Y-120459736D01*
X171068993Y-120424996D01*
X171092205Y-120390256D01*
X171170226Y-120201898D01*
X171210000Y-120001939D01*
X171210000Y-119798061D01*
X171170226Y-119598102D01*
X171092205Y-119409744D01*
X171068990Y-119375000D01*
X171092205Y-119340256D01*
X171170226Y-119151898D01*
X171210000Y-118951939D01*
X171210000Y-118748061D01*
X171170226Y-118548102D01*
X171092205Y-118359744D01*
X171068986Y-118324994D01*
X171092205Y-118290244D01*
X171170226Y-118101886D01*
X171210000Y-117901927D01*
X171210000Y-117698049D01*
X171170226Y-117498090D01*
X171092205Y-117309732D01*
X171068994Y-117274994D01*
X171092205Y-117240256D01*
X171170226Y-117051898D01*
X171210000Y-116851939D01*
X171210000Y-116648061D01*
X171170226Y-116448102D01*
X171092205Y-116259744D01*
X171068992Y-116225003D01*
X171092209Y-116190256D01*
X171170230Y-116001898D01*
X171210004Y-115801939D01*
X171210004Y-115598061D01*
X171170230Y-115398102D01*
X171092209Y-115209744D01*
X170978941Y-115040226D01*
X170834778Y-114896063D01*
X170665260Y-114782795D01*
X170476902Y-114704774D01*
X170276943Y-114665000D01*
X170073065Y-114665000D01*
X169873106Y-114704774D01*
X169684748Y-114782795D01*
X169515230Y-114896063D01*
X169371067Y-115040226D01*
X169257799Y-115209744D01*
X169179778Y-115398102D01*
X169140004Y-115598061D01*
X169140004Y-115660198D01*
X168310203Y-116490000D01*
X155039802Y-116490000D01*
X150997863Y-112448061D01*
X155890000Y-112448061D01*
X155890000Y-112651939D01*
X155929774Y-112851898D01*
X156007795Y-113040256D01*
X156121063Y-113209774D01*
X156265226Y-113353937D01*
X156434744Y-113467205D01*
X156623102Y-113545226D01*
X156823061Y-113585000D01*
X157026939Y-113585000D01*
X157226898Y-113545226D01*
X157415256Y-113467205D01*
X157584774Y-113353937D01*
X157628711Y-113310000D01*
X158297571Y-113310000D01*
X158290000Y-113348061D01*
X158290000Y-113551939D01*
X158329774Y-113751898D01*
X158407795Y-113940256D01*
X158521063Y-114109774D01*
X158665226Y-114253937D01*
X158834744Y-114367205D01*
X159023102Y-114445226D01*
X159223061Y-114485000D01*
X159426939Y-114485000D01*
X159626898Y-114445226D01*
X159815256Y-114367205D01*
X159984774Y-114253937D01*
X160028711Y-114210000D01*
X164621289Y-114210000D01*
X164665226Y-114253937D01*
X164834744Y-114367205D01*
X165023102Y-114445226D01*
X165223061Y-114485000D01*
X165426939Y-114485000D01*
X165626898Y-114445226D01*
X165815256Y-114367205D01*
X165984774Y-114253937D01*
X166128937Y-114109774D01*
X166242205Y-113940256D01*
X166320226Y-113751898D01*
X166360000Y-113551939D01*
X166360000Y-113348061D01*
X166320226Y-113148102D01*
X166242205Y-112959744D01*
X166128937Y-112790226D01*
X165984774Y-112646063D01*
X165878420Y-112575000D01*
X165984774Y-112503937D01*
X166128937Y-112359774D01*
X166242205Y-112190256D01*
X166320226Y-112001898D01*
X166360000Y-111801939D01*
X166360000Y-111598061D01*
X166320226Y-111398102D01*
X166242205Y-111209744D01*
X166128937Y-111040226D01*
X165984774Y-110896063D01*
X165815256Y-110782795D01*
X165626898Y-110704774D01*
X165426939Y-110665000D01*
X165223061Y-110665000D01*
X165023102Y-110704774D01*
X164834744Y-110782795D01*
X164665226Y-110896063D01*
X164521063Y-111040226D01*
X164407795Y-111209744D01*
X164329774Y-111398102D01*
X164290000Y-111598061D01*
X164290000Y-111660199D01*
X164160199Y-111790000D01*
X157628711Y-111790000D01*
X157584774Y-111746063D01*
X157415256Y-111632795D01*
X157226898Y-111554774D01*
X157026939Y-111515000D01*
X156823061Y-111515000D01*
X156623102Y-111554774D01*
X156434744Y-111632795D01*
X156265226Y-111746063D01*
X156121063Y-111890226D01*
X156007795Y-112059744D01*
X155929774Y-112248102D01*
X155890000Y-112448061D01*
X150997863Y-112448061D01*
X148110000Y-109560199D01*
X148110000Y-109498061D01*
X148070226Y-109298102D01*
X147992205Y-109109744D01*
X147878937Y-108940226D01*
X147734774Y-108796063D01*
X147565256Y-108682795D01*
X147376898Y-108604774D01*
X147176939Y-108565000D01*
X147114802Y-108565000D01*
X145759801Y-107210000D01*
X152060199Y-107210000D01*
X152840000Y-107989802D01*
X152840000Y-108051939D01*
X152879774Y-108251898D01*
X152957795Y-108440256D01*
X153071063Y-108609774D01*
X153215226Y-108753937D01*
X153384744Y-108867205D01*
X153573102Y-108945226D01*
X153773061Y-108985000D01*
X153976939Y-108985000D01*
X154176898Y-108945226D01*
X154365256Y-108867205D01*
X154534774Y-108753937D01*
X154678937Y-108609774D01*
X154792205Y-108440256D01*
X154870226Y-108251898D01*
X154910000Y-108051939D01*
X154910000Y-107848061D01*
X154870226Y-107648102D01*
X154792205Y-107459744D01*
X154678937Y-107290226D01*
X154534774Y-107146063D01*
X154365256Y-107032795D01*
X154176898Y-106954774D01*
X153976939Y-106915000D01*
X153914802Y-106915000D01*
X153106756Y-106106955D01*
X153165650Y-106048061D01*
X157590000Y-106048061D01*
X157590000Y-106251939D01*
X157629774Y-106451898D01*
X157707795Y-106640256D01*
X157821063Y-106809774D01*
X157965226Y-106953937D01*
X158134744Y-107067205D01*
X158323102Y-107145226D01*
X158523061Y-107185000D01*
X158726939Y-107185000D01*
X158926898Y-107145226D01*
X159115256Y-107067205D01*
X159284774Y-106953937D01*
X159428937Y-106809774D01*
X159542205Y-106640256D01*
X159620226Y-106451898D01*
X159660000Y-106251939D01*
X159660000Y-106048061D01*
X159620226Y-105848102D01*
X159542205Y-105659744D01*
X159428937Y-105490226D01*
X159284774Y-105346063D01*
X159115256Y-105232795D01*
X158926898Y-105154774D01*
X158726939Y-105115000D01*
X158523061Y-105115000D01*
X158323102Y-105154774D01*
X158134744Y-105232795D01*
X157965226Y-105346063D01*
X157821063Y-105490226D01*
X157707795Y-105659744D01*
X157629774Y-105848102D01*
X157590000Y-106048061D01*
X153165650Y-106048061D01*
X153228937Y-105984774D01*
X153342205Y-105815256D01*
X153420226Y-105626898D01*
X153460000Y-105426939D01*
X153460000Y-105223061D01*
X153435137Y-105098061D01*
X166440000Y-105098061D01*
X166440000Y-105301939D01*
X166479774Y-105501898D01*
X166557795Y-105690256D01*
X166671063Y-105859774D01*
X166811289Y-106000000D01*
X166671063Y-106140226D01*
X166557795Y-106309744D01*
X166479774Y-106498102D01*
X166440000Y-106698061D01*
X166440000Y-106901939D01*
X166479774Y-107101898D01*
X166557795Y-107290256D01*
X166671063Y-107459774D01*
X166815226Y-107603937D01*
X166984744Y-107717205D01*
X167173102Y-107795226D01*
X167373061Y-107835000D01*
X167576939Y-107835000D01*
X167776898Y-107795226D01*
X167965256Y-107717205D01*
X168134774Y-107603937D01*
X168278937Y-107459774D01*
X168392205Y-107290256D01*
X168470226Y-107101898D01*
X168510000Y-106901939D01*
X168510000Y-106698061D01*
X168470226Y-106498102D01*
X168392205Y-106309744D01*
X168278937Y-106140226D01*
X168138711Y-106000000D01*
X168278937Y-105859774D01*
X168392205Y-105690256D01*
X168470226Y-105501898D01*
X168510000Y-105301939D01*
X168510000Y-105098061D01*
X168470226Y-104898102D01*
X168392205Y-104709744D01*
X168278937Y-104540226D01*
X168134774Y-104396063D01*
X167965256Y-104282795D01*
X167776898Y-104204774D01*
X167576939Y-104165000D01*
X167373061Y-104165000D01*
X167173102Y-104204774D01*
X166984744Y-104282795D01*
X166815226Y-104396063D01*
X166671063Y-104540226D01*
X166557795Y-104709744D01*
X166479774Y-104898102D01*
X166440000Y-105098061D01*
X153435137Y-105098061D01*
X153420226Y-105023102D01*
X153342205Y-104834744D01*
X153228937Y-104665226D01*
X153084774Y-104521063D01*
X152915256Y-104407795D01*
X152726898Y-104329774D01*
X152526939Y-104290000D01*
X152323061Y-104290000D01*
X152123102Y-104329774D01*
X151934744Y-104407795D01*
X151765226Y-104521063D01*
X151621063Y-104665226D01*
X151507795Y-104834744D01*
X151429774Y-105023102D01*
X151390000Y-105223061D01*
X151390000Y-105426939D01*
X151429774Y-105626898D01*
X151455912Y-105690000D01*
X122262322Y-105690000D01*
X122224999Y-105686324D01*
X122187676Y-105690000D01*
X122187667Y-105690000D01*
X122076014Y-105700997D01*
X121932753Y-105744454D01*
X121800723Y-105815026D01*
X121760421Y-105848102D01*
X121739830Y-105865000D01*
X121673061Y-105865000D01*
X121473102Y-105904774D01*
X121284744Y-105982795D01*
X121115226Y-106096063D01*
X120971063Y-106240226D01*
X120857795Y-106409744D01*
X120779774Y-106598102D01*
X120740000Y-106798061D01*
X120740000Y-107001939D01*
X120779774Y-107201898D01*
X120857795Y-107390256D01*
X120897716Y-107450001D01*
X120857797Y-107509744D01*
X120779776Y-107698102D01*
X120740002Y-107898061D01*
X120740002Y-108101939D01*
X120779776Y-108301898D01*
X120857797Y-108490256D01*
X120971065Y-108659774D01*
X121115228Y-108803937D01*
X121284746Y-108917205D01*
X121473104Y-108995226D01*
X121673063Y-109035000D01*
X121876941Y-109035000D01*
X122076900Y-108995226D01*
X122265258Y-108917205D01*
X122434776Y-108803937D01*
X122478713Y-108760000D01*
X131140000Y-108760000D01*
X131140000Y-108826949D01*
X131179774Y-109026908D01*
X131257795Y-109215266D01*
X131264310Y-109225017D01*
X131257795Y-109234767D01*
X131179774Y-109423125D01*
X131140000Y-109623084D01*
X131140000Y-109826962D01*
X131179774Y-110026921D01*
X131257795Y-110215279D01*
X131289357Y-110262515D01*
X131257795Y-110309750D01*
X131179774Y-110498108D01*
X131140000Y-110698067D01*
X131140000Y-110901945D01*
X131142595Y-110914990D01*
X122810000Y-110914990D01*
X122810000Y-110898057D01*
X122770226Y-110698098D01*
X122692205Y-110509740D01*
X122578937Y-110340222D01*
X122434774Y-110196059D01*
X122265256Y-110082791D01*
X122076898Y-110004770D01*
X121876939Y-109964996D01*
X121673061Y-109964996D01*
X121473102Y-110004770D01*
X121284744Y-110082791D01*
X121115226Y-110196059D01*
X120971063Y-110340222D01*
X120857795Y-110509740D01*
X120779774Y-110698098D01*
X120740000Y-110898057D01*
X120740000Y-111101935D01*
X120779774Y-111301894D01*
X120857795Y-111490252D01*
X120894743Y-111545549D01*
X120844090Y-111621358D01*
X120766069Y-111809716D01*
X120726295Y-112009675D01*
X120726295Y-112213553D01*
X120766069Y-112413512D01*
X120844090Y-112601870D01*
X120861164Y-112627423D01*
X120785730Y-112809534D01*
X120745956Y-113009493D01*
X120745956Y-113213371D01*
X120785730Y-113413330D01*
X120863751Y-113601688D01*
X120867250Y-113606924D01*
X120857731Y-113621170D01*
X120779710Y-113809528D01*
X120739936Y-114009487D01*
X120739936Y-114071625D01*
X120539001Y-114272560D01*
X120509998Y-114296362D01*
X120454870Y-114363537D01*
X120415025Y-114412087D01*
X120414364Y-114413324D01*
X120344453Y-114544117D01*
X120300996Y-114687378D01*
X120289999Y-114799031D01*
X120289999Y-114799041D01*
X120286323Y-114836363D01*
X95745033Y-114836363D01*
X95744267Y-113498061D01*
X114840000Y-113498061D01*
X114840000Y-113701939D01*
X114879774Y-113901898D01*
X114957795Y-114090256D01*
X115071063Y-114259774D01*
X115215226Y-114403937D01*
X115384744Y-114517205D01*
X115573102Y-114595226D01*
X115773061Y-114635000D01*
X115976939Y-114635000D01*
X116176898Y-114595226D01*
X116365256Y-114517205D01*
X116534774Y-114403937D01*
X116678937Y-114259774D01*
X116792205Y-114090256D01*
X116870226Y-113901898D01*
X116910000Y-113701939D01*
X116910000Y-113498061D01*
X116870226Y-113298102D01*
X116792205Y-113109744D01*
X116678937Y-112940226D01*
X116534774Y-112796063D01*
X116365256Y-112682795D01*
X116176898Y-112604774D01*
X115976939Y-112565000D01*
X115773061Y-112565000D01*
X115573102Y-112604774D01*
X115384744Y-112682795D01*
X115215226Y-112796063D01*
X115071063Y-112940226D01*
X114957795Y-113109744D01*
X114879774Y-113298102D01*
X114840000Y-113498061D01*
X95744267Y-113498061D01*
X95742436Y-110298061D01*
X108040000Y-110298061D01*
X108040000Y-110501939D01*
X108079774Y-110701898D01*
X108157795Y-110890256D01*
X108271063Y-111059774D01*
X108415226Y-111203937D01*
X108584744Y-111317205D01*
X108773102Y-111395226D01*
X108973061Y-111435000D01*
X109176939Y-111435000D01*
X109376898Y-111395226D01*
X109565256Y-111317205D01*
X109734774Y-111203937D01*
X109878937Y-111059774D01*
X109992205Y-110890256D01*
X110070226Y-110701898D01*
X110110000Y-110501939D01*
X110110000Y-110298061D01*
X110070226Y-110098102D01*
X109992205Y-109909744D01*
X109878937Y-109740226D01*
X109734774Y-109596063D01*
X109565256Y-109482795D01*
X109376898Y-109404774D01*
X109176939Y-109365000D01*
X108973061Y-109365000D01*
X108773102Y-109404774D01*
X108584744Y-109482795D01*
X108415226Y-109596063D01*
X108271063Y-109740226D01*
X108157795Y-109909744D01*
X108079774Y-110098102D01*
X108040000Y-110298061D01*
X95742436Y-110298061D01*
X95739061Y-104398061D01*
X136240000Y-104398061D01*
X136240000Y-104601939D01*
X136279774Y-104801898D01*
X136357795Y-104990256D01*
X136471063Y-105159774D01*
X136615226Y-105303937D01*
X136784744Y-105417205D01*
X136973102Y-105495226D01*
X137173061Y-105535000D01*
X137376939Y-105535000D01*
X137576898Y-105495226D01*
X137765256Y-105417205D01*
X137934774Y-105303937D01*
X138078937Y-105159774D01*
X138192205Y-104990256D01*
X138270226Y-104801898D01*
X138310000Y-104601939D01*
X138310000Y-104398061D01*
X145240000Y-104398061D01*
X145240000Y-104601939D01*
X145279774Y-104801898D01*
X145357795Y-104990256D01*
X145471063Y-105159774D01*
X145615226Y-105303937D01*
X145784744Y-105417205D01*
X145973102Y-105495226D01*
X146173061Y-105535000D01*
X146376939Y-105535000D01*
X146576898Y-105495226D01*
X146765256Y-105417205D01*
X146934774Y-105303937D01*
X147078937Y-105159774D01*
X147192205Y-104990256D01*
X147270226Y-104801898D01*
X147310000Y-104601939D01*
X147310000Y-104398061D01*
X147270226Y-104198102D01*
X147192205Y-104009744D01*
X147078937Y-103840226D01*
X146934774Y-103696063D01*
X146765256Y-103582795D01*
X146576898Y-103504774D01*
X146376939Y-103465000D01*
X146173061Y-103465000D01*
X145973102Y-103504774D01*
X145784744Y-103582795D01*
X145615226Y-103696063D01*
X145471063Y-103840226D01*
X145357795Y-104009744D01*
X145279774Y-104198102D01*
X145240000Y-104398061D01*
X138310000Y-104398061D01*
X138270226Y-104198102D01*
X138192205Y-104009744D01*
X138078937Y-103840226D01*
X137934774Y-103696063D01*
X137765256Y-103582795D01*
X137576898Y-103504774D01*
X137376939Y-103465000D01*
X137173061Y-103465000D01*
X136973102Y-103504774D01*
X136784744Y-103582795D01*
X136615226Y-103696063D01*
X136471063Y-103840226D01*
X136357795Y-104009744D01*
X136279774Y-104198102D01*
X136240000Y-104398061D01*
X95739061Y-104398061D01*
X95737001Y-100798061D01*
X109340000Y-100798061D01*
X109340000Y-101001939D01*
X109379774Y-101201898D01*
X109457795Y-101390256D01*
X109571063Y-101559774D01*
X109715226Y-101703937D01*
X109884744Y-101817205D01*
X110073102Y-101895226D01*
X110273061Y-101935000D01*
X110476939Y-101935000D01*
X110676898Y-101895226D01*
X110865256Y-101817205D01*
X111034774Y-101703937D01*
X111178937Y-101559774D01*
X111292205Y-101390256D01*
X111370226Y-101201898D01*
X111410000Y-101001939D01*
X111410000Y-100798061D01*
X111370226Y-100598102D01*
X111292205Y-100409744D01*
X111178937Y-100240226D01*
X111034774Y-100096063D01*
X110865256Y-99982795D01*
X110676898Y-99904774D01*
X110476939Y-99865000D01*
X110273061Y-99865000D01*
X110073102Y-99904774D01*
X109884744Y-99982795D01*
X109715226Y-100096063D01*
X109571063Y-100240226D01*
X109457795Y-100409744D01*
X109379774Y-100598102D01*
X109340000Y-100798061D01*
X95737001Y-100798061D01*
X95735972Y-98998061D01*
X112540000Y-98998061D01*
X112540000Y-99201939D01*
X112579774Y-99401898D01*
X112657795Y-99590256D01*
X112771063Y-99759774D01*
X112915226Y-99903937D01*
X113084744Y-100017205D01*
X113273102Y-100095226D01*
X113473061Y-100135000D01*
X113676939Y-100135000D01*
X113876898Y-100095226D01*
X114065256Y-100017205D01*
X114234774Y-99903937D01*
X114378937Y-99759774D01*
X114492205Y-99590256D01*
X114570226Y-99401898D01*
X114610000Y-99201939D01*
X114610000Y-98998061D01*
X114570226Y-98798102D01*
X114492205Y-98609744D01*
X114378937Y-98440226D01*
X114234774Y-98296063D01*
X114065256Y-98182795D01*
X113876898Y-98104774D01*
X113676939Y-98065000D01*
X113473061Y-98065000D01*
X113273102Y-98104774D01*
X113084744Y-98182795D01*
X112915226Y-98296063D01*
X112771063Y-98440226D01*
X112657795Y-98609744D01*
X112579774Y-98798102D01*
X112540000Y-98998061D01*
X95735972Y-98998061D01*
X95735377Y-97960000D01*
X180415001Y-97960000D01*
X180415000Y-107767721D01*
%TA.AperFunction,Conductor*%
D14*
G36*
X180415000Y-107767721D02*
G01*
X180405420Y-107865424D01*
X180386420Y-107928357D01*
X180355554Y-107986406D01*
X180314011Y-108037343D01*
X180263356Y-108079248D01*
X180205529Y-108110515D01*
X180142728Y-108129956D01*
X180047165Y-108140000D01*
X179107419Y-108140000D01*
X179075000Y-108136807D01*
X179029432Y-108141295D01*
X178945617Y-108149550D01*
X178821207Y-108187290D01*
X178706550Y-108248575D01*
X178606052Y-108331052D01*
X178523575Y-108431550D01*
X178462290Y-108546207D01*
X178424550Y-108670617D01*
X178411807Y-108800000D01*
X178415000Y-108832419D01*
X178415001Y-130267571D01*
X178411807Y-130300000D01*
X178424550Y-130429383D01*
X178462290Y-130553793D01*
X178523575Y-130668450D01*
X178606052Y-130768948D01*
X178706550Y-130851425D01*
X178821207Y-130912710D01*
X178945617Y-130950450D01*
X179042581Y-130960000D01*
X179075000Y-130963193D01*
X179107419Y-130960000D01*
X180042721Y-130960000D01*
X180140424Y-130969580D01*
X180203356Y-130988580D01*
X180261405Y-131019445D01*
X180312343Y-131060989D01*
X180354248Y-131111644D01*
X180385515Y-131169471D01*
X180404956Y-131232272D01*
X180415000Y-131327835D01*
X180415001Y-140315192D01*
X95759622Y-140339809D01*
X95752439Y-127781589D01*
X159516000Y-127781589D01*
X159516000Y-128054411D01*
X159569225Y-128321989D01*
X159673629Y-128574043D01*
X159825201Y-128800886D01*
X160018114Y-128993799D01*
X160244957Y-129145371D01*
X160497011Y-129249775D01*
X160764589Y-129303000D01*
X161037411Y-129303000D01*
X161304989Y-129249775D01*
X161557043Y-129145371D01*
X161783886Y-128993799D01*
X161976799Y-128800886D01*
X162128371Y-128574043D01*
X162232775Y-128321989D01*
X162286000Y-128054411D01*
X162286000Y-127781589D01*
X162232775Y-127514011D01*
X162128371Y-127261957D01*
X161976799Y-127035114D01*
X161783886Y-126842201D01*
X161557043Y-126690629D01*
X161304989Y-126586225D01*
X161037411Y-126533000D01*
X160764589Y-126533000D01*
X160497011Y-126586225D01*
X160244957Y-126690629D01*
X160018114Y-126842201D01*
X159825201Y-127035114D01*
X159673629Y-127261957D01*
X159569225Y-127514011D01*
X159516000Y-127781589D01*
X95752439Y-127781589D01*
X95745640Y-115898061D01*
X108140000Y-115898061D01*
X108140000Y-116101939D01*
X108179774Y-116301898D01*
X108257795Y-116490256D01*
X108371063Y-116659774D01*
X108515226Y-116803937D01*
X108684744Y-116917205D01*
X108873102Y-116995226D01*
X109073061Y-117035000D01*
X109276939Y-117035000D01*
X109476898Y-116995226D01*
X109665256Y-116917205D01*
X109834774Y-116803937D01*
X109978937Y-116659774D01*
X110092205Y-116490256D01*
X110170226Y-116301898D01*
X110210000Y-116101939D01*
X110210000Y-115898061D01*
X110170226Y-115698102D01*
X110092205Y-115509744D01*
X109978937Y-115340226D01*
X109834774Y-115196063D01*
X109665256Y-115082795D01*
X109476898Y-115004774D01*
X109276939Y-114965000D01*
X109073061Y-114965000D01*
X108873102Y-115004774D01*
X108684744Y-115082795D01*
X108515226Y-115196063D01*
X108371063Y-115340226D01*
X108257795Y-115509744D01*
X108179774Y-115698102D01*
X108140000Y-115898061D01*
X95745640Y-115898061D01*
X95745033Y-114836363D01*
X120286323Y-114836363D01*
X120289999Y-114873686D01*
X120290000Y-121637669D01*
X120286323Y-121675001D01*
X120300997Y-121823986D01*
X120344453Y-121967247D01*
X120415025Y-122099277D01*
X120459884Y-122153937D01*
X120509999Y-122215002D01*
X120538997Y-122238800D01*
X120740000Y-122439803D01*
X120740000Y-122501941D01*
X120779774Y-122701900D01*
X120857795Y-122890258D01*
X120971063Y-123059776D01*
X121115226Y-123203939D01*
X121284744Y-123317207D01*
X121473102Y-123395228D01*
X121673061Y-123435002D01*
X121876939Y-123435002D01*
X122076898Y-123395228D01*
X122265256Y-123317207D01*
X122434774Y-123203939D01*
X122578937Y-123059776D01*
X122692205Y-122890258D01*
X122770226Y-122701900D01*
X122810000Y-122501941D01*
X122810000Y-122298063D01*
X122770226Y-122098104D01*
X122692205Y-121909746D01*
X122578937Y-121740228D01*
X122434774Y-121596065D01*
X122265256Y-121482797D01*
X122076898Y-121404776D01*
X121876939Y-121365002D01*
X121814801Y-121365002D01*
X121809999Y-121360200D01*
X121809999Y-119198061D01*
X126540000Y-119198061D01*
X126540000Y-119401939D01*
X126579774Y-119601898D01*
X126657795Y-119790256D01*
X126771063Y-119959774D01*
X126915226Y-120103937D01*
X127084744Y-120217205D01*
X127273102Y-120295226D01*
X127473061Y-120335000D01*
X127676939Y-120335000D01*
X127876898Y-120295226D01*
X128065256Y-120217205D01*
X128234774Y-120103937D01*
X128378937Y-119959774D01*
X128492205Y-119790256D01*
X128570226Y-119601898D01*
X128610000Y-119401939D01*
X128610000Y-119372212D01*
X140478000Y-119372212D01*
X140478000Y-119595788D01*
X140521617Y-119815067D01*
X140607176Y-120021624D01*
X140731388Y-120207520D01*
X140889480Y-120365612D01*
X140991830Y-120434000D01*
X140889480Y-120502388D01*
X140731388Y-120660480D01*
X140607176Y-120846376D01*
X140521617Y-121052933D01*
X140478000Y-121272212D01*
X140478000Y-121495788D01*
X140521617Y-121715067D01*
X140607176Y-121921624D01*
X140731388Y-122107520D01*
X140889480Y-122265612D01*
X141075376Y-122389824D01*
X141281933Y-122475383D01*
X141501212Y-122519000D01*
X141724788Y-122519000D01*
X141944067Y-122475383D01*
X142150624Y-122389824D01*
X142336520Y-122265612D01*
X142494612Y-122107520D01*
X142618824Y-121921624D01*
X142704383Y-121715067D01*
X142748000Y-121495788D01*
X142748000Y-121272212D01*
X142704383Y-121052933D01*
X142618824Y-120846376D01*
X142494612Y-120660480D01*
X142336520Y-120502388D01*
X142234170Y-120434000D01*
X142336520Y-120365612D01*
X142494612Y-120207520D01*
X142618824Y-120021624D01*
X142704383Y-119815067D01*
X142748000Y-119595788D01*
X142748000Y-119372212D01*
X142704383Y-119152933D01*
X142618824Y-118946376D01*
X142494612Y-118760480D01*
X142336520Y-118602388D01*
X142150624Y-118478176D01*
X141944067Y-118392617D01*
X141724788Y-118349000D01*
X141501212Y-118349000D01*
X141281933Y-118392617D01*
X141075376Y-118478176D01*
X140889480Y-118602388D01*
X140731388Y-118760480D01*
X140607176Y-118946376D01*
X140521617Y-119152933D01*
X140478000Y-119372212D01*
X128610000Y-119372212D01*
X128610000Y-119198061D01*
X128570226Y-118998102D01*
X128492205Y-118809744D01*
X128378937Y-118640226D01*
X128234774Y-118496063D01*
X128065256Y-118382795D01*
X127876898Y-118304774D01*
X127676939Y-118265000D01*
X127473061Y-118265000D01*
X127273102Y-118304774D01*
X127084744Y-118382795D01*
X126915226Y-118496063D01*
X126771063Y-118640226D01*
X126657795Y-118809744D01*
X126579774Y-118998102D01*
X126540000Y-119198061D01*
X121809999Y-119198061D01*
X121809999Y-117798061D01*
X122240000Y-117798061D01*
X122240000Y-118001939D01*
X122279774Y-118201898D01*
X122357795Y-118390256D01*
X122471063Y-118559774D01*
X122615226Y-118703937D01*
X122784744Y-118817205D01*
X122973102Y-118895226D01*
X123173061Y-118935000D01*
X123376939Y-118935000D01*
X123576898Y-118895226D01*
X123765256Y-118817205D01*
X123934774Y-118703937D01*
X124078937Y-118559774D01*
X124192205Y-118390256D01*
X124270226Y-118201898D01*
X124310000Y-118001939D01*
X124310000Y-117798061D01*
X124270226Y-117598102D01*
X124192205Y-117409744D01*
X124078937Y-117240226D01*
X123934774Y-117096063D01*
X123765256Y-116982795D01*
X123576898Y-116904774D01*
X123376939Y-116865000D01*
X123173061Y-116865000D01*
X122973102Y-116904774D01*
X122784744Y-116982795D01*
X122615226Y-117096063D01*
X122471063Y-117240226D01*
X122357795Y-117409744D01*
X122279774Y-117598102D01*
X122240000Y-117798061D01*
X121809999Y-117798061D01*
X121809999Y-116398061D01*
X133440000Y-116398061D01*
X133440000Y-116601939D01*
X133479774Y-116801898D01*
X133557795Y-116990256D01*
X133671063Y-117159774D01*
X133815226Y-117303937D01*
X133984744Y-117417205D01*
X134173102Y-117495226D01*
X134373061Y-117535000D01*
X134576939Y-117535000D01*
X134776898Y-117495226D01*
X134965256Y-117417205D01*
X135134774Y-117303937D01*
X135278937Y-117159774D01*
X135392205Y-116990256D01*
X135470226Y-116801898D01*
X135510000Y-116601939D01*
X135510000Y-116398061D01*
X138940000Y-116398061D01*
X138940000Y-116601939D01*
X138979774Y-116801898D01*
X139057795Y-116990256D01*
X139171063Y-117159774D01*
X139315226Y-117303937D01*
X139484744Y-117417205D01*
X139673102Y-117495226D01*
X139873061Y-117535000D01*
X140076939Y-117535000D01*
X140276898Y-117495226D01*
X140465256Y-117417205D01*
X140634774Y-117303937D01*
X140778937Y-117159774D01*
X140892205Y-116990256D01*
X140970226Y-116801898D01*
X141010000Y-116601939D01*
X141010000Y-116398061D01*
X143840000Y-116398061D01*
X143840000Y-116601939D01*
X143879774Y-116801898D01*
X143957795Y-116990256D01*
X144071063Y-117159774D01*
X144215226Y-117303937D01*
X144384744Y-117417205D01*
X144573102Y-117495226D01*
X144773061Y-117535000D01*
X144976939Y-117535000D01*
X145176898Y-117495226D01*
X145365256Y-117417205D01*
X145534774Y-117303937D01*
X145678937Y-117159774D01*
X145792205Y-116990256D01*
X145870226Y-116801898D01*
X145910000Y-116601939D01*
X145910000Y-116398061D01*
X145870226Y-116198102D01*
X145792205Y-116009744D01*
X145678937Y-115840226D01*
X145534774Y-115696063D01*
X145365256Y-115582795D01*
X145176898Y-115504774D01*
X144976939Y-115465000D01*
X144773061Y-115465000D01*
X144573102Y-115504774D01*
X144384744Y-115582795D01*
X144215226Y-115696063D01*
X144071063Y-115840226D01*
X143957795Y-116009744D01*
X143879774Y-116198102D01*
X143840000Y-116398061D01*
X141010000Y-116398061D01*
X140970226Y-116198102D01*
X140892205Y-116009744D01*
X140778937Y-115840226D01*
X140634774Y-115696063D01*
X140465256Y-115582795D01*
X140276898Y-115504774D01*
X140076939Y-115465000D01*
X139873061Y-115465000D01*
X139673102Y-115504774D01*
X139484744Y-115582795D01*
X139315226Y-115696063D01*
X139171063Y-115840226D01*
X139057795Y-116009744D01*
X138979774Y-116198102D01*
X138940000Y-116398061D01*
X135510000Y-116398061D01*
X135470226Y-116198102D01*
X135392205Y-116009744D01*
X135278937Y-115840226D01*
X135134774Y-115696063D01*
X134965256Y-115582795D01*
X134776898Y-115504774D01*
X134576939Y-115465000D01*
X134373061Y-115465000D01*
X134173102Y-115504774D01*
X133984744Y-115582795D01*
X133815226Y-115696063D01*
X133671063Y-115840226D01*
X133557795Y-116009744D01*
X133479774Y-116198102D01*
X133440000Y-116398061D01*
X121809999Y-116398061D01*
X121809999Y-116207693D01*
X121876939Y-116207693D01*
X122076898Y-116167919D01*
X122265256Y-116089898D01*
X122434774Y-115976630D01*
X122578937Y-115832467D01*
X122692205Y-115662949D01*
X122770226Y-115474591D01*
X122810000Y-115274632D01*
X122810000Y-115212494D01*
X123362495Y-114660000D01*
X135487652Y-114660000D01*
X135524974Y-114663676D01*
X135562296Y-114660000D01*
X135562307Y-114660000D01*
X135673960Y-114649003D01*
X135817221Y-114605546D01*
X135949250Y-114534974D01*
X136010175Y-114484974D01*
X136076939Y-114484974D01*
X136276898Y-114445200D01*
X136465256Y-114367179D01*
X136634774Y-114253911D01*
X136778937Y-114109748D01*
X136892205Y-113940230D01*
X136970226Y-113751872D01*
X137010000Y-113551913D01*
X137010000Y-113348035D01*
X136972600Y-113160010D01*
X144510209Y-113160010D01*
X151611200Y-120261002D01*
X151634999Y-120290001D01*
X151663997Y-120313799D01*
X151750724Y-120384974D01*
X151882753Y-120455546D01*
X152026014Y-120499003D01*
X152175000Y-120513677D01*
X152212333Y-120510000D01*
X153391033Y-120510000D01*
X153357795Y-120559744D01*
X153279774Y-120748102D01*
X153240000Y-120948061D01*
X153240000Y-121151939D01*
X153279774Y-121351898D01*
X153357795Y-121540256D01*
X153471063Y-121709774D01*
X153615226Y-121853937D01*
X153784744Y-121967205D01*
X153973102Y-122045226D01*
X154173061Y-122085000D01*
X154376939Y-122085000D01*
X154576898Y-122045226D01*
X154765256Y-121967205D01*
X154934774Y-121853937D01*
X155078937Y-121709774D01*
X155192205Y-121540256D01*
X155270226Y-121351898D01*
X155310000Y-121151939D01*
X155310000Y-120948061D01*
X155270226Y-120748102D01*
X155192205Y-120559744D01*
X155158967Y-120510000D01*
X163469198Y-120510000D01*
X163415226Y-120546063D01*
X163271063Y-120690226D01*
X163157795Y-120859744D01*
X163079774Y-121048102D01*
X163040000Y-121248061D01*
X163040000Y-121451939D01*
X163079774Y-121651898D01*
X163157795Y-121840256D01*
X163271063Y-122009774D01*
X163415226Y-122153937D01*
X163584744Y-122267205D01*
X163773102Y-122345226D01*
X163973061Y-122385000D01*
X164176939Y-122385000D01*
X164376898Y-122345226D01*
X164565256Y-122267205D01*
X164734774Y-122153937D01*
X164878937Y-122009774D01*
X164992205Y-121840256D01*
X165070226Y-121651898D01*
X165110000Y-121451939D01*
X165110000Y-121248061D01*
X165070226Y-121048102D01*
X164992205Y-120859744D01*
X164878937Y-120690226D01*
X164734774Y-120546063D01*
X164680802Y-120510000D01*
X168660207Y-120510000D01*
X169140000Y-120989794D01*
X169140000Y-121051931D01*
X169179774Y-121251890D01*
X169257795Y-121440248D01*
X169371063Y-121609766D01*
X169515226Y-121753929D01*
X169684744Y-121867197D01*
X169873102Y-121945218D01*
X170073061Y-121984992D01*
X170276939Y-121984992D01*
X170476898Y-121945218D01*
X170665256Y-121867197D01*
X170834774Y-121753929D01*
X170978937Y-121609766D01*
X171092205Y-121440248D01*
X171170226Y-121251890D01*
X171210000Y-121051931D01*
X171210000Y-120848053D01*
X171170226Y-120648094D01*
X171092205Y-120459736D01*
X171068993Y-120424996D01*
X171092205Y-120390256D01*
X171170226Y-120201898D01*
X171210000Y-120001939D01*
X171210000Y-119798061D01*
X171170226Y-119598102D01*
X171092205Y-119409744D01*
X171068990Y-119375000D01*
X171092205Y-119340256D01*
X171170226Y-119151898D01*
X171210000Y-118951939D01*
X171210000Y-118748061D01*
X171170226Y-118548102D01*
X171092205Y-118359744D01*
X171068986Y-118324994D01*
X171092205Y-118290244D01*
X171170226Y-118101886D01*
X171210000Y-117901927D01*
X171210000Y-117698049D01*
X171170226Y-117498090D01*
X171092205Y-117309732D01*
X171068994Y-117274994D01*
X171092205Y-117240256D01*
X171170226Y-117051898D01*
X171210000Y-116851939D01*
X171210000Y-116648061D01*
X171170226Y-116448102D01*
X171092205Y-116259744D01*
X171068992Y-116225003D01*
X171092209Y-116190256D01*
X171170230Y-116001898D01*
X171210004Y-115801939D01*
X171210004Y-115598061D01*
X171170230Y-115398102D01*
X171092209Y-115209744D01*
X170978941Y-115040226D01*
X170834778Y-114896063D01*
X170665260Y-114782795D01*
X170476902Y-114704774D01*
X170276943Y-114665000D01*
X170073065Y-114665000D01*
X169873106Y-114704774D01*
X169684748Y-114782795D01*
X169515230Y-114896063D01*
X169371067Y-115040226D01*
X169257799Y-115209744D01*
X169179778Y-115398102D01*
X169140004Y-115598061D01*
X169140004Y-115660198D01*
X168310203Y-116490000D01*
X155039802Y-116490000D01*
X150997863Y-112448061D01*
X155890000Y-112448061D01*
X155890000Y-112651939D01*
X155929774Y-112851898D01*
X156007795Y-113040256D01*
X156121063Y-113209774D01*
X156265226Y-113353937D01*
X156434744Y-113467205D01*
X156623102Y-113545226D01*
X156823061Y-113585000D01*
X157026939Y-113585000D01*
X157226898Y-113545226D01*
X157415256Y-113467205D01*
X157584774Y-113353937D01*
X157628711Y-113310000D01*
X158297571Y-113310000D01*
X158290000Y-113348061D01*
X158290000Y-113551939D01*
X158329774Y-113751898D01*
X158407795Y-113940256D01*
X158521063Y-114109774D01*
X158665226Y-114253937D01*
X158834744Y-114367205D01*
X159023102Y-114445226D01*
X159223061Y-114485000D01*
X159426939Y-114485000D01*
X159626898Y-114445226D01*
X159815256Y-114367205D01*
X159984774Y-114253937D01*
X160028711Y-114210000D01*
X164621289Y-114210000D01*
X164665226Y-114253937D01*
X164834744Y-114367205D01*
X165023102Y-114445226D01*
X165223061Y-114485000D01*
X165426939Y-114485000D01*
X165626898Y-114445226D01*
X165815256Y-114367205D01*
X165984774Y-114253937D01*
X166128937Y-114109774D01*
X166242205Y-113940256D01*
X166320226Y-113751898D01*
X166360000Y-113551939D01*
X166360000Y-113348061D01*
X166320226Y-113148102D01*
X166242205Y-112959744D01*
X166128937Y-112790226D01*
X165984774Y-112646063D01*
X165878420Y-112575000D01*
X165984774Y-112503937D01*
X166128937Y-112359774D01*
X166242205Y-112190256D01*
X166320226Y-112001898D01*
X166360000Y-111801939D01*
X166360000Y-111598061D01*
X166320226Y-111398102D01*
X166242205Y-111209744D01*
X166128937Y-111040226D01*
X165984774Y-110896063D01*
X165815256Y-110782795D01*
X165626898Y-110704774D01*
X165426939Y-110665000D01*
X165223061Y-110665000D01*
X165023102Y-110704774D01*
X164834744Y-110782795D01*
X164665226Y-110896063D01*
X164521063Y-111040226D01*
X164407795Y-111209744D01*
X164329774Y-111398102D01*
X164290000Y-111598061D01*
X164290000Y-111660199D01*
X164160199Y-111790000D01*
X157628711Y-111790000D01*
X157584774Y-111746063D01*
X157415256Y-111632795D01*
X157226898Y-111554774D01*
X157026939Y-111515000D01*
X156823061Y-111515000D01*
X156623102Y-111554774D01*
X156434744Y-111632795D01*
X156265226Y-111746063D01*
X156121063Y-111890226D01*
X156007795Y-112059744D01*
X155929774Y-112248102D01*
X155890000Y-112448061D01*
X150997863Y-112448061D01*
X148110000Y-109560199D01*
X148110000Y-109498061D01*
X148070226Y-109298102D01*
X147992205Y-109109744D01*
X147878937Y-108940226D01*
X147734774Y-108796063D01*
X147565256Y-108682795D01*
X147376898Y-108604774D01*
X147176939Y-108565000D01*
X147114802Y-108565000D01*
X145759801Y-107210000D01*
X152060199Y-107210000D01*
X152840000Y-107989802D01*
X152840000Y-108051939D01*
X152879774Y-108251898D01*
X152957795Y-108440256D01*
X153071063Y-108609774D01*
X153215226Y-108753937D01*
X153384744Y-108867205D01*
X153573102Y-108945226D01*
X153773061Y-108985000D01*
X153976939Y-108985000D01*
X154176898Y-108945226D01*
X154365256Y-108867205D01*
X154534774Y-108753937D01*
X154678937Y-108609774D01*
X154792205Y-108440256D01*
X154870226Y-108251898D01*
X154910000Y-108051939D01*
X154910000Y-107848061D01*
X154870226Y-107648102D01*
X154792205Y-107459744D01*
X154678937Y-107290226D01*
X154534774Y-107146063D01*
X154365256Y-107032795D01*
X154176898Y-106954774D01*
X153976939Y-106915000D01*
X153914802Y-106915000D01*
X153106756Y-106106955D01*
X153165650Y-106048061D01*
X157590000Y-106048061D01*
X157590000Y-106251939D01*
X157629774Y-106451898D01*
X157707795Y-106640256D01*
X157821063Y-106809774D01*
X157965226Y-106953937D01*
X158134744Y-107067205D01*
X158323102Y-107145226D01*
X158523061Y-107185000D01*
X158726939Y-107185000D01*
X158926898Y-107145226D01*
X159115256Y-107067205D01*
X159284774Y-106953937D01*
X159428937Y-106809774D01*
X159542205Y-106640256D01*
X159620226Y-106451898D01*
X159660000Y-106251939D01*
X159660000Y-106048061D01*
X159620226Y-105848102D01*
X159542205Y-105659744D01*
X159428937Y-105490226D01*
X159284774Y-105346063D01*
X159115256Y-105232795D01*
X158926898Y-105154774D01*
X158726939Y-105115000D01*
X158523061Y-105115000D01*
X158323102Y-105154774D01*
X158134744Y-105232795D01*
X157965226Y-105346063D01*
X157821063Y-105490226D01*
X157707795Y-105659744D01*
X157629774Y-105848102D01*
X157590000Y-106048061D01*
X153165650Y-106048061D01*
X153228937Y-105984774D01*
X153342205Y-105815256D01*
X153420226Y-105626898D01*
X153460000Y-105426939D01*
X153460000Y-105223061D01*
X153435137Y-105098061D01*
X166440000Y-105098061D01*
X166440000Y-105301939D01*
X166479774Y-105501898D01*
X166557795Y-105690256D01*
X166671063Y-105859774D01*
X166811289Y-106000000D01*
X166671063Y-106140226D01*
X166557795Y-106309744D01*
X166479774Y-106498102D01*
X166440000Y-106698061D01*
X166440000Y-106901939D01*
X166479774Y-107101898D01*
X166557795Y-107290256D01*
X166671063Y-107459774D01*
X166815226Y-107603937D01*
X166984744Y-107717205D01*
X167173102Y-107795226D01*
X167373061Y-107835000D01*
X167576939Y-107835000D01*
X167776898Y-107795226D01*
X167965256Y-107717205D01*
X168134774Y-107603937D01*
X168278937Y-107459774D01*
X168392205Y-107290256D01*
X168470226Y-107101898D01*
X168510000Y-106901939D01*
X168510000Y-106698061D01*
X168470226Y-106498102D01*
X168392205Y-106309744D01*
X168278937Y-106140226D01*
X168138711Y-106000000D01*
X168278937Y-105859774D01*
X168392205Y-105690256D01*
X168470226Y-105501898D01*
X168510000Y-105301939D01*
X168510000Y-105098061D01*
X168470226Y-104898102D01*
X168392205Y-104709744D01*
X168278937Y-104540226D01*
X168134774Y-104396063D01*
X167965256Y-104282795D01*
X167776898Y-104204774D01*
X167576939Y-104165000D01*
X167373061Y-104165000D01*
X167173102Y-104204774D01*
X166984744Y-104282795D01*
X166815226Y-104396063D01*
X166671063Y-104540226D01*
X166557795Y-104709744D01*
X166479774Y-104898102D01*
X166440000Y-105098061D01*
X153435137Y-105098061D01*
X153420226Y-105023102D01*
X153342205Y-104834744D01*
X153228937Y-104665226D01*
X153084774Y-104521063D01*
X152915256Y-104407795D01*
X152726898Y-104329774D01*
X152526939Y-104290000D01*
X152323061Y-104290000D01*
X152123102Y-104329774D01*
X151934744Y-104407795D01*
X151765226Y-104521063D01*
X151621063Y-104665226D01*
X151507795Y-104834744D01*
X151429774Y-105023102D01*
X151390000Y-105223061D01*
X151390000Y-105426939D01*
X151429774Y-105626898D01*
X151455912Y-105690000D01*
X122262322Y-105690000D01*
X122224999Y-105686324D01*
X122187676Y-105690000D01*
X122187667Y-105690000D01*
X122076014Y-105700997D01*
X121932753Y-105744454D01*
X121800723Y-105815026D01*
X121760421Y-105848102D01*
X121739830Y-105865000D01*
X121673061Y-105865000D01*
X121473102Y-105904774D01*
X121284744Y-105982795D01*
X121115226Y-106096063D01*
X120971063Y-106240226D01*
X120857795Y-106409744D01*
X120779774Y-106598102D01*
X120740000Y-106798061D01*
X120740000Y-107001939D01*
X120779774Y-107201898D01*
X120857795Y-107390256D01*
X120897716Y-107450001D01*
X120857797Y-107509744D01*
X120779776Y-107698102D01*
X120740002Y-107898061D01*
X120740002Y-108101939D01*
X120779776Y-108301898D01*
X120857797Y-108490256D01*
X120971065Y-108659774D01*
X121115228Y-108803937D01*
X121284746Y-108917205D01*
X121473104Y-108995226D01*
X121673063Y-109035000D01*
X121876941Y-109035000D01*
X122076900Y-108995226D01*
X122265258Y-108917205D01*
X122434776Y-108803937D01*
X122478713Y-108760000D01*
X131140000Y-108760000D01*
X131140000Y-108826949D01*
X131179774Y-109026908D01*
X131257795Y-109215266D01*
X131264310Y-109225017D01*
X131257795Y-109234767D01*
X131179774Y-109423125D01*
X131140000Y-109623084D01*
X131140000Y-109826962D01*
X131179774Y-110026921D01*
X131257795Y-110215279D01*
X131289357Y-110262515D01*
X131257795Y-110309750D01*
X131179774Y-110498108D01*
X131140000Y-110698067D01*
X131140000Y-110901945D01*
X131142595Y-110914990D01*
X122810000Y-110914990D01*
X122810000Y-110898057D01*
X122770226Y-110698098D01*
X122692205Y-110509740D01*
X122578937Y-110340222D01*
X122434774Y-110196059D01*
X122265256Y-110082791D01*
X122076898Y-110004770D01*
X121876939Y-109964996D01*
X121673061Y-109964996D01*
X121473102Y-110004770D01*
X121284744Y-110082791D01*
X121115226Y-110196059D01*
X120971063Y-110340222D01*
X120857795Y-110509740D01*
X120779774Y-110698098D01*
X120740000Y-110898057D01*
X120740000Y-111101935D01*
X120779774Y-111301894D01*
X120857795Y-111490252D01*
X120894743Y-111545549D01*
X120844090Y-111621358D01*
X120766069Y-111809716D01*
X120726295Y-112009675D01*
X120726295Y-112213553D01*
X120766069Y-112413512D01*
X120844090Y-112601870D01*
X120861164Y-112627423D01*
X120785730Y-112809534D01*
X120745956Y-113009493D01*
X120745956Y-113213371D01*
X120785730Y-113413330D01*
X120863751Y-113601688D01*
X120867250Y-113606924D01*
X120857731Y-113621170D01*
X120779710Y-113809528D01*
X120739936Y-114009487D01*
X120739936Y-114071625D01*
X120539001Y-114272560D01*
X120509998Y-114296362D01*
X120454870Y-114363537D01*
X120415025Y-114412087D01*
X120414364Y-114413324D01*
X120344453Y-114544117D01*
X120300996Y-114687378D01*
X120289999Y-114799031D01*
X120289999Y-114799041D01*
X120286323Y-114836363D01*
X95745033Y-114836363D01*
X95744267Y-113498061D01*
X114840000Y-113498061D01*
X114840000Y-113701939D01*
X114879774Y-113901898D01*
X114957795Y-114090256D01*
X115071063Y-114259774D01*
X115215226Y-114403937D01*
X115384744Y-114517205D01*
X115573102Y-114595226D01*
X115773061Y-114635000D01*
X115976939Y-114635000D01*
X116176898Y-114595226D01*
X116365256Y-114517205D01*
X116534774Y-114403937D01*
X116678937Y-114259774D01*
X116792205Y-114090256D01*
X116870226Y-113901898D01*
X116910000Y-113701939D01*
X116910000Y-113498061D01*
X116870226Y-113298102D01*
X116792205Y-113109744D01*
X116678937Y-112940226D01*
X116534774Y-112796063D01*
X116365256Y-112682795D01*
X116176898Y-112604774D01*
X115976939Y-112565000D01*
X115773061Y-112565000D01*
X115573102Y-112604774D01*
X115384744Y-112682795D01*
X115215226Y-112796063D01*
X115071063Y-112940226D01*
X114957795Y-113109744D01*
X114879774Y-113298102D01*
X114840000Y-113498061D01*
X95744267Y-113498061D01*
X95742436Y-110298061D01*
X108040000Y-110298061D01*
X108040000Y-110501939D01*
X108079774Y-110701898D01*
X108157795Y-110890256D01*
X108271063Y-111059774D01*
X108415226Y-111203937D01*
X108584744Y-111317205D01*
X108773102Y-111395226D01*
X108973061Y-111435000D01*
X109176939Y-111435000D01*
X109376898Y-111395226D01*
X109565256Y-111317205D01*
X109734774Y-111203937D01*
X109878937Y-111059774D01*
X109992205Y-110890256D01*
X110070226Y-110701898D01*
X110110000Y-110501939D01*
X110110000Y-110298061D01*
X110070226Y-110098102D01*
X109992205Y-109909744D01*
X109878937Y-109740226D01*
X109734774Y-109596063D01*
X109565256Y-109482795D01*
X109376898Y-109404774D01*
X109176939Y-109365000D01*
X108973061Y-109365000D01*
X108773102Y-109404774D01*
X108584744Y-109482795D01*
X108415226Y-109596063D01*
X108271063Y-109740226D01*
X108157795Y-109909744D01*
X108079774Y-110098102D01*
X108040000Y-110298061D01*
X95742436Y-110298061D01*
X95739061Y-104398061D01*
X136240000Y-104398061D01*
X136240000Y-104601939D01*
X136279774Y-104801898D01*
X136357795Y-104990256D01*
X136471063Y-105159774D01*
X136615226Y-105303937D01*
X136784744Y-105417205D01*
X136973102Y-105495226D01*
X137173061Y-105535000D01*
X137376939Y-105535000D01*
X137576898Y-105495226D01*
X137765256Y-105417205D01*
X137934774Y-105303937D01*
X138078937Y-105159774D01*
X138192205Y-104990256D01*
X138270226Y-104801898D01*
X138310000Y-104601939D01*
X138310000Y-104398061D01*
X145240000Y-104398061D01*
X145240000Y-104601939D01*
X145279774Y-104801898D01*
X145357795Y-104990256D01*
X145471063Y-105159774D01*
X145615226Y-105303937D01*
X145784744Y-105417205D01*
X145973102Y-105495226D01*
X146173061Y-105535000D01*
X146376939Y-105535000D01*
X146576898Y-105495226D01*
X146765256Y-105417205D01*
X146934774Y-105303937D01*
X147078937Y-105159774D01*
X147192205Y-104990256D01*
X147270226Y-104801898D01*
X147310000Y-104601939D01*
X147310000Y-104398061D01*
X147270226Y-104198102D01*
X147192205Y-104009744D01*
X147078937Y-103840226D01*
X146934774Y-103696063D01*
X146765256Y-103582795D01*
X146576898Y-103504774D01*
X146376939Y-103465000D01*
X146173061Y-103465000D01*
X145973102Y-103504774D01*
X145784744Y-103582795D01*
X145615226Y-103696063D01*
X145471063Y-103840226D01*
X145357795Y-104009744D01*
X145279774Y-104198102D01*
X145240000Y-104398061D01*
X138310000Y-104398061D01*
X138270226Y-104198102D01*
X138192205Y-104009744D01*
X138078937Y-103840226D01*
X137934774Y-103696063D01*
X137765256Y-103582795D01*
X137576898Y-103504774D01*
X137376939Y-103465000D01*
X137173061Y-103465000D01*
X136973102Y-103504774D01*
X136784744Y-103582795D01*
X136615226Y-103696063D01*
X136471063Y-103840226D01*
X136357795Y-104009744D01*
X136279774Y-104198102D01*
X136240000Y-104398061D01*
X95739061Y-104398061D01*
X95737001Y-100798061D01*
X109340000Y-100798061D01*
X109340000Y-101001939D01*
X109379774Y-101201898D01*
X109457795Y-101390256D01*
X109571063Y-101559774D01*
X109715226Y-101703937D01*
X109884744Y-101817205D01*
X110073102Y-101895226D01*
X110273061Y-101935000D01*
X110476939Y-101935000D01*
X110676898Y-101895226D01*
X110865256Y-101817205D01*
X111034774Y-101703937D01*
X111178937Y-101559774D01*
X111292205Y-101390256D01*
X111370226Y-101201898D01*
X111410000Y-101001939D01*
X111410000Y-100798061D01*
X111370226Y-100598102D01*
X111292205Y-100409744D01*
X111178937Y-100240226D01*
X111034774Y-100096063D01*
X110865256Y-99982795D01*
X110676898Y-99904774D01*
X110476939Y-99865000D01*
X110273061Y-99865000D01*
X110073102Y-99904774D01*
X109884744Y-99982795D01*
X109715226Y-100096063D01*
X109571063Y-100240226D01*
X109457795Y-100409744D01*
X109379774Y-100598102D01*
X109340000Y-100798061D01*
X95737001Y-100798061D01*
X95735972Y-98998061D01*
X112540000Y-98998061D01*
X112540000Y-99201939D01*
X112579774Y-99401898D01*
X112657795Y-99590256D01*
X112771063Y-99759774D01*
X112915226Y-99903937D01*
X113084744Y-100017205D01*
X113273102Y-100095226D01*
X113473061Y-100135000D01*
X113676939Y-100135000D01*
X113876898Y-100095226D01*
X114065256Y-100017205D01*
X114234774Y-99903937D01*
X114378937Y-99759774D01*
X114492205Y-99590256D01*
X114570226Y-99401898D01*
X114610000Y-99201939D01*
X114610000Y-98998061D01*
X114570226Y-98798102D01*
X114492205Y-98609744D01*
X114378937Y-98440226D01*
X114234774Y-98296063D01*
X114065256Y-98182795D01*
X113876898Y-98104774D01*
X113676939Y-98065000D01*
X113473061Y-98065000D01*
X113273102Y-98104774D01*
X113084744Y-98182795D01*
X112915226Y-98296063D01*
X112771063Y-98440226D01*
X112657795Y-98609744D01*
X112579774Y-98798102D01*
X112540000Y-98998061D01*
X95735972Y-98998061D01*
X95735377Y-97960000D01*
X180415001Y-97960000D01*
X180415000Y-107767721D01*
G37*
%TD.AperFunction*%
%TD*%
M02*
