%TF.GenerationSoftware,KiCad,Pcbnew,5.1.9+dfsg1-1~bpo10+1*%
%TF.CreationDate,2021-08-18T21:17:38+08:00*%
%TF.ProjectId,epd-clock,6570642d-636c-46f6-936b-2e6b69636164,rev?*%
%TF.SameCoordinates,Original*%
%TF.FileFunction,Legend,Bot*%
%TF.FilePolarity,Positive*%
%FSLAX46Y46*%
G04 Gerber Fmt 4.6, Leading zero omitted, Abs format (unit mm)*
G04 Created by KiCad (PCBNEW 5.1.9+dfsg1-1~bpo10+1) date 2021-08-18 21:17:38*
%MOMM*%
%LPD*%
G01*
G04 APERTURE LIST*
%ADD10C,0.150000*%
%ADD11C,0.200000*%
%ADD12C,0.120000*%
%ADD13C,0.500000*%
G04 APERTURE END LIST*
D10*
X167127380Y-110661904D02*
X167175000Y-110614285D01*
X167222619Y-110519047D01*
X167222619Y-110280952D01*
X167175000Y-110185714D01*
X167127380Y-110138095D01*
X167032142Y-110090476D01*
X166936904Y-110090476D01*
X166794047Y-110138095D01*
X166222619Y-110709523D01*
X166222619Y-110090476D01*
X166889285Y-109233333D02*
X166222619Y-109233333D01*
X167270238Y-109471428D02*
X166555952Y-109709523D01*
X166555952Y-109090476D01*
X166222619Y-125714285D02*
X166222619Y-126285714D01*
X166222619Y-126000000D02*
X167222619Y-126000000D01*
X167079761Y-126095238D01*
X166984523Y-126190476D01*
X166936904Y-126285714D01*
D11*
X146465476Y-126504761D02*
X146322619Y-126552380D01*
X146084523Y-126552380D01*
X145989285Y-126504761D01*
X145941666Y-126457142D01*
X145894047Y-126361904D01*
X145894047Y-126266666D01*
X145941666Y-126171428D01*
X145989285Y-126123809D01*
X146084523Y-126076190D01*
X146275000Y-126028571D01*
X146370238Y-125980952D01*
X146417857Y-125933333D01*
X146465476Y-125838095D01*
X146465476Y-125742857D01*
X146417857Y-125647619D01*
X146370238Y-125600000D01*
X146275000Y-125552380D01*
X146036904Y-125552380D01*
X145894047Y-125600000D01*
X144894047Y-126457142D02*
X144941666Y-126504761D01*
X145084523Y-126552380D01*
X145179761Y-126552380D01*
X145322619Y-126504761D01*
X145417857Y-126409523D01*
X145465476Y-126314285D01*
X145513095Y-126123809D01*
X145513095Y-125980952D01*
X145465476Y-125790476D01*
X145417857Y-125695238D01*
X145322619Y-125600000D01*
X145179761Y-125552380D01*
X145084523Y-125552380D01*
X144941666Y-125600000D01*
X144894047Y-125647619D01*
X143989285Y-126552380D02*
X144465476Y-126552380D01*
X144465476Y-125552380D01*
X149589285Y-126504761D02*
X149446428Y-126552380D01*
X149208333Y-126552380D01*
X149113095Y-126504761D01*
X149065476Y-126457142D01*
X149017857Y-126361904D01*
X149017857Y-126266666D01*
X149065476Y-126171428D01*
X149113095Y-126123809D01*
X149208333Y-126076190D01*
X149398809Y-126028571D01*
X149494047Y-125980952D01*
X149541666Y-125933333D01*
X149589285Y-125838095D01*
X149589285Y-125742857D01*
X149541666Y-125647619D01*
X149494047Y-125600000D01*
X149398809Y-125552380D01*
X149160714Y-125552380D01*
X149017857Y-125600000D01*
X148589285Y-126552380D02*
X148589285Y-125552380D01*
X148351190Y-125552380D01*
X148208333Y-125600000D01*
X148113095Y-125695238D01*
X148065476Y-125790476D01*
X148017857Y-125980952D01*
X148017857Y-126123809D01*
X148065476Y-126314285D01*
X148113095Y-126409523D01*
X148208333Y-126504761D01*
X148351190Y-126552380D01*
X148589285Y-126552380D01*
X147636904Y-126266666D02*
X147160714Y-126266666D01*
X147732142Y-126552380D02*
X147398809Y-125552380D01*
X147065476Y-126552380D01*
D10*
X115146428Y-125628571D02*
X115003571Y-125676190D01*
X114955952Y-125723809D01*
X114908333Y-125819047D01*
X114908333Y-125961904D01*
X114955952Y-126057142D01*
X115003571Y-126104761D01*
X115098809Y-126152380D01*
X115479761Y-126152380D01*
X115479761Y-125152380D01*
X115146428Y-125152380D01*
X115051190Y-125200000D01*
X115003571Y-125247619D01*
X114955952Y-125342857D01*
X114955952Y-125438095D01*
X115003571Y-125533333D01*
X115051190Y-125580952D01*
X115146428Y-125628571D01*
X115479761Y-125628571D01*
X114051190Y-126152380D02*
X114051190Y-125628571D01*
X114098809Y-125533333D01*
X114194047Y-125485714D01*
X114384523Y-125485714D01*
X114479761Y-125533333D01*
X114051190Y-126104761D02*
X114146428Y-126152380D01*
X114384523Y-126152380D01*
X114479761Y-126104761D01*
X114527380Y-126009523D01*
X114527380Y-125914285D01*
X114479761Y-125819047D01*
X114384523Y-125771428D01*
X114146428Y-125771428D01*
X114051190Y-125723809D01*
X113717857Y-125485714D02*
X113336904Y-125485714D01*
X113575000Y-125152380D02*
X113575000Y-126009523D01*
X113527380Y-126104761D01*
X113432142Y-126152380D01*
X113336904Y-126152380D01*
X113146428Y-125485714D02*
X112765476Y-125485714D01*
X113003571Y-125152380D02*
X113003571Y-126009523D01*
X112955952Y-126104761D01*
X112860714Y-126152380D01*
X112765476Y-126152380D01*
X112051190Y-126104761D02*
X112146428Y-126152380D01*
X112336904Y-126152380D01*
X112432142Y-126104761D01*
X112479761Y-126009523D01*
X112479761Y-125628571D01*
X112432142Y-125533333D01*
X112336904Y-125485714D01*
X112146428Y-125485714D01*
X112051190Y-125533333D01*
X112003571Y-125628571D01*
X112003571Y-125723809D01*
X112479761Y-125819047D01*
X111575000Y-126152380D02*
X111575000Y-125485714D01*
X111575000Y-125676190D02*
X111527380Y-125580952D01*
X111479761Y-125533333D01*
X111384523Y-125485714D01*
X111289285Y-125485714D01*
X111051190Y-125485714D02*
X110813095Y-126152380D01*
X110575000Y-125485714D02*
X110813095Y-126152380D01*
X110908333Y-126390476D01*
X110955952Y-126438095D01*
X111051190Y-126485714D01*
X110194047Y-125771428D02*
X109432142Y-125771428D01*
X109098809Y-125152380D02*
X108527380Y-125152380D01*
X108813095Y-126152380D02*
X108813095Y-125152380D01*
X108194047Y-126152380D02*
X108194047Y-125152380D01*
X107813095Y-125152380D01*
X107717857Y-125200000D01*
X107670238Y-125247619D01*
X107622619Y-125342857D01*
X107622619Y-125485714D01*
X107670238Y-125580952D01*
X107717857Y-125628571D01*
X107813095Y-125676190D01*
X108194047Y-125676190D01*
D11*
X116937690Y-101988240D02*
X116499957Y-101550507D01*
X116466286Y-102055583D01*
X116365270Y-101954568D01*
X116264255Y-101920896D01*
X116196912Y-101920896D01*
X116095896Y-101954568D01*
X115927538Y-102122927D01*
X115893866Y-102223942D01*
X115893866Y-102291286D01*
X115927538Y-102392301D01*
X116129568Y-102594331D01*
X116230583Y-102628003D01*
X116297927Y-102628003D01*
X116297927Y-101348477D02*
X115355118Y-101819881D01*
X115826522Y-100877072D01*
X115658164Y-100708713D02*
X115220431Y-100270981D01*
X115186759Y-100776057D01*
X115085744Y-100675042D01*
X114984729Y-100641370D01*
X114917385Y-100641370D01*
X114816370Y-100675042D01*
X114648011Y-100843400D01*
X114614339Y-100944416D01*
X114614339Y-101011759D01*
X114648011Y-101112774D01*
X114850042Y-101314805D01*
X114951057Y-101348477D01*
X115018400Y-101348477D01*
X119267301Y-101685194D02*
X119368316Y-101718866D01*
X119469331Y-101819881D01*
X119536675Y-101954568D01*
X119536675Y-102089255D01*
X119503003Y-102190270D01*
X119401988Y-102358629D01*
X119300973Y-102459644D01*
X119132614Y-102560660D01*
X119031599Y-102594331D01*
X118896912Y-102594331D01*
X118762225Y-102526988D01*
X118694881Y-102459644D01*
X118627538Y-102324957D01*
X118627538Y-102257614D01*
X118863240Y-102021912D01*
X118997927Y-102156599D01*
X118257148Y-102021912D02*
X118964255Y-101314805D01*
X117853087Y-101617851D01*
X118560194Y-100910744D01*
X117516370Y-101281133D02*
X118223477Y-100574026D01*
X118055118Y-100405668D01*
X117920431Y-100338324D01*
X117785744Y-100338324D01*
X117684729Y-100371996D01*
X117516370Y-100473011D01*
X117415355Y-100574026D01*
X117314339Y-100742385D01*
X117280668Y-100843400D01*
X117280668Y-100978087D01*
X117348011Y-101112774D01*
X117516370Y-101281133D01*
X121954526Y-101905076D02*
X121550465Y-101501015D01*
X121045389Y-102410152D02*
X121752496Y-101703045D01*
X121382106Y-101332656D02*
X120203595Y-101568358D01*
X120910702Y-100861251D02*
X120675000Y-102039763D01*
X119934221Y-101298984D02*
X120641328Y-100591877D01*
X120472969Y-100423519D01*
X120338282Y-100356175D01*
X120203595Y-100356175D01*
X120102580Y-100389847D01*
X119934221Y-100490862D01*
X119833206Y-100591877D01*
X119732190Y-100760236D01*
X119698519Y-100861251D01*
X119698519Y-100995938D01*
X119765862Y-101130625D01*
X119934221Y-101298984D01*
X123426522Y-102291286D02*
X123998942Y-102190270D01*
X123830583Y-102695347D02*
X124537690Y-101988240D01*
X124268316Y-101718866D01*
X124167301Y-101685194D01*
X124099957Y-101685194D01*
X123998942Y-101718866D01*
X123897927Y-101819881D01*
X123864255Y-101920896D01*
X123864255Y-101988240D01*
X123897927Y-102089255D01*
X124167301Y-102358629D01*
X123897927Y-101348477D02*
X122719416Y-101584179D01*
X123426522Y-100877072D02*
X123190820Y-102055583D01*
X122450042Y-101314805D02*
X123157148Y-100607698D01*
X122988790Y-100439339D01*
X122854103Y-100371996D01*
X122719416Y-100371996D01*
X122618400Y-100405668D01*
X122450042Y-100506683D01*
X122349026Y-100607698D01*
X122248011Y-100776057D01*
X122214339Y-100877072D01*
X122214339Y-101011759D01*
X122281683Y-101146446D01*
X122450042Y-101314805D01*
X127490228Y-102540778D02*
X127086167Y-102136717D01*
X126581091Y-103045854D02*
X127288198Y-102338748D01*
X126513748Y-102237732D02*
X126278045Y-102002030D01*
X125806641Y-102271404D02*
X126143358Y-102608122D01*
X126850465Y-101901015D01*
X126513748Y-101564297D01*
X125570938Y-101968358D02*
X125436251Y-101901015D01*
X125267893Y-101732656D01*
X125234221Y-101631641D01*
X125234221Y-101564297D01*
X125267893Y-101463282D01*
X125335236Y-101395938D01*
X125436251Y-101362267D01*
X125503595Y-101362267D01*
X125604610Y-101395938D01*
X125772969Y-101496954D01*
X125873984Y-101530625D01*
X125941328Y-101530625D01*
X126042343Y-101496954D01*
X126109687Y-101429610D01*
X126143358Y-101328595D01*
X126143358Y-101261251D01*
X126109687Y-101160236D01*
X125941328Y-100991877D01*
X125806641Y-100924534D01*
X125638282Y-100688832D02*
X125234221Y-100284771D01*
X124729145Y-101193908D02*
X125436251Y-100486801D01*
X128342343Y-102307106D02*
X128914763Y-102206091D01*
X128746404Y-102711167D02*
X129453511Y-102004061D01*
X129184137Y-101734687D01*
X129083122Y-101701015D01*
X129015778Y-101701015D01*
X128914763Y-101734687D01*
X128813748Y-101835702D01*
X128780076Y-101936717D01*
X128780076Y-102004061D01*
X128813748Y-102105076D01*
X129083122Y-102374450D01*
X128106641Y-102004061D02*
X127971954Y-101936717D01*
X127803595Y-101768358D01*
X127769923Y-101667343D01*
X127769923Y-101600000D01*
X127803595Y-101498984D01*
X127870938Y-101431641D01*
X127971954Y-101397969D01*
X128039297Y-101397969D01*
X128140312Y-101431641D01*
X128308671Y-101532656D01*
X128409687Y-101566328D01*
X128477030Y-101566328D01*
X128578045Y-101532656D01*
X128645389Y-101465312D01*
X128679061Y-101364297D01*
X128679061Y-101296954D01*
X128645389Y-101195938D01*
X128477030Y-101027580D01*
X128342343Y-100960236D01*
X128173984Y-100724534D02*
X127769923Y-100320473D01*
X127264847Y-101229610D02*
X127971954Y-100522503D01*
D12*
%TO.C,TP8*%
X148775000Y-124400000D02*
G75*
G03*
X148775000Y-124400000I-700000J0D01*
G01*
%TO.C,TP7*%
X146175000Y-124400000D02*
G75*
G03*
X146175000Y-124400000I-700000J0D01*
G01*
%TO.C,R12*%
X129812258Y-104677500D02*
X129337742Y-104677500D01*
X129812258Y-105722500D02*
X129337742Y-105722500D01*
%TO.C,Q3*%
X158815000Y-124480000D02*
X158815000Y-123070000D01*
X161135000Y-123070000D02*
X161135000Y-125100000D01*
X161135000Y-123070000D02*
X160475000Y-123070000D01*
X159475000Y-123070000D02*
X158815000Y-123070000D01*
%TO.C,R3*%
X162837742Y-124277500D02*
X163312258Y-124277500D01*
X162837742Y-125322500D02*
X163312258Y-125322500D01*
%TO.C,R9*%
X137837742Y-106622500D02*
X138312258Y-106622500D01*
X137837742Y-105577500D02*
X138312258Y-105577500D01*
%TO.C,R8*%
X144512258Y-107177500D02*
X144037742Y-107177500D01*
X144512258Y-108222500D02*
X144037742Y-108222500D01*
%TO.C,R7*%
X144512258Y-105577500D02*
X144037742Y-105577500D01*
X144512258Y-106622500D02*
X144037742Y-106622500D01*
%TO.C,R2*%
X153352500Y-108762742D02*
X153352500Y-109237258D01*
X154397500Y-108762742D02*
X154397500Y-109237258D01*
%TO.C,C10*%
X155534420Y-120110000D02*
X155815580Y-120110000D01*
X155534420Y-119090000D02*
X155815580Y-119090000D01*
%TO.C,L2*%
X153621000Y-121046000D02*
X153621000Y-125354000D01*
X157929000Y-125354000D02*
X157929000Y-121046000D01*
%TO.C,J1*%
X171115000Y-109273000D02*
X171115000Y-109163000D01*
X171115000Y-109163000D02*
X171715000Y-109163000D01*
X171115000Y-126703000D02*
X171115000Y-126813000D01*
X171115000Y-126813000D02*
X171715000Y-126813000D01*
X168525000Y-112038000D02*
X168925000Y-112238000D01*
X168925000Y-112238000D02*
X168525000Y-112438000D01*
X168525000Y-112438000D02*
X168525000Y-112038000D01*
%TO.C,R4*%
X162837742Y-122477500D02*
X163312258Y-122477500D01*
X162837742Y-123522500D02*
X163312258Y-123522500D01*
%TO.C,R18*%
X139412258Y-118222500D02*
X138937742Y-118222500D01*
X139412258Y-117177500D02*
X138937742Y-117177500D01*
%TO.C,R11*%
X129812258Y-103077500D02*
X129337742Y-103077500D01*
X129812258Y-104122500D02*
X129337742Y-104122500D01*
%TO.C,JP2*%
X113075000Y-114600000D02*
X114475000Y-114600000D01*
X115175000Y-113900000D02*
X115175000Y-113300000D01*
X114475000Y-112600000D02*
X113075000Y-112600000D01*
X112375000Y-113300000D02*
X112375000Y-113900000D01*
X112375000Y-113900000D02*
G75*
G03*
X113075000Y-114600000I700000J0D01*
G01*
X113075000Y-112600000D02*
G75*
G03*
X112375000Y-113300000I0J-700000D01*
G01*
X115175000Y-113300000D02*
G75*
G03*
X114475000Y-112600000I-700000J0D01*
G01*
X114475000Y-114600000D02*
G75*
G03*
X115175000Y-113900000I0J700000D01*
G01*
%TO.C,C2*%
X116665000Y-118511252D02*
X116665000Y-117088748D01*
X118485000Y-118511252D02*
X118485000Y-117088748D01*
%TO.C,BT1*%
X163401000Y-127018000D02*
X109001000Y-127018000D01*
X109001000Y-127018000D02*
X109001000Y-139518000D01*
X109001000Y-139518000D02*
X163401000Y-139518000D01*
X163401000Y-139518000D02*
X163401000Y-127018000D01*
%TO.C,JP1*%
X118375000Y-123300000D02*
X118375000Y-121900000D01*
X117675000Y-121200000D02*
X117075000Y-121200000D01*
X116375000Y-121900000D02*
X116375000Y-123300000D01*
X117075000Y-124000000D02*
X117675000Y-124000000D01*
X117675000Y-124000000D02*
G75*
G03*
X118375000Y-123300000I0J700000D01*
G01*
X116375000Y-123300000D02*
G75*
G03*
X117075000Y-124000000I700000J0D01*
G01*
X117075000Y-121200000D02*
G75*
G03*
X116375000Y-121900000I0J-700000D01*
G01*
X118375000Y-121900000D02*
G75*
G03*
X117675000Y-121200000I-700000J0D01*
G01*
%TO.C,TP6*%
X120975000Y-99100000D02*
G75*
G03*
X120975000Y-99100000I-700000J0D01*
G01*
%TO.C,TP5*%
X123475000Y-99100000D02*
G75*
G03*
X123475000Y-99100000I-700000J0D01*
G01*
%TO.C,TP4*%
X125975000Y-99100000D02*
G75*
G03*
X125975000Y-99100000I-700000J0D01*
G01*
%TO.C,TP3*%
X128475000Y-99100000D02*
G75*
G03*
X128475000Y-99100000I-700000J0D01*
G01*
%TO.C,TP2*%
X118475000Y-99100000D02*
G75*
G03*
X118475000Y-99100000I-700000J0D01*
G01*
%TO.C,TP1*%
X115975000Y-99100000D02*
G75*
G03*
X115975000Y-99100000I-700000J0D01*
G01*
%TO.C,R14*%
X144037742Y-103977500D02*
X144512258Y-103977500D01*
X144037742Y-105022500D02*
X144512258Y-105022500D01*
%TO.C,R13*%
X138312258Y-108222500D02*
X137837742Y-108222500D01*
X138312258Y-107177500D02*
X137837742Y-107177500D01*
%TO.C,R15*%
X108037742Y-116777500D02*
X108512258Y-116777500D01*
X108037742Y-117822500D02*
X108512258Y-117822500D01*
%TO.C,SW1*%
X98145000Y-116370000D02*
X98145000Y-116400000D01*
X98145000Y-122830000D02*
X98145000Y-122800000D01*
X104605000Y-122830000D02*
X104605000Y-122800000D01*
X104605000Y-116400000D02*
X104605000Y-116370000D01*
X98145000Y-118300000D02*
X98145000Y-120900000D01*
X104605000Y-116370000D02*
X98145000Y-116370000D01*
X104605000Y-118300000D02*
X104605000Y-120900000D01*
X104605000Y-122830000D02*
X98145000Y-122830000D01*
%TO.C,SW3*%
X98145000Y-99970000D02*
X98145000Y-100000000D01*
X98145000Y-106430000D02*
X98145000Y-106400000D01*
X104605000Y-106430000D02*
X104605000Y-106400000D01*
X104605000Y-100000000D02*
X104605000Y-99970000D01*
X98145000Y-101900000D02*
X98145000Y-104500000D01*
X104605000Y-99970000D02*
X98145000Y-99970000D01*
X104605000Y-101900000D02*
X104605000Y-104500000D01*
X104605000Y-106430000D02*
X98145000Y-106430000D01*
%TO.C,SW2*%
X98145000Y-108170000D02*
X98145000Y-108200000D01*
X98145000Y-114630000D02*
X98145000Y-114600000D01*
X104605000Y-114630000D02*
X104605000Y-114600000D01*
X104605000Y-108200000D02*
X104605000Y-108170000D01*
X98145000Y-110100000D02*
X98145000Y-112700000D01*
X104605000Y-108170000D02*
X98145000Y-108170000D01*
X104605000Y-110100000D02*
X104605000Y-112700000D01*
X104605000Y-114630000D02*
X98145000Y-114630000D01*
%TO.C,C17*%
X124934420Y-118410000D02*
X125215580Y-118410000D01*
X124934420Y-117390000D02*
X125215580Y-117390000D01*
%TO.C,C1*%
X120185000Y-118740580D02*
X120185000Y-118459420D01*
X119165000Y-118740580D02*
X119165000Y-118459420D01*
%TO.C,C4*%
X163215580Y-120110000D02*
X162934420Y-120110000D01*
X163215580Y-119090000D02*
X162934420Y-119090000D01*
%TO.C,C5*%
X163215580Y-121710000D02*
X162934420Y-121710000D01*
X163215580Y-120690000D02*
X162934420Y-120690000D01*
%TO.C,C12*%
X159834420Y-110090000D02*
X160115580Y-110090000D01*
X159834420Y-111110000D02*
X160115580Y-111110000D01*
%TO.C,C3*%
X160115580Y-115290000D02*
X159834420Y-115290000D01*
X160115580Y-116310000D02*
X159834420Y-116310000D01*
%TO.C,C9*%
X159834420Y-113690000D02*
X160115580Y-113690000D01*
X159834420Y-114710000D02*
X160115580Y-114710000D01*
%TO.C,C6*%
X160115580Y-119090000D02*
X159834420Y-119090000D01*
X160115580Y-120110000D02*
X159834420Y-120110000D01*
%TO.C,C7*%
X160115580Y-116890000D02*
X159834420Y-116890000D01*
X160115580Y-117910000D02*
X159834420Y-117910000D01*
%TO.C,C8*%
X163215580Y-116890000D02*
X162934420Y-116890000D01*
X163215580Y-117910000D02*
X162934420Y-117910000D01*
%TO.C,C11*%
X163215580Y-116310000D02*
X162934420Y-116310000D01*
X163215580Y-115290000D02*
X162934420Y-115290000D01*
%TO.C,C13*%
X163215580Y-114710000D02*
X162934420Y-114710000D01*
X163215580Y-113690000D02*
X162934420Y-113690000D01*
%TO.C,C14*%
X163215580Y-111890000D02*
X162934420Y-111890000D01*
X163215580Y-112910000D02*
X162934420Y-112910000D01*
%TO.C,C15*%
X163215580Y-110090000D02*
X162934420Y-110090000D01*
X163215580Y-111110000D02*
X162934420Y-111110000D01*
%TO.C,C16*%
X129741000Y-118509420D02*
X129741000Y-118790580D01*
X130761000Y-118509420D02*
X130761000Y-118790580D01*
%TO.C,C18*%
X144215580Y-115810000D02*
X143934420Y-115810000D01*
X144215580Y-114790000D02*
X143934420Y-114790000D01*
%TO.C,C19*%
X142146420Y-118404000D02*
X142427580Y-118404000D01*
X142146420Y-117384000D02*
X142427580Y-117384000D01*
%TO.C,C20*%
X142146420Y-123484000D02*
X142427580Y-123484000D01*
X142146420Y-122464000D02*
X142427580Y-122464000D01*
%TO.C,C21*%
X135390580Y-118210000D02*
X135109420Y-118210000D01*
X135390580Y-117190000D02*
X135109420Y-117190000D01*
%TO.C,D1*%
X153525000Y-118200000D02*
X153525000Y-116200000D01*
X153525000Y-116200000D02*
X157425000Y-116200000D01*
X153525000Y-118200000D02*
X157425000Y-118200000D01*
%TO.C,D2*%
X153525000Y-113400000D02*
X157425000Y-113400000D01*
X153525000Y-111400000D02*
X157425000Y-111400000D01*
X153525000Y-113400000D02*
X153525000Y-111400000D01*
%TO.C,D3*%
X158025000Y-113800000D02*
X154125000Y-113800000D01*
X158025000Y-115800000D02*
X154125000Y-115800000D01*
X158025000Y-113800000D02*
X158025000Y-115800000D01*
%TO.C,L1*%
X111321000Y-120346000D02*
X111321000Y-124654000D01*
X115629000Y-124654000D02*
X115629000Y-120346000D01*
%TO.C,Q1*%
X119095000Y-121840000D02*
X120025000Y-121840000D01*
X122255000Y-121840000D02*
X121325000Y-121840000D01*
X122255000Y-121840000D02*
X122255000Y-124000000D01*
X119095000Y-121840000D02*
X119095000Y-123300000D01*
%TO.C,Q2*%
X157135000Y-107420000D02*
X157135000Y-108350000D01*
X157135000Y-110580000D02*
X157135000Y-109650000D01*
X157135000Y-110580000D02*
X154975000Y-110580000D01*
X157135000Y-107420000D02*
X155675000Y-107420000D01*
%TO.C,R1*%
X121797500Y-118362742D02*
X121797500Y-118837258D01*
X120752500Y-118362742D02*
X120752500Y-118837258D01*
%TO.C,R5*%
X169337742Y-106277500D02*
X169812258Y-106277500D01*
X169337742Y-107322500D02*
X169812258Y-107322500D01*
%TO.C,R6*%
X169337742Y-104677500D02*
X169812258Y-104677500D01*
X169337742Y-105722500D02*
X169812258Y-105722500D01*
%TO.C,R10*%
X129249500Y-118887258D02*
X129249500Y-118412742D01*
X128204500Y-118887258D02*
X128204500Y-118412742D01*
%TO.C,R16*%
X108037742Y-109622500D02*
X108512258Y-109622500D01*
X108037742Y-108577500D02*
X108512258Y-108577500D01*
%TO.C,R17*%
X108037742Y-100377500D02*
X108512258Y-100377500D01*
X108037742Y-101422500D02*
X108512258Y-101422500D01*
%TO.C,U1*%
X112625000Y-115940000D02*
X111315000Y-115940000D01*
X111315000Y-115940000D02*
X111315000Y-118660000D01*
X115805000Y-119800000D02*
X115805000Y-118660000D01*
X116035000Y-115940000D02*
X114725000Y-115940000D01*
X116035000Y-118660000D02*
X116035000Y-115940000D01*
X116035000Y-118660000D02*
X115805000Y-118660000D01*
X111315000Y-118660000D02*
X111545000Y-118660000D01*
%TO.C,U2*%
X124893000Y-116477000D02*
X123603000Y-116477000D01*
X124893000Y-116752000D02*
X124893000Y-116477000D01*
X127203000Y-116752000D02*
X124893000Y-116752000D01*
X129513000Y-116752000D02*
X129513000Y-116477000D01*
X127203000Y-116752000D02*
X129513000Y-116752000D01*
X124893000Y-106832000D02*
X124893000Y-107107000D01*
X127203000Y-106832000D02*
X124893000Y-106832000D01*
X129513000Y-106832000D02*
X129513000Y-107107000D01*
X127203000Y-106832000D02*
X129513000Y-106832000D01*
%TO.C,U3*%
X138445500Y-114019000D02*
X136793000Y-114019000D01*
X138445500Y-114301500D02*
X138445500Y-114019000D01*
X141193000Y-114301500D02*
X138445500Y-114301500D01*
X143940500Y-114301500D02*
X143940500Y-114019000D01*
X141193000Y-114301500D02*
X143940500Y-114301500D01*
X138445500Y-108806500D02*
X138445500Y-109089000D01*
X141193000Y-108806500D02*
X138445500Y-108806500D01*
X143940500Y-108806500D02*
X143940500Y-109089000D01*
X141193000Y-108806500D02*
X143940500Y-108806500D01*
%TO.C,U4*%
X136953000Y-124010000D02*
X135003000Y-124010000D01*
X136953000Y-124010000D02*
X138903000Y-124010000D01*
X136953000Y-118890000D02*
X135003000Y-118890000D01*
X136953000Y-118890000D02*
X140403000Y-118890000D01*
%TO.C,Y1*%
X143913000Y-118984000D02*
X143413000Y-118984000D01*
X143413000Y-118984000D02*
X143413000Y-121884000D01*
X143413000Y-121884000D02*
X143913000Y-121884000D01*
X143413000Y-120084000D02*
X142513000Y-119484000D01*
X142513000Y-119484000D02*
X142313000Y-119484000D01*
X143413000Y-120784000D02*
X142513000Y-121384000D01*
X142513000Y-121384000D02*
X142313000Y-121384000D01*
%TO.C,R12*%
D10*
X133417857Y-105652380D02*
X133751190Y-105176190D01*
X133989285Y-105652380D02*
X133989285Y-104652380D01*
X133608333Y-104652380D01*
X133513095Y-104700000D01*
X133465476Y-104747619D01*
X133417857Y-104842857D01*
X133417857Y-104985714D01*
X133465476Y-105080952D01*
X133513095Y-105128571D01*
X133608333Y-105176190D01*
X133989285Y-105176190D01*
X132465476Y-105652380D02*
X133036904Y-105652380D01*
X132751190Y-105652380D02*
X132751190Y-104652380D01*
X132846428Y-104795238D01*
X132941666Y-104890476D01*
X133036904Y-104938095D01*
X132084523Y-104747619D02*
X132036904Y-104700000D01*
X131941666Y-104652380D01*
X131703571Y-104652380D01*
X131608333Y-104700000D01*
X131560714Y-104747619D01*
X131513095Y-104842857D01*
X131513095Y-104938095D01*
X131560714Y-105080952D01*
X132132142Y-105652380D01*
X131513095Y-105652380D01*
%TO.C,Q3*%
X160070238Y-121847619D02*
X160165476Y-121800000D01*
X160260714Y-121704761D01*
X160403571Y-121561904D01*
X160498809Y-121514285D01*
X160594047Y-121514285D01*
X160546428Y-121752380D02*
X160641666Y-121704761D01*
X160736904Y-121609523D01*
X160784523Y-121419047D01*
X160784523Y-121085714D01*
X160736904Y-120895238D01*
X160641666Y-120800000D01*
X160546428Y-120752380D01*
X160355952Y-120752380D01*
X160260714Y-120800000D01*
X160165476Y-120895238D01*
X160117857Y-121085714D01*
X160117857Y-121419047D01*
X160165476Y-121609523D01*
X160260714Y-121704761D01*
X160355952Y-121752380D01*
X160546428Y-121752380D01*
X159784523Y-120752380D02*
X159165476Y-120752380D01*
X159498809Y-121133333D01*
X159355952Y-121133333D01*
X159260714Y-121180952D01*
X159213095Y-121228571D01*
X159165476Y-121323809D01*
X159165476Y-121561904D01*
X159213095Y-121657142D01*
X159260714Y-121704761D01*
X159355952Y-121752380D01*
X159641666Y-121752380D01*
X159736904Y-121704761D01*
X159784523Y-121657142D01*
%TO.C,R3*%
X165641666Y-125252380D02*
X165975000Y-124776190D01*
X166213095Y-125252380D02*
X166213095Y-124252380D01*
X165832142Y-124252380D01*
X165736904Y-124300000D01*
X165689285Y-124347619D01*
X165641666Y-124442857D01*
X165641666Y-124585714D01*
X165689285Y-124680952D01*
X165736904Y-124728571D01*
X165832142Y-124776190D01*
X166213095Y-124776190D01*
X165308333Y-124252380D02*
X164689285Y-124252380D01*
X165022619Y-124633333D01*
X164879761Y-124633333D01*
X164784523Y-124680952D01*
X164736904Y-124728571D01*
X164689285Y-124823809D01*
X164689285Y-125061904D01*
X164736904Y-125157142D01*
X164784523Y-125204761D01*
X164879761Y-125252380D01*
X165165476Y-125252380D01*
X165260714Y-125204761D01*
X165308333Y-125157142D01*
%TO.C,R9*%
X135741666Y-106552380D02*
X136075000Y-106076190D01*
X136313095Y-106552380D02*
X136313095Y-105552380D01*
X135932142Y-105552380D01*
X135836904Y-105600000D01*
X135789285Y-105647619D01*
X135741666Y-105742857D01*
X135741666Y-105885714D01*
X135789285Y-105980952D01*
X135836904Y-106028571D01*
X135932142Y-106076190D01*
X136313095Y-106076190D01*
X135265476Y-106552380D02*
X135075000Y-106552380D01*
X134979761Y-106504761D01*
X134932142Y-106457142D01*
X134836904Y-106314285D01*
X134789285Y-106123809D01*
X134789285Y-105742857D01*
X134836904Y-105647619D01*
X134884523Y-105600000D01*
X134979761Y-105552380D01*
X135170238Y-105552380D01*
X135265476Y-105600000D01*
X135313095Y-105647619D01*
X135360714Y-105742857D01*
X135360714Y-105980952D01*
X135313095Y-106076190D01*
X135265476Y-106123809D01*
X135170238Y-106171428D01*
X134979761Y-106171428D01*
X134884523Y-106123809D01*
X134836904Y-106076190D01*
X134789285Y-105980952D01*
%TO.C,R8*%
X147841666Y-108152380D02*
X148175000Y-107676190D01*
X148413095Y-108152380D02*
X148413095Y-107152380D01*
X148032142Y-107152380D01*
X147936904Y-107200000D01*
X147889285Y-107247619D01*
X147841666Y-107342857D01*
X147841666Y-107485714D01*
X147889285Y-107580952D01*
X147936904Y-107628571D01*
X148032142Y-107676190D01*
X148413095Y-107676190D01*
X147270238Y-107580952D02*
X147365476Y-107533333D01*
X147413095Y-107485714D01*
X147460714Y-107390476D01*
X147460714Y-107342857D01*
X147413095Y-107247619D01*
X147365476Y-107200000D01*
X147270238Y-107152380D01*
X147079761Y-107152380D01*
X146984523Y-107200000D01*
X146936904Y-107247619D01*
X146889285Y-107342857D01*
X146889285Y-107390476D01*
X146936904Y-107485714D01*
X146984523Y-107533333D01*
X147079761Y-107580952D01*
X147270238Y-107580952D01*
X147365476Y-107628571D01*
X147413095Y-107676190D01*
X147460714Y-107771428D01*
X147460714Y-107961904D01*
X147413095Y-108057142D01*
X147365476Y-108104761D01*
X147270238Y-108152380D01*
X147079761Y-108152380D01*
X146984523Y-108104761D01*
X146936904Y-108057142D01*
X146889285Y-107961904D01*
X146889285Y-107771428D01*
X146936904Y-107676190D01*
X146984523Y-107628571D01*
X147079761Y-107580952D01*
%TO.C,R7*%
X147741666Y-106552380D02*
X148075000Y-106076190D01*
X148313095Y-106552380D02*
X148313095Y-105552380D01*
X147932142Y-105552380D01*
X147836904Y-105600000D01*
X147789285Y-105647619D01*
X147741666Y-105742857D01*
X147741666Y-105885714D01*
X147789285Y-105980952D01*
X147836904Y-106028571D01*
X147932142Y-106076190D01*
X148313095Y-106076190D01*
X147408333Y-105552380D02*
X146741666Y-105552380D01*
X147170238Y-106552380D01*
%TO.C,R2*%
X153841666Y-107052380D02*
X154175000Y-106576190D01*
X154413095Y-107052380D02*
X154413095Y-106052380D01*
X154032142Y-106052380D01*
X153936904Y-106100000D01*
X153889285Y-106147619D01*
X153841666Y-106242857D01*
X153841666Y-106385714D01*
X153889285Y-106480952D01*
X153936904Y-106528571D01*
X154032142Y-106576190D01*
X154413095Y-106576190D01*
X153460714Y-106147619D02*
X153413095Y-106100000D01*
X153317857Y-106052380D01*
X153079761Y-106052380D01*
X152984523Y-106100000D01*
X152936904Y-106147619D01*
X152889285Y-106242857D01*
X152889285Y-106338095D01*
X152936904Y-106480952D01*
X153508333Y-107052380D01*
X152889285Y-107052380D01*
%TO.C,C10*%
X153417857Y-119957142D02*
X153465476Y-120004761D01*
X153608333Y-120052380D01*
X153703571Y-120052380D01*
X153846428Y-120004761D01*
X153941666Y-119909523D01*
X153989285Y-119814285D01*
X154036904Y-119623809D01*
X154036904Y-119480952D01*
X153989285Y-119290476D01*
X153941666Y-119195238D01*
X153846428Y-119100000D01*
X153703571Y-119052380D01*
X153608333Y-119052380D01*
X153465476Y-119100000D01*
X153417857Y-119147619D01*
X152465476Y-120052380D02*
X153036904Y-120052380D01*
X152751190Y-120052380D02*
X152751190Y-119052380D01*
X152846428Y-119195238D01*
X152941666Y-119290476D01*
X153036904Y-119338095D01*
X151846428Y-119052380D02*
X151751190Y-119052380D01*
X151655952Y-119100000D01*
X151608333Y-119147619D01*
X151560714Y-119242857D01*
X151513095Y-119433333D01*
X151513095Y-119671428D01*
X151560714Y-119861904D01*
X151608333Y-119957142D01*
X151655952Y-120004761D01*
X151751190Y-120052380D01*
X151846428Y-120052380D01*
X151941666Y-120004761D01*
X151989285Y-119957142D01*
X152036904Y-119861904D01*
X152084523Y-119671428D01*
X152084523Y-119433333D01*
X152036904Y-119242857D01*
X151989285Y-119147619D01*
X151941666Y-119100000D01*
X151846428Y-119052380D01*
%TO.C,L2*%
X152741666Y-123652380D02*
X153217857Y-123652380D01*
X153217857Y-122652380D01*
X152455952Y-122747619D02*
X152408333Y-122700000D01*
X152313095Y-122652380D01*
X152075000Y-122652380D01*
X151979761Y-122700000D01*
X151932142Y-122747619D01*
X151884523Y-122842857D01*
X151884523Y-122938095D01*
X151932142Y-123080952D01*
X152503571Y-123652380D01*
X151884523Y-123652380D01*
%TO.C,J1*%
X169608333Y-127490380D02*
X169608333Y-128204666D01*
X169655952Y-128347523D01*
X169751190Y-128442761D01*
X169894047Y-128490380D01*
X169989285Y-128490380D01*
X168608333Y-128490380D02*
X169179761Y-128490380D01*
X168894047Y-128490380D02*
X168894047Y-127490380D01*
X168989285Y-127633238D01*
X169084523Y-127728476D01*
X169179761Y-127776095D01*
%TO.C,R4*%
X165641666Y-123452380D02*
X165975000Y-122976190D01*
X166213095Y-123452380D02*
X166213095Y-122452380D01*
X165832142Y-122452380D01*
X165736904Y-122500000D01*
X165689285Y-122547619D01*
X165641666Y-122642857D01*
X165641666Y-122785714D01*
X165689285Y-122880952D01*
X165736904Y-122928571D01*
X165832142Y-122976190D01*
X166213095Y-122976190D01*
X164784523Y-122785714D02*
X164784523Y-123452380D01*
X165022619Y-122404761D02*
X165260714Y-123119047D01*
X164641666Y-123119047D01*
%TO.C,R18*%
X139817857Y-116722380D02*
X140151190Y-116246190D01*
X140389285Y-116722380D02*
X140389285Y-115722380D01*
X140008333Y-115722380D01*
X139913095Y-115770000D01*
X139865476Y-115817619D01*
X139817857Y-115912857D01*
X139817857Y-116055714D01*
X139865476Y-116150952D01*
X139913095Y-116198571D01*
X140008333Y-116246190D01*
X140389285Y-116246190D01*
X138865476Y-116722380D02*
X139436904Y-116722380D01*
X139151190Y-116722380D02*
X139151190Y-115722380D01*
X139246428Y-115865238D01*
X139341666Y-115960476D01*
X139436904Y-116008095D01*
X138294047Y-116150952D02*
X138389285Y-116103333D01*
X138436904Y-116055714D01*
X138484523Y-115960476D01*
X138484523Y-115912857D01*
X138436904Y-115817619D01*
X138389285Y-115770000D01*
X138294047Y-115722380D01*
X138103571Y-115722380D01*
X138008333Y-115770000D01*
X137960714Y-115817619D01*
X137913095Y-115912857D01*
X137913095Y-115960476D01*
X137960714Y-116055714D01*
X138008333Y-116103333D01*
X138103571Y-116150952D01*
X138294047Y-116150952D01*
X138389285Y-116198571D01*
X138436904Y-116246190D01*
X138484523Y-116341428D01*
X138484523Y-116531904D01*
X138436904Y-116627142D01*
X138389285Y-116674761D01*
X138294047Y-116722380D01*
X138103571Y-116722380D01*
X138008333Y-116674761D01*
X137960714Y-116627142D01*
X137913095Y-116531904D01*
X137913095Y-116341428D01*
X137960714Y-116246190D01*
X138008333Y-116198571D01*
X138103571Y-116150952D01*
%TO.C,R11*%
X133317857Y-104052380D02*
X133651190Y-103576190D01*
X133889285Y-104052380D02*
X133889285Y-103052380D01*
X133508333Y-103052380D01*
X133413095Y-103100000D01*
X133365476Y-103147619D01*
X133317857Y-103242857D01*
X133317857Y-103385714D01*
X133365476Y-103480952D01*
X133413095Y-103528571D01*
X133508333Y-103576190D01*
X133889285Y-103576190D01*
X132365476Y-104052380D02*
X132936904Y-104052380D01*
X132651190Y-104052380D02*
X132651190Y-103052380D01*
X132746428Y-103195238D01*
X132841666Y-103290476D01*
X132936904Y-103338095D01*
X131413095Y-104052380D02*
X131984523Y-104052380D01*
X131698809Y-104052380D02*
X131698809Y-103052380D01*
X131794047Y-103195238D01*
X131889285Y-103290476D01*
X131984523Y-103338095D01*
%TO.C,JP2*%
X117908333Y-113052380D02*
X117908333Y-113766666D01*
X117955952Y-113909523D01*
X118051190Y-114004761D01*
X118194047Y-114052380D01*
X118289285Y-114052380D01*
X117432142Y-114052380D02*
X117432142Y-113052380D01*
X117051190Y-113052380D01*
X116955952Y-113100000D01*
X116908333Y-113147619D01*
X116860714Y-113242857D01*
X116860714Y-113385714D01*
X116908333Y-113480952D01*
X116955952Y-113528571D01*
X117051190Y-113576190D01*
X117432142Y-113576190D01*
X116479761Y-113147619D02*
X116432142Y-113100000D01*
X116336904Y-113052380D01*
X116098809Y-113052380D01*
X116003571Y-113100000D01*
X115955952Y-113147619D01*
X115908333Y-113242857D01*
X115908333Y-113338095D01*
X115955952Y-113480952D01*
X116527380Y-114052380D01*
X115908333Y-114052380D01*
%TO.C,C2*%
X117741666Y-115257142D02*
X117789285Y-115304761D01*
X117932142Y-115352380D01*
X118027380Y-115352380D01*
X118170238Y-115304761D01*
X118265476Y-115209523D01*
X118313095Y-115114285D01*
X118360714Y-114923809D01*
X118360714Y-114780952D01*
X118313095Y-114590476D01*
X118265476Y-114495238D01*
X118170238Y-114400000D01*
X118027380Y-114352380D01*
X117932142Y-114352380D01*
X117789285Y-114400000D01*
X117741666Y-114447619D01*
X117360714Y-114447619D02*
X117313095Y-114400000D01*
X117217857Y-114352380D01*
X116979761Y-114352380D01*
X116884523Y-114400000D01*
X116836904Y-114447619D01*
X116789285Y-114542857D01*
X116789285Y-114638095D01*
X116836904Y-114780952D01*
X117408333Y-115352380D01*
X116789285Y-115352380D01*
%TO.C,BT1*%
X165710714Y-128724571D02*
X165567857Y-128772190D01*
X165520238Y-128819809D01*
X165472619Y-128915047D01*
X165472619Y-129057904D01*
X165520238Y-129153142D01*
X165567857Y-129200761D01*
X165663095Y-129248380D01*
X166044047Y-129248380D01*
X166044047Y-128248380D01*
X165710714Y-128248380D01*
X165615476Y-128296000D01*
X165567857Y-128343619D01*
X165520238Y-128438857D01*
X165520238Y-128534095D01*
X165567857Y-128629333D01*
X165615476Y-128676952D01*
X165710714Y-128724571D01*
X166044047Y-128724571D01*
X165186904Y-128248380D02*
X164615476Y-128248380D01*
X164901190Y-129248380D02*
X164901190Y-128248380D01*
X163758333Y-129248380D02*
X164329761Y-129248380D01*
X164044047Y-129248380D02*
X164044047Y-128248380D01*
X164139285Y-128391238D01*
X164234523Y-128486476D01*
X164329761Y-128534095D01*
D13*
X103329761Y-132963142D02*
X99520238Y-132963142D01*
X172163761Y-132963142D02*
X168354238Y-132963142D01*
X170259000Y-134867904D02*
X170259000Y-131058380D01*
%TO.C,JP1*%
D10*
X118208333Y-125152380D02*
X118208333Y-125866666D01*
X118255952Y-126009523D01*
X118351190Y-126104761D01*
X118494047Y-126152380D01*
X118589285Y-126152380D01*
X117732142Y-126152380D02*
X117732142Y-125152380D01*
X117351190Y-125152380D01*
X117255952Y-125200000D01*
X117208333Y-125247619D01*
X117160714Y-125342857D01*
X117160714Y-125485714D01*
X117208333Y-125580952D01*
X117255952Y-125628571D01*
X117351190Y-125676190D01*
X117732142Y-125676190D01*
X116208333Y-126152380D02*
X116779761Y-126152380D01*
X116494047Y-126152380D02*
X116494047Y-125152380D01*
X116589285Y-125295238D01*
X116684523Y-125390476D01*
X116779761Y-125438095D01*
%TO.C,R14*%
X148717857Y-104952380D02*
X149051190Y-104476190D01*
X149289285Y-104952380D02*
X149289285Y-103952380D01*
X148908333Y-103952380D01*
X148813095Y-104000000D01*
X148765476Y-104047619D01*
X148717857Y-104142857D01*
X148717857Y-104285714D01*
X148765476Y-104380952D01*
X148813095Y-104428571D01*
X148908333Y-104476190D01*
X149289285Y-104476190D01*
X147765476Y-104952380D02*
X148336904Y-104952380D01*
X148051190Y-104952380D02*
X148051190Y-103952380D01*
X148146428Y-104095238D01*
X148241666Y-104190476D01*
X148336904Y-104238095D01*
X146908333Y-104285714D02*
X146908333Y-104952380D01*
X147146428Y-103904761D02*
X147384523Y-104619047D01*
X146765476Y-104619047D01*
%TO.C,R13*%
X135717857Y-108152380D02*
X136051190Y-107676190D01*
X136289285Y-108152380D02*
X136289285Y-107152380D01*
X135908333Y-107152380D01*
X135813095Y-107200000D01*
X135765476Y-107247619D01*
X135717857Y-107342857D01*
X135717857Y-107485714D01*
X135765476Y-107580952D01*
X135813095Y-107628571D01*
X135908333Y-107676190D01*
X136289285Y-107676190D01*
X134765476Y-108152380D02*
X135336904Y-108152380D01*
X135051190Y-108152380D02*
X135051190Y-107152380D01*
X135146428Y-107295238D01*
X135241666Y-107390476D01*
X135336904Y-107438095D01*
X134432142Y-107152380D02*
X133813095Y-107152380D01*
X134146428Y-107533333D01*
X134003571Y-107533333D01*
X133908333Y-107580952D01*
X133860714Y-107628571D01*
X133813095Y-107723809D01*
X133813095Y-107961904D01*
X133860714Y-108057142D01*
X133908333Y-108104761D01*
X134003571Y-108152380D01*
X134289285Y-108152380D01*
X134384523Y-108104761D01*
X134432142Y-108057142D01*
%TO.C,R15*%
X108917857Y-116252380D02*
X109251190Y-115776190D01*
X109489285Y-116252380D02*
X109489285Y-115252380D01*
X109108333Y-115252380D01*
X109013095Y-115300000D01*
X108965476Y-115347619D01*
X108917857Y-115442857D01*
X108917857Y-115585714D01*
X108965476Y-115680952D01*
X109013095Y-115728571D01*
X109108333Y-115776190D01*
X109489285Y-115776190D01*
X107965476Y-116252380D02*
X108536904Y-116252380D01*
X108251190Y-116252380D02*
X108251190Y-115252380D01*
X108346428Y-115395238D01*
X108441666Y-115490476D01*
X108536904Y-115538095D01*
X107060714Y-115252380D02*
X107536904Y-115252380D01*
X107584523Y-115728571D01*
X107536904Y-115680952D01*
X107441666Y-115633333D01*
X107203571Y-115633333D01*
X107108333Y-115680952D01*
X107060714Y-115728571D01*
X107013095Y-115823809D01*
X107013095Y-116061904D01*
X107060714Y-116157142D01*
X107108333Y-116204761D01*
X107203571Y-116252380D01*
X107441666Y-116252380D01*
X107536904Y-116204761D01*
X107584523Y-116157142D01*
%TO.C,SW1*%
X102708333Y-115954761D02*
X102565476Y-116002380D01*
X102327380Y-116002380D01*
X102232142Y-115954761D01*
X102184523Y-115907142D01*
X102136904Y-115811904D01*
X102136904Y-115716666D01*
X102184523Y-115621428D01*
X102232142Y-115573809D01*
X102327380Y-115526190D01*
X102517857Y-115478571D01*
X102613095Y-115430952D01*
X102660714Y-115383333D01*
X102708333Y-115288095D01*
X102708333Y-115192857D01*
X102660714Y-115097619D01*
X102613095Y-115050000D01*
X102517857Y-115002380D01*
X102279761Y-115002380D01*
X102136904Y-115050000D01*
X101803571Y-115002380D02*
X101565476Y-116002380D01*
X101375000Y-115288095D01*
X101184523Y-116002380D01*
X100946428Y-115002380D01*
X100041666Y-116002380D02*
X100613095Y-116002380D01*
X100327380Y-116002380D02*
X100327380Y-115002380D01*
X100422619Y-115145238D01*
X100517857Y-115240476D01*
X100613095Y-115288095D01*
%TO.C,SW3*%
X102708333Y-99554761D02*
X102565476Y-99602380D01*
X102327380Y-99602380D01*
X102232142Y-99554761D01*
X102184523Y-99507142D01*
X102136904Y-99411904D01*
X102136904Y-99316666D01*
X102184523Y-99221428D01*
X102232142Y-99173809D01*
X102327380Y-99126190D01*
X102517857Y-99078571D01*
X102613095Y-99030952D01*
X102660714Y-98983333D01*
X102708333Y-98888095D01*
X102708333Y-98792857D01*
X102660714Y-98697619D01*
X102613095Y-98650000D01*
X102517857Y-98602380D01*
X102279761Y-98602380D01*
X102136904Y-98650000D01*
X101803571Y-98602380D02*
X101565476Y-99602380D01*
X101375000Y-98888095D01*
X101184523Y-99602380D01*
X100946428Y-98602380D01*
X100660714Y-98602380D02*
X100041666Y-98602380D01*
X100375000Y-98983333D01*
X100232142Y-98983333D01*
X100136904Y-99030952D01*
X100089285Y-99078571D01*
X100041666Y-99173809D01*
X100041666Y-99411904D01*
X100089285Y-99507142D01*
X100136904Y-99554761D01*
X100232142Y-99602380D01*
X100517857Y-99602380D01*
X100613095Y-99554761D01*
X100660714Y-99507142D01*
%TO.C,SW2*%
X102708333Y-107754761D02*
X102565476Y-107802380D01*
X102327380Y-107802380D01*
X102232142Y-107754761D01*
X102184523Y-107707142D01*
X102136904Y-107611904D01*
X102136904Y-107516666D01*
X102184523Y-107421428D01*
X102232142Y-107373809D01*
X102327380Y-107326190D01*
X102517857Y-107278571D01*
X102613095Y-107230952D01*
X102660714Y-107183333D01*
X102708333Y-107088095D01*
X102708333Y-106992857D01*
X102660714Y-106897619D01*
X102613095Y-106850000D01*
X102517857Y-106802380D01*
X102279761Y-106802380D01*
X102136904Y-106850000D01*
X101803571Y-106802380D02*
X101565476Y-107802380D01*
X101375000Y-107088095D01*
X101184523Y-107802380D01*
X100946428Y-106802380D01*
X100613095Y-106897619D02*
X100565476Y-106850000D01*
X100470238Y-106802380D01*
X100232142Y-106802380D01*
X100136904Y-106850000D01*
X100089285Y-106897619D01*
X100041666Y-106992857D01*
X100041666Y-107088095D01*
X100089285Y-107230952D01*
X100660714Y-107802380D01*
X100041666Y-107802380D01*
%TO.C,C17*%
X125717857Y-119657142D02*
X125765476Y-119704761D01*
X125908333Y-119752380D01*
X126003571Y-119752380D01*
X126146428Y-119704761D01*
X126241666Y-119609523D01*
X126289285Y-119514285D01*
X126336904Y-119323809D01*
X126336904Y-119180952D01*
X126289285Y-118990476D01*
X126241666Y-118895238D01*
X126146428Y-118800000D01*
X126003571Y-118752380D01*
X125908333Y-118752380D01*
X125765476Y-118800000D01*
X125717857Y-118847619D01*
X124765476Y-119752380D02*
X125336904Y-119752380D01*
X125051190Y-119752380D02*
X125051190Y-118752380D01*
X125146428Y-118895238D01*
X125241666Y-118990476D01*
X125336904Y-119038095D01*
X124432142Y-118752380D02*
X123765476Y-118752380D01*
X124194047Y-119752380D01*
%TO.C,C1*%
X120032142Y-115833333D02*
X120079761Y-115785714D01*
X120127380Y-115642857D01*
X120127380Y-115547619D01*
X120079761Y-115404761D01*
X119984523Y-115309523D01*
X119889285Y-115261904D01*
X119698809Y-115214285D01*
X119555952Y-115214285D01*
X119365476Y-115261904D01*
X119270238Y-115309523D01*
X119175000Y-115404761D01*
X119127380Y-115547619D01*
X119127380Y-115642857D01*
X119175000Y-115785714D01*
X119222619Y-115833333D01*
X120127380Y-116785714D02*
X120127380Y-116214285D01*
X120127380Y-116500000D02*
X119127380Y-116500000D01*
X119270238Y-116404761D01*
X119365476Y-116309523D01*
X119413095Y-116214285D01*
%TO.C,C4*%
X165641666Y-119957142D02*
X165689285Y-120004761D01*
X165832142Y-120052380D01*
X165927380Y-120052380D01*
X166070238Y-120004761D01*
X166165476Y-119909523D01*
X166213095Y-119814285D01*
X166260714Y-119623809D01*
X166260714Y-119480952D01*
X166213095Y-119290476D01*
X166165476Y-119195238D01*
X166070238Y-119100000D01*
X165927380Y-119052380D01*
X165832142Y-119052380D01*
X165689285Y-119100000D01*
X165641666Y-119147619D01*
X164784523Y-119385714D02*
X164784523Y-120052380D01*
X165022619Y-119004761D02*
X165260714Y-119719047D01*
X164641666Y-119719047D01*
%TO.C,C5*%
X165641666Y-121557142D02*
X165689285Y-121604761D01*
X165832142Y-121652380D01*
X165927380Y-121652380D01*
X166070238Y-121604761D01*
X166165476Y-121509523D01*
X166213095Y-121414285D01*
X166260714Y-121223809D01*
X166260714Y-121080952D01*
X166213095Y-120890476D01*
X166165476Y-120795238D01*
X166070238Y-120700000D01*
X165927380Y-120652380D01*
X165832142Y-120652380D01*
X165689285Y-120700000D01*
X165641666Y-120747619D01*
X164736904Y-120652380D02*
X165213095Y-120652380D01*
X165260714Y-121128571D01*
X165213095Y-121080952D01*
X165117857Y-121033333D01*
X164879761Y-121033333D01*
X164784523Y-121080952D01*
X164736904Y-121128571D01*
X164689285Y-121223809D01*
X164689285Y-121461904D01*
X164736904Y-121557142D01*
X164784523Y-121604761D01*
X164879761Y-121652380D01*
X165117857Y-121652380D01*
X165213095Y-121604761D01*
X165260714Y-121557142D01*
%TO.C,C12*%
X160517857Y-104357142D02*
X160565476Y-104404761D01*
X160708333Y-104452380D01*
X160803571Y-104452380D01*
X160946428Y-104404761D01*
X161041666Y-104309523D01*
X161089285Y-104214285D01*
X161136904Y-104023809D01*
X161136904Y-103880952D01*
X161089285Y-103690476D01*
X161041666Y-103595238D01*
X160946428Y-103500000D01*
X160803571Y-103452380D01*
X160708333Y-103452380D01*
X160565476Y-103500000D01*
X160517857Y-103547619D01*
X159565476Y-104452380D02*
X160136904Y-104452380D01*
X159851190Y-104452380D02*
X159851190Y-103452380D01*
X159946428Y-103595238D01*
X160041666Y-103690476D01*
X160136904Y-103738095D01*
X159184523Y-103547619D02*
X159136904Y-103500000D01*
X159041666Y-103452380D01*
X158803571Y-103452380D01*
X158708333Y-103500000D01*
X158660714Y-103547619D01*
X158613095Y-103642857D01*
X158613095Y-103738095D01*
X158660714Y-103880952D01*
X159232142Y-104452380D01*
X158613095Y-104452380D01*
%TO.C,C3*%
X160141666Y-108157142D02*
X160189285Y-108204761D01*
X160332142Y-108252380D01*
X160427380Y-108252380D01*
X160570238Y-108204761D01*
X160665476Y-108109523D01*
X160713095Y-108014285D01*
X160760714Y-107823809D01*
X160760714Y-107680952D01*
X160713095Y-107490476D01*
X160665476Y-107395238D01*
X160570238Y-107300000D01*
X160427380Y-107252380D01*
X160332142Y-107252380D01*
X160189285Y-107300000D01*
X160141666Y-107347619D01*
X159808333Y-107252380D02*
X159189285Y-107252380D01*
X159522619Y-107633333D01*
X159379761Y-107633333D01*
X159284523Y-107680952D01*
X159236904Y-107728571D01*
X159189285Y-107823809D01*
X159189285Y-108061904D01*
X159236904Y-108157142D01*
X159284523Y-108204761D01*
X159379761Y-108252380D01*
X159665476Y-108252380D01*
X159760714Y-108204761D01*
X159808333Y-108157142D01*
%TO.C,C9*%
X160141666Y-106857142D02*
X160189285Y-106904761D01*
X160332142Y-106952380D01*
X160427380Y-106952380D01*
X160570238Y-106904761D01*
X160665476Y-106809523D01*
X160713095Y-106714285D01*
X160760714Y-106523809D01*
X160760714Y-106380952D01*
X160713095Y-106190476D01*
X160665476Y-106095238D01*
X160570238Y-106000000D01*
X160427380Y-105952380D01*
X160332142Y-105952380D01*
X160189285Y-106000000D01*
X160141666Y-106047619D01*
X159665476Y-106952380D02*
X159475000Y-106952380D01*
X159379761Y-106904761D01*
X159332142Y-106857142D01*
X159236904Y-106714285D01*
X159189285Y-106523809D01*
X159189285Y-106142857D01*
X159236904Y-106047619D01*
X159284523Y-106000000D01*
X159379761Y-105952380D01*
X159570238Y-105952380D01*
X159665476Y-106000000D01*
X159713095Y-106047619D01*
X159760714Y-106142857D01*
X159760714Y-106380952D01*
X159713095Y-106476190D01*
X159665476Y-106523809D01*
X159570238Y-106571428D01*
X159379761Y-106571428D01*
X159284523Y-106523809D01*
X159236904Y-106476190D01*
X159189285Y-106380952D01*
%TO.C,C6*%
X158232142Y-119433333D02*
X158279761Y-119385714D01*
X158327380Y-119242857D01*
X158327380Y-119147619D01*
X158279761Y-119004761D01*
X158184523Y-118909523D01*
X158089285Y-118861904D01*
X157898809Y-118814285D01*
X157755952Y-118814285D01*
X157565476Y-118861904D01*
X157470238Y-118909523D01*
X157375000Y-119004761D01*
X157327380Y-119147619D01*
X157327380Y-119242857D01*
X157375000Y-119385714D01*
X157422619Y-119433333D01*
X157327380Y-120290476D02*
X157327380Y-120100000D01*
X157375000Y-120004761D01*
X157422619Y-119957142D01*
X157565476Y-119861904D01*
X157755952Y-119814285D01*
X158136904Y-119814285D01*
X158232142Y-119861904D01*
X158279761Y-119909523D01*
X158327380Y-120004761D01*
X158327380Y-120195238D01*
X158279761Y-120290476D01*
X158232142Y-120338095D01*
X158136904Y-120385714D01*
X157898809Y-120385714D01*
X157803571Y-120338095D01*
X157755952Y-120290476D01*
X157708333Y-120195238D01*
X157708333Y-120004761D01*
X157755952Y-119909523D01*
X157803571Y-119861904D01*
X157898809Y-119814285D01*
%TO.C,C7*%
X160141666Y-109357142D02*
X160189285Y-109404761D01*
X160332142Y-109452380D01*
X160427380Y-109452380D01*
X160570238Y-109404761D01*
X160665476Y-109309523D01*
X160713095Y-109214285D01*
X160760714Y-109023809D01*
X160760714Y-108880952D01*
X160713095Y-108690476D01*
X160665476Y-108595238D01*
X160570238Y-108500000D01*
X160427380Y-108452380D01*
X160332142Y-108452380D01*
X160189285Y-108500000D01*
X160141666Y-108547619D01*
X159808333Y-108452380D02*
X159141666Y-108452380D01*
X159570238Y-109452380D01*
%TO.C,C8*%
X163241666Y-109357142D02*
X163289285Y-109404761D01*
X163432142Y-109452380D01*
X163527380Y-109452380D01*
X163670238Y-109404761D01*
X163765476Y-109309523D01*
X163813095Y-109214285D01*
X163860714Y-109023809D01*
X163860714Y-108880952D01*
X163813095Y-108690476D01*
X163765476Y-108595238D01*
X163670238Y-108500000D01*
X163527380Y-108452380D01*
X163432142Y-108452380D01*
X163289285Y-108500000D01*
X163241666Y-108547619D01*
X162670238Y-108880952D02*
X162765476Y-108833333D01*
X162813095Y-108785714D01*
X162860714Y-108690476D01*
X162860714Y-108642857D01*
X162813095Y-108547619D01*
X162765476Y-108500000D01*
X162670238Y-108452380D01*
X162479761Y-108452380D01*
X162384523Y-108500000D01*
X162336904Y-108547619D01*
X162289285Y-108642857D01*
X162289285Y-108690476D01*
X162336904Y-108785714D01*
X162384523Y-108833333D01*
X162479761Y-108880952D01*
X162670238Y-108880952D01*
X162765476Y-108928571D01*
X162813095Y-108976190D01*
X162860714Y-109071428D01*
X162860714Y-109261904D01*
X162813095Y-109357142D01*
X162765476Y-109404761D01*
X162670238Y-109452380D01*
X162479761Y-109452380D01*
X162384523Y-109404761D01*
X162336904Y-109357142D01*
X162289285Y-109261904D01*
X162289285Y-109071428D01*
X162336904Y-108976190D01*
X162384523Y-108928571D01*
X162479761Y-108880952D01*
%TO.C,C11*%
X163717857Y-108057142D02*
X163765476Y-108104761D01*
X163908333Y-108152380D01*
X164003571Y-108152380D01*
X164146428Y-108104761D01*
X164241666Y-108009523D01*
X164289285Y-107914285D01*
X164336904Y-107723809D01*
X164336904Y-107580952D01*
X164289285Y-107390476D01*
X164241666Y-107295238D01*
X164146428Y-107200000D01*
X164003571Y-107152380D01*
X163908333Y-107152380D01*
X163765476Y-107200000D01*
X163717857Y-107247619D01*
X162765476Y-108152380D02*
X163336904Y-108152380D01*
X163051190Y-108152380D02*
X163051190Y-107152380D01*
X163146428Y-107295238D01*
X163241666Y-107390476D01*
X163336904Y-107438095D01*
X161813095Y-108152380D02*
X162384523Y-108152380D01*
X162098809Y-108152380D02*
X162098809Y-107152380D01*
X162194047Y-107295238D01*
X162289285Y-107390476D01*
X162384523Y-107438095D01*
%TO.C,C13*%
X163717857Y-106857142D02*
X163765476Y-106904761D01*
X163908333Y-106952380D01*
X164003571Y-106952380D01*
X164146428Y-106904761D01*
X164241666Y-106809523D01*
X164289285Y-106714285D01*
X164336904Y-106523809D01*
X164336904Y-106380952D01*
X164289285Y-106190476D01*
X164241666Y-106095238D01*
X164146428Y-106000000D01*
X164003571Y-105952380D01*
X163908333Y-105952380D01*
X163765476Y-106000000D01*
X163717857Y-106047619D01*
X162765476Y-106952380D02*
X163336904Y-106952380D01*
X163051190Y-106952380D02*
X163051190Y-105952380D01*
X163146428Y-106095238D01*
X163241666Y-106190476D01*
X163336904Y-106238095D01*
X162432142Y-105952380D02*
X161813095Y-105952380D01*
X162146428Y-106333333D01*
X162003571Y-106333333D01*
X161908333Y-106380952D01*
X161860714Y-106428571D01*
X161813095Y-106523809D01*
X161813095Y-106761904D01*
X161860714Y-106857142D01*
X161908333Y-106904761D01*
X162003571Y-106952380D01*
X162289285Y-106952380D01*
X162384523Y-106904761D01*
X162432142Y-106857142D01*
%TO.C,C14*%
X163717857Y-105657142D02*
X163765476Y-105704761D01*
X163908333Y-105752380D01*
X164003571Y-105752380D01*
X164146428Y-105704761D01*
X164241666Y-105609523D01*
X164289285Y-105514285D01*
X164336904Y-105323809D01*
X164336904Y-105180952D01*
X164289285Y-104990476D01*
X164241666Y-104895238D01*
X164146428Y-104800000D01*
X164003571Y-104752380D01*
X163908333Y-104752380D01*
X163765476Y-104800000D01*
X163717857Y-104847619D01*
X162765476Y-105752380D02*
X163336904Y-105752380D01*
X163051190Y-105752380D02*
X163051190Y-104752380D01*
X163146428Y-104895238D01*
X163241666Y-104990476D01*
X163336904Y-105038095D01*
X161908333Y-105085714D02*
X161908333Y-105752380D01*
X162146428Y-104704761D02*
X162384523Y-105419047D01*
X161765476Y-105419047D01*
%TO.C,C15*%
X163717857Y-104357142D02*
X163765476Y-104404761D01*
X163908333Y-104452380D01*
X164003571Y-104452380D01*
X164146428Y-104404761D01*
X164241666Y-104309523D01*
X164289285Y-104214285D01*
X164336904Y-104023809D01*
X164336904Y-103880952D01*
X164289285Y-103690476D01*
X164241666Y-103595238D01*
X164146428Y-103500000D01*
X164003571Y-103452380D01*
X163908333Y-103452380D01*
X163765476Y-103500000D01*
X163717857Y-103547619D01*
X162765476Y-104452380D02*
X163336904Y-104452380D01*
X163051190Y-104452380D02*
X163051190Y-103452380D01*
X163146428Y-103595238D01*
X163241666Y-103690476D01*
X163336904Y-103738095D01*
X161860714Y-103452380D02*
X162336904Y-103452380D01*
X162384523Y-103928571D01*
X162336904Y-103880952D01*
X162241666Y-103833333D01*
X162003571Y-103833333D01*
X161908333Y-103880952D01*
X161860714Y-103928571D01*
X161813095Y-104023809D01*
X161813095Y-104261904D01*
X161860714Y-104357142D01*
X161908333Y-104404761D01*
X162003571Y-104452380D01*
X162241666Y-104452380D01*
X162336904Y-104404761D01*
X162384523Y-104357142D01*
%TO.C,C16*%
X130632142Y-120957142D02*
X130679761Y-120909523D01*
X130727380Y-120766666D01*
X130727380Y-120671428D01*
X130679761Y-120528571D01*
X130584523Y-120433333D01*
X130489285Y-120385714D01*
X130298809Y-120338095D01*
X130155952Y-120338095D01*
X129965476Y-120385714D01*
X129870238Y-120433333D01*
X129775000Y-120528571D01*
X129727380Y-120671428D01*
X129727380Y-120766666D01*
X129775000Y-120909523D01*
X129822619Y-120957142D01*
X130727380Y-121909523D02*
X130727380Y-121338095D01*
X130727380Y-121623809D02*
X129727380Y-121623809D01*
X129870238Y-121528571D01*
X129965476Y-121433333D01*
X130013095Y-121338095D01*
X129727380Y-122766666D02*
X129727380Y-122576190D01*
X129775000Y-122480952D01*
X129822619Y-122433333D01*
X129965476Y-122338095D01*
X130155952Y-122290476D01*
X130536904Y-122290476D01*
X130632142Y-122338095D01*
X130679761Y-122385714D01*
X130727380Y-122480952D01*
X130727380Y-122671428D01*
X130679761Y-122766666D01*
X130632142Y-122814285D01*
X130536904Y-122861904D01*
X130298809Y-122861904D01*
X130203571Y-122814285D01*
X130155952Y-122766666D01*
X130108333Y-122671428D01*
X130108333Y-122480952D01*
X130155952Y-122385714D01*
X130203571Y-122338095D01*
X130298809Y-122290476D01*
%TO.C,C18*%
X147717857Y-115657142D02*
X147765476Y-115704761D01*
X147908333Y-115752380D01*
X148003571Y-115752380D01*
X148146428Y-115704761D01*
X148241666Y-115609523D01*
X148289285Y-115514285D01*
X148336904Y-115323809D01*
X148336904Y-115180952D01*
X148289285Y-114990476D01*
X148241666Y-114895238D01*
X148146428Y-114800000D01*
X148003571Y-114752380D01*
X147908333Y-114752380D01*
X147765476Y-114800000D01*
X147717857Y-114847619D01*
X146765476Y-115752380D02*
X147336904Y-115752380D01*
X147051190Y-115752380D02*
X147051190Y-114752380D01*
X147146428Y-114895238D01*
X147241666Y-114990476D01*
X147336904Y-115038095D01*
X146194047Y-115180952D02*
X146289285Y-115133333D01*
X146336904Y-115085714D01*
X146384523Y-114990476D01*
X146384523Y-114942857D01*
X146336904Y-114847619D01*
X146289285Y-114800000D01*
X146194047Y-114752380D01*
X146003571Y-114752380D01*
X145908333Y-114800000D01*
X145860714Y-114847619D01*
X145813095Y-114942857D01*
X145813095Y-114990476D01*
X145860714Y-115085714D01*
X145908333Y-115133333D01*
X146003571Y-115180952D01*
X146194047Y-115180952D01*
X146289285Y-115228571D01*
X146336904Y-115276190D01*
X146384523Y-115371428D01*
X146384523Y-115561904D01*
X146336904Y-115657142D01*
X146289285Y-115704761D01*
X146194047Y-115752380D01*
X146003571Y-115752380D01*
X145908333Y-115704761D01*
X145860714Y-115657142D01*
X145813095Y-115561904D01*
X145813095Y-115371428D01*
X145860714Y-115276190D01*
X145908333Y-115228571D01*
X146003571Y-115180952D01*
%TO.C,C19*%
X145977857Y-118251142D02*
X146025476Y-118298761D01*
X146168333Y-118346380D01*
X146263571Y-118346380D01*
X146406428Y-118298761D01*
X146501666Y-118203523D01*
X146549285Y-118108285D01*
X146596904Y-117917809D01*
X146596904Y-117774952D01*
X146549285Y-117584476D01*
X146501666Y-117489238D01*
X146406428Y-117394000D01*
X146263571Y-117346380D01*
X146168333Y-117346380D01*
X146025476Y-117394000D01*
X145977857Y-117441619D01*
X145025476Y-118346380D02*
X145596904Y-118346380D01*
X145311190Y-118346380D02*
X145311190Y-117346380D01*
X145406428Y-117489238D01*
X145501666Y-117584476D01*
X145596904Y-117632095D01*
X144549285Y-118346380D02*
X144358809Y-118346380D01*
X144263571Y-118298761D01*
X144215952Y-118251142D01*
X144120714Y-118108285D01*
X144073095Y-117917809D01*
X144073095Y-117536857D01*
X144120714Y-117441619D01*
X144168333Y-117394000D01*
X144263571Y-117346380D01*
X144454047Y-117346380D01*
X144549285Y-117394000D01*
X144596904Y-117441619D01*
X144644523Y-117536857D01*
X144644523Y-117774952D01*
X144596904Y-117870190D01*
X144549285Y-117917809D01*
X144454047Y-117965428D01*
X144263571Y-117965428D01*
X144168333Y-117917809D01*
X144120714Y-117870190D01*
X144073095Y-117774952D01*
%TO.C,C20*%
X145977857Y-123331142D02*
X146025476Y-123378761D01*
X146168333Y-123426380D01*
X146263571Y-123426380D01*
X146406428Y-123378761D01*
X146501666Y-123283523D01*
X146549285Y-123188285D01*
X146596904Y-122997809D01*
X146596904Y-122854952D01*
X146549285Y-122664476D01*
X146501666Y-122569238D01*
X146406428Y-122474000D01*
X146263571Y-122426380D01*
X146168333Y-122426380D01*
X146025476Y-122474000D01*
X145977857Y-122521619D01*
X145596904Y-122521619D02*
X145549285Y-122474000D01*
X145454047Y-122426380D01*
X145215952Y-122426380D01*
X145120714Y-122474000D01*
X145073095Y-122521619D01*
X145025476Y-122616857D01*
X145025476Y-122712095D01*
X145073095Y-122854952D01*
X145644523Y-123426380D01*
X145025476Y-123426380D01*
X144406428Y-122426380D02*
X144311190Y-122426380D01*
X144215952Y-122474000D01*
X144168333Y-122521619D01*
X144120714Y-122616857D01*
X144073095Y-122807333D01*
X144073095Y-123045428D01*
X144120714Y-123235904D01*
X144168333Y-123331142D01*
X144215952Y-123378761D01*
X144311190Y-123426380D01*
X144406428Y-123426380D01*
X144501666Y-123378761D01*
X144549285Y-123331142D01*
X144596904Y-123235904D01*
X144644523Y-123045428D01*
X144644523Y-122807333D01*
X144596904Y-122616857D01*
X144549285Y-122521619D01*
X144501666Y-122474000D01*
X144406428Y-122426380D01*
%TO.C,C21*%
X135917857Y-116657142D02*
X135965476Y-116704761D01*
X136108333Y-116752380D01*
X136203571Y-116752380D01*
X136346428Y-116704761D01*
X136441666Y-116609523D01*
X136489285Y-116514285D01*
X136536904Y-116323809D01*
X136536904Y-116180952D01*
X136489285Y-115990476D01*
X136441666Y-115895238D01*
X136346428Y-115800000D01*
X136203571Y-115752380D01*
X136108333Y-115752380D01*
X135965476Y-115800000D01*
X135917857Y-115847619D01*
X135536904Y-115847619D02*
X135489285Y-115800000D01*
X135394047Y-115752380D01*
X135155952Y-115752380D01*
X135060714Y-115800000D01*
X135013095Y-115847619D01*
X134965476Y-115942857D01*
X134965476Y-116038095D01*
X135013095Y-116180952D01*
X135584523Y-116752380D01*
X134965476Y-116752380D01*
X134013095Y-116752380D02*
X134584523Y-116752380D01*
X134298809Y-116752380D02*
X134298809Y-115752380D01*
X134394047Y-115895238D01*
X134489285Y-115990476D01*
X134584523Y-116038095D01*
%TO.C,D1*%
X153313095Y-117652380D02*
X153313095Y-116652380D01*
X153075000Y-116652380D01*
X152932142Y-116700000D01*
X152836904Y-116795238D01*
X152789285Y-116890476D01*
X152741666Y-117080952D01*
X152741666Y-117223809D01*
X152789285Y-117414285D01*
X152836904Y-117509523D01*
X152932142Y-117604761D01*
X153075000Y-117652380D01*
X153313095Y-117652380D01*
X151789285Y-117652380D02*
X152360714Y-117652380D01*
X152075000Y-117652380D02*
X152075000Y-116652380D01*
X152170238Y-116795238D01*
X152265476Y-116890476D01*
X152360714Y-116938095D01*
%TO.C,D2*%
X153269095Y-112892380D02*
X153269095Y-111892380D01*
X153031000Y-111892380D01*
X152888142Y-111940000D01*
X152792904Y-112035238D01*
X152745285Y-112130476D01*
X152697666Y-112320952D01*
X152697666Y-112463809D01*
X152745285Y-112654285D01*
X152792904Y-112749523D01*
X152888142Y-112844761D01*
X153031000Y-112892380D01*
X153269095Y-112892380D01*
X152316714Y-111987619D02*
X152269095Y-111940000D01*
X152173857Y-111892380D01*
X151935761Y-111892380D01*
X151840523Y-111940000D01*
X151792904Y-111987619D01*
X151745285Y-112082857D01*
X151745285Y-112178095D01*
X151792904Y-112320952D01*
X152364333Y-112892380D01*
X151745285Y-112892380D01*
%TO.C,D3*%
X153269095Y-115352380D02*
X153269095Y-114352380D01*
X153031000Y-114352380D01*
X152888142Y-114400000D01*
X152792904Y-114495238D01*
X152745285Y-114590476D01*
X152697666Y-114780952D01*
X152697666Y-114923809D01*
X152745285Y-115114285D01*
X152792904Y-115209523D01*
X152888142Y-115304761D01*
X153031000Y-115352380D01*
X153269095Y-115352380D01*
X152364333Y-114352380D02*
X151745285Y-114352380D01*
X152078619Y-114733333D01*
X151935761Y-114733333D01*
X151840523Y-114780952D01*
X151792904Y-114828571D01*
X151745285Y-114923809D01*
X151745285Y-115161904D01*
X151792904Y-115257142D01*
X151840523Y-115304761D01*
X151935761Y-115352380D01*
X152221476Y-115352380D01*
X152316714Y-115304761D01*
X152364333Y-115257142D01*
%TO.C,L1*%
X110441666Y-123114380D02*
X110917857Y-123114380D01*
X110917857Y-122114380D01*
X109584523Y-123114380D02*
X110155952Y-123114380D01*
X109870238Y-123114380D02*
X109870238Y-122114380D01*
X109965476Y-122257238D01*
X110060714Y-122352476D01*
X110155952Y-122400095D01*
%TO.C,Q1*%
X123570238Y-123047619D02*
X123665476Y-123000000D01*
X123760714Y-122904761D01*
X123903571Y-122761904D01*
X123998809Y-122714285D01*
X124094047Y-122714285D01*
X124046428Y-122952380D02*
X124141666Y-122904761D01*
X124236904Y-122809523D01*
X124284523Y-122619047D01*
X124284523Y-122285714D01*
X124236904Y-122095238D01*
X124141666Y-122000000D01*
X124046428Y-121952380D01*
X123855952Y-121952380D01*
X123760714Y-122000000D01*
X123665476Y-122095238D01*
X123617857Y-122285714D01*
X123617857Y-122619047D01*
X123665476Y-122809523D01*
X123760714Y-122904761D01*
X123855952Y-122952380D01*
X124046428Y-122952380D01*
X122665476Y-122952380D02*
X123236904Y-122952380D01*
X122951190Y-122952380D02*
X122951190Y-121952380D01*
X123046428Y-122095238D01*
X123141666Y-122190476D01*
X123236904Y-122238095D01*
%TO.C,Q2*%
X156470238Y-107147619D02*
X156565476Y-107100000D01*
X156660714Y-107004761D01*
X156803571Y-106861904D01*
X156898809Y-106814285D01*
X156994047Y-106814285D01*
X156946428Y-107052380D02*
X157041666Y-107004761D01*
X157136904Y-106909523D01*
X157184523Y-106719047D01*
X157184523Y-106385714D01*
X157136904Y-106195238D01*
X157041666Y-106100000D01*
X156946428Y-106052380D01*
X156755952Y-106052380D01*
X156660714Y-106100000D01*
X156565476Y-106195238D01*
X156517857Y-106385714D01*
X156517857Y-106719047D01*
X156565476Y-106909523D01*
X156660714Y-107004761D01*
X156755952Y-107052380D01*
X156946428Y-107052380D01*
X156136904Y-106147619D02*
X156089285Y-106100000D01*
X155994047Y-106052380D01*
X155755952Y-106052380D01*
X155660714Y-106100000D01*
X155613095Y-106147619D01*
X155565476Y-106242857D01*
X155565476Y-106338095D01*
X155613095Y-106480952D01*
X156184523Y-107052380D01*
X155565476Y-107052380D01*
%TO.C,R1*%
X121827380Y-115833333D02*
X121351190Y-115500000D01*
X121827380Y-115261904D02*
X120827380Y-115261904D01*
X120827380Y-115642857D01*
X120875000Y-115738095D01*
X120922619Y-115785714D01*
X121017857Y-115833333D01*
X121160714Y-115833333D01*
X121255952Y-115785714D01*
X121303571Y-115738095D01*
X121351190Y-115642857D01*
X121351190Y-115261904D01*
X121827380Y-116785714D02*
X121827380Y-116214285D01*
X121827380Y-116500000D02*
X120827380Y-116500000D01*
X120970238Y-116404761D01*
X121065476Y-116309523D01*
X121113095Y-116214285D01*
%TO.C,R5*%
X172341666Y-107252380D02*
X172675000Y-106776190D01*
X172913095Y-107252380D02*
X172913095Y-106252380D01*
X172532142Y-106252380D01*
X172436904Y-106300000D01*
X172389285Y-106347619D01*
X172341666Y-106442857D01*
X172341666Y-106585714D01*
X172389285Y-106680952D01*
X172436904Y-106728571D01*
X172532142Y-106776190D01*
X172913095Y-106776190D01*
X171436904Y-106252380D02*
X171913095Y-106252380D01*
X171960714Y-106728571D01*
X171913095Y-106680952D01*
X171817857Y-106633333D01*
X171579761Y-106633333D01*
X171484523Y-106680952D01*
X171436904Y-106728571D01*
X171389285Y-106823809D01*
X171389285Y-107061904D01*
X171436904Y-107157142D01*
X171484523Y-107204761D01*
X171579761Y-107252380D01*
X171817857Y-107252380D01*
X171913095Y-107204761D01*
X171960714Y-107157142D01*
%TO.C,R6*%
X172341666Y-105652380D02*
X172675000Y-105176190D01*
X172913095Y-105652380D02*
X172913095Y-104652380D01*
X172532142Y-104652380D01*
X172436904Y-104700000D01*
X172389285Y-104747619D01*
X172341666Y-104842857D01*
X172341666Y-104985714D01*
X172389285Y-105080952D01*
X172436904Y-105128571D01*
X172532142Y-105176190D01*
X172913095Y-105176190D01*
X171484523Y-104652380D02*
X171675000Y-104652380D01*
X171770238Y-104700000D01*
X171817857Y-104747619D01*
X171913095Y-104890476D01*
X171960714Y-105080952D01*
X171960714Y-105461904D01*
X171913095Y-105557142D01*
X171865476Y-105604761D01*
X171770238Y-105652380D01*
X171579761Y-105652380D01*
X171484523Y-105604761D01*
X171436904Y-105557142D01*
X171389285Y-105461904D01*
X171389285Y-105223809D01*
X171436904Y-105128571D01*
X171484523Y-105080952D01*
X171579761Y-105033333D01*
X171770238Y-105033333D01*
X171865476Y-105080952D01*
X171913095Y-105128571D01*
X171960714Y-105223809D01*
%TO.C,R10*%
X129127380Y-120957142D02*
X128651190Y-120623809D01*
X129127380Y-120385714D02*
X128127380Y-120385714D01*
X128127380Y-120766666D01*
X128175000Y-120861904D01*
X128222619Y-120909523D01*
X128317857Y-120957142D01*
X128460714Y-120957142D01*
X128555952Y-120909523D01*
X128603571Y-120861904D01*
X128651190Y-120766666D01*
X128651190Y-120385714D01*
X129127380Y-121909523D02*
X129127380Y-121338095D01*
X129127380Y-121623809D02*
X128127380Y-121623809D01*
X128270238Y-121528571D01*
X128365476Y-121433333D01*
X128413095Y-121338095D01*
X128127380Y-122528571D02*
X128127380Y-122623809D01*
X128175000Y-122719047D01*
X128222619Y-122766666D01*
X128317857Y-122814285D01*
X128508333Y-122861904D01*
X128746428Y-122861904D01*
X128936904Y-122814285D01*
X129032142Y-122766666D01*
X129079761Y-122719047D01*
X129127380Y-122623809D01*
X129127380Y-122528571D01*
X129079761Y-122433333D01*
X129032142Y-122385714D01*
X128936904Y-122338095D01*
X128746428Y-122290476D01*
X128508333Y-122290476D01*
X128317857Y-122338095D01*
X128222619Y-122385714D01*
X128175000Y-122433333D01*
X128127380Y-122528571D01*
%TO.C,R16*%
X108917857Y-108052380D02*
X109251190Y-107576190D01*
X109489285Y-108052380D02*
X109489285Y-107052380D01*
X109108333Y-107052380D01*
X109013095Y-107100000D01*
X108965476Y-107147619D01*
X108917857Y-107242857D01*
X108917857Y-107385714D01*
X108965476Y-107480952D01*
X109013095Y-107528571D01*
X109108333Y-107576190D01*
X109489285Y-107576190D01*
X107965476Y-108052380D02*
X108536904Y-108052380D01*
X108251190Y-108052380D02*
X108251190Y-107052380D01*
X108346428Y-107195238D01*
X108441666Y-107290476D01*
X108536904Y-107338095D01*
X107108333Y-107052380D02*
X107298809Y-107052380D01*
X107394047Y-107100000D01*
X107441666Y-107147619D01*
X107536904Y-107290476D01*
X107584523Y-107480952D01*
X107584523Y-107861904D01*
X107536904Y-107957142D01*
X107489285Y-108004761D01*
X107394047Y-108052380D01*
X107203571Y-108052380D01*
X107108333Y-108004761D01*
X107060714Y-107957142D01*
X107013095Y-107861904D01*
X107013095Y-107623809D01*
X107060714Y-107528571D01*
X107108333Y-107480952D01*
X107203571Y-107433333D01*
X107394047Y-107433333D01*
X107489285Y-107480952D01*
X107536904Y-107528571D01*
X107584523Y-107623809D01*
%TO.C,R17*%
X108817857Y-99652380D02*
X109151190Y-99176190D01*
X109389285Y-99652380D02*
X109389285Y-98652380D01*
X109008333Y-98652380D01*
X108913095Y-98700000D01*
X108865476Y-98747619D01*
X108817857Y-98842857D01*
X108817857Y-98985714D01*
X108865476Y-99080952D01*
X108913095Y-99128571D01*
X109008333Y-99176190D01*
X109389285Y-99176190D01*
X107865476Y-99652380D02*
X108436904Y-99652380D01*
X108151190Y-99652380D02*
X108151190Y-98652380D01*
X108246428Y-98795238D01*
X108341666Y-98890476D01*
X108436904Y-98938095D01*
X107532142Y-98652380D02*
X106865476Y-98652380D01*
X107294047Y-99652380D01*
%TO.C,U1*%
X111272904Y-118840380D02*
X111272904Y-119649904D01*
X111225285Y-119745142D01*
X111177666Y-119792761D01*
X111082428Y-119840380D01*
X110891952Y-119840380D01*
X110796714Y-119792761D01*
X110749095Y-119745142D01*
X110701476Y-119649904D01*
X110701476Y-118840380D01*
X109701476Y-119840380D02*
X110272904Y-119840380D01*
X109987190Y-119840380D02*
X109987190Y-118840380D01*
X110082428Y-118983238D01*
X110177666Y-119078476D01*
X110272904Y-119126095D01*
%TO.C,U2*%
X127336904Y-105352380D02*
X127336904Y-106161904D01*
X127289285Y-106257142D01*
X127241666Y-106304761D01*
X127146428Y-106352380D01*
X126955952Y-106352380D01*
X126860714Y-106304761D01*
X126813095Y-106257142D01*
X126765476Y-106161904D01*
X126765476Y-105352380D01*
X126336904Y-105447619D02*
X126289285Y-105400000D01*
X126194047Y-105352380D01*
X125955952Y-105352380D01*
X125860714Y-105400000D01*
X125813095Y-105447619D01*
X125765476Y-105542857D01*
X125765476Y-105638095D01*
X125813095Y-105780952D01*
X126384523Y-106352380D01*
X125765476Y-106352380D01*
%TO.C,U3*%
X141936904Y-107052380D02*
X141936904Y-107861904D01*
X141889285Y-107957142D01*
X141841666Y-108004761D01*
X141746428Y-108052380D01*
X141555952Y-108052380D01*
X141460714Y-108004761D01*
X141413095Y-107957142D01*
X141365476Y-107861904D01*
X141365476Y-107052380D01*
X140984523Y-107052380D02*
X140365476Y-107052380D01*
X140698809Y-107433333D01*
X140555952Y-107433333D01*
X140460714Y-107480952D01*
X140413095Y-107528571D01*
X140365476Y-107623809D01*
X140365476Y-107861904D01*
X140413095Y-107957142D01*
X140460714Y-108004761D01*
X140555952Y-108052380D01*
X140841666Y-108052380D01*
X140936904Y-108004761D01*
X140984523Y-107957142D01*
%TO.C,U4*%
X137836904Y-124352380D02*
X137836904Y-125161904D01*
X137789285Y-125257142D01*
X137741666Y-125304761D01*
X137646428Y-125352380D01*
X137455952Y-125352380D01*
X137360714Y-125304761D01*
X137313095Y-125257142D01*
X137265476Y-125161904D01*
X137265476Y-124352380D01*
X136360714Y-124685714D02*
X136360714Y-125352380D01*
X136598809Y-124304761D02*
X136836904Y-125019047D01*
X136217857Y-125019047D01*
%TO.C,Y1*%
X148851190Y-122876190D02*
X148851190Y-123352380D01*
X149184523Y-122352380D02*
X148851190Y-122876190D01*
X148517857Y-122352380D01*
X147660714Y-123352380D02*
X148232142Y-123352380D01*
X147946428Y-123352380D02*
X147946428Y-122352380D01*
X148041666Y-122495238D01*
X148136904Y-122590476D01*
X148232142Y-122638095D01*
%TD*%
M02*
