%TF.GenerationSoftware,KiCad,Pcbnew,5.1.9+dfsg1-1~bpo10+1*%
%TF.CreationDate,2021-08-15T14:26:23+08:00*%
%TF.ProjectId,epd-clock,6570642d-636c-46f6-936b-2e6b69636164,rev?*%
%TF.SameCoordinates,Original*%
%TF.FileFunction,Legend,Bot*%
%TF.FilePolarity,Positive*%
%FSLAX46Y46*%
G04 Gerber Fmt 4.6, Leading zero omitted, Abs format (unit mm)*
G04 Created by KiCad (PCBNEW 5.1.9+dfsg1-1~bpo10+1) date 2021-08-15 14:26:23*
%MOMM*%
%LPD*%
G01*
G04 APERTURE LIST*
%ADD10C,0.200000*%
%ADD11C,0.150000*%
%ADD12C,0.120000*%
%ADD13C,0.500000*%
G04 APERTURE END LIST*
D10*
X133530583Y-102428003D02*
X133395896Y-102360660D01*
X133227538Y-102192301D01*
X133193866Y-102091286D01*
X133193866Y-102023942D01*
X133227538Y-101922927D01*
X133294881Y-101855583D01*
X133395896Y-101821912D01*
X133463240Y-101821912D01*
X133564255Y-101855583D01*
X133732614Y-101956599D01*
X133833629Y-101990270D01*
X133900973Y-101990270D01*
X134001988Y-101956599D01*
X134069331Y-101889255D01*
X134103003Y-101788240D01*
X134103003Y-101720896D01*
X134069331Y-101619881D01*
X133900973Y-101451522D01*
X133766286Y-101384179D01*
X132453087Y-101283164D02*
X132453087Y-101350507D01*
X132520431Y-101485194D01*
X132587774Y-101552538D01*
X132722461Y-101619881D01*
X132857148Y-101619881D01*
X132958164Y-101586209D01*
X133126522Y-101485194D01*
X133227538Y-101384179D01*
X133328553Y-101215820D01*
X133362225Y-101114805D01*
X133362225Y-100980118D01*
X133294881Y-100845431D01*
X133227538Y-100778087D01*
X133092851Y-100710744D01*
X133025507Y-100710744D01*
X131745981Y-100710744D02*
X132082698Y-101047461D01*
X132789805Y-100340355D01*
X131147419Y-102544839D02*
X131012732Y-102477496D01*
X130844374Y-102309137D01*
X130810702Y-102208122D01*
X130810702Y-102140778D01*
X130844374Y-102039763D01*
X130911717Y-101972419D01*
X131012732Y-101938748D01*
X131080076Y-101938748D01*
X131181091Y-101972419D01*
X131349450Y-102073435D01*
X131450465Y-102107106D01*
X131517809Y-102107106D01*
X131618824Y-102073435D01*
X131686167Y-102006091D01*
X131719839Y-101905076D01*
X131719839Y-101837732D01*
X131686167Y-101736717D01*
X131517809Y-101568358D01*
X131383122Y-101501015D01*
X130406641Y-101871404D02*
X131113748Y-101164297D01*
X130945389Y-100995938D01*
X130810702Y-100928595D01*
X130676015Y-100928595D01*
X130574999Y-100962267D01*
X130406641Y-101063282D01*
X130305625Y-101164297D01*
X130204610Y-101332656D01*
X130170938Y-101433671D01*
X130170938Y-101568358D01*
X130238282Y-101703045D01*
X130406641Y-101871404D01*
X129935236Y-100995938D02*
X129598519Y-100659221D01*
X129800549Y-101265312D02*
X130271954Y-100322503D01*
X129329145Y-100793908D01*
D11*
X175789285Y-104352380D02*
X175170238Y-104352380D01*
X175503571Y-104733333D01*
X175360714Y-104733333D01*
X175265476Y-104780952D01*
X175217857Y-104828571D01*
X175170238Y-104923809D01*
X175170238Y-105161904D01*
X175217857Y-105257142D01*
X175265476Y-105304761D01*
X175360714Y-105352380D01*
X175646428Y-105352380D01*
X175741666Y-105304761D01*
X175789285Y-105257142D01*
X174075000Y-104685714D02*
X173884523Y-105352380D01*
X173694047Y-104876190D01*
X173503571Y-105352380D01*
X173313095Y-104685714D01*
X172932142Y-105352380D02*
X172932142Y-104685714D01*
X172932142Y-104352380D02*
X172979761Y-104400000D01*
X172932142Y-104447619D01*
X172884523Y-104400000D01*
X172932142Y-104352380D01*
X172932142Y-104447619D01*
X172455952Y-105352380D02*
X172455952Y-104685714D01*
X172455952Y-104876190D02*
X172408333Y-104780952D01*
X172360714Y-104733333D01*
X172265476Y-104685714D01*
X172170238Y-104685714D01*
X171455952Y-105304761D02*
X171551190Y-105352380D01*
X171741666Y-105352380D01*
X171836904Y-105304761D01*
X171884523Y-105209523D01*
X171884523Y-104828571D01*
X171836904Y-104733333D01*
X171741666Y-104685714D01*
X171551190Y-104685714D01*
X171455952Y-104733333D01*
X171408333Y-104828571D01*
X171408333Y-104923809D01*
X171884523Y-105019047D01*
X169365476Y-104685714D02*
X169365476Y-105352380D01*
X169603571Y-104304761D02*
X169841666Y-105019047D01*
X169222619Y-105019047D01*
X168175000Y-104685714D02*
X167984523Y-105352380D01*
X167794047Y-104876190D01*
X167603571Y-105352380D01*
X167413095Y-104685714D01*
X167032142Y-105352380D02*
X167032142Y-104685714D01*
X167032142Y-104352380D02*
X167079761Y-104400000D01*
X167032142Y-104447619D01*
X166984523Y-104400000D01*
X167032142Y-104352380D01*
X167032142Y-104447619D01*
X166555952Y-105352380D02*
X166555952Y-104685714D01*
X166555952Y-104876190D02*
X166508333Y-104780952D01*
X166460714Y-104733333D01*
X166365476Y-104685714D01*
X166270238Y-104685714D01*
X165555952Y-105304761D02*
X165651190Y-105352380D01*
X165841666Y-105352380D01*
X165936904Y-105304761D01*
X165984523Y-105209523D01*
X165984523Y-104828571D01*
X165936904Y-104733333D01*
X165841666Y-104685714D01*
X165651190Y-104685714D01*
X165555952Y-104733333D01*
X165508333Y-104828571D01*
X165508333Y-104923809D01*
X165984523Y-105019047D01*
X115146428Y-125628571D02*
X115003571Y-125676190D01*
X114955952Y-125723809D01*
X114908333Y-125819047D01*
X114908333Y-125961904D01*
X114955952Y-126057142D01*
X115003571Y-126104761D01*
X115098809Y-126152380D01*
X115479761Y-126152380D01*
X115479761Y-125152380D01*
X115146428Y-125152380D01*
X115051190Y-125200000D01*
X115003571Y-125247619D01*
X114955952Y-125342857D01*
X114955952Y-125438095D01*
X115003571Y-125533333D01*
X115051190Y-125580952D01*
X115146428Y-125628571D01*
X115479761Y-125628571D01*
X114051190Y-126152380D02*
X114051190Y-125628571D01*
X114098809Y-125533333D01*
X114194047Y-125485714D01*
X114384523Y-125485714D01*
X114479761Y-125533333D01*
X114051190Y-126104761D02*
X114146428Y-126152380D01*
X114384523Y-126152380D01*
X114479761Y-126104761D01*
X114527380Y-126009523D01*
X114527380Y-125914285D01*
X114479761Y-125819047D01*
X114384523Y-125771428D01*
X114146428Y-125771428D01*
X114051190Y-125723809D01*
X113717857Y-125485714D02*
X113336904Y-125485714D01*
X113575000Y-125152380D02*
X113575000Y-126009523D01*
X113527380Y-126104761D01*
X113432142Y-126152380D01*
X113336904Y-126152380D01*
X113146428Y-125485714D02*
X112765476Y-125485714D01*
X113003571Y-125152380D02*
X113003571Y-126009523D01*
X112955952Y-126104761D01*
X112860714Y-126152380D01*
X112765476Y-126152380D01*
X112051190Y-126104761D02*
X112146428Y-126152380D01*
X112336904Y-126152380D01*
X112432142Y-126104761D01*
X112479761Y-126009523D01*
X112479761Y-125628571D01*
X112432142Y-125533333D01*
X112336904Y-125485714D01*
X112146428Y-125485714D01*
X112051190Y-125533333D01*
X112003571Y-125628571D01*
X112003571Y-125723809D01*
X112479761Y-125819047D01*
X111575000Y-126152380D02*
X111575000Y-125485714D01*
X111575000Y-125676190D02*
X111527380Y-125580952D01*
X111479761Y-125533333D01*
X111384523Y-125485714D01*
X111289285Y-125485714D01*
X111051190Y-125485714D02*
X110813095Y-126152380D01*
X110575000Y-125485714D02*
X110813095Y-126152380D01*
X110908333Y-126390476D01*
X110955952Y-126438095D01*
X111051190Y-126485714D01*
X110194047Y-125771428D02*
X109432142Y-125771428D01*
X109098809Y-125152380D02*
X108527380Y-125152380D01*
X108813095Y-126152380D02*
X108813095Y-125152380D01*
X108194047Y-126152380D02*
X108194047Y-125152380D01*
X107813095Y-125152380D01*
X107717857Y-125200000D01*
X107670238Y-125247619D01*
X107622619Y-125342857D01*
X107622619Y-125485714D01*
X107670238Y-125580952D01*
X107717857Y-125628571D01*
X107813095Y-125676190D01*
X108194047Y-125676190D01*
D10*
X116937690Y-101988240D02*
X116499957Y-101550507D01*
X116466286Y-102055583D01*
X116365270Y-101954568D01*
X116264255Y-101920896D01*
X116196912Y-101920896D01*
X116095896Y-101954568D01*
X115927538Y-102122927D01*
X115893866Y-102223942D01*
X115893866Y-102291286D01*
X115927538Y-102392301D01*
X116129568Y-102594331D01*
X116230583Y-102628003D01*
X116297927Y-102628003D01*
X116297927Y-101348477D02*
X115355118Y-101819881D01*
X115826522Y-100877072D01*
X115658164Y-100708713D02*
X115220431Y-100270981D01*
X115186759Y-100776057D01*
X115085744Y-100675042D01*
X114984729Y-100641370D01*
X114917385Y-100641370D01*
X114816370Y-100675042D01*
X114648011Y-100843400D01*
X114614339Y-100944416D01*
X114614339Y-101011759D01*
X114648011Y-101112774D01*
X114850042Y-101314805D01*
X114951057Y-101348477D01*
X115018400Y-101348477D01*
X119267301Y-101685194D02*
X119368316Y-101718866D01*
X119469331Y-101819881D01*
X119536675Y-101954568D01*
X119536675Y-102089255D01*
X119503003Y-102190270D01*
X119401988Y-102358629D01*
X119300973Y-102459644D01*
X119132614Y-102560660D01*
X119031599Y-102594331D01*
X118896912Y-102594331D01*
X118762225Y-102526988D01*
X118694881Y-102459644D01*
X118627538Y-102324957D01*
X118627538Y-102257614D01*
X118863240Y-102021912D01*
X118997927Y-102156599D01*
X118257148Y-102021912D02*
X118964255Y-101314805D01*
X117853087Y-101617851D01*
X118560194Y-100910744D01*
X117516370Y-101281133D02*
X118223477Y-100574026D01*
X118055118Y-100405668D01*
X117920431Y-100338324D01*
X117785744Y-100338324D01*
X117684729Y-100371996D01*
X117516370Y-100473011D01*
X117415355Y-100574026D01*
X117314339Y-100742385D01*
X117280668Y-100843400D01*
X117280668Y-100978087D01*
X117348011Y-101112774D01*
X117516370Y-101281133D01*
X121954526Y-101905076D02*
X121550465Y-101501015D01*
X121045389Y-102410152D02*
X121752496Y-101703045D01*
X121382106Y-101332656D02*
X120203595Y-101568358D01*
X120910702Y-100861251D02*
X120675000Y-102039763D01*
X119934221Y-101298984D02*
X120641328Y-100591877D01*
X120472969Y-100423519D01*
X120338282Y-100356175D01*
X120203595Y-100356175D01*
X120102580Y-100389847D01*
X119934221Y-100490862D01*
X119833206Y-100591877D01*
X119732190Y-100760236D01*
X119698519Y-100861251D01*
X119698519Y-100995938D01*
X119765862Y-101130625D01*
X119934221Y-101298984D01*
X123426522Y-102291286D02*
X123998942Y-102190270D01*
X123830583Y-102695347D02*
X124537690Y-101988240D01*
X124268316Y-101718866D01*
X124167301Y-101685194D01*
X124099957Y-101685194D01*
X123998942Y-101718866D01*
X123897927Y-101819881D01*
X123864255Y-101920896D01*
X123864255Y-101988240D01*
X123897927Y-102089255D01*
X124167301Y-102358629D01*
X123897927Y-101348477D02*
X122719416Y-101584179D01*
X123426522Y-100877072D02*
X123190820Y-102055583D01*
X122450042Y-101314805D02*
X123157148Y-100607698D01*
X122988790Y-100439339D01*
X122854103Y-100371996D01*
X122719416Y-100371996D01*
X122618400Y-100405668D01*
X122450042Y-100506683D01*
X122349026Y-100607698D01*
X122248011Y-100776057D01*
X122214339Y-100877072D01*
X122214339Y-101011759D01*
X122281683Y-101146446D01*
X122450042Y-101314805D01*
X127490228Y-102540778D02*
X127086167Y-102136717D01*
X126581091Y-103045854D02*
X127288198Y-102338748D01*
X126513748Y-102237732D02*
X126278045Y-102002030D01*
X125806641Y-102271404D02*
X126143358Y-102608122D01*
X126850465Y-101901015D01*
X126513748Y-101564297D01*
X125570938Y-101968358D02*
X125436251Y-101901015D01*
X125267893Y-101732656D01*
X125234221Y-101631641D01*
X125234221Y-101564297D01*
X125267893Y-101463282D01*
X125335236Y-101395938D01*
X125436251Y-101362267D01*
X125503595Y-101362267D01*
X125604610Y-101395938D01*
X125772969Y-101496954D01*
X125873984Y-101530625D01*
X125941328Y-101530625D01*
X126042343Y-101496954D01*
X126109687Y-101429610D01*
X126143358Y-101328595D01*
X126143358Y-101261251D01*
X126109687Y-101160236D01*
X125941328Y-100991877D01*
X125806641Y-100924534D01*
X125638282Y-100688832D02*
X125234221Y-100284771D01*
X124729145Y-101193908D02*
X125436251Y-100486801D01*
X128342343Y-102307106D02*
X128914763Y-102206091D01*
X128746404Y-102711167D02*
X129453511Y-102004061D01*
X129184137Y-101734687D01*
X129083122Y-101701015D01*
X129015778Y-101701015D01*
X128914763Y-101734687D01*
X128813748Y-101835702D01*
X128780076Y-101936717D01*
X128780076Y-102004061D01*
X128813748Y-102105076D01*
X129083122Y-102374450D01*
X128106641Y-102004061D02*
X127971954Y-101936717D01*
X127803595Y-101768358D01*
X127769923Y-101667343D01*
X127769923Y-101600000D01*
X127803595Y-101498984D01*
X127870938Y-101431641D01*
X127971954Y-101397969D01*
X128039297Y-101397969D01*
X128140312Y-101431641D01*
X128308671Y-101532656D01*
X128409687Y-101566328D01*
X128477030Y-101566328D01*
X128578045Y-101532656D01*
X128645389Y-101465312D01*
X128679061Y-101364297D01*
X128679061Y-101296954D01*
X128645389Y-101195938D01*
X128477030Y-101027580D01*
X128342343Y-100960236D01*
X128173984Y-100724534D02*
X127769923Y-100320473D01*
X127264847Y-101229610D02*
X127971954Y-100522503D01*
D12*
%TO.C,C8*%
X154263748Y-116410000D02*
X155686252Y-116410000D01*
X154263748Y-114590000D02*
X155686252Y-114590000D01*
%TO.C,R13*%
X139412258Y-118222500D02*
X138937742Y-118222500D01*
X139412258Y-117177500D02*
X138937742Y-117177500D01*
%TO.C,TP8*%
X131000000Y-99100000D02*
G75*
G03*
X131000000Y-99100000I-700000J0D01*
G01*
%TO.C,TP7*%
X133500000Y-99100000D02*
G75*
G03*
X133500000Y-99100000I-700000J0D01*
G01*
%TO.C,R7*%
X138312258Y-105677500D02*
X137837742Y-105677500D01*
X138312258Y-106722500D02*
X137837742Y-106722500D01*
%TO.C,R6*%
X138312258Y-104177500D02*
X137837742Y-104177500D01*
X138312258Y-105222500D02*
X137837742Y-105222500D01*
%TO.C,JP3*%
X168975000Y-103500000D02*
X171775000Y-103500000D01*
X172425000Y-102800000D02*
X172425000Y-102200000D01*
X171775000Y-101500000D02*
X168975000Y-101500000D01*
X168325000Y-102200000D02*
X168325000Y-102800000D01*
X169175000Y-101300000D02*
X168875000Y-101000000D01*
X168875000Y-101000000D02*
X169475000Y-101000000D01*
X169175000Y-101300000D02*
X169475000Y-101000000D01*
X168325000Y-102800000D02*
G75*
G03*
X169025000Y-103500000I700000J0D01*
G01*
X169025000Y-101500000D02*
G75*
G03*
X168325000Y-102200000I0J-700000D01*
G01*
X172425000Y-102200000D02*
G75*
G03*
X171725000Y-101500000I-700000J0D01*
G01*
X171725000Y-103500000D02*
G75*
G03*
X172425000Y-102800000I0J700000D01*
G01*
%TO.C,JP2*%
X113075000Y-114600000D02*
X114475000Y-114600000D01*
X115175000Y-113900000D02*
X115175000Y-113300000D01*
X114475000Y-112600000D02*
X113075000Y-112600000D01*
X112375000Y-113300000D02*
X112375000Y-113900000D01*
X112375000Y-113900000D02*
G75*
G03*
X113075000Y-114600000I700000J0D01*
G01*
X113075000Y-112600000D02*
G75*
G03*
X112375000Y-113300000I0J-700000D01*
G01*
X115175000Y-113300000D02*
G75*
G03*
X114475000Y-112600000I-700000J0D01*
G01*
X114475000Y-114600000D02*
G75*
G03*
X115175000Y-113900000I0J700000D01*
G01*
%TO.C,C2*%
X116665000Y-118511252D02*
X116665000Y-117088748D01*
X118485000Y-118511252D02*
X118485000Y-117088748D01*
%TO.C,BT1*%
X163401000Y-127018000D02*
X109001000Y-127018000D01*
X109001000Y-127018000D02*
X109001000Y-139518000D01*
X109001000Y-139518000D02*
X163401000Y-139518000D01*
X163401000Y-139518000D02*
X163401000Y-127018000D01*
%TO.C,Q3*%
X162557000Y-111668000D02*
X161147000Y-111668000D01*
X161147000Y-109348000D02*
X163177000Y-109348000D01*
X161147000Y-109348000D02*
X161147000Y-110008000D01*
X161147000Y-111008000D02*
X161147000Y-111668000D01*
%TO.C,JP1*%
X118375000Y-123300000D02*
X118375000Y-121900000D01*
X117675000Y-121200000D02*
X117075000Y-121200000D01*
X116375000Y-121900000D02*
X116375000Y-123300000D01*
X117075000Y-124000000D02*
X117675000Y-124000000D01*
X117675000Y-124000000D02*
G75*
G03*
X118375000Y-123300000I0J700000D01*
G01*
X116375000Y-123300000D02*
G75*
G03*
X117075000Y-124000000I700000J0D01*
G01*
X117075000Y-121200000D02*
G75*
G03*
X116375000Y-121900000I0J-700000D01*
G01*
X118375000Y-121900000D02*
G75*
G03*
X117675000Y-121200000I-700000J0D01*
G01*
%TO.C,TP6*%
X120975000Y-99100000D02*
G75*
G03*
X120975000Y-99100000I-700000J0D01*
G01*
%TO.C,TP5*%
X123475000Y-99100000D02*
G75*
G03*
X123475000Y-99100000I-700000J0D01*
G01*
%TO.C,TP4*%
X125975000Y-99100000D02*
G75*
G03*
X125975000Y-99100000I-700000J0D01*
G01*
%TO.C,TP3*%
X128475000Y-99100000D02*
G75*
G03*
X128475000Y-99100000I-700000J0D01*
G01*
%TO.C,TP2*%
X118475000Y-99100000D02*
G75*
G03*
X118475000Y-99100000I-700000J0D01*
G01*
%TO.C,TP1*%
X115975000Y-99100000D02*
G75*
G03*
X115975000Y-99100000I-700000J0D01*
G01*
%TO.C,R9*%
X144512258Y-108222500D02*
X144037742Y-108222500D01*
X144512258Y-107177500D02*
X144037742Y-107177500D01*
%TO.C,R8*%
X137837742Y-107177500D02*
X138312258Y-107177500D01*
X137837742Y-108222500D02*
X138312258Y-108222500D01*
%TO.C,R10*%
X108037742Y-116777500D02*
X108512258Y-116777500D01*
X108037742Y-117822500D02*
X108512258Y-117822500D01*
%TO.C,SW1*%
X98145000Y-116370000D02*
X98145000Y-116400000D01*
X98145000Y-122830000D02*
X98145000Y-122800000D01*
X104605000Y-122830000D02*
X104605000Y-122800000D01*
X104605000Y-116400000D02*
X104605000Y-116370000D01*
X98145000Y-118300000D02*
X98145000Y-120900000D01*
X104605000Y-116370000D02*
X98145000Y-116370000D01*
X104605000Y-118300000D02*
X104605000Y-120900000D01*
X104605000Y-122830000D02*
X98145000Y-122830000D01*
%TO.C,SW3*%
X98145000Y-99970000D02*
X98145000Y-100000000D01*
X98145000Y-106430000D02*
X98145000Y-106400000D01*
X104605000Y-106430000D02*
X104605000Y-106400000D01*
X104605000Y-100000000D02*
X104605000Y-99970000D01*
X98145000Y-101900000D02*
X98145000Y-104500000D01*
X104605000Y-99970000D02*
X98145000Y-99970000D01*
X104605000Y-101900000D02*
X104605000Y-104500000D01*
X104605000Y-106430000D02*
X98145000Y-106430000D01*
%TO.C,SW2*%
X98145000Y-108170000D02*
X98145000Y-108200000D01*
X98145000Y-114630000D02*
X98145000Y-114600000D01*
X104605000Y-114630000D02*
X104605000Y-114600000D01*
X104605000Y-108200000D02*
X104605000Y-108170000D01*
X98145000Y-110100000D02*
X98145000Y-112700000D01*
X104605000Y-108170000D02*
X98145000Y-108170000D01*
X104605000Y-110100000D02*
X104605000Y-112700000D01*
X104605000Y-114630000D02*
X98145000Y-114630000D01*
%TO.C,C18*%
X124934420Y-118410000D02*
X125215580Y-118410000D01*
X124934420Y-117390000D02*
X125215580Y-117390000D01*
%TO.C,U2*%
X160375000Y-107410000D02*
X157615000Y-107410000D01*
X157615000Y-107410000D02*
X157615000Y-106665000D01*
X160375000Y-107410000D02*
X163135000Y-107410000D01*
X163135000Y-107410000D02*
X163135000Y-106665000D01*
X160375000Y-100990000D02*
X157615000Y-100990000D01*
X157615000Y-100990000D02*
X157615000Y-101735000D01*
X160375000Y-100990000D02*
X163135000Y-100990000D01*
X163135000Y-100990000D02*
X163135000Y-101735000D01*
X163135000Y-101735000D02*
X164825000Y-101735000D01*
%TO.C,C16*%
X154365000Y-102259420D02*
X154365000Y-102540580D01*
X155385000Y-102259420D02*
X155385000Y-102540580D01*
%TO.C,J1*%
X171115000Y-109273000D02*
X171115000Y-109163000D01*
X171115000Y-109163000D02*
X171715000Y-109163000D01*
X171115000Y-126703000D02*
X171115000Y-126813000D01*
X171115000Y-126813000D02*
X171715000Y-126813000D01*
X168525000Y-112038000D02*
X168925000Y-112238000D01*
X168925000Y-112238000D02*
X168525000Y-112438000D01*
X168525000Y-112438000D02*
X168525000Y-112038000D01*
%TO.C,C1*%
X120185000Y-118740580D02*
X120185000Y-118459420D01*
X119165000Y-118740580D02*
X119165000Y-118459420D01*
%TO.C,C3*%
X162271580Y-116606000D02*
X161990420Y-116606000D01*
X162271580Y-115586000D02*
X161990420Y-115586000D01*
%TO.C,C4*%
X162271580Y-115082000D02*
X161990420Y-115082000D01*
X162271580Y-114062000D02*
X161990420Y-114062000D01*
%TO.C,C5*%
X158942420Y-119334000D02*
X159223580Y-119334000D01*
X158942420Y-120354000D02*
X159223580Y-120354000D01*
%TO.C,C6*%
X162271580Y-117810000D02*
X161990420Y-117810000D01*
X162271580Y-118830000D02*
X161990420Y-118830000D01*
%TO.C,C7*%
X158942420Y-117810000D02*
X159223580Y-117810000D01*
X158942420Y-118830000D02*
X159223580Y-118830000D01*
%TO.C,C9*%
X153747000Y-110875420D02*
X153747000Y-111156580D01*
X154767000Y-110875420D02*
X154767000Y-111156580D01*
%TO.C,C10*%
X162271580Y-119334000D02*
X161990420Y-119334000D01*
X162271580Y-120354000D02*
X161990420Y-120354000D01*
%TO.C,C11*%
X162271580Y-120858000D02*
X161990420Y-120858000D01*
X162271580Y-121878000D02*
X161990420Y-121878000D01*
%TO.C,C12*%
X162271580Y-123402000D02*
X161990420Y-123402000D01*
X162271580Y-122382000D02*
X161990420Y-122382000D01*
%TO.C,C13*%
X162271580Y-124926000D02*
X161990420Y-124926000D01*
X162271580Y-123906000D02*
X161990420Y-123906000D01*
%TO.C,C14*%
X158942420Y-123402000D02*
X159223580Y-123402000D01*
X158942420Y-122382000D02*
X159223580Y-122382000D01*
%TO.C,C15*%
X158942420Y-121878000D02*
X159223580Y-121878000D01*
X158942420Y-120858000D02*
X159223580Y-120858000D01*
%TO.C,C17*%
X129741000Y-118509420D02*
X129741000Y-118790580D01*
X130761000Y-118509420D02*
X130761000Y-118790580D01*
%TO.C,C19*%
X144215580Y-115810000D02*
X143934420Y-115810000D01*
X144215580Y-114790000D02*
X143934420Y-114790000D01*
%TO.C,C20*%
X142146420Y-118404000D02*
X142427580Y-118404000D01*
X142146420Y-117384000D02*
X142427580Y-117384000D01*
%TO.C,C21*%
X142146420Y-123484000D02*
X142427580Y-123484000D01*
X142146420Y-122464000D02*
X142427580Y-122464000D01*
%TO.C,C22*%
X135390580Y-118210000D02*
X135109420Y-118210000D01*
X135390580Y-117190000D02*
X135109420Y-117190000D01*
%TO.C,D1*%
X157269000Y-121700000D02*
X157269000Y-123700000D01*
X157269000Y-123700000D02*
X153369000Y-123700000D01*
X157269000Y-121700000D02*
X153369000Y-121700000D01*
%TO.C,D2*%
X152769000Y-121300000D02*
X156669000Y-121300000D01*
X152769000Y-119300000D02*
X156669000Y-119300000D01*
X152769000Y-121300000D02*
X152769000Y-119300000D01*
%TO.C,D3*%
X157269000Y-116874000D02*
X153369000Y-116874000D01*
X157269000Y-118874000D02*
X153369000Y-118874000D01*
X157269000Y-116874000D02*
X157269000Y-118874000D01*
%TO.C,L1*%
X111321000Y-120346000D02*
X111321000Y-124654000D01*
X115629000Y-124654000D02*
X115629000Y-120346000D01*
%TO.C,L2*%
X159713000Y-113170000D02*
X159713000Y-108862000D01*
X155405000Y-108862000D02*
X155405000Y-113170000D01*
%TO.C,Q1*%
X119095000Y-121840000D02*
X120025000Y-121840000D01*
X122255000Y-121840000D02*
X121325000Y-121840000D01*
X122255000Y-121840000D02*
X122255000Y-124000000D01*
X119095000Y-121840000D02*
X119095000Y-123300000D01*
%TO.C,Q2*%
X151135000Y-101520000D02*
X151135000Y-102450000D01*
X151135000Y-104680000D02*
X151135000Y-103750000D01*
X151135000Y-104680000D02*
X148975000Y-104680000D01*
X151135000Y-101520000D02*
X149675000Y-101520000D01*
%TO.C,R1*%
X121797500Y-118362742D02*
X121797500Y-118837258D01*
X120752500Y-118362742D02*
X120752500Y-118837258D01*
%TO.C,R2*%
X159320258Y-116618500D02*
X158845742Y-116618500D01*
X159320258Y-115573500D02*
X158845742Y-115573500D01*
%TO.C,R3*%
X159320258Y-115094500D02*
X158845742Y-115094500D01*
X159320258Y-114049500D02*
X158845742Y-114049500D01*
%TO.C,R4*%
X161893742Y-112525500D02*
X162368258Y-112525500D01*
X161893742Y-113570500D02*
X162368258Y-113570500D01*
%TO.C,R5*%
X129249500Y-118887258D02*
X129249500Y-118412742D01*
X128204500Y-118887258D02*
X128204500Y-118412742D01*
%TO.C,R11*%
X108037742Y-109622500D02*
X108512258Y-109622500D01*
X108037742Y-108577500D02*
X108512258Y-108577500D01*
%TO.C,R12*%
X108037742Y-100377500D02*
X108512258Y-100377500D01*
X108037742Y-101422500D02*
X108512258Y-101422500D01*
%TO.C,U1*%
X112625000Y-115940000D02*
X111315000Y-115940000D01*
X111315000Y-115940000D02*
X111315000Y-118660000D01*
X115805000Y-119800000D02*
X115805000Y-118660000D01*
X116035000Y-115940000D02*
X114725000Y-115940000D01*
X116035000Y-118660000D02*
X116035000Y-115940000D01*
X116035000Y-118660000D02*
X115805000Y-118660000D01*
X111315000Y-118660000D02*
X111545000Y-118660000D01*
%TO.C,U3*%
X124893000Y-116477000D02*
X123603000Y-116477000D01*
X124893000Y-116752000D02*
X124893000Y-116477000D01*
X127203000Y-116752000D02*
X124893000Y-116752000D01*
X129513000Y-116752000D02*
X129513000Y-116477000D01*
X127203000Y-116752000D02*
X129513000Y-116752000D01*
X124893000Y-106832000D02*
X124893000Y-107107000D01*
X127203000Y-106832000D02*
X124893000Y-106832000D01*
X129513000Y-106832000D02*
X129513000Y-107107000D01*
X127203000Y-106832000D02*
X129513000Y-106832000D01*
%TO.C,U4*%
X138445500Y-114019000D02*
X136793000Y-114019000D01*
X138445500Y-114301500D02*
X138445500Y-114019000D01*
X141193000Y-114301500D02*
X138445500Y-114301500D01*
X143940500Y-114301500D02*
X143940500Y-114019000D01*
X141193000Y-114301500D02*
X143940500Y-114301500D01*
X138445500Y-108806500D02*
X138445500Y-109089000D01*
X141193000Y-108806500D02*
X138445500Y-108806500D01*
X143940500Y-108806500D02*
X143940500Y-109089000D01*
X141193000Y-108806500D02*
X143940500Y-108806500D01*
%TO.C,U5*%
X136953000Y-124010000D02*
X135003000Y-124010000D01*
X136953000Y-124010000D02*
X138903000Y-124010000D01*
X136953000Y-118890000D02*
X135003000Y-118890000D01*
X136953000Y-118890000D02*
X140403000Y-118890000D01*
%TO.C,Y1*%
X143913000Y-118984000D02*
X143413000Y-118984000D01*
X143413000Y-118984000D02*
X143413000Y-121884000D01*
X143413000Y-121884000D02*
X143913000Y-121884000D01*
X143413000Y-120084000D02*
X142513000Y-119484000D01*
X142513000Y-119484000D02*
X142313000Y-119484000D01*
X143413000Y-120784000D02*
X142513000Y-121384000D01*
X142513000Y-121384000D02*
X142313000Y-121384000D01*
%TO.C,C8*%
D11*
X155141666Y-114057142D02*
X155189285Y-114104761D01*
X155332142Y-114152380D01*
X155427380Y-114152380D01*
X155570238Y-114104761D01*
X155665476Y-114009523D01*
X155713095Y-113914285D01*
X155760714Y-113723809D01*
X155760714Y-113580952D01*
X155713095Y-113390476D01*
X155665476Y-113295238D01*
X155570238Y-113200000D01*
X155427380Y-113152380D01*
X155332142Y-113152380D01*
X155189285Y-113200000D01*
X155141666Y-113247619D01*
X154570238Y-113580952D02*
X154665476Y-113533333D01*
X154713095Y-113485714D01*
X154760714Y-113390476D01*
X154760714Y-113342857D01*
X154713095Y-113247619D01*
X154665476Y-113200000D01*
X154570238Y-113152380D01*
X154379761Y-113152380D01*
X154284523Y-113200000D01*
X154236904Y-113247619D01*
X154189285Y-113342857D01*
X154189285Y-113390476D01*
X154236904Y-113485714D01*
X154284523Y-113533333D01*
X154379761Y-113580952D01*
X154570238Y-113580952D01*
X154665476Y-113628571D01*
X154713095Y-113676190D01*
X154760714Y-113771428D01*
X154760714Y-113961904D01*
X154713095Y-114057142D01*
X154665476Y-114104761D01*
X154570238Y-114152380D01*
X154379761Y-114152380D01*
X154284523Y-114104761D01*
X154236904Y-114057142D01*
X154189285Y-113961904D01*
X154189285Y-113771428D01*
X154236904Y-113676190D01*
X154284523Y-113628571D01*
X154379761Y-113580952D01*
%TO.C,R13*%
X139817857Y-116722380D02*
X140151190Y-116246190D01*
X140389285Y-116722380D02*
X140389285Y-115722380D01*
X140008333Y-115722380D01*
X139913095Y-115770000D01*
X139865476Y-115817619D01*
X139817857Y-115912857D01*
X139817857Y-116055714D01*
X139865476Y-116150952D01*
X139913095Y-116198571D01*
X140008333Y-116246190D01*
X140389285Y-116246190D01*
X138865476Y-116722380D02*
X139436904Y-116722380D01*
X139151190Y-116722380D02*
X139151190Y-115722380D01*
X139246428Y-115865238D01*
X139341666Y-115960476D01*
X139436904Y-116008095D01*
X138532142Y-115722380D02*
X137913095Y-115722380D01*
X138246428Y-116103333D01*
X138103571Y-116103333D01*
X138008333Y-116150952D01*
X137960714Y-116198571D01*
X137913095Y-116293809D01*
X137913095Y-116531904D01*
X137960714Y-116627142D01*
X138008333Y-116674761D01*
X138103571Y-116722380D01*
X138389285Y-116722380D01*
X138484523Y-116674761D01*
X138532142Y-116627142D01*
%TO.C,R7*%
X135641666Y-106752380D02*
X135975000Y-106276190D01*
X136213095Y-106752380D02*
X136213095Y-105752380D01*
X135832142Y-105752380D01*
X135736904Y-105800000D01*
X135689285Y-105847619D01*
X135641666Y-105942857D01*
X135641666Y-106085714D01*
X135689285Y-106180952D01*
X135736904Y-106228571D01*
X135832142Y-106276190D01*
X136213095Y-106276190D01*
X135308333Y-105752380D02*
X134641666Y-105752380D01*
X135070238Y-106752380D01*
%TO.C,R6*%
X135641666Y-105152380D02*
X135975000Y-104676190D01*
X136213095Y-105152380D02*
X136213095Y-104152380D01*
X135832142Y-104152380D01*
X135736904Y-104200000D01*
X135689285Y-104247619D01*
X135641666Y-104342857D01*
X135641666Y-104485714D01*
X135689285Y-104580952D01*
X135736904Y-104628571D01*
X135832142Y-104676190D01*
X136213095Y-104676190D01*
X134784523Y-104152380D02*
X134975000Y-104152380D01*
X135070238Y-104200000D01*
X135117857Y-104247619D01*
X135213095Y-104390476D01*
X135260714Y-104580952D01*
X135260714Y-104961904D01*
X135213095Y-105057142D01*
X135165476Y-105104761D01*
X135070238Y-105152380D01*
X134879761Y-105152380D01*
X134784523Y-105104761D01*
X134736904Y-105057142D01*
X134689285Y-104961904D01*
X134689285Y-104723809D01*
X134736904Y-104628571D01*
X134784523Y-104580952D01*
X134879761Y-104533333D01*
X135070238Y-104533333D01*
X135165476Y-104580952D01*
X135213095Y-104628571D01*
X135260714Y-104723809D01*
%TO.C,JP3*%
X171208333Y-99652380D02*
X171208333Y-100366666D01*
X171255952Y-100509523D01*
X171351190Y-100604761D01*
X171494047Y-100652380D01*
X171589285Y-100652380D01*
X170732142Y-100652380D02*
X170732142Y-99652380D01*
X170351190Y-99652380D01*
X170255952Y-99700000D01*
X170208333Y-99747619D01*
X170160714Y-99842857D01*
X170160714Y-99985714D01*
X170208333Y-100080952D01*
X170255952Y-100128571D01*
X170351190Y-100176190D01*
X170732142Y-100176190D01*
X169827380Y-99652380D02*
X169208333Y-99652380D01*
X169541666Y-100033333D01*
X169398809Y-100033333D01*
X169303571Y-100080952D01*
X169255952Y-100128571D01*
X169208333Y-100223809D01*
X169208333Y-100461904D01*
X169255952Y-100557142D01*
X169303571Y-100604761D01*
X169398809Y-100652380D01*
X169684523Y-100652380D01*
X169779761Y-100604761D01*
X169827380Y-100557142D01*
%TO.C,JP2*%
X117908333Y-113052380D02*
X117908333Y-113766666D01*
X117955952Y-113909523D01*
X118051190Y-114004761D01*
X118194047Y-114052380D01*
X118289285Y-114052380D01*
X117432142Y-114052380D02*
X117432142Y-113052380D01*
X117051190Y-113052380D01*
X116955952Y-113100000D01*
X116908333Y-113147619D01*
X116860714Y-113242857D01*
X116860714Y-113385714D01*
X116908333Y-113480952D01*
X116955952Y-113528571D01*
X117051190Y-113576190D01*
X117432142Y-113576190D01*
X116479761Y-113147619D02*
X116432142Y-113100000D01*
X116336904Y-113052380D01*
X116098809Y-113052380D01*
X116003571Y-113100000D01*
X115955952Y-113147619D01*
X115908333Y-113242857D01*
X115908333Y-113338095D01*
X115955952Y-113480952D01*
X116527380Y-114052380D01*
X115908333Y-114052380D01*
%TO.C,C2*%
X117741666Y-115257142D02*
X117789285Y-115304761D01*
X117932142Y-115352380D01*
X118027380Y-115352380D01*
X118170238Y-115304761D01*
X118265476Y-115209523D01*
X118313095Y-115114285D01*
X118360714Y-114923809D01*
X118360714Y-114780952D01*
X118313095Y-114590476D01*
X118265476Y-114495238D01*
X118170238Y-114400000D01*
X118027380Y-114352380D01*
X117932142Y-114352380D01*
X117789285Y-114400000D01*
X117741666Y-114447619D01*
X117360714Y-114447619D02*
X117313095Y-114400000D01*
X117217857Y-114352380D01*
X116979761Y-114352380D01*
X116884523Y-114400000D01*
X116836904Y-114447619D01*
X116789285Y-114542857D01*
X116789285Y-114638095D01*
X116836904Y-114780952D01*
X117408333Y-115352380D01*
X116789285Y-115352380D01*
%TO.C,BT1*%
X165710714Y-128724571D02*
X165567857Y-128772190D01*
X165520238Y-128819809D01*
X165472619Y-128915047D01*
X165472619Y-129057904D01*
X165520238Y-129153142D01*
X165567857Y-129200761D01*
X165663095Y-129248380D01*
X166044047Y-129248380D01*
X166044047Y-128248380D01*
X165710714Y-128248380D01*
X165615476Y-128296000D01*
X165567857Y-128343619D01*
X165520238Y-128438857D01*
X165520238Y-128534095D01*
X165567857Y-128629333D01*
X165615476Y-128676952D01*
X165710714Y-128724571D01*
X166044047Y-128724571D01*
X165186904Y-128248380D02*
X164615476Y-128248380D01*
X164901190Y-129248380D02*
X164901190Y-128248380D01*
X163758333Y-129248380D02*
X164329761Y-129248380D01*
X164044047Y-129248380D02*
X164044047Y-128248380D01*
X164139285Y-128391238D01*
X164234523Y-128486476D01*
X164329761Y-128534095D01*
D13*
X103329761Y-132963142D02*
X99520238Y-132963142D01*
X172163761Y-132963142D02*
X168354238Y-132963142D01*
X170259000Y-134867904D02*
X170259000Y-131058380D01*
%TO.C,Q3*%
D11*
X164770238Y-111247619D02*
X164865476Y-111200000D01*
X164960714Y-111104761D01*
X165103571Y-110961904D01*
X165198809Y-110914285D01*
X165294047Y-110914285D01*
X165246428Y-111152380D02*
X165341666Y-111104761D01*
X165436904Y-111009523D01*
X165484523Y-110819047D01*
X165484523Y-110485714D01*
X165436904Y-110295238D01*
X165341666Y-110200000D01*
X165246428Y-110152380D01*
X165055952Y-110152380D01*
X164960714Y-110200000D01*
X164865476Y-110295238D01*
X164817857Y-110485714D01*
X164817857Y-110819047D01*
X164865476Y-111009523D01*
X164960714Y-111104761D01*
X165055952Y-111152380D01*
X165246428Y-111152380D01*
X164484523Y-110152380D02*
X163865476Y-110152380D01*
X164198809Y-110533333D01*
X164055952Y-110533333D01*
X163960714Y-110580952D01*
X163913095Y-110628571D01*
X163865476Y-110723809D01*
X163865476Y-110961904D01*
X163913095Y-111057142D01*
X163960714Y-111104761D01*
X164055952Y-111152380D01*
X164341666Y-111152380D01*
X164436904Y-111104761D01*
X164484523Y-111057142D01*
%TO.C,JP1*%
X118208333Y-125152380D02*
X118208333Y-125866666D01*
X118255952Y-126009523D01*
X118351190Y-126104761D01*
X118494047Y-126152380D01*
X118589285Y-126152380D01*
X117732142Y-126152380D02*
X117732142Y-125152380D01*
X117351190Y-125152380D01*
X117255952Y-125200000D01*
X117208333Y-125247619D01*
X117160714Y-125342857D01*
X117160714Y-125485714D01*
X117208333Y-125580952D01*
X117255952Y-125628571D01*
X117351190Y-125676190D01*
X117732142Y-125676190D01*
X116208333Y-126152380D02*
X116779761Y-126152380D01*
X116494047Y-126152380D02*
X116494047Y-125152380D01*
X116589285Y-125295238D01*
X116684523Y-125390476D01*
X116779761Y-125438095D01*
%TO.C,R9*%
X147041666Y-108352380D02*
X147375000Y-107876190D01*
X147613095Y-108352380D02*
X147613095Y-107352380D01*
X147232142Y-107352380D01*
X147136904Y-107400000D01*
X147089285Y-107447619D01*
X147041666Y-107542857D01*
X147041666Y-107685714D01*
X147089285Y-107780952D01*
X147136904Y-107828571D01*
X147232142Y-107876190D01*
X147613095Y-107876190D01*
X146565476Y-108352380D02*
X146375000Y-108352380D01*
X146279761Y-108304761D01*
X146232142Y-108257142D01*
X146136904Y-108114285D01*
X146089285Y-107923809D01*
X146089285Y-107542857D01*
X146136904Y-107447619D01*
X146184523Y-107400000D01*
X146279761Y-107352380D01*
X146470238Y-107352380D01*
X146565476Y-107400000D01*
X146613095Y-107447619D01*
X146660714Y-107542857D01*
X146660714Y-107780952D01*
X146613095Y-107876190D01*
X146565476Y-107923809D01*
X146470238Y-107971428D01*
X146279761Y-107971428D01*
X146184523Y-107923809D01*
X146136904Y-107876190D01*
X146089285Y-107780952D01*
%TO.C,R8*%
X135641666Y-108152380D02*
X135975000Y-107676190D01*
X136213095Y-108152380D02*
X136213095Y-107152380D01*
X135832142Y-107152380D01*
X135736904Y-107200000D01*
X135689285Y-107247619D01*
X135641666Y-107342857D01*
X135641666Y-107485714D01*
X135689285Y-107580952D01*
X135736904Y-107628571D01*
X135832142Y-107676190D01*
X136213095Y-107676190D01*
X135070238Y-107580952D02*
X135165476Y-107533333D01*
X135213095Y-107485714D01*
X135260714Y-107390476D01*
X135260714Y-107342857D01*
X135213095Y-107247619D01*
X135165476Y-107200000D01*
X135070238Y-107152380D01*
X134879761Y-107152380D01*
X134784523Y-107200000D01*
X134736904Y-107247619D01*
X134689285Y-107342857D01*
X134689285Y-107390476D01*
X134736904Y-107485714D01*
X134784523Y-107533333D01*
X134879761Y-107580952D01*
X135070238Y-107580952D01*
X135165476Y-107628571D01*
X135213095Y-107676190D01*
X135260714Y-107771428D01*
X135260714Y-107961904D01*
X135213095Y-108057142D01*
X135165476Y-108104761D01*
X135070238Y-108152380D01*
X134879761Y-108152380D01*
X134784523Y-108104761D01*
X134736904Y-108057142D01*
X134689285Y-107961904D01*
X134689285Y-107771428D01*
X134736904Y-107676190D01*
X134784523Y-107628571D01*
X134879761Y-107580952D01*
%TO.C,R10*%
X108917857Y-116252380D02*
X109251190Y-115776190D01*
X109489285Y-116252380D02*
X109489285Y-115252380D01*
X109108333Y-115252380D01*
X109013095Y-115300000D01*
X108965476Y-115347619D01*
X108917857Y-115442857D01*
X108917857Y-115585714D01*
X108965476Y-115680952D01*
X109013095Y-115728571D01*
X109108333Y-115776190D01*
X109489285Y-115776190D01*
X107965476Y-116252380D02*
X108536904Y-116252380D01*
X108251190Y-116252380D02*
X108251190Y-115252380D01*
X108346428Y-115395238D01*
X108441666Y-115490476D01*
X108536904Y-115538095D01*
X107346428Y-115252380D02*
X107251190Y-115252380D01*
X107155952Y-115300000D01*
X107108333Y-115347619D01*
X107060714Y-115442857D01*
X107013095Y-115633333D01*
X107013095Y-115871428D01*
X107060714Y-116061904D01*
X107108333Y-116157142D01*
X107155952Y-116204761D01*
X107251190Y-116252380D01*
X107346428Y-116252380D01*
X107441666Y-116204761D01*
X107489285Y-116157142D01*
X107536904Y-116061904D01*
X107584523Y-115871428D01*
X107584523Y-115633333D01*
X107536904Y-115442857D01*
X107489285Y-115347619D01*
X107441666Y-115300000D01*
X107346428Y-115252380D01*
%TO.C,SW1*%
X102708333Y-115954761D02*
X102565476Y-116002380D01*
X102327380Y-116002380D01*
X102232142Y-115954761D01*
X102184523Y-115907142D01*
X102136904Y-115811904D01*
X102136904Y-115716666D01*
X102184523Y-115621428D01*
X102232142Y-115573809D01*
X102327380Y-115526190D01*
X102517857Y-115478571D01*
X102613095Y-115430952D01*
X102660714Y-115383333D01*
X102708333Y-115288095D01*
X102708333Y-115192857D01*
X102660714Y-115097619D01*
X102613095Y-115050000D01*
X102517857Y-115002380D01*
X102279761Y-115002380D01*
X102136904Y-115050000D01*
X101803571Y-115002380D02*
X101565476Y-116002380D01*
X101375000Y-115288095D01*
X101184523Y-116002380D01*
X100946428Y-115002380D01*
X100041666Y-116002380D02*
X100613095Y-116002380D01*
X100327380Y-116002380D02*
X100327380Y-115002380D01*
X100422619Y-115145238D01*
X100517857Y-115240476D01*
X100613095Y-115288095D01*
%TO.C,SW3*%
X102708333Y-99554761D02*
X102565476Y-99602380D01*
X102327380Y-99602380D01*
X102232142Y-99554761D01*
X102184523Y-99507142D01*
X102136904Y-99411904D01*
X102136904Y-99316666D01*
X102184523Y-99221428D01*
X102232142Y-99173809D01*
X102327380Y-99126190D01*
X102517857Y-99078571D01*
X102613095Y-99030952D01*
X102660714Y-98983333D01*
X102708333Y-98888095D01*
X102708333Y-98792857D01*
X102660714Y-98697619D01*
X102613095Y-98650000D01*
X102517857Y-98602380D01*
X102279761Y-98602380D01*
X102136904Y-98650000D01*
X101803571Y-98602380D02*
X101565476Y-99602380D01*
X101375000Y-98888095D01*
X101184523Y-99602380D01*
X100946428Y-98602380D01*
X100660714Y-98602380D02*
X100041666Y-98602380D01*
X100375000Y-98983333D01*
X100232142Y-98983333D01*
X100136904Y-99030952D01*
X100089285Y-99078571D01*
X100041666Y-99173809D01*
X100041666Y-99411904D01*
X100089285Y-99507142D01*
X100136904Y-99554761D01*
X100232142Y-99602380D01*
X100517857Y-99602380D01*
X100613095Y-99554761D01*
X100660714Y-99507142D01*
%TO.C,SW2*%
X102708333Y-107754761D02*
X102565476Y-107802380D01*
X102327380Y-107802380D01*
X102232142Y-107754761D01*
X102184523Y-107707142D01*
X102136904Y-107611904D01*
X102136904Y-107516666D01*
X102184523Y-107421428D01*
X102232142Y-107373809D01*
X102327380Y-107326190D01*
X102517857Y-107278571D01*
X102613095Y-107230952D01*
X102660714Y-107183333D01*
X102708333Y-107088095D01*
X102708333Y-106992857D01*
X102660714Y-106897619D01*
X102613095Y-106850000D01*
X102517857Y-106802380D01*
X102279761Y-106802380D01*
X102136904Y-106850000D01*
X101803571Y-106802380D02*
X101565476Y-107802380D01*
X101375000Y-107088095D01*
X101184523Y-107802380D01*
X100946428Y-106802380D01*
X100613095Y-106897619D02*
X100565476Y-106850000D01*
X100470238Y-106802380D01*
X100232142Y-106802380D01*
X100136904Y-106850000D01*
X100089285Y-106897619D01*
X100041666Y-106992857D01*
X100041666Y-107088095D01*
X100089285Y-107230952D01*
X100660714Y-107802380D01*
X100041666Y-107802380D01*
%TO.C,C18*%
X125717857Y-119657142D02*
X125765476Y-119704761D01*
X125908333Y-119752380D01*
X126003571Y-119752380D01*
X126146428Y-119704761D01*
X126241666Y-119609523D01*
X126289285Y-119514285D01*
X126336904Y-119323809D01*
X126336904Y-119180952D01*
X126289285Y-118990476D01*
X126241666Y-118895238D01*
X126146428Y-118800000D01*
X126003571Y-118752380D01*
X125908333Y-118752380D01*
X125765476Y-118800000D01*
X125717857Y-118847619D01*
X124765476Y-119752380D02*
X125336904Y-119752380D01*
X125051190Y-119752380D02*
X125051190Y-118752380D01*
X125146428Y-118895238D01*
X125241666Y-118990476D01*
X125336904Y-119038095D01*
X124194047Y-119180952D02*
X124289285Y-119133333D01*
X124336904Y-119085714D01*
X124384523Y-118990476D01*
X124384523Y-118942857D01*
X124336904Y-118847619D01*
X124289285Y-118800000D01*
X124194047Y-118752380D01*
X124003571Y-118752380D01*
X123908333Y-118800000D01*
X123860714Y-118847619D01*
X123813095Y-118942857D01*
X123813095Y-118990476D01*
X123860714Y-119085714D01*
X123908333Y-119133333D01*
X124003571Y-119180952D01*
X124194047Y-119180952D01*
X124289285Y-119228571D01*
X124336904Y-119276190D01*
X124384523Y-119371428D01*
X124384523Y-119561904D01*
X124336904Y-119657142D01*
X124289285Y-119704761D01*
X124194047Y-119752380D01*
X124003571Y-119752380D01*
X123908333Y-119704761D01*
X123860714Y-119657142D01*
X123813095Y-119561904D01*
X123813095Y-119371428D01*
X123860714Y-119276190D01*
X123908333Y-119228571D01*
X124003571Y-119180952D01*
%TO.C,U2*%
X161136904Y-99602380D02*
X161136904Y-100411904D01*
X161089285Y-100507142D01*
X161041666Y-100554761D01*
X160946428Y-100602380D01*
X160755952Y-100602380D01*
X160660714Y-100554761D01*
X160613095Y-100507142D01*
X160565476Y-100411904D01*
X160565476Y-99602380D01*
X160136904Y-99697619D02*
X160089285Y-99650000D01*
X159994047Y-99602380D01*
X159755952Y-99602380D01*
X159660714Y-99650000D01*
X159613095Y-99697619D01*
X159565476Y-99792857D01*
X159565476Y-99888095D01*
X159613095Y-100030952D01*
X160184523Y-100602380D01*
X159565476Y-100602380D01*
%TO.C,C16*%
X156025857Y-100471142D02*
X156073476Y-100518761D01*
X156216333Y-100566380D01*
X156311571Y-100566380D01*
X156454428Y-100518761D01*
X156549666Y-100423523D01*
X156597285Y-100328285D01*
X156644904Y-100137809D01*
X156644904Y-99994952D01*
X156597285Y-99804476D01*
X156549666Y-99709238D01*
X156454428Y-99614000D01*
X156311571Y-99566380D01*
X156216333Y-99566380D01*
X156073476Y-99614000D01*
X156025857Y-99661619D01*
X155073476Y-100566380D02*
X155644904Y-100566380D01*
X155359190Y-100566380D02*
X155359190Y-99566380D01*
X155454428Y-99709238D01*
X155549666Y-99804476D01*
X155644904Y-99852095D01*
X154216333Y-99566380D02*
X154406809Y-99566380D01*
X154502047Y-99614000D01*
X154549666Y-99661619D01*
X154644904Y-99804476D01*
X154692523Y-99994952D01*
X154692523Y-100375904D01*
X154644904Y-100471142D01*
X154597285Y-100518761D01*
X154502047Y-100566380D01*
X154311571Y-100566380D01*
X154216333Y-100518761D01*
X154168714Y-100471142D01*
X154121095Y-100375904D01*
X154121095Y-100137809D01*
X154168714Y-100042571D01*
X154216333Y-99994952D01*
X154311571Y-99947333D01*
X154502047Y-99947333D01*
X154597285Y-99994952D01*
X154644904Y-100042571D01*
X154692523Y-100137809D01*
%TO.C,J1*%
X168477380Y-127704666D02*
X169191666Y-127704666D01*
X169334523Y-127657047D01*
X169429761Y-127561809D01*
X169477380Y-127418952D01*
X169477380Y-127323714D01*
X169477380Y-128704666D02*
X169477380Y-128133238D01*
X169477380Y-128418952D02*
X168477380Y-128418952D01*
X168620238Y-128323714D01*
X168715476Y-128228476D01*
X168763095Y-128133238D01*
%TO.C,C1*%
X120032142Y-115833333D02*
X120079761Y-115785714D01*
X120127380Y-115642857D01*
X120127380Y-115547619D01*
X120079761Y-115404761D01*
X119984523Y-115309523D01*
X119889285Y-115261904D01*
X119698809Y-115214285D01*
X119555952Y-115214285D01*
X119365476Y-115261904D01*
X119270238Y-115309523D01*
X119175000Y-115404761D01*
X119127380Y-115547619D01*
X119127380Y-115642857D01*
X119175000Y-115785714D01*
X119222619Y-115833333D01*
X120127380Y-116785714D02*
X120127380Y-116214285D01*
X120127380Y-116500000D02*
X119127380Y-116500000D01*
X119270238Y-116404761D01*
X119365476Y-116309523D01*
X119413095Y-116214285D01*
%TO.C,C3*%
X164837666Y-116199142D02*
X164885285Y-116246761D01*
X165028142Y-116294380D01*
X165123380Y-116294380D01*
X165266238Y-116246761D01*
X165361476Y-116151523D01*
X165409095Y-116056285D01*
X165456714Y-115865809D01*
X165456714Y-115722952D01*
X165409095Y-115532476D01*
X165361476Y-115437238D01*
X165266238Y-115342000D01*
X165123380Y-115294380D01*
X165028142Y-115294380D01*
X164885285Y-115342000D01*
X164837666Y-115389619D01*
X164504333Y-115294380D02*
X163885285Y-115294380D01*
X164218619Y-115675333D01*
X164075761Y-115675333D01*
X163980523Y-115722952D01*
X163932904Y-115770571D01*
X163885285Y-115865809D01*
X163885285Y-116103904D01*
X163932904Y-116199142D01*
X163980523Y-116246761D01*
X164075761Y-116294380D01*
X164361476Y-116294380D01*
X164456714Y-116246761D01*
X164504333Y-116199142D01*
%TO.C,C4*%
X164837666Y-114675142D02*
X164885285Y-114722761D01*
X165028142Y-114770380D01*
X165123380Y-114770380D01*
X165266238Y-114722761D01*
X165361476Y-114627523D01*
X165409095Y-114532285D01*
X165456714Y-114341809D01*
X165456714Y-114198952D01*
X165409095Y-114008476D01*
X165361476Y-113913238D01*
X165266238Y-113818000D01*
X165123380Y-113770380D01*
X165028142Y-113770380D01*
X164885285Y-113818000D01*
X164837666Y-113865619D01*
X163980523Y-114103714D02*
X163980523Y-114770380D01*
X164218619Y-113722761D02*
X164456714Y-114437047D01*
X163837666Y-114437047D01*
%TO.C,C5*%
X152641666Y-113157142D02*
X152689285Y-113204761D01*
X152832142Y-113252380D01*
X152927380Y-113252380D01*
X153070238Y-113204761D01*
X153165476Y-113109523D01*
X153213095Y-113014285D01*
X153260714Y-112823809D01*
X153260714Y-112680952D01*
X153213095Y-112490476D01*
X153165476Y-112395238D01*
X153070238Y-112300000D01*
X152927380Y-112252380D01*
X152832142Y-112252380D01*
X152689285Y-112300000D01*
X152641666Y-112347619D01*
X151736904Y-112252380D02*
X152213095Y-112252380D01*
X152260714Y-112728571D01*
X152213095Y-112680952D01*
X152117857Y-112633333D01*
X151879761Y-112633333D01*
X151784523Y-112680952D01*
X151736904Y-112728571D01*
X151689285Y-112823809D01*
X151689285Y-113061904D01*
X151736904Y-113157142D01*
X151784523Y-113204761D01*
X151879761Y-113252380D01*
X152117857Y-113252380D01*
X152213095Y-113204761D01*
X152260714Y-113157142D01*
%TO.C,C6*%
X164837666Y-118535142D02*
X164885285Y-118582761D01*
X165028142Y-118630380D01*
X165123380Y-118630380D01*
X165266238Y-118582761D01*
X165361476Y-118487523D01*
X165409095Y-118392285D01*
X165456714Y-118201809D01*
X165456714Y-118058952D01*
X165409095Y-117868476D01*
X165361476Y-117773238D01*
X165266238Y-117678000D01*
X165123380Y-117630380D01*
X165028142Y-117630380D01*
X164885285Y-117678000D01*
X164837666Y-117725619D01*
X163980523Y-117630380D02*
X164171000Y-117630380D01*
X164266238Y-117678000D01*
X164313857Y-117725619D01*
X164409095Y-117868476D01*
X164456714Y-118058952D01*
X164456714Y-118439904D01*
X164409095Y-118535142D01*
X164361476Y-118582761D01*
X164266238Y-118630380D01*
X164075761Y-118630380D01*
X163980523Y-118582761D01*
X163932904Y-118535142D01*
X163885285Y-118439904D01*
X163885285Y-118201809D01*
X163932904Y-118106571D01*
X163980523Y-118058952D01*
X164075761Y-118011333D01*
X164266238Y-118011333D01*
X164361476Y-118058952D01*
X164409095Y-118106571D01*
X164456714Y-118201809D01*
%TO.C,C7*%
X152641666Y-111857142D02*
X152689285Y-111904761D01*
X152832142Y-111952380D01*
X152927380Y-111952380D01*
X153070238Y-111904761D01*
X153165476Y-111809523D01*
X153213095Y-111714285D01*
X153260714Y-111523809D01*
X153260714Y-111380952D01*
X153213095Y-111190476D01*
X153165476Y-111095238D01*
X153070238Y-111000000D01*
X152927380Y-110952380D01*
X152832142Y-110952380D01*
X152689285Y-111000000D01*
X152641666Y-111047619D01*
X152308333Y-110952380D02*
X151641666Y-110952380D01*
X152070238Y-111952380D01*
%TO.C,C9*%
X154641666Y-108457142D02*
X154689285Y-108504761D01*
X154832142Y-108552380D01*
X154927380Y-108552380D01*
X155070238Y-108504761D01*
X155165476Y-108409523D01*
X155213095Y-108314285D01*
X155260714Y-108123809D01*
X155260714Y-107980952D01*
X155213095Y-107790476D01*
X155165476Y-107695238D01*
X155070238Y-107600000D01*
X154927380Y-107552380D01*
X154832142Y-107552380D01*
X154689285Y-107600000D01*
X154641666Y-107647619D01*
X154165476Y-108552380D02*
X153975000Y-108552380D01*
X153879761Y-108504761D01*
X153832142Y-108457142D01*
X153736904Y-108314285D01*
X153689285Y-108123809D01*
X153689285Y-107742857D01*
X153736904Y-107647619D01*
X153784523Y-107600000D01*
X153879761Y-107552380D01*
X154070238Y-107552380D01*
X154165476Y-107600000D01*
X154213095Y-107647619D01*
X154260714Y-107742857D01*
X154260714Y-107980952D01*
X154213095Y-108076190D01*
X154165476Y-108123809D01*
X154070238Y-108171428D01*
X153879761Y-108171428D01*
X153784523Y-108123809D01*
X153736904Y-108076190D01*
X153689285Y-107980952D01*
%TO.C,C10*%
X165567857Y-120201142D02*
X165615476Y-120248761D01*
X165758333Y-120296380D01*
X165853571Y-120296380D01*
X165996428Y-120248761D01*
X166091666Y-120153523D01*
X166139285Y-120058285D01*
X166186904Y-119867809D01*
X166186904Y-119724952D01*
X166139285Y-119534476D01*
X166091666Y-119439238D01*
X165996428Y-119344000D01*
X165853571Y-119296380D01*
X165758333Y-119296380D01*
X165615476Y-119344000D01*
X165567857Y-119391619D01*
X164615476Y-120296380D02*
X165186904Y-120296380D01*
X164901190Y-120296380D02*
X164901190Y-119296380D01*
X164996428Y-119439238D01*
X165091666Y-119534476D01*
X165186904Y-119582095D01*
X163996428Y-119296380D02*
X163901190Y-119296380D01*
X163805952Y-119344000D01*
X163758333Y-119391619D01*
X163710714Y-119486857D01*
X163663095Y-119677333D01*
X163663095Y-119915428D01*
X163710714Y-120105904D01*
X163758333Y-120201142D01*
X163805952Y-120248761D01*
X163901190Y-120296380D01*
X163996428Y-120296380D01*
X164091666Y-120248761D01*
X164139285Y-120201142D01*
X164186904Y-120105904D01*
X164234523Y-119915428D01*
X164234523Y-119677333D01*
X164186904Y-119486857D01*
X164139285Y-119391619D01*
X164091666Y-119344000D01*
X163996428Y-119296380D01*
%TO.C,C11*%
X165567857Y-121725142D02*
X165615476Y-121772761D01*
X165758333Y-121820380D01*
X165853571Y-121820380D01*
X165996428Y-121772761D01*
X166091666Y-121677523D01*
X166139285Y-121582285D01*
X166186904Y-121391809D01*
X166186904Y-121248952D01*
X166139285Y-121058476D01*
X166091666Y-120963238D01*
X165996428Y-120868000D01*
X165853571Y-120820380D01*
X165758333Y-120820380D01*
X165615476Y-120868000D01*
X165567857Y-120915619D01*
X164615476Y-121820380D02*
X165186904Y-121820380D01*
X164901190Y-121820380D02*
X164901190Y-120820380D01*
X164996428Y-120963238D01*
X165091666Y-121058476D01*
X165186904Y-121106095D01*
X163663095Y-121820380D02*
X164234523Y-121820380D01*
X163948809Y-121820380D02*
X163948809Y-120820380D01*
X164044047Y-120963238D01*
X164139285Y-121058476D01*
X164234523Y-121106095D01*
%TO.C,C12*%
X165567857Y-123249142D02*
X165615476Y-123296761D01*
X165758333Y-123344380D01*
X165853571Y-123344380D01*
X165996428Y-123296761D01*
X166091666Y-123201523D01*
X166139285Y-123106285D01*
X166186904Y-122915809D01*
X166186904Y-122772952D01*
X166139285Y-122582476D01*
X166091666Y-122487238D01*
X165996428Y-122392000D01*
X165853571Y-122344380D01*
X165758333Y-122344380D01*
X165615476Y-122392000D01*
X165567857Y-122439619D01*
X164615476Y-123344380D02*
X165186904Y-123344380D01*
X164901190Y-123344380D02*
X164901190Y-122344380D01*
X164996428Y-122487238D01*
X165091666Y-122582476D01*
X165186904Y-122630095D01*
X164234523Y-122439619D02*
X164186904Y-122392000D01*
X164091666Y-122344380D01*
X163853571Y-122344380D01*
X163758333Y-122392000D01*
X163710714Y-122439619D01*
X163663095Y-122534857D01*
X163663095Y-122630095D01*
X163710714Y-122772952D01*
X164282142Y-123344380D01*
X163663095Y-123344380D01*
%TO.C,C13*%
X159773857Y-124798142D02*
X159821476Y-124845761D01*
X159964333Y-124893380D01*
X160059571Y-124893380D01*
X160202428Y-124845761D01*
X160297666Y-124750523D01*
X160345285Y-124655285D01*
X160392904Y-124464809D01*
X160392904Y-124321952D01*
X160345285Y-124131476D01*
X160297666Y-124036238D01*
X160202428Y-123941000D01*
X160059571Y-123893380D01*
X159964333Y-123893380D01*
X159821476Y-123941000D01*
X159773857Y-123988619D01*
X158821476Y-124893380D02*
X159392904Y-124893380D01*
X159107190Y-124893380D02*
X159107190Y-123893380D01*
X159202428Y-124036238D01*
X159297666Y-124131476D01*
X159392904Y-124179095D01*
X158488142Y-123893380D02*
X157869095Y-123893380D01*
X158202428Y-124274333D01*
X158059571Y-124274333D01*
X157964333Y-124321952D01*
X157916714Y-124369571D01*
X157869095Y-124464809D01*
X157869095Y-124702904D01*
X157916714Y-124798142D01*
X157964333Y-124845761D01*
X158059571Y-124893380D01*
X158345285Y-124893380D01*
X158440523Y-124845761D01*
X158488142Y-124798142D01*
%TO.C,C14*%
X152617857Y-115757142D02*
X152665476Y-115804761D01*
X152808333Y-115852380D01*
X152903571Y-115852380D01*
X153046428Y-115804761D01*
X153141666Y-115709523D01*
X153189285Y-115614285D01*
X153236904Y-115423809D01*
X153236904Y-115280952D01*
X153189285Y-115090476D01*
X153141666Y-114995238D01*
X153046428Y-114900000D01*
X152903571Y-114852380D01*
X152808333Y-114852380D01*
X152665476Y-114900000D01*
X152617857Y-114947619D01*
X151665476Y-115852380D02*
X152236904Y-115852380D01*
X151951190Y-115852380D02*
X151951190Y-114852380D01*
X152046428Y-114995238D01*
X152141666Y-115090476D01*
X152236904Y-115138095D01*
X150808333Y-115185714D02*
X150808333Y-115852380D01*
X151046428Y-114804761D02*
X151284523Y-115519047D01*
X150665476Y-115519047D01*
%TO.C,C15*%
X152617857Y-114457142D02*
X152665476Y-114504761D01*
X152808333Y-114552380D01*
X152903571Y-114552380D01*
X153046428Y-114504761D01*
X153141666Y-114409523D01*
X153189285Y-114314285D01*
X153236904Y-114123809D01*
X153236904Y-113980952D01*
X153189285Y-113790476D01*
X153141666Y-113695238D01*
X153046428Y-113600000D01*
X152903571Y-113552380D01*
X152808333Y-113552380D01*
X152665476Y-113600000D01*
X152617857Y-113647619D01*
X151665476Y-114552380D02*
X152236904Y-114552380D01*
X151951190Y-114552380D02*
X151951190Y-113552380D01*
X152046428Y-113695238D01*
X152141666Y-113790476D01*
X152236904Y-113838095D01*
X150760714Y-113552380D02*
X151236904Y-113552380D01*
X151284523Y-114028571D01*
X151236904Y-113980952D01*
X151141666Y-113933333D01*
X150903571Y-113933333D01*
X150808333Y-113980952D01*
X150760714Y-114028571D01*
X150713095Y-114123809D01*
X150713095Y-114361904D01*
X150760714Y-114457142D01*
X150808333Y-114504761D01*
X150903571Y-114552380D01*
X151141666Y-114552380D01*
X151236904Y-114504761D01*
X151284523Y-114457142D01*
%TO.C,C17*%
X130732142Y-120957142D02*
X130779761Y-120909523D01*
X130827380Y-120766666D01*
X130827380Y-120671428D01*
X130779761Y-120528571D01*
X130684523Y-120433333D01*
X130589285Y-120385714D01*
X130398809Y-120338095D01*
X130255952Y-120338095D01*
X130065476Y-120385714D01*
X129970238Y-120433333D01*
X129875000Y-120528571D01*
X129827380Y-120671428D01*
X129827380Y-120766666D01*
X129875000Y-120909523D01*
X129922619Y-120957142D01*
X130827380Y-121909523D02*
X130827380Y-121338095D01*
X130827380Y-121623809D02*
X129827380Y-121623809D01*
X129970238Y-121528571D01*
X130065476Y-121433333D01*
X130113095Y-121338095D01*
X129827380Y-122242857D02*
X129827380Y-122909523D01*
X130827380Y-122480952D01*
%TO.C,C19*%
X147717857Y-115657142D02*
X147765476Y-115704761D01*
X147908333Y-115752380D01*
X148003571Y-115752380D01*
X148146428Y-115704761D01*
X148241666Y-115609523D01*
X148289285Y-115514285D01*
X148336904Y-115323809D01*
X148336904Y-115180952D01*
X148289285Y-114990476D01*
X148241666Y-114895238D01*
X148146428Y-114800000D01*
X148003571Y-114752380D01*
X147908333Y-114752380D01*
X147765476Y-114800000D01*
X147717857Y-114847619D01*
X146765476Y-115752380D02*
X147336904Y-115752380D01*
X147051190Y-115752380D02*
X147051190Y-114752380D01*
X147146428Y-114895238D01*
X147241666Y-114990476D01*
X147336904Y-115038095D01*
X146289285Y-115752380D02*
X146098809Y-115752380D01*
X146003571Y-115704761D01*
X145955952Y-115657142D01*
X145860714Y-115514285D01*
X145813095Y-115323809D01*
X145813095Y-114942857D01*
X145860714Y-114847619D01*
X145908333Y-114800000D01*
X146003571Y-114752380D01*
X146194047Y-114752380D01*
X146289285Y-114800000D01*
X146336904Y-114847619D01*
X146384523Y-114942857D01*
X146384523Y-115180952D01*
X146336904Y-115276190D01*
X146289285Y-115323809D01*
X146194047Y-115371428D01*
X146003571Y-115371428D01*
X145908333Y-115323809D01*
X145860714Y-115276190D01*
X145813095Y-115180952D01*
%TO.C,C20*%
X145977857Y-118251142D02*
X146025476Y-118298761D01*
X146168333Y-118346380D01*
X146263571Y-118346380D01*
X146406428Y-118298761D01*
X146501666Y-118203523D01*
X146549285Y-118108285D01*
X146596904Y-117917809D01*
X146596904Y-117774952D01*
X146549285Y-117584476D01*
X146501666Y-117489238D01*
X146406428Y-117394000D01*
X146263571Y-117346380D01*
X146168333Y-117346380D01*
X146025476Y-117394000D01*
X145977857Y-117441619D01*
X145596904Y-117441619D02*
X145549285Y-117394000D01*
X145454047Y-117346380D01*
X145215952Y-117346380D01*
X145120714Y-117394000D01*
X145073095Y-117441619D01*
X145025476Y-117536857D01*
X145025476Y-117632095D01*
X145073095Y-117774952D01*
X145644523Y-118346380D01*
X145025476Y-118346380D01*
X144406428Y-117346380D02*
X144311190Y-117346380D01*
X144215952Y-117394000D01*
X144168333Y-117441619D01*
X144120714Y-117536857D01*
X144073095Y-117727333D01*
X144073095Y-117965428D01*
X144120714Y-118155904D01*
X144168333Y-118251142D01*
X144215952Y-118298761D01*
X144311190Y-118346380D01*
X144406428Y-118346380D01*
X144501666Y-118298761D01*
X144549285Y-118251142D01*
X144596904Y-118155904D01*
X144644523Y-117965428D01*
X144644523Y-117727333D01*
X144596904Y-117536857D01*
X144549285Y-117441619D01*
X144501666Y-117394000D01*
X144406428Y-117346380D01*
%TO.C,C21*%
X145977857Y-123331142D02*
X146025476Y-123378761D01*
X146168333Y-123426380D01*
X146263571Y-123426380D01*
X146406428Y-123378761D01*
X146501666Y-123283523D01*
X146549285Y-123188285D01*
X146596904Y-122997809D01*
X146596904Y-122854952D01*
X146549285Y-122664476D01*
X146501666Y-122569238D01*
X146406428Y-122474000D01*
X146263571Y-122426380D01*
X146168333Y-122426380D01*
X146025476Y-122474000D01*
X145977857Y-122521619D01*
X145596904Y-122521619D02*
X145549285Y-122474000D01*
X145454047Y-122426380D01*
X145215952Y-122426380D01*
X145120714Y-122474000D01*
X145073095Y-122521619D01*
X145025476Y-122616857D01*
X145025476Y-122712095D01*
X145073095Y-122854952D01*
X145644523Y-123426380D01*
X145025476Y-123426380D01*
X144073095Y-123426380D02*
X144644523Y-123426380D01*
X144358809Y-123426380D02*
X144358809Y-122426380D01*
X144454047Y-122569238D01*
X144549285Y-122664476D01*
X144644523Y-122712095D01*
%TO.C,C22*%
X135917857Y-116657142D02*
X135965476Y-116704761D01*
X136108333Y-116752380D01*
X136203571Y-116752380D01*
X136346428Y-116704761D01*
X136441666Y-116609523D01*
X136489285Y-116514285D01*
X136536904Y-116323809D01*
X136536904Y-116180952D01*
X136489285Y-115990476D01*
X136441666Y-115895238D01*
X136346428Y-115800000D01*
X136203571Y-115752380D01*
X136108333Y-115752380D01*
X135965476Y-115800000D01*
X135917857Y-115847619D01*
X135536904Y-115847619D02*
X135489285Y-115800000D01*
X135394047Y-115752380D01*
X135155952Y-115752380D01*
X135060714Y-115800000D01*
X135013095Y-115847619D01*
X134965476Y-115942857D01*
X134965476Y-116038095D01*
X135013095Y-116180952D01*
X135584523Y-116752380D01*
X134965476Y-116752380D01*
X134584523Y-115847619D02*
X134536904Y-115800000D01*
X134441666Y-115752380D01*
X134203571Y-115752380D01*
X134108333Y-115800000D01*
X134060714Y-115847619D01*
X134013095Y-115942857D01*
X134013095Y-116038095D01*
X134060714Y-116180952D01*
X134632142Y-116752380D01*
X134013095Y-116752380D01*
%TO.C,D1*%
X152513095Y-123206380D02*
X152513095Y-122206380D01*
X152275000Y-122206380D01*
X152132142Y-122254000D01*
X152036904Y-122349238D01*
X151989285Y-122444476D01*
X151941666Y-122634952D01*
X151941666Y-122777809D01*
X151989285Y-122968285D01*
X152036904Y-123063523D01*
X152132142Y-123158761D01*
X152275000Y-123206380D01*
X152513095Y-123206380D01*
X150989285Y-123206380D02*
X151560714Y-123206380D01*
X151275000Y-123206380D02*
X151275000Y-122206380D01*
X151370238Y-122349238D01*
X151465476Y-122444476D01*
X151560714Y-122492095D01*
%TO.C,D2*%
X152513095Y-120792380D02*
X152513095Y-119792380D01*
X152275000Y-119792380D01*
X152132142Y-119840000D01*
X152036904Y-119935238D01*
X151989285Y-120030476D01*
X151941666Y-120220952D01*
X151941666Y-120363809D01*
X151989285Y-120554285D01*
X152036904Y-120649523D01*
X152132142Y-120744761D01*
X152275000Y-120792380D01*
X152513095Y-120792380D01*
X151560714Y-119887619D02*
X151513095Y-119840000D01*
X151417857Y-119792380D01*
X151179761Y-119792380D01*
X151084523Y-119840000D01*
X151036904Y-119887619D01*
X150989285Y-119982857D01*
X150989285Y-120078095D01*
X151036904Y-120220952D01*
X151608333Y-120792380D01*
X150989285Y-120792380D01*
%TO.C,D3*%
X152513095Y-118152380D02*
X152513095Y-117152380D01*
X152275000Y-117152380D01*
X152132142Y-117200000D01*
X152036904Y-117295238D01*
X151989285Y-117390476D01*
X151941666Y-117580952D01*
X151941666Y-117723809D01*
X151989285Y-117914285D01*
X152036904Y-118009523D01*
X152132142Y-118104761D01*
X152275000Y-118152380D01*
X152513095Y-118152380D01*
X151608333Y-117152380D02*
X150989285Y-117152380D01*
X151322619Y-117533333D01*
X151179761Y-117533333D01*
X151084523Y-117580952D01*
X151036904Y-117628571D01*
X150989285Y-117723809D01*
X150989285Y-117961904D01*
X151036904Y-118057142D01*
X151084523Y-118104761D01*
X151179761Y-118152380D01*
X151465476Y-118152380D01*
X151560714Y-118104761D01*
X151608333Y-118057142D01*
%TO.C,L1*%
X110441666Y-123114380D02*
X110917857Y-123114380D01*
X110917857Y-122114380D01*
X109584523Y-123114380D02*
X110155952Y-123114380D01*
X109870238Y-123114380D02*
X109870238Y-122114380D01*
X109965476Y-122257238D01*
X110060714Y-122352476D01*
X110155952Y-122400095D01*
%TO.C,L2*%
X156841666Y-108552380D02*
X157317857Y-108552380D01*
X157317857Y-107552380D01*
X156555952Y-107647619D02*
X156508333Y-107600000D01*
X156413095Y-107552380D01*
X156175000Y-107552380D01*
X156079761Y-107600000D01*
X156032142Y-107647619D01*
X155984523Y-107742857D01*
X155984523Y-107838095D01*
X156032142Y-107980952D01*
X156603571Y-108552380D01*
X155984523Y-108552380D01*
%TO.C,Q1*%
X123570238Y-123047619D02*
X123665476Y-123000000D01*
X123760714Y-122904761D01*
X123903571Y-122761904D01*
X123998809Y-122714285D01*
X124094047Y-122714285D01*
X124046428Y-122952380D02*
X124141666Y-122904761D01*
X124236904Y-122809523D01*
X124284523Y-122619047D01*
X124284523Y-122285714D01*
X124236904Y-122095238D01*
X124141666Y-122000000D01*
X124046428Y-121952380D01*
X123855952Y-121952380D01*
X123760714Y-122000000D01*
X123665476Y-122095238D01*
X123617857Y-122285714D01*
X123617857Y-122619047D01*
X123665476Y-122809523D01*
X123760714Y-122904761D01*
X123855952Y-122952380D01*
X124046428Y-122952380D01*
X122665476Y-122952380D02*
X123236904Y-122952380D01*
X122951190Y-122952380D02*
X122951190Y-121952380D01*
X123046428Y-122095238D01*
X123141666Y-122190476D01*
X123236904Y-122238095D01*
%TO.C,Q2*%
X150070238Y-101147619D02*
X150165476Y-101100000D01*
X150260714Y-101004761D01*
X150403571Y-100861904D01*
X150498809Y-100814285D01*
X150594047Y-100814285D01*
X150546428Y-101052380D02*
X150641666Y-101004761D01*
X150736904Y-100909523D01*
X150784523Y-100719047D01*
X150784523Y-100385714D01*
X150736904Y-100195238D01*
X150641666Y-100100000D01*
X150546428Y-100052380D01*
X150355952Y-100052380D01*
X150260714Y-100100000D01*
X150165476Y-100195238D01*
X150117857Y-100385714D01*
X150117857Y-100719047D01*
X150165476Y-100909523D01*
X150260714Y-101004761D01*
X150355952Y-101052380D01*
X150546428Y-101052380D01*
X149736904Y-100147619D02*
X149689285Y-100100000D01*
X149594047Y-100052380D01*
X149355952Y-100052380D01*
X149260714Y-100100000D01*
X149213095Y-100147619D01*
X149165476Y-100242857D01*
X149165476Y-100338095D01*
X149213095Y-100480952D01*
X149784523Y-101052380D01*
X149165476Y-101052380D01*
%TO.C,R1*%
X121827380Y-115833333D02*
X121351190Y-115500000D01*
X121827380Y-115261904D02*
X120827380Y-115261904D01*
X120827380Y-115642857D01*
X120875000Y-115738095D01*
X120922619Y-115785714D01*
X121017857Y-115833333D01*
X121160714Y-115833333D01*
X121255952Y-115785714D01*
X121303571Y-115738095D01*
X121351190Y-115642857D01*
X121351190Y-115261904D01*
X121827380Y-116785714D02*
X121827380Y-116214285D01*
X121827380Y-116500000D02*
X120827380Y-116500000D01*
X120970238Y-116404761D01*
X121065476Y-116309523D01*
X121113095Y-116214285D01*
%TO.C,R2*%
X152541666Y-109952380D02*
X152875000Y-109476190D01*
X153113095Y-109952380D02*
X153113095Y-108952380D01*
X152732142Y-108952380D01*
X152636904Y-109000000D01*
X152589285Y-109047619D01*
X152541666Y-109142857D01*
X152541666Y-109285714D01*
X152589285Y-109380952D01*
X152636904Y-109428571D01*
X152732142Y-109476190D01*
X153113095Y-109476190D01*
X152160714Y-109047619D02*
X152113095Y-109000000D01*
X152017857Y-108952380D01*
X151779761Y-108952380D01*
X151684523Y-109000000D01*
X151636904Y-109047619D01*
X151589285Y-109142857D01*
X151589285Y-109238095D01*
X151636904Y-109380952D01*
X152208333Y-109952380D01*
X151589285Y-109952380D01*
%TO.C,R3*%
X152541666Y-108552380D02*
X152875000Y-108076190D01*
X153113095Y-108552380D02*
X153113095Y-107552380D01*
X152732142Y-107552380D01*
X152636904Y-107600000D01*
X152589285Y-107647619D01*
X152541666Y-107742857D01*
X152541666Y-107885714D01*
X152589285Y-107980952D01*
X152636904Y-108028571D01*
X152732142Y-108076190D01*
X153113095Y-108076190D01*
X152208333Y-107552380D02*
X151589285Y-107552380D01*
X151922619Y-107933333D01*
X151779761Y-107933333D01*
X151684523Y-107980952D01*
X151636904Y-108028571D01*
X151589285Y-108123809D01*
X151589285Y-108361904D01*
X151636904Y-108457142D01*
X151684523Y-108504761D01*
X151779761Y-108552380D01*
X152065476Y-108552380D01*
X152160714Y-108504761D01*
X152208333Y-108457142D01*
%TO.C,R4*%
X164837666Y-112992380D02*
X165171000Y-112516190D01*
X165409095Y-112992380D02*
X165409095Y-111992380D01*
X165028142Y-111992380D01*
X164932904Y-112040000D01*
X164885285Y-112087619D01*
X164837666Y-112182857D01*
X164837666Y-112325714D01*
X164885285Y-112420952D01*
X164932904Y-112468571D01*
X165028142Y-112516190D01*
X165409095Y-112516190D01*
X163980523Y-112325714D02*
X163980523Y-112992380D01*
X164218619Y-111944761D02*
X164456714Y-112659047D01*
X163837666Y-112659047D01*
%TO.C,R5*%
X129227380Y-120933333D02*
X128751190Y-120600000D01*
X129227380Y-120361904D02*
X128227380Y-120361904D01*
X128227380Y-120742857D01*
X128275000Y-120838095D01*
X128322619Y-120885714D01*
X128417857Y-120933333D01*
X128560714Y-120933333D01*
X128655952Y-120885714D01*
X128703571Y-120838095D01*
X128751190Y-120742857D01*
X128751190Y-120361904D01*
X128227380Y-121838095D02*
X128227380Y-121361904D01*
X128703571Y-121314285D01*
X128655952Y-121361904D01*
X128608333Y-121457142D01*
X128608333Y-121695238D01*
X128655952Y-121790476D01*
X128703571Y-121838095D01*
X128798809Y-121885714D01*
X129036904Y-121885714D01*
X129132142Y-121838095D01*
X129179761Y-121790476D01*
X129227380Y-121695238D01*
X129227380Y-121457142D01*
X129179761Y-121361904D01*
X129132142Y-121314285D01*
%TO.C,R11*%
X108917857Y-108052380D02*
X109251190Y-107576190D01*
X109489285Y-108052380D02*
X109489285Y-107052380D01*
X109108333Y-107052380D01*
X109013095Y-107100000D01*
X108965476Y-107147619D01*
X108917857Y-107242857D01*
X108917857Y-107385714D01*
X108965476Y-107480952D01*
X109013095Y-107528571D01*
X109108333Y-107576190D01*
X109489285Y-107576190D01*
X107965476Y-108052380D02*
X108536904Y-108052380D01*
X108251190Y-108052380D02*
X108251190Y-107052380D01*
X108346428Y-107195238D01*
X108441666Y-107290476D01*
X108536904Y-107338095D01*
X107013095Y-108052380D02*
X107584523Y-108052380D01*
X107298809Y-108052380D02*
X107298809Y-107052380D01*
X107394047Y-107195238D01*
X107489285Y-107290476D01*
X107584523Y-107338095D01*
%TO.C,R12*%
X108817857Y-99652380D02*
X109151190Y-99176190D01*
X109389285Y-99652380D02*
X109389285Y-98652380D01*
X109008333Y-98652380D01*
X108913095Y-98700000D01*
X108865476Y-98747619D01*
X108817857Y-98842857D01*
X108817857Y-98985714D01*
X108865476Y-99080952D01*
X108913095Y-99128571D01*
X109008333Y-99176190D01*
X109389285Y-99176190D01*
X107865476Y-99652380D02*
X108436904Y-99652380D01*
X108151190Y-99652380D02*
X108151190Y-98652380D01*
X108246428Y-98795238D01*
X108341666Y-98890476D01*
X108436904Y-98938095D01*
X107484523Y-98747619D02*
X107436904Y-98700000D01*
X107341666Y-98652380D01*
X107103571Y-98652380D01*
X107008333Y-98700000D01*
X106960714Y-98747619D01*
X106913095Y-98842857D01*
X106913095Y-98938095D01*
X106960714Y-99080952D01*
X107532142Y-99652380D01*
X106913095Y-99652380D01*
%TO.C,U1*%
X111272904Y-118840380D02*
X111272904Y-119649904D01*
X111225285Y-119745142D01*
X111177666Y-119792761D01*
X111082428Y-119840380D01*
X110891952Y-119840380D01*
X110796714Y-119792761D01*
X110749095Y-119745142D01*
X110701476Y-119649904D01*
X110701476Y-118840380D01*
X109701476Y-119840380D02*
X110272904Y-119840380D01*
X109987190Y-119840380D02*
X109987190Y-118840380D01*
X110082428Y-118983238D01*
X110177666Y-119078476D01*
X110272904Y-119126095D01*
%TO.C,U3*%
X129536904Y-105452380D02*
X129536904Y-106261904D01*
X129489285Y-106357142D01*
X129441666Y-106404761D01*
X129346428Y-106452380D01*
X129155952Y-106452380D01*
X129060714Y-106404761D01*
X129013095Y-106357142D01*
X128965476Y-106261904D01*
X128965476Y-105452380D01*
X128584523Y-105452380D02*
X127965476Y-105452380D01*
X128298809Y-105833333D01*
X128155952Y-105833333D01*
X128060714Y-105880952D01*
X128013095Y-105928571D01*
X127965476Y-106023809D01*
X127965476Y-106261904D01*
X128013095Y-106357142D01*
X128060714Y-106404761D01*
X128155952Y-106452380D01*
X128441666Y-106452380D01*
X128536904Y-106404761D01*
X128584523Y-106357142D01*
%TO.C,U4*%
X148036904Y-109152380D02*
X148036904Y-109961904D01*
X147989285Y-110057142D01*
X147941666Y-110104761D01*
X147846428Y-110152380D01*
X147655952Y-110152380D01*
X147560714Y-110104761D01*
X147513095Y-110057142D01*
X147465476Y-109961904D01*
X147465476Y-109152380D01*
X146560714Y-109485714D02*
X146560714Y-110152380D01*
X146798809Y-109104761D02*
X147036904Y-109819047D01*
X146417857Y-109819047D01*
%TO.C,U5*%
X137836904Y-124352380D02*
X137836904Y-125161904D01*
X137789285Y-125257142D01*
X137741666Y-125304761D01*
X137646428Y-125352380D01*
X137455952Y-125352380D01*
X137360714Y-125304761D01*
X137313095Y-125257142D01*
X137265476Y-125161904D01*
X137265476Y-124352380D01*
X136313095Y-124352380D02*
X136789285Y-124352380D01*
X136836904Y-124828571D01*
X136789285Y-124780952D01*
X136694047Y-124733333D01*
X136455952Y-124733333D01*
X136360714Y-124780952D01*
X136313095Y-124828571D01*
X136265476Y-124923809D01*
X136265476Y-125161904D01*
X136313095Y-125257142D01*
X136360714Y-125304761D01*
X136455952Y-125352380D01*
X136694047Y-125352380D01*
X136789285Y-125304761D01*
X136836904Y-125257142D01*
%TO.C,Y1*%
X148851190Y-122876190D02*
X148851190Y-123352380D01*
X149184523Y-122352380D02*
X148851190Y-122876190D01*
X148517857Y-122352380D01*
X147660714Y-123352380D02*
X148232142Y-123352380D01*
X147946428Y-123352380D02*
X147946428Y-122352380D01*
X148041666Y-122495238D01*
X148136904Y-122590476D01*
X148232142Y-122638095D01*
%TD*%
M02*
