M48
; DRILL file {KiCad 5.1.9+dfsg1-1} date Mon Nov  1 22:23:25 2021
; FORMAT={-:-/ absolute / inch / decimal}
; #@! TF.CreationDate,2021-11-01T22:23:25+08:00
; #@! TF.GenerationSoftware,Kicad,Pcbnew,5.1.9+dfsg1-1
; #@! TF.FileFunction,Plated,1,4,PTH
FMAT,2
INCH
T1C0.0157
T2C0.0197
%
G90
G05
T1
X3.8415Y-5.311
X3.8455Y-4.9488
X3.9715Y-5.1496
X3.9793Y-4.0551
X3.9793Y-4.3898
X3.9833Y-4.7165
X4.0384Y-5.4528
X4.1526Y-4.9213
X4.1565Y-3.9016
X4.2628Y-4.7283
X4.2943Y-4.3465
X4.2982Y-4.5669
X4.3376Y-5.0354
X4.3455Y-3.9724
X4.4715Y-3.9744
X4.5266Y-4.1988
X4.562Y-4.4724
X4.6053Y-4.3819
X4.6289Y-5.4331
X4.6368Y-4.0591
X4.7077Y-5.1063
X4.7156Y-4.4685
X4.7938Y-4.4138
X4.7943Y-4.4926
X4.7943Y-4.3701
X4.7943Y-4.5344
X4.7943Y-4.8189
X4.7943Y-4.252
X4.7945Y-4.4532
X4.8533Y-4.6417
X4.9045Y-4.9154
X4.999Y-5.4528
X5.0187Y-4.5669
X5.0226Y-4.6969
X5.0974Y-5.1654
X5.1939Y-4.1417
X5.1978Y-4.9508
X5.2037Y-4.2224
X5.2037Y-4.2805
X5.2037Y-4.3199
X5.2037Y-4.3622
X5.2431Y-4.5394
X5.2589Y-3.9114
X5.2667Y-4.4547
X5.2943Y-4.5866
X5.3533Y-4.4665
X5.3829Y-4.0098
X5.4006Y-4.8189
X5.4026Y-4.1299
X5.499Y-4.3967
X5.5108Y-4.5866
X5.5226Y-3.8819
X5.5344Y-5.4528
X5.5581Y-5.1161
X5.6329Y-4.0138
X5.7037Y-4.5866
X5.7156Y-4.187
X5.7904Y-4.315
X5.7904Y-4.3701
X5.7982Y-3.9134
X5.8376Y-5.3386
X5.9045Y-4.9429
X5.9242Y-4.0276
X5.9341Y-4.3248
X6.0679Y-3.8799
X6.0738Y-4.7657
X6.1014Y-5.1102
X6.1565Y-5.4528
X6.1742Y-4.0236
X6.1781Y-4.4311
X6.2726Y-4.4665
X6.3435Y-3.9154
X6.4557Y-4.0433
X6.4596Y-4.7776
X6.5089Y-4.3976
X6.5089Y-4.4665
X6.5325Y-4.752
X6.56Y-3.8839
X6.5935Y-4.1417
X6.5935Y-4.2047
X6.6053Y-5.4331
X6.6959Y-5.0827
X6.6998Y-4.0374
X6.6998Y-4.5965
X6.6998Y-4.6378
X6.6998Y-4.6791
X6.6998Y-4.7205
X6.6998Y-4.7618
X6.6998Y-4.5551
X6.8533Y-5.2539
X6.8632Y-3.9114
X6.9045Y-4.8091
X6.9163Y-4.2913
X6.9557Y-4.5394
X6.9636Y-5.0374
X6.9813Y-4.0197
X6.9892Y-5.4272
T2
X5.5753Y-4.7041
X5.5753Y-4.7789
T0
M30
