%TF.GenerationSoftware,KiCad,Pcbnew,5.1.9+dfsg1-1~bpo10+1*%
%TF.CreationDate,2021-08-18T21:17:38+08:00*%
%TF.ProjectId,epd-clock,6570642d-636c-46f6-936b-2e6b69636164,rev?*%
%TF.SameCoordinates,Original*%
%TF.FileFunction,Copper,L2,Inr*%
%TF.FilePolarity,Positive*%
%FSLAX46Y46*%
G04 Gerber Fmt 4.6, Leading zero omitted, Abs format (unit mm)*
G04 Created by KiCad (PCBNEW 5.1.9+dfsg1-1~bpo10+1) date 2021-08-18 21:17:38*
%MOMM*%
%LPD*%
G01*
G04 APERTURE LIST*
%TA.AperFunction,ComponentPad*%
%ADD10C,1.000000*%
%TD*%
%TA.AperFunction,ViaPad*%
%ADD11C,0.800000*%
%TD*%
%TA.AperFunction,Conductor*%
%ADD12C,0.254000*%
%TD*%
%TA.AperFunction,Conductor*%
%ADD13C,0.100000*%
%TD*%
G04 APERTURE END LIST*
D10*
%TO.N,Net-(C19-Pad1)*%
%TO.C,Y1*%
X141613000Y-119484000D03*
%TO.N,Net-(C20-Pad1)*%
X141613000Y-121384000D03*
%TD*%
D11*
%TO.N,/power/ADEN#*%
X121575000Y-124700000D03*
%TO.N,+3V3*%
X146275000Y-104500000D03*
X137275000Y-104500000D03*
%TO.N,GND*%
X110175000Y-132000000D03*
X108575000Y-132000000D03*
X106975000Y-132000000D03*
X108575000Y-133300000D03*
X110175000Y-133300000D03*
X106975000Y-133300000D03*
X108575000Y-134600000D03*
X106975000Y-134600000D03*
X110175000Y-134600000D03*
X97675000Y-125700000D03*
X100875000Y-130800000D03*
X97575000Y-134900000D03*
X102575000Y-138500000D03*
X119575000Y-129700000D03*
X117575000Y-138000000D03*
X126975000Y-138500000D03*
X134875000Y-129300000D03*
X140975000Y-129800000D03*
X148875000Y-128800000D03*
X154975000Y-129800000D03*
X134875000Y-135900000D03*
X140575000Y-138500000D03*
X148275000Y-135600000D03*
X156375000Y-138500000D03*
X167775000Y-138000000D03*
X175175000Y-135300000D03*
X175775000Y-129800000D03*
X101075000Y-103000000D03*
X101075000Y-111500000D03*
X101175000Y-119800000D03*
X105575000Y-99100000D03*
X116975000Y-111300000D03*
X119775000Y-113500000D03*
X108275000Y-120100000D03*
X105475000Y-125000000D03*
X170075000Y-129100000D03*
X127775000Y-129300000D03*
X110175000Y-127900000D03*
X118575000Y-120600000D03*
X127475000Y-116000000D03*
X161075000Y-112400000D03*
X162300000Y-121200000D03*
X160737500Y-114262500D03*
X165075000Y-123000000D03*
X169175000Y-120000000D03*
X137175000Y-122400000D03*
%TO.N,+3V3*%
X139975000Y-116500000D03*
X134475000Y-116500000D03*
X110375000Y-100900000D03*
X109075000Y-110400000D03*
X109175000Y-116000000D03*
X123275000Y-117900000D03*
X127575000Y-119300000D03*
X144875000Y-116500000D03*
X115875000Y-113600000D03*
X113575000Y-99100000D03*
X152575000Y-108200000D03*
%TO.N,VCC*%
X158475000Y-122000000D03*
X160375000Y-121200000D03*
X167475000Y-106800000D03*
X167475000Y-105200000D03*
X158475000Y-109000000D03*
%TO.N,/mcu/EPD_PWR_EN*%
X124375000Y-105400000D03*
X152675000Y-109800000D03*
%TO.N,/epd/DIN*%
X130075000Y-106600000D03*
X170374998Y-115399987D03*
X147075000Y-109600000D03*
%TO.N,/epd/CLK*%
X122775000Y-108000000D03*
X147075002Y-110999998D03*
X170375000Y-116399987D03*
%TO.N,/epd/CS#*%
X170374996Y-117400000D03*
X132175000Y-108699987D03*
%TO.N,/epd/DC#*%
X170375000Y-118400000D03*
X132175000Y-109699994D03*
%TO.N,/mcu/EPD_RST#*%
X170375000Y-119400000D03*
X132175000Y-110800006D03*
%TO.N,/epd/BUSY*%
X166175000Y-119900000D03*
X121761295Y-112111614D03*
%TO.N,/power/ADEN#*%
X121774936Y-114111426D03*
%TO.N,/rtc/INT*%
X135375000Y-113299990D03*
X121780956Y-113111432D03*
%TO.N,/flash/MISO*%
X139675000Y-111674990D03*
X121775000Y-110999996D03*
%TO.N,/flash/CS*%
X139575001Y-113499999D03*
X121775000Y-115172693D03*
%TD*%
D12*
%TO.N,+3V3*%
X114048000Y-100273000D02*
X110875000Y-100273000D01*
X110850224Y-100275440D01*
X110826399Y-100282667D01*
X110804443Y-100294403D01*
X110785197Y-100310197D01*
X110769403Y-100329443D01*
X110757667Y-100351399D01*
X110750440Y-100375224D01*
X110748000Y-100400000D01*
X110748000Y-112200000D01*
X110750440Y-112224776D01*
X110757667Y-112248601D01*
X110769403Y-112270557D01*
X110785197Y-112289803D01*
X110804443Y-112305597D01*
X110826399Y-112317333D01*
X110850224Y-112324560D01*
X110875000Y-112327000D01*
X116832842Y-112327000D01*
X116873061Y-112335000D01*
X117076939Y-112335000D01*
X117117158Y-112327000D01*
X120748861Y-112327000D01*
X120766069Y-112413512D01*
X120844090Y-112601870D01*
X120861164Y-112627423D01*
X120785730Y-112809534D01*
X120745956Y-113009493D01*
X120745956Y-113139509D01*
X120692205Y-113009744D01*
X120578937Y-112840226D01*
X120434774Y-112696063D01*
X120265256Y-112582795D01*
X120076898Y-112504774D01*
X119876939Y-112465000D01*
X119673061Y-112465000D01*
X119473102Y-112504774D01*
X119284744Y-112582795D01*
X119115226Y-112696063D01*
X118971063Y-112840226D01*
X118857795Y-113009744D01*
X118779774Y-113198102D01*
X118740000Y-113398061D01*
X118740000Y-113601939D01*
X118779774Y-113801898D01*
X118857795Y-113990256D01*
X118971063Y-114159774D01*
X119115226Y-114303937D01*
X119284744Y-114417205D01*
X119473102Y-114495226D01*
X119673061Y-114535000D01*
X119876939Y-114535000D01*
X120076898Y-114495226D01*
X120265256Y-114417205D01*
X120434774Y-114303937D01*
X120578937Y-114159774D01*
X120692205Y-113990256D01*
X120770226Y-113801898D01*
X120810000Y-113601939D01*
X120810000Y-113471923D01*
X120863751Y-113601688D01*
X120867250Y-113606924D01*
X120857731Y-113621170D01*
X120779710Y-113809528D01*
X120739936Y-114009487D01*
X120739936Y-114213365D01*
X120779710Y-114413324D01*
X120857731Y-114601682D01*
X120884742Y-114642107D01*
X120857795Y-114682437D01*
X120779774Y-114870795D01*
X120740000Y-115070754D01*
X120740000Y-115274632D01*
X120779774Y-115474591D01*
X120857795Y-115662949D01*
X120971063Y-115832467D01*
X121115226Y-115976630D01*
X121284744Y-116089898D01*
X121473102Y-116167919D01*
X121673061Y-116207693D01*
X121876939Y-116207693D01*
X122076898Y-116167919D01*
X122265256Y-116089898D01*
X122434774Y-115976630D01*
X122513343Y-115898061D01*
X126440000Y-115898061D01*
X126440000Y-116101939D01*
X126479774Y-116301898D01*
X126557795Y-116490256D01*
X126671063Y-116659774D01*
X126815226Y-116803937D01*
X126984744Y-116917205D01*
X127173102Y-116995226D01*
X127373061Y-117035000D01*
X127576939Y-117035000D01*
X127776898Y-116995226D01*
X127965256Y-116917205D01*
X128134774Y-116803937D01*
X128278937Y-116659774D01*
X128392205Y-116490256D01*
X128470226Y-116301898D01*
X128510000Y-116101939D01*
X128510000Y-115898061D01*
X128470226Y-115698102D01*
X128392205Y-115509744D01*
X128278937Y-115340226D01*
X128134774Y-115196063D01*
X127965256Y-115082795D01*
X127776898Y-115004774D01*
X127576939Y-114965000D01*
X127373061Y-114965000D01*
X127173102Y-115004774D01*
X126984744Y-115082795D01*
X126815226Y-115196063D01*
X126671063Y-115340226D01*
X126557795Y-115509744D01*
X126479774Y-115698102D01*
X126440000Y-115898061D01*
X122513343Y-115898061D01*
X122578937Y-115832467D01*
X122692205Y-115662949D01*
X122770226Y-115474591D01*
X122810000Y-115274632D01*
X122810000Y-115070754D01*
X122770226Y-114870795D01*
X122692205Y-114682437D01*
X122665194Y-114642012D01*
X122692141Y-114601682D01*
X122770162Y-114413324D01*
X122809936Y-114213365D01*
X122809936Y-114009487D01*
X122770162Y-113809528D01*
X122692141Y-113621170D01*
X122688642Y-113615934D01*
X122698161Y-113601688D01*
X122776182Y-113413330D01*
X122815956Y-113213371D01*
X122815956Y-113009493D01*
X122776182Y-112809534D01*
X122698161Y-112621176D01*
X122681087Y-112595623D01*
X122756521Y-112413512D01*
X122773729Y-112327000D01*
X135019420Y-112327000D01*
X134884744Y-112382785D01*
X134715226Y-112496053D01*
X134571063Y-112640216D01*
X134457795Y-112809734D01*
X134379774Y-112998092D01*
X134340000Y-113198051D01*
X134340000Y-113401929D01*
X134379774Y-113601888D01*
X134457795Y-113790246D01*
X134571063Y-113959764D01*
X134715226Y-114103927D01*
X134884744Y-114217195D01*
X135073102Y-114295216D01*
X135273061Y-114334990D01*
X135476939Y-114334990D01*
X135676898Y-114295216D01*
X135865256Y-114217195D01*
X136034774Y-114103927D01*
X136178937Y-113959764D01*
X136292205Y-113790246D01*
X136370226Y-113601888D01*
X136410000Y-113401929D01*
X136410000Y-113198051D01*
X136370226Y-112998092D01*
X136292205Y-112809734D01*
X136178937Y-112640216D01*
X136034774Y-112496053D01*
X135865256Y-112382785D01*
X135730580Y-112327000D01*
X138865875Y-112327000D01*
X138871063Y-112334764D01*
X139015226Y-112478927D01*
X139137790Y-112560822D01*
X139084745Y-112582794D01*
X138915227Y-112696062D01*
X138771064Y-112840225D01*
X138657796Y-113009743D01*
X138579775Y-113198101D01*
X138540001Y-113398060D01*
X138540001Y-113601938D01*
X138579775Y-113801897D01*
X138657796Y-113990255D01*
X138771064Y-114159773D01*
X138915227Y-114303936D01*
X139084745Y-114417204D01*
X139273103Y-114495225D01*
X139473062Y-114534999D01*
X139676940Y-114534999D01*
X139876899Y-114495225D01*
X140065257Y-114417204D01*
X140234775Y-114303936D01*
X140378938Y-114159773D01*
X140492206Y-113990255D01*
X140570227Y-113801897D01*
X140610001Y-113601938D01*
X140610001Y-113398060D01*
X140570227Y-113198101D01*
X140492206Y-113009743D01*
X140378938Y-112840225D01*
X140234775Y-112696062D01*
X140112211Y-112614167D01*
X140165256Y-112592195D01*
X140334774Y-112478927D01*
X140478937Y-112334764D01*
X140484125Y-112327000D01*
X146275000Y-112327000D01*
X146299776Y-112324560D01*
X146323601Y-112317333D01*
X146345557Y-112305597D01*
X146364803Y-112289803D01*
X146380597Y-112270557D01*
X146392333Y-112248601D01*
X146399560Y-112224776D01*
X146402000Y-112200000D01*
X146402000Y-111790707D01*
X146415228Y-111803935D01*
X146584746Y-111917203D01*
X146773104Y-111995224D01*
X146973063Y-112034998D01*
X147176941Y-112034998D01*
X147376900Y-111995224D01*
X147565258Y-111917203D01*
X147734776Y-111803935D01*
X147878939Y-111659772D01*
X147992207Y-111490254D01*
X148070228Y-111301896D01*
X148110002Y-111101937D01*
X148110002Y-110898059D01*
X148070228Y-110698100D01*
X147992207Y-110509742D01*
X147878939Y-110340224D01*
X147838713Y-110299998D01*
X147878937Y-110259774D01*
X147992205Y-110090256D01*
X148070226Y-109901898D01*
X148110000Y-109701939D01*
X148110000Y-109498061D01*
X148070226Y-109298102D01*
X147992205Y-109109744D01*
X147878937Y-108940226D01*
X147734774Y-108796063D01*
X147565256Y-108682795D01*
X147376898Y-108604774D01*
X147176939Y-108565000D01*
X146973061Y-108565000D01*
X146773102Y-108604774D01*
X146584744Y-108682795D01*
X146415226Y-108796063D01*
X146402000Y-108809289D01*
X146402000Y-108000000D01*
X146399560Y-107975224D01*
X146392333Y-107951399D01*
X146380597Y-107929443D01*
X146364803Y-107910197D01*
X146345557Y-107894403D01*
X146323601Y-107882667D01*
X146299776Y-107875440D01*
X146275000Y-107873000D01*
X136702000Y-107873000D01*
X136702000Y-103927000D01*
X152848000Y-103927000D01*
X152848000Y-108573000D01*
X148675000Y-108573000D01*
X148650224Y-108575440D01*
X148626399Y-108582667D01*
X148604443Y-108594403D01*
X148585197Y-108610197D01*
X148569403Y-108629443D01*
X148557667Y-108651399D01*
X148550440Y-108675224D01*
X148548000Y-108700000D01*
X148548000Y-117273000D01*
X127975000Y-117273000D01*
X127950224Y-117275440D01*
X127926399Y-117282667D01*
X127904443Y-117294403D01*
X127885197Y-117310197D01*
X127869403Y-117329443D01*
X127857667Y-117351399D01*
X127850440Y-117375224D01*
X127848000Y-117400000D01*
X127848000Y-119573000D01*
X122602000Y-119573000D01*
X122602000Y-117400000D01*
X122599560Y-117375224D01*
X122592333Y-117351399D01*
X122580597Y-117329443D01*
X122564803Y-117310197D01*
X122545557Y-117294403D01*
X122523601Y-117282667D01*
X122499776Y-117275440D01*
X122475000Y-117273000D01*
X107602000Y-117273000D01*
X107602000Y-98427000D01*
X114048000Y-98427000D01*
X114048000Y-100273000D01*
%TA.AperFunction,Conductor*%
D13*
G36*
X114048000Y-100273000D02*
G01*
X110875000Y-100273000D01*
X110850224Y-100275440D01*
X110826399Y-100282667D01*
X110804443Y-100294403D01*
X110785197Y-100310197D01*
X110769403Y-100329443D01*
X110757667Y-100351399D01*
X110750440Y-100375224D01*
X110748000Y-100400000D01*
X110748000Y-112200000D01*
X110750440Y-112224776D01*
X110757667Y-112248601D01*
X110769403Y-112270557D01*
X110785197Y-112289803D01*
X110804443Y-112305597D01*
X110826399Y-112317333D01*
X110850224Y-112324560D01*
X110875000Y-112327000D01*
X116832842Y-112327000D01*
X116873061Y-112335000D01*
X117076939Y-112335000D01*
X117117158Y-112327000D01*
X120748861Y-112327000D01*
X120766069Y-112413512D01*
X120844090Y-112601870D01*
X120861164Y-112627423D01*
X120785730Y-112809534D01*
X120745956Y-113009493D01*
X120745956Y-113139509D01*
X120692205Y-113009744D01*
X120578937Y-112840226D01*
X120434774Y-112696063D01*
X120265256Y-112582795D01*
X120076898Y-112504774D01*
X119876939Y-112465000D01*
X119673061Y-112465000D01*
X119473102Y-112504774D01*
X119284744Y-112582795D01*
X119115226Y-112696063D01*
X118971063Y-112840226D01*
X118857795Y-113009744D01*
X118779774Y-113198102D01*
X118740000Y-113398061D01*
X118740000Y-113601939D01*
X118779774Y-113801898D01*
X118857795Y-113990256D01*
X118971063Y-114159774D01*
X119115226Y-114303937D01*
X119284744Y-114417205D01*
X119473102Y-114495226D01*
X119673061Y-114535000D01*
X119876939Y-114535000D01*
X120076898Y-114495226D01*
X120265256Y-114417205D01*
X120434774Y-114303937D01*
X120578937Y-114159774D01*
X120692205Y-113990256D01*
X120770226Y-113801898D01*
X120810000Y-113601939D01*
X120810000Y-113471923D01*
X120863751Y-113601688D01*
X120867250Y-113606924D01*
X120857731Y-113621170D01*
X120779710Y-113809528D01*
X120739936Y-114009487D01*
X120739936Y-114213365D01*
X120779710Y-114413324D01*
X120857731Y-114601682D01*
X120884742Y-114642107D01*
X120857795Y-114682437D01*
X120779774Y-114870795D01*
X120740000Y-115070754D01*
X120740000Y-115274632D01*
X120779774Y-115474591D01*
X120857795Y-115662949D01*
X120971063Y-115832467D01*
X121115226Y-115976630D01*
X121284744Y-116089898D01*
X121473102Y-116167919D01*
X121673061Y-116207693D01*
X121876939Y-116207693D01*
X122076898Y-116167919D01*
X122265256Y-116089898D01*
X122434774Y-115976630D01*
X122513343Y-115898061D01*
X126440000Y-115898061D01*
X126440000Y-116101939D01*
X126479774Y-116301898D01*
X126557795Y-116490256D01*
X126671063Y-116659774D01*
X126815226Y-116803937D01*
X126984744Y-116917205D01*
X127173102Y-116995226D01*
X127373061Y-117035000D01*
X127576939Y-117035000D01*
X127776898Y-116995226D01*
X127965256Y-116917205D01*
X128134774Y-116803937D01*
X128278937Y-116659774D01*
X128392205Y-116490256D01*
X128470226Y-116301898D01*
X128510000Y-116101939D01*
X128510000Y-115898061D01*
X128470226Y-115698102D01*
X128392205Y-115509744D01*
X128278937Y-115340226D01*
X128134774Y-115196063D01*
X127965256Y-115082795D01*
X127776898Y-115004774D01*
X127576939Y-114965000D01*
X127373061Y-114965000D01*
X127173102Y-115004774D01*
X126984744Y-115082795D01*
X126815226Y-115196063D01*
X126671063Y-115340226D01*
X126557795Y-115509744D01*
X126479774Y-115698102D01*
X126440000Y-115898061D01*
X122513343Y-115898061D01*
X122578937Y-115832467D01*
X122692205Y-115662949D01*
X122770226Y-115474591D01*
X122810000Y-115274632D01*
X122810000Y-115070754D01*
X122770226Y-114870795D01*
X122692205Y-114682437D01*
X122665194Y-114642012D01*
X122692141Y-114601682D01*
X122770162Y-114413324D01*
X122809936Y-114213365D01*
X122809936Y-114009487D01*
X122770162Y-113809528D01*
X122692141Y-113621170D01*
X122688642Y-113615934D01*
X122698161Y-113601688D01*
X122776182Y-113413330D01*
X122815956Y-113213371D01*
X122815956Y-113009493D01*
X122776182Y-112809534D01*
X122698161Y-112621176D01*
X122681087Y-112595623D01*
X122756521Y-112413512D01*
X122773729Y-112327000D01*
X135019420Y-112327000D01*
X134884744Y-112382785D01*
X134715226Y-112496053D01*
X134571063Y-112640216D01*
X134457795Y-112809734D01*
X134379774Y-112998092D01*
X134340000Y-113198051D01*
X134340000Y-113401929D01*
X134379774Y-113601888D01*
X134457795Y-113790246D01*
X134571063Y-113959764D01*
X134715226Y-114103927D01*
X134884744Y-114217195D01*
X135073102Y-114295216D01*
X135273061Y-114334990D01*
X135476939Y-114334990D01*
X135676898Y-114295216D01*
X135865256Y-114217195D01*
X136034774Y-114103927D01*
X136178937Y-113959764D01*
X136292205Y-113790246D01*
X136370226Y-113601888D01*
X136410000Y-113401929D01*
X136410000Y-113198051D01*
X136370226Y-112998092D01*
X136292205Y-112809734D01*
X136178937Y-112640216D01*
X136034774Y-112496053D01*
X135865256Y-112382785D01*
X135730580Y-112327000D01*
X138865875Y-112327000D01*
X138871063Y-112334764D01*
X139015226Y-112478927D01*
X139137790Y-112560822D01*
X139084745Y-112582794D01*
X138915227Y-112696062D01*
X138771064Y-112840225D01*
X138657796Y-113009743D01*
X138579775Y-113198101D01*
X138540001Y-113398060D01*
X138540001Y-113601938D01*
X138579775Y-113801897D01*
X138657796Y-113990255D01*
X138771064Y-114159773D01*
X138915227Y-114303936D01*
X139084745Y-114417204D01*
X139273103Y-114495225D01*
X139473062Y-114534999D01*
X139676940Y-114534999D01*
X139876899Y-114495225D01*
X140065257Y-114417204D01*
X140234775Y-114303936D01*
X140378938Y-114159773D01*
X140492206Y-113990255D01*
X140570227Y-113801897D01*
X140610001Y-113601938D01*
X140610001Y-113398060D01*
X140570227Y-113198101D01*
X140492206Y-113009743D01*
X140378938Y-112840225D01*
X140234775Y-112696062D01*
X140112211Y-112614167D01*
X140165256Y-112592195D01*
X140334774Y-112478927D01*
X140478937Y-112334764D01*
X140484125Y-112327000D01*
X146275000Y-112327000D01*
X146299776Y-112324560D01*
X146323601Y-112317333D01*
X146345557Y-112305597D01*
X146364803Y-112289803D01*
X146380597Y-112270557D01*
X146392333Y-112248601D01*
X146399560Y-112224776D01*
X146402000Y-112200000D01*
X146402000Y-111790707D01*
X146415228Y-111803935D01*
X146584746Y-111917203D01*
X146773104Y-111995224D01*
X146973063Y-112034998D01*
X147176941Y-112034998D01*
X147376900Y-111995224D01*
X147565258Y-111917203D01*
X147734776Y-111803935D01*
X147878939Y-111659772D01*
X147992207Y-111490254D01*
X148070228Y-111301896D01*
X148110002Y-111101937D01*
X148110002Y-110898059D01*
X148070228Y-110698100D01*
X147992207Y-110509742D01*
X147878939Y-110340224D01*
X147838713Y-110299998D01*
X147878937Y-110259774D01*
X147992205Y-110090256D01*
X148070226Y-109901898D01*
X148110000Y-109701939D01*
X148110000Y-109498061D01*
X148070226Y-109298102D01*
X147992205Y-109109744D01*
X147878937Y-108940226D01*
X147734774Y-108796063D01*
X147565256Y-108682795D01*
X147376898Y-108604774D01*
X147176939Y-108565000D01*
X146973061Y-108565000D01*
X146773102Y-108604774D01*
X146584744Y-108682795D01*
X146415226Y-108796063D01*
X146402000Y-108809289D01*
X146402000Y-108000000D01*
X146399560Y-107975224D01*
X146392333Y-107951399D01*
X146380597Y-107929443D01*
X146364803Y-107910197D01*
X146345557Y-107894403D01*
X146323601Y-107882667D01*
X146299776Y-107875440D01*
X146275000Y-107873000D01*
X136702000Y-107873000D01*
X136702000Y-103927000D01*
X152848000Y-103927000D01*
X152848000Y-108573000D01*
X148675000Y-108573000D01*
X148650224Y-108575440D01*
X148626399Y-108582667D01*
X148604443Y-108594403D01*
X148585197Y-108610197D01*
X148569403Y-108629443D01*
X148557667Y-108651399D01*
X148550440Y-108675224D01*
X148548000Y-108700000D01*
X148548000Y-117273000D01*
X127975000Y-117273000D01*
X127950224Y-117275440D01*
X127926399Y-117282667D01*
X127904443Y-117294403D01*
X127885197Y-117310197D01*
X127869403Y-117329443D01*
X127857667Y-117351399D01*
X127850440Y-117375224D01*
X127848000Y-117400000D01*
X127848000Y-119573000D01*
X122602000Y-119573000D01*
X122602000Y-117400000D01*
X122599560Y-117375224D01*
X122592333Y-117351399D01*
X122580597Y-117329443D01*
X122564803Y-117310197D01*
X122545557Y-117294403D01*
X122523601Y-117282667D01*
X122499776Y-117275440D01*
X122475000Y-117273000D01*
X107602000Y-117273000D01*
X107602000Y-98427000D01*
X114048000Y-98427000D01*
X114048000Y-100273000D01*
G37*
%TD.AperFunction*%
%TD*%
D12*
%TO.N,VCC*%
X168348000Y-107373000D02*
X159775000Y-107373000D01*
X159750224Y-107375440D01*
X159726399Y-107382667D01*
X159704443Y-107394403D01*
X159685197Y-107410197D01*
X159669403Y-107429443D01*
X159657667Y-107451399D01*
X159650440Y-107475224D01*
X159648000Y-107500000D01*
X159648000Y-120500000D01*
X159650440Y-120524776D01*
X159657667Y-120548601D01*
X159669403Y-120570557D01*
X159685197Y-120589803D01*
X159704443Y-120605597D01*
X159726399Y-120617333D01*
X159750224Y-120624560D01*
X159775000Y-120627000D01*
X161148000Y-120627000D01*
X161148000Y-123373000D01*
X157302000Y-123373000D01*
X157302000Y-104527000D01*
X168348000Y-104527000D01*
X168348000Y-107373000D01*
%TA.AperFunction,Conductor*%
D13*
G36*
X168348000Y-107373000D02*
G01*
X159775000Y-107373000D01*
X159750224Y-107375440D01*
X159726399Y-107382667D01*
X159704443Y-107394403D01*
X159685197Y-107410197D01*
X159669403Y-107429443D01*
X159657667Y-107451399D01*
X159650440Y-107475224D01*
X159648000Y-107500000D01*
X159648000Y-120500000D01*
X159650440Y-120524776D01*
X159657667Y-120548601D01*
X159669403Y-120570557D01*
X159685197Y-120589803D01*
X159704443Y-120605597D01*
X159726399Y-120617333D01*
X159750224Y-120624560D01*
X159775000Y-120627000D01*
X161148000Y-120627000D01*
X161148000Y-123373000D01*
X157302000Y-123373000D01*
X157302000Y-104527000D01*
X168348000Y-104527000D01*
X168348000Y-107373000D01*
G37*
%TD.AperFunction*%
%TD*%
M02*
