M48
; DRILL file {KiCad 5.1.9+dfsg1-1~bpo10+1} date Wed Aug 18 21:17:42 2021
; FORMAT={-:-/ absolute / inch / decimal}
; #@! TF.CreationDate,2021-08-18T21:17:42+08:00
; #@! TF.GenerationSoftware,Kicad,Pcbnew,5.1.9+dfsg1-1~bpo10+1
; #@! TF.FileFunction,Plated,1,4,PTH
FMAT,2
INCH
T1C0.0157
T2C0.0197
%
G90
G05
T1
X3.8415Y-5.311
X3.8455Y-4.9488
X3.9715Y-5.1496
X3.9793Y-4.0551
X3.9793Y-4.3898
X3.9833Y-4.7165
X4.0384Y-5.4528
X4.1526Y-4.9213
X4.1565Y-3.9016
X4.2116Y-5.1969
X4.2116Y-5.248
X4.2116Y-5.2992
X4.2628Y-4.7283
X4.2746Y-5.1969
X4.2746Y-5.248
X4.2746Y-5.2992
X4.2943Y-4.3465
X4.2982Y-4.5669
X4.3376Y-5.0354
X4.3376Y-5.1969
X4.3376Y-5.248
X4.3376Y-5.2992
X4.3455Y-3.9724
X4.4715Y-3.9016
X4.562Y-4.4724
X4.6053Y-4.3819
X4.6289Y-5.4331
X4.6683Y-4.748
X4.7077Y-5.1063
X4.7156Y-4.4685
X4.7864Y-4.9094
X4.7938Y-4.4138
X4.7943Y-4.4926
X4.7943Y-4.3701
X4.7943Y-4.5344
X4.7945Y-4.4532
X4.8337Y-4.252
X4.8533Y-4.6417
X4.8967Y-4.1496
X4.999Y-5.4528
X5.0187Y-4.5669
X5.0226Y-4.6969
X5.0305Y-5.0906
X5.1211Y-4.1969
X5.2037Y-4.2795
X5.2037Y-4.3189
X5.2037Y-4.3622
X5.2943Y-4.5866
X5.31Y-5.0906
X5.31Y-5.3504
X5.3297Y-4.4606
X5.4006Y-4.8189
X5.4045Y-4.1142
X5.4951Y-4.4685
X5.499Y-4.3967
X5.5108Y-4.5866
X5.5344Y-5.4528
X5.5502Y-5.1102
X5.7037Y-4.5866
X5.7589Y-4.1142
X5.7904Y-4.315
X5.7904Y-4.3701
X5.8376Y-5.3386
X5.8612Y-5.0709
X6.0069Y-4.2598
X6.0108Y-4.3228
X6.1014Y-5.1102
X6.1565Y-5.4528
X6.2392Y-4.2913
X6.2392Y-4.8031
X6.314Y-4.7717
X6.3282Y-4.4985
X6.3415Y-4.4252
X6.3898Y-4.7717
X6.499Y-4.8425
X6.5423Y-4.7205
X6.5935Y-4.1417
X6.5935Y-4.2047
X6.6053Y-5.4331
X6.6604Y-4.7244
X6.6959Y-5.0827
X6.7077Y-4.622
X6.7077Y-4.5433
X6.7077Y-4.5827
X6.7077Y-4.6614
X6.7077Y-4.7008
X6.8967Y-5.3268
X6.9203Y-5.1102
T2
X5.5753Y-4.7041
X5.5753Y-4.7789
T0
M30
