%TF.GenerationSoftware,KiCad,Pcbnew,5.1.9+dfsg1-1~bpo10+1*%
%TF.CreationDate,2021-08-18T21:17:38+08:00*%
%TF.ProjectId,epd-clock,6570642d-636c-46f6-936b-2e6b69636164,rev?*%
%TF.SameCoordinates,Original*%
%TF.FileFunction,Soldermask,Bot*%
%TF.FilePolarity,Negative*%
%FSLAX46Y46*%
G04 Gerber Fmt 4.6, Leading zero omitted, Abs format (unit mm)*
G04 Created by KiCad (PCBNEW 5.1.9+dfsg1-1~bpo10+1) date 2021-08-18 21:17:38*
%MOMM*%
%LPD*%
G01*
G04 APERTURE LIST*
%ADD10C,1.000000*%
%ADD11R,0.450000X0.700000*%
%ADD12R,3.400000X0.980000*%
%ADD13R,1.100000X0.300000*%
%ADD14R,3.100000X2.300000*%
%ADD15C,0.100000*%
%ADD16R,8.000000X4.800000*%
%ADD17C,1.500000*%
%ADD18R,1.550000X1.300000*%
%ADD19R,0.900000X1.200000*%
%ADD20R,0.800000X0.900000*%
%ADD21R,0.900000X0.800000*%
%ADD22R,0.900000X1.300000*%
%ADD23R,6.000000X2.500000*%
G04 APERTURE END LIST*
D10*
%TO.C,TP8*%
X148075000Y-124400000D03*
%TD*%
%TO.C,TP7*%
X145475000Y-124400000D03*
%TD*%
%TO.C,R12*%
G36*
G01*
X129150000Y-104925000D02*
X129150000Y-105475000D01*
G75*
G02*
X128950000Y-105675000I-200000J0D01*
G01*
X128550000Y-105675000D01*
G75*
G02*
X128350000Y-105475000I0J200000D01*
G01*
X128350000Y-104925000D01*
G75*
G02*
X128550000Y-104725000I200000J0D01*
G01*
X128950000Y-104725000D01*
G75*
G02*
X129150000Y-104925000I0J-200000D01*
G01*
G37*
G36*
G01*
X130800000Y-104925000D02*
X130800000Y-105475000D01*
G75*
G02*
X130600000Y-105675000I-200000J0D01*
G01*
X130200000Y-105675000D01*
G75*
G02*
X130000000Y-105475000I0J200000D01*
G01*
X130000000Y-104925000D01*
G75*
G02*
X130200000Y-104725000I200000J0D01*
G01*
X130600000Y-104725000D01*
G75*
G02*
X130800000Y-104925000I0J-200000D01*
G01*
G37*
%TD*%
D11*
%TO.C,Q3*%
X159975000Y-122800000D03*
X159325000Y-124800000D03*
X160625000Y-124800000D03*
%TD*%
%TO.C,R3*%
G36*
G01*
X163500000Y-125075000D02*
X163500000Y-124525000D01*
G75*
G02*
X163700000Y-124325000I200000J0D01*
G01*
X164100000Y-124325000D01*
G75*
G02*
X164300000Y-124525000I0J-200000D01*
G01*
X164300000Y-125075000D01*
G75*
G02*
X164100000Y-125275000I-200000J0D01*
G01*
X163700000Y-125275000D01*
G75*
G02*
X163500000Y-125075000I0J200000D01*
G01*
G37*
G36*
G01*
X161850000Y-125075000D02*
X161850000Y-124525000D01*
G75*
G02*
X162050000Y-124325000I200000J0D01*
G01*
X162450000Y-124325000D01*
G75*
G02*
X162650000Y-124525000I0J-200000D01*
G01*
X162650000Y-125075000D01*
G75*
G02*
X162450000Y-125275000I-200000J0D01*
G01*
X162050000Y-125275000D01*
G75*
G02*
X161850000Y-125075000I0J200000D01*
G01*
G37*
%TD*%
%TO.C,R9*%
G36*
G01*
X138500000Y-106375000D02*
X138500000Y-105825000D01*
G75*
G02*
X138700000Y-105625000I200000J0D01*
G01*
X139100000Y-105625000D01*
G75*
G02*
X139300000Y-105825000I0J-200000D01*
G01*
X139300000Y-106375000D01*
G75*
G02*
X139100000Y-106575000I-200000J0D01*
G01*
X138700000Y-106575000D01*
G75*
G02*
X138500000Y-106375000I0J200000D01*
G01*
G37*
G36*
G01*
X136850000Y-106375000D02*
X136850000Y-105825000D01*
G75*
G02*
X137050000Y-105625000I200000J0D01*
G01*
X137450000Y-105625000D01*
G75*
G02*
X137650000Y-105825000I0J-200000D01*
G01*
X137650000Y-106375000D01*
G75*
G02*
X137450000Y-106575000I-200000J0D01*
G01*
X137050000Y-106575000D01*
G75*
G02*
X136850000Y-106375000I0J200000D01*
G01*
G37*
%TD*%
%TO.C,R8*%
G36*
G01*
X143850000Y-107425000D02*
X143850000Y-107975000D01*
G75*
G02*
X143650000Y-108175000I-200000J0D01*
G01*
X143250000Y-108175000D01*
G75*
G02*
X143050000Y-107975000I0J200000D01*
G01*
X143050000Y-107425000D01*
G75*
G02*
X143250000Y-107225000I200000J0D01*
G01*
X143650000Y-107225000D01*
G75*
G02*
X143850000Y-107425000I0J-200000D01*
G01*
G37*
G36*
G01*
X145500000Y-107425000D02*
X145500000Y-107975000D01*
G75*
G02*
X145300000Y-108175000I-200000J0D01*
G01*
X144900000Y-108175000D01*
G75*
G02*
X144700000Y-107975000I0J200000D01*
G01*
X144700000Y-107425000D01*
G75*
G02*
X144900000Y-107225000I200000J0D01*
G01*
X145300000Y-107225000D01*
G75*
G02*
X145500000Y-107425000I0J-200000D01*
G01*
G37*
%TD*%
%TO.C,R7*%
G36*
G01*
X143850000Y-105825000D02*
X143850000Y-106375000D01*
G75*
G02*
X143650000Y-106575000I-200000J0D01*
G01*
X143250000Y-106575000D01*
G75*
G02*
X143050000Y-106375000I0J200000D01*
G01*
X143050000Y-105825000D01*
G75*
G02*
X143250000Y-105625000I200000J0D01*
G01*
X143650000Y-105625000D01*
G75*
G02*
X143850000Y-105825000I0J-200000D01*
G01*
G37*
G36*
G01*
X145500000Y-105825000D02*
X145500000Y-106375000D01*
G75*
G02*
X145300000Y-106575000I-200000J0D01*
G01*
X144900000Y-106575000D01*
G75*
G02*
X144700000Y-106375000I0J200000D01*
G01*
X144700000Y-105825000D01*
G75*
G02*
X144900000Y-105625000I200000J0D01*
G01*
X145300000Y-105625000D01*
G75*
G02*
X145500000Y-105825000I0J-200000D01*
G01*
G37*
%TD*%
%TO.C,R2*%
G36*
G01*
X153600000Y-109425000D02*
X154150000Y-109425000D01*
G75*
G02*
X154350000Y-109625000I0J-200000D01*
G01*
X154350000Y-110025000D01*
G75*
G02*
X154150000Y-110225000I-200000J0D01*
G01*
X153600000Y-110225000D01*
G75*
G02*
X153400000Y-110025000I0J200000D01*
G01*
X153400000Y-109625000D01*
G75*
G02*
X153600000Y-109425000I200000J0D01*
G01*
G37*
G36*
G01*
X153600000Y-107775000D02*
X154150000Y-107775000D01*
G75*
G02*
X154350000Y-107975000I0J-200000D01*
G01*
X154350000Y-108375000D01*
G75*
G02*
X154150000Y-108575000I-200000J0D01*
G01*
X153600000Y-108575000D01*
G75*
G02*
X153400000Y-108375000I0J200000D01*
G01*
X153400000Y-107975000D01*
G75*
G02*
X153600000Y-107775000I200000J0D01*
G01*
G37*
%TD*%
%TO.C,C10*%
G36*
G01*
X156000000Y-119850000D02*
X156000000Y-119350000D01*
G75*
G02*
X156225000Y-119125000I225000J0D01*
G01*
X156675000Y-119125000D01*
G75*
G02*
X156900000Y-119350000I0J-225000D01*
G01*
X156900000Y-119850000D01*
G75*
G02*
X156675000Y-120075000I-225000J0D01*
G01*
X156225000Y-120075000D01*
G75*
G02*
X156000000Y-119850000I0J225000D01*
G01*
G37*
G36*
G01*
X154450000Y-119850000D02*
X154450000Y-119350000D01*
G75*
G02*
X154675000Y-119125000I225000J0D01*
G01*
X155125000Y-119125000D01*
G75*
G02*
X155350000Y-119350000I0J-225000D01*
G01*
X155350000Y-119850000D01*
G75*
G02*
X155125000Y-120075000I-225000J0D01*
G01*
X154675000Y-120075000D01*
G75*
G02*
X154450000Y-119850000I0J225000D01*
G01*
G37*
%TD*%
D12*
%TO.C,L2*%
X155775000Y-124385000D03*
X155775000Y-122015000D03*
%TD*%
D13*
%TO.C,J1*%
X167725000Y-112238000D03*
X167725000Y-112738000D03*
X167725000Y-113238000D03*
X167725000Y-113738000D03*
X167725000Y-114238000D03*
X167725000Y-114738000D03*
X167725000Y-115238000D03*
X167725000Y-115738000D03*
X167725000Y-116238000D03*
X167725000Y-116738000D03*
X167725000Y-117238000D03*
X167725000Y-117738000D03*
X167725000Y-118238000D03*
X167725000Y-118738000D03*
X167725000Y-119238000D03*
X167725000Y-119738000D03*
X167725000Y-120238000D03*
X167725000Y-120738000D03*
X167725000Y-121238000D03*
X167725000Y-121738000D03*
X167725000Y-122238000D03*
X167725000Y-122738000D03*
X167725000Y-123238000D03*
X167725000Y-123738000D03*
D14*
X169425000Y-110568000D03*
X169425000Y-125408000D03*
%TD*%
%TO.C,R4*%
G36*
G01*
X163500000Y-123275000D02*
X163500000Y-122725000D01*
G75*
G02*
X163700000Y-122525000I200000J0D01*
G01*
X164100000Y-122525000D01*
G75*
G02*
X164300000Y-122725000I0J-200000D01*
G01*
X164300000Y-123275000D01*
G75*
G02*
X164100000Y-123475000I-200000J0D01*
G01*
X163700000Y-123475000D01*
G75*
G02*
X163500000Y-123275000I0J200000D01*
G01*
G37*
G36*
G01*
X161850000Y-123275000D02*
X161850000Y-122725000D01*
G75*
G02*
X162050000Y-122525000I200000J0D01*
G01*
X162450000Y-122525000D01*
G75*
G02*
X162650000Y-122725000I0J-200000D01*
G01*
X162650000Y-123275000D01*
G75*
G02*
X162450000Y-123475000I-200000J0D01*
G01*
X162050000Y-123475000D01*
G75*
G02*
X161850000Y-123275000I0J200000D01*
G01*
G37*
%TD*%
%TO.C,R18*%
G36*
G01*
X138750000Y-117425000D02*
X138750000Y-117975000D01*
G75*
G02*
X138550000Y-118175000I-200000J0D01*
G01*
X138150000Y-118175000D01*
G75*
G02*
X137950000Y-117975000I0J200000D01*
G01*
X137950000Y-117425000D01*
G75*
G02*
X138150000Y-117225000I200000J0D01*
G01*
X138550000Y-117225000D01*
G75*
G02*
X138750000Y-117425000I0J-200000D01*
G01*
G37*
G36*
G01*
X140400000Y-117425000D02*
X140400000Y-117975000D01*
G75*
G02*
X140200000Y-118175000I-200000J0D01*
G01*
X139800000Y-118175000D01*
G75*
G02*
X139600000Y-117975000I0J200000D01*
G01*
X139600000Y-117425000D01*
G75*
G02*
X139800000Y-117225000I200000J0D01*
G01*
X140200000Y-117225000D01*
G75*
G02*
X140400000Y-117425000I0J-200000D01*
G01*
G37*
%TD*%
%TO.C,R11*%
G36*
G01*
X129150000Y-103325000D02*
X129150000Y-103875000D01*
G75*
G02*
X128950000Y-104075000I-200000J0D01*
G01*
X128550000Y-104075000D01*
G75*
G02*
X128350000Y-103875000I0J200000D01*
G01*
X128350000Y-103325000D01*
G75*
G02*
X128550000Y-103125000I200000J0D01*
G01*
X128950000Y-103125000D01*
G75*
G02*
X129150000Y-103325000I0J-200000D01*
G01*
G37*
G36*
G01*
X130800000Y-103325000D02*
X130800000Y-103875000D01*
G75*
G02*
X130600000Y-104075000I-200000J0D01*
G01*
X130200000Y-104075000D01*
G75*
G02*
X130000000Y-103875000I0J200000D01*
G01*
X130000000Y-103325000D01*
G75*
G02*
X130200000Y-103125000I200000J0D01*
G01*
X130600000Y-103125000D01*
G75*
G02*
X130800000Y-103325000I0J-200000D01*
G01*
G37*
%TD*%
D15*
%TO.C,JP2*%
G36*
X114425000Y-112850602D02*
G01*
X114449534Y-112850602D01*
X114498365Y-112855412D01*
X114546490Y-112864984D01*
X114593445Y-112879228D01*
X114638778Y-112898005D01*
X114682051Y-112921136D01*
X114722850Y-112948396D01*
X114760779Y-112979524D01*
X114795476Y-113014221D01*
X114826604Y-113052150D01*
X114853864Y-113092949D01*
X114876995Y-113136222D01*
X114895772Y-113181555D01*
X114910016Y-113228510D01*
X114919588Y-113276635D01*
X114924398Y-113325466D01*
X114924398Y-113350000D01*
X114925000Y-113350000D01*
X114925000Y-113850000D01*
X114924398Y-113850000D01*
X114924398Y-113874534D01*
X114919588Y-113923365D01*
X114910016Y-113971490D01*
X114895772Y-114018445D01*
X114876995Y-114063778D01*
X114853864Y-114107051D01*
X114826604Y-114147850D01*
X114795476Y-114185779D01*
X114760779Y-114220476D01*
X114722850Y-114251604D01*
X114682051Y-114278864D01*
X114638778Y-114301995D01*
X114593445Y-114320772D01*
X114546490Y-114335016D01*
X114498365Y-114344588D01*
X114449534Y-114349398D01*
X114425000Y-114349398D01*
X114425000Y-114350000D01*
X113925000Y-114350000D01*
X113925000Y-112850000D01*
X114425000Y-112850000D01*
X114425000Y-112850602D01*
G37*
G36*
X113625000Y-114350000D02*
G01*
X113125000Y-114350000D01*
X113125000Y-114349398D01*
X113100466Y-114349398D01*
X113051635Y-114344588D01*
X113003510Y-114335016D01*
X112956555Y-114320772D01*
X112911222Y-114301995D01*
X112867949Y-114278864D01*
X112827150Y-114251604D01*
X112789221Y-114220476D01*
X112754524Y-114185779D01*
X112723396Y-114147850D01*
X112696136Y-114107051D01*
X112673005Y-114063778D01*
X112654228Y-114018445D01*
X112639984Y-113971490D01*
X112630412Y-113923365D01*
X112625602Y-113874534D01*
X112625602Y-113850000D01*
X112625000Y-113850000D01*
X112625000Y-113350000D01*
X112625602Y-113350000D01*
X112625602Y-113325466D01*
X112630412Y-113276635D01*
X112639984Y-113228510D01*
X112654228Y-113181555D01*
X112673005Y-113136222D01*
X112696136Y-113092949D01*
X112723396Y-113052150D01*
X112754524Y-113014221D01*
X112789221Y-112979524D01*
X112827150Y-112948396D01*
X112867949Y-112921136D01*
X112911222Y-112898005D01*
X112956555Y-112879228D01*
X113003510Y-112864984D01*
X113051635Y-112855412D01*
X113100466Y-112850602D01*
X113125000Y-112850602D01*
X113125000Y-112850000D01*
X113625000Y-112850000D01*
X113625000Y-114350000D01*
G37*
%TD*%
%TO.C,C2*%
G36*
G01*
X118225001Y-116900000D02*
X116924999Y-116900000D01*
G75*
G02*
X116675000Y-116650001I0J249999D01*
G01*
X116675000Y-115999999D01*
G75*
G02*
X116924999Y-115750000I249999J0D01*
G01*
X118225001Y-115750000D01*
G75*
G02*
X118475000Y-115999999I0J-249999D01*
G01*
X118475000Y-116650001D01*
G75*
G02*
X118225001Y-116900000I-249999J0D01*
G01*
G37*
G36*
G01*
X118225001Y-119850000D02*
X116924999Y-119850000D01*
G75*
G02*
X116675000Y-119600001I0J249999D01*
G01*
X116675000Y-118949999D01*
G75*
G02*
X116924999Y-118700000I249999J0D01*
G01*
X118225001Y-118700000D01*
G75*
G02*
X118475000Y-118949999I0J-249999D01*
G01*
X118475000Y-119600001D01*
G75*
G02*
X118225001Y-119850000I-249999J0D01*
G01*
G37*
%TD*%
D16*
%TO.C,BT1*%
X108551000Y-133268000D03*
X163851000Y-133268000D03*
D17*
X160901000Y-127918000D03*
%TD*%
D15*
%TO.C,JP1*%
G36*
X116625602Y-121950000D02*
G01*
X116625602Y-121925466D01*
X116630412Y-121876635D01*
X116639984Y-121828510D01*
X116654228Y-121781555D01*
X116673005Y-121736222D01*
X116696136Y-121692949D01*
X116723396Y-121652150D01*
X116754524Y-121614221D01*
X116789221Y-121579524D01*
X116827150Y-121548396D01*
X116867949Y-121521136D01*
X116911222Y-121498005D01*
X116956555Y-121479228D01*
X117003510Y-121464984D01*
X117051635Y-121455412D01*
X117100466Y-121450602D01*
X117125000Y-121450602D01*
X117125000Y-121450000D01*
X117625000Y-121450000D01*
X117625000Y-121450602D01*
X117649534Y-121450602D01*
X117698365Y-121455412D01*
X117746490Y-121464984D01*
X117793445Y-121479228D01*
X117838778Y-121498005D01*
X117882051Y-121521136D01*
X117922850Y-121548396D01*
X117960779Y-121579524D01*
X117995476Y-121614221D01*
X118026604Y-121652150D01*
X118053864Y-121692949D01*
X118076995Y-121736222D01*
X118095772Y-121781555D01*
X118110016Y-121828510D01*
X118119588Y-121876635D01*
X118124398Y-121925466D01*
X118124398Y-121950000D01*
X118125000Y-121950000D01*
X118125000Y-122450000D01*
X116625000Y-122450000D01*
X116625000Y-121950000D01*
X116625602Y-121950000D01*
G37*
G36*
X118125000Y-122750000D02*
G01*
X118125000Y-123250000D01*
X118124398Y-123250000D01*
X118124398Y-123274534D01*
X118119588Y-123323365D01*
X118110016Y-123371490D01*
X118095772Y-123418445D01*
X118076995Y-123463778D01*
X118053864Y-123507051D01*
X118026604Y-123547850D01*
X117995476Y-123585779D01*
X117960779Y-123620476D01*
X117922850Y-123651604D01*
X117882051Y-123678864D01*
X117838778Y-123701995D01*
X117793445Y-123720772D01*
X117746490Y-123735016D01*
X117698365Y-123744588D01*
X117649534Y-123749398D01*
X117625000Y-123749398D01*
X117625000Y-123750000D01*
X117125000Y-123750000D01*
X117125000Y-123749398D01*
X117100466Y-123749398D01*
X117051635Y-123744588D01*
X117003510Y-123735016D01*
X116956555Y-123720772D01*
X116911222Y-123701995D01*
X116867949Y-123678864D01*
X116827150Y-123651604D01*
X116789221Y-123620476D01*
X116754524Y-123585779D01*
X116723396Y-123547850D01*
X116696136Y-123507051D01*
X116673005Y-123463778D01*
X116654228Y-123418445D01*
X116639984Y-123371490D01*
X116630412Y-123323365D01*
X116625602Y-123274534D01*
X116625602Y-123250000D01*
X116625000Y-123250000D01*
X116625000Y-122750000D01*
X118125000Y-122750000D01*
G37*
%TD*%
D10*
%TO.C,TP6*%
X120275000Y-99100000D03*
%TD*%
%TO.C,TP5*%
X122775000Y-99100000D03*
%TD*%
%TO.C,TP4*%
X125275000Y-99100000D03*
%TD*%
%TO.C,TP3*%
X127775000Y-99100000D03*
%TD*%
%TO.C,TP2*%
X117775000Y-99100000D03*
%TD*%
%TO.C,TP1*%
X115275000Y-99100000D03*
%TD*%
%TO.C,R14*%
G36*
G01*
X144700000Y-104775000D02*
X144700000Y-104225000D01*
G75*
G02*
X144900000Y-104025000I200000J0D01*
G01*
X145300000Y-104025000D01*
G75*
G02*
X145500000Y-104225000I0J-200000D01*
G01*
X145500000Y-104775000D01*
G75*
G02*
X145300000Y-104975000I-200000J0D01*
G01*
X144900000Y-104975000D01*
G75*
G02*
X144700000Y-104775000I0J200000D01*
G01*
G37*
G36*
G01*
X143050000Y-104775000D02*
X143050000Y-104225000D01*
G75*
G02*
X143250000Y-104025000I200000J0D01*
G01*
X143650000Y-104025000D01*
G75*
G02*
X143850000Y-104225000I0J-200000D01*
G01*
X143850000Y-104775000D01*
G75*
G02*
X143650000Y-104975000I-200000J0D01*
G01*
X143250000Y-104975000D01*
G75*
G02*
X143050000Y-104775000I0J200000D01*
G01*
G37*
%TD*%
%TO.C,R13*%
G36*
G01*
X137650000Y-107425000D02*
X137650000Y-107975000D01*
G75*
G02*
X137450000Y-108175000I-200000J0D01*
G01*
X137050000Y-108175000D01*
G75*
G02*
X136850000Y-107975000I0J200000D01*
G01*
X136850000Y-107425000D01*
G75*
G02*
X137050000Y-107225000I200000J0D01*
G01*
X137450000Y-107225000D01*
G75*
G02*
X137650000Y-107425000I0J-200000D01*
G01*
G37*
G36*
G01*
X139300000Y-107425000D02*
X139300000Y-107975000D01*
G75*
G02*
X139100000Y-108175000I-200000J0D01*
G01*
X138700000Y-108175000D01*
G75*
G02*
X138500000Y-107975000I0J200000D01*
G01*
X138500000Y-107425000D01*
G75*
G02*
X138700000Y-107225000I200000J0D01*
G01*
X139100000Y-107225000D01*
G75*
G02*
X139300000Y-107425000I0J-200000D01*
G01*
G37*
%TD*%
%TO.C,R15*%
G36*
G01*
X108700000Y-117575000D02*
X108700000Y-117025000D01*
G75*
G02*
X108900000Y-116825000I200000J0D01*
G01*
X109300000Y-116825000D01*
G75*
G02*
X109500000Y-117025000I0J-200000D01*
G01*
X109500000Y-117575000D01*
G75*
G02*
X109300000Y-117775000I-200000J0D01*
G01*
X108900000Y-117775000D01*
G75*
G02*
X108700000Y-117575000I0J200000D01*
G01*
G37*
G36*
G01*
X107050000Y-117575000D02*
X107050000Y-117025000D01*
G75*
G02*
X107250000Y-116825000I200000J0D01*
G01*
X107650000Y-116825000D01*
G75*
G02*
X107850000Y-117025000I0J-200000D01*
G01*
X107850000Y-117575000D01*
G75*
G02*
X107650000Y-117775000I-200000J0D01*
G01*
X107250000Y-117775000D01*
G75*
G02*
X107050000Y-117575000I0J200000D01*
G01*
G37*
%TD*%
D18*
%TO.C,SW1*%
X97400000Y-121850000D03*
X97400000Y-117350000D03*
X105350000Y-117350000D03*
X105350000Y-121850000D03*
%TD*%
%TO.C,SW3*%
X97400000Y-105450000D03*
X97400000Y-100950000D03*
X105350000Y-100950000D03*
X105350000Y-105450000D03*
%TD*%
%TO.C,SW2*%
X97400000Y-113650000D03*
X97400000Y-109150000D03*
X105350000Y-109150000D03*
X105350000Y-113650000D03*
%TD*%
%TO.C,C17*%
G36*
G01*
X123850000Y-118150000D02*
X123850000Y-117650000D01*
G75*
G02*
X124075000Y-117425000I225000J0D01*
G01*
X124525000Y-117425000D01*
G75*
G02*
X124750000Y-117650000I0J-225000D01*
G01*
X124750000Y-118150000D01*
G75*
G02*
X124525000Y-118375000I-225000J0D01*
G01*
X124075000Y-118375000D01*
G75*
G02*
X123850000Y-118150000I0J225000D01*
G01*
G37*
G36*
G01*
X125400000Y-118150000D02*
X125400000Y-117650000D01*
G75*
G02*
X125625000Y-117425000I225000J0D01*
G01*
X126075000Y-117425000D01*
G75*
G02*
X126300000Y-117650000I0J-225000D01*
G01*
X126300000Y-118150000D01*
G75*
G02*
X126075000Y-118375000I-225000J0D01*
G01*
X125625000Y-118375000D01*
G75*
G02*
X125400000Y-118150000I0J225000D01*
G01*
G37*
%TD*%
%TO.C,C1*%
G36*
G01*
X119925000Y-119825000D02*
X119425000Y-119825000D01*
G75*
G02*
X119200000Y-119600000I0J225000D01*
G01*
X119200000Y-119150000D01*
G75*
G02*
X119425000Y-118925000I225000J0D01*
G01*
X119925000Y-118925000D01*
G75*
G02*
X120150000Y-119150000I0J-225000D01*
G01*
X120150000Y-119600000D01*
G75*
G02*
X119925000Y-119825000I-225000J0D01*
G01*
G37*
G36*
G01*
X119925000Y-118275000D02*
X119425000Y-118275000D01*
G75*
G02*
X119200000Y-118050000I0J225000D01*
G01*
X119200000Y-117600000D01*
G75*
G02*
X119425000Y-117375000I225000J0D01*
G01*
X119925000Y-117375000D01*
G75*
G02*
X120150000Y-117600000I0J-225000D01*
G01*
X120150000Y-118050000D01*
G75*
G02*
X119925000Y-118275000I-225000J0D01*
G01*
G37*
%TD*%
%TO.C,C4*%
G36*
G01*
X162750000Y-119350000D02*
X162750000Y-119850000D01*
G75*
G02*
X162525000Y-120075000I-225000J0D01*
G01*
X162075000Y-120075000D01*
G75*
G02*
X161850000Y-119850000I0J225000D01*
G01*
X161850000Y-119350000D01*
G75*
G02*
X162075000Y-119125000I225000J0D01*
G01*
X162525000Y-119125000D01*
G75*
G02*
X162750000Y-119350000I0J-225000D01*
G01*
G37*
G36*
G01*
X164300000Y-119350000D02*
X164300000Y-119850000D01*
G75*
G02*
X164075000Y-120075000I-225000J0D01*
G01*
X163625000Y-120075000D01*
G75*
G02*
X163400000Y-119850000I0J225000D01*
G01*
X163400000Y-119350000D01*
G75*
G02*
X163625000Y-119125000I225000J0D01*
G01*
X164075000Y-119125000D01*
G75*
G02*
X164300000Y-119350000I0J-225000D01*
G01*
G37*
%TD*%
%TO.C,C5*%
G36*
G01*
X162750000Y-120950000D02*
X162750000Y-121450000D01*
G75*
G02*
X162525000Y-121675000I-225000J0D01*
G01*
X162075000Y-121675000D01*
G75*
G02*
X161850000Y-121450000I0J225000D01*
G01*
X161850000Y-120950000D01*
G75*
G02*
X162075000Y-120725000I225000J0D01*
G01*
X162525000Y-120725000D01*
G75*
G02*
X162750000Y-120950000I0J-225000D01*
G01*
G37*
G36*
G01*
X164300000Y-120950000D02*
X164300000Y-121450000D01*
G75*
G02*
X164075000Y-121675000I-225000J0D01*
G01*
X163625000Y-121675000D01*
G75*
G02*
X163400000Y-121450000I0J225000D01*
G01*
X163400000Y-120950000D01*
G75*
G02*
X163625000Y-120725000I225000J0D01*
G01*
X164075000Y-120725000D01*
G75*
G02*
X164300000Y-120950000I0J-225000D01*
G01*
G37*
%TD*%
%TO.C,C12*%
G36*
G01*
X160300000Y-110850000D02*
X160300000Y-110350000D01*
G75*
G02*
X160525000Y-110125000I225000J0D01*
G01*
X160975000Y-110125000D01*
G75*
G02*
X161200000Y-110350000I0J-225000D01*
G01*
X161200000Y-110850000D01*
G75*
G02*
X160975000Y-111075000I-225000J0D01*
G01*
X160525000Y-111075000D01*
G75*
G02*
X160300000Y-110850000I0J225000D01*
G01*
G37*
G36*
G01*
X158750000Y-110850000D02*
X158750000Y-110350000D01*
G75*
G02*
X158975000Y-110125000I225000J0D01*
G01*
X159425000Y-110125000D01*
G75*
G02*
X159650000Y-110350000I0J-225000D01*
G01*
X159650000Y-110850000D01*
G75*
G02*
X159425000Y-111075000I-225000J0D01*
G01*
X158975000Y-111075000D01*
G75*
G02*
X158750000Y-110850000I0J225000D01*
G01*
G37*
%TD*%
%TO.C,C3*%
G36*
G01*
X161200000Y-115550000D02*
X161200000Y-116050000D01*
G75*
G02*
X160975000Y-116275000I-225000J0D01*
G01*
X160525000Y-116275000D01*
G75*
G02*
X160300000Y-116050000I0J225000D01*
G01*
X160300000Y-115550000D01*
G75*
G02*
X160525000Y-115325000I225000J0D01*
G01*
X160975000Y-115325000D01*
G75*
G02*
X161200000Y-115550000I0J-225000D01*
G01*
G37*
G36*
G01*
X159650000Y-115550000D02*
X159650000Y-116050000D01*
G75*
G02*
X159425000Y-116275000I-225000J0D01*
G01*
X158975000Y-116275000D01*
G75*
G02*
X158750000Y-116050000I0J225000D01*
G01*
X158750000Y-115550000D01*
G75*
G02*
X158975000Y-115325000I225000J0D01*
G01*
X159425000Y-115325000D01*
G75*
G02*
X159650000Y-115550000I0J-225000D01*
G01*
G37*
%TD*%
%TO.C,C9*%
G36*
G01*
X160300000Y-114450000D02*
X160300000Y-113950000D01*
G75*
G02*
X160525000Y-113725000I225000J0D01*
G01*
X160975000Y-113725000D01*
G75*
G02*
X161200000Y-113950000I0J-225000D01*
G01*
X161200000Y-114450000D01*
G75*
G02*
X160975000Y-114675000I-225000J0D01*
G01*
X160525000Y-114675000D01*
G75*
G02*
X160300000Y-114450000I0J225000D01*
G01*
G37*
G36*
G01*
X158750000Y-114450000D02*
X158750000Y-113950000D01*
G75*
G02*
X158975000Y-113725000I225000J0D01*
G01*
X159425000Y-113725000D01*
G75*
G02*
X159650000Y-113950000I0J-225000D01*
G01*
X159650000Y-114450000D01*
G75*
G02*
X159425000Y-114675000I-225000J0D01*
G01*
X158975000Y-114675000D01*
G75*
G02*
X158750000Y-114450000I0J225000D01*
G01*
G37*
%TD*%
%TO.C,C6*%
G36*
G01*
X161200000Y-119350000D02*
X161200000Y-119850000D01*
G75*
G02*
X160975000Y-120075000I-225000J0D01*
G01*
X160525000Y-120075000D01*
G75*
G02*
X160300000Y-119850000I0J225000D01*
G01*
X160300000Y-119350000D01*
G75*
G02*
X160525000Y-119125000I225000J0D01*
G01*
X160975000Y-119125000D01*
G75*
G02*
X161200000Y-119350000I0J-225000D01*
G01*
G37*
G36*
G01*
X159650000Y-119350000D02*
X159650000Y-119850000D01*
G75*
G02*
X159425000Y-120075000I-225000J0D01*
G01*
X158975000Y-120075000D01*
G75*
G02*
X158750000Y-119850000I0J225000D01*
G01*
X158750000Y-119350000D01*
G75*
G02*
X158975000Y-119125000I225000J0D01*
G01*
X159425000Y-119125000D01*
G75*
G02*
X159650000Y-119350000I0J-225000D01*
G01*
G37*
%TD*%
%TO.C,C7*%
G36*
G01*
X161200000Y-117150000D02*
X161200000Y-117650000D01*
G75*
G02*
X160975000Y-117875000I-225000J0D01*
G01*
X160525000Y-117875000D01*
G75*
G02*
X160300000Y-117650000I0J225000D01*
G01*
X160300000Y-117150000D01*
G75*
G02*
X160525000Y-116925000I225000J0D01*
G01*
X160975000Y-116925000D01*
G75*
G02*
X161200000Y-117150000I0J-225000D01*
G01*
G37*
G36*
G01*
X159650000Y-117150000D02*
X159650000Y-117650000D01*
G75*
G02*
X159425000Y-117875000I-225000J0D01*
G01*
X158975000Y-117875000D01*
G75*
G02*
X158750000Y-117650000I0J225000D01*
G01*
X158750000Y-117150000D01*
G75*
G02*
X158975000Y-116925000I225000J0D01*
G01*
X159425000Y-116925000D01*
G75*
G02*
X159650000Y-117150000I0J-225000D01*
G01*
G37*
%TD*%
%TO.C,C8*%
G36*
G01*
X164300000Y-117150000D02*
X164300000Y-117650000D01*
G75*
G02*
X164075000Y-117875000I-225000J0D01*
G01*
X163625000Y-117875000D01*
G75*
G02*
X163400000Y-117650000I0J225000D01*
G01*
X163400000Y-117150000D01*
G75*
G02*
X163625000Y-116925000I225000J0D01*
G01*
X164075000Y-116925000D01*
G75*
G02*
X164300000Y-117150000I0J-225000D01*
G01*
G37*
G36*
G01*
X162750000Y-117150000D02*
X162750000Y-117650000D01*
G75*
G02*
X162525000Y-117875000I-225000J0D01*
G01*
X162075000Y-117875000D01*
G75*
G02*
X161850000Y-117650000I0J225000D01*
G01*
X161850000Y-117150000D01*
G75*
G02*
X162075000Y-116925000I225000J0D01*
G01*
X162525000Y-116925000D01*
G75*
G02*
X162750000Y-117150000I0J-225000D01*
G01*
G37*
%TD*%
%TO.C,C11*%
G36*
G01*
X162750000Y-115550000D02*
X162750000Y-116050000D01*
G75*
G02*
X162525000Y-116275000I-225000J0D01*
G01*
X162075000Y-116275000D01*
G75*
G02*
X161850000Y-116050000I0J225000D01*
G01*
X161850000Y-115550000D01*
G75*
G02*
X162075000Y-115325000I225000J0D01*
G01*
X162525000Y-115325000D01*
G75*
G02*
X162750000Y-115550000I0J-225000D01*
G01*
G37*
G36*
G01*
X164300000Y-115550000D02*
X164300000Y-116050000D01*
G75*
G02*
X164075000Y-116275000I-225000J0D01*
G01*
X163625000Y-116275000D01*
G75*
G02*
X163400000Y-116050000I0J225000D01*
G01*
X163400000Y-115550000D01*
G75*
G02*
X163625000Y-115325000I225000J0D01*
G01*
X164075000Y-115325000D01*
G75*
G02*
X164300000Y-115550000I0J-225000D01*
G01*
G37*
%TD*%
%TO.C,C13*%
G36*
G01*
X162750000Y-113950000D02*
X162750000Y-114450000D01*
G75*
G02*
X162525000Y-114675000I-225000J0D01*
G01*
X162075000Y-114675000D01*
G75*
G02*
X161850000Y-114450000I0J225000D01*
G01*
X161850000Y-113950000D01*
G75*
G02*
X162075000Y-113725000I225000J0D01*
G01*
X162525000Y-113725000D01*
G75*
G02*
X162750000Y-113950000I0J-225000D01*
G01*
G37*
G36*
G01*
X164300000Y-113950000D02*
X164300000Y-114450000D01*
G75*
G02*
X164075000Y-114675000I-225000J0D01*
G01*
X163625000Y-114675000D01*
G75*
G02*
X163400000Y-114450000I0J225000D01*
G01*
X163400000Y-113950000D01*
G75*
G02*
X163625000Y-113725000I225000J0D01*
G01*
X164075000Y-113725000D01*
G75*
G02*
X164300000Y-113950000I0J-225000D01*
G01*
G37*
%TD*%
%TO.C,C14*%
G36*
G01*
X164300000Y-112150000D02*
X164300000Y-112650000D01*
G75*
G02*
X164075000Y-112875000I-225000J0D01*
G01*
X163625000Y-112875000D01*
G75*
G02*
X163400000Y-112650000I0J225000D01*
G01*
X163400000Y-112150000D01*
G75*
G02*
X163625000Y-111925000I225000J0D01*
G01*
X164075000Y-111925000D01*
G75*
G02*
X164300000Y-112150000I0J-225000D01*
G01*
G37*
G36*
G01*
X162750000Y-112150000D02*
X162750000Y-112650000D01*
G75*
G02*
X162525000Y-112875000I-225000J0D01*
G01*
X162075000Y-112875000D01*
G75*
G02*
X161850000Y-112650000I0J225000D01*
G01*
X161850000Y-112150000D01*
G75*
G02*
X162075000Y-111925000I225000J0D01*
G01*
X162525000Y-111925000D01*
G75*
G02*
X162750000Y-112150000I0J-225000D01*
G01*
G37*
%TD*%
%TO.C,C15*%
G36*
G01*
X164300000Y-110350000D02*
X164300000Y-110850000D01*
G75*
G02*
X164075000Y-111075000I-225000J0D01*
G01*
X163625000Y-111075000D01*
G75*
G02*
X163400000Y-110850000I0J225000D01*
G01*
X163400000Y-110350000D01*
G75*
G02*
X163625000Y-110125000I225000J0D01*
G01*
X164075000Y-110125000D01*
G75*
G02*
X164300000Y-110350000I0J-225000D01*
G01*
G37*
G36*
G01*
X162750000Y-110350000D02*
X162750000Y-110850000D01*
G75*
G02*
X162525000Y-111075000I-225000J0D01*
G01*
X162075000Y-111075000D01*
G75*
G02*
X161850000Y-110850000I0J225000D01*
G01*
X161850000Y-110350000D01*
G75*
G02*
X162075000Y-110125000I225000J0D01*
G01*
X162525000Y-110125000D01*
G75*
G02*
X162750000Y-110350000I0J-225000D01*
G01*
G37*
%TD*%
%TO.C,C16*%
G36*
G01*
X130001000Y-117425000D02*
X130501000Y-117425000D01*
G75*
G02*
X130726000Y-117650000I0J-225000D01*
G01*
X130726000Y-118100000D01*
G75*
G02*
X130501000Y-118325000I-225000J0D01*
G01*
X130001000Y-118325000D01*
G75*
G02*
X129776000Y-118100000I0J225000D01*
G01*
X129776000Y-117650000D01*
G75*
G02*
X130001000Y-117425000I225000J0D01*
G01*
G37*
G36*
G01*
X130001000Y-118975000D02*
X130501000Y-118975000D01*
G75*
G02*
X130726000Y-119200000I0J-225000D01*
G01*
X130726000Y-119650000D01*
G75*
G02*
X130501000Y-119875000I-225000J0D01*
G01*
X130001000Y-119875000D01*
G75*
G02*
X129776000Y-119650000I0J225000D01*
G01*
X129776000Y-119200000D01*
G75*
G02*
X130001000Y-118975000I225000J0D01*
G01*
G37*
%TD*%
%TO.C,C18*%
G36*
G01*
X143750000Y-115050000D02*
X143750000Y-115550000D01*
G75*
G02*
X143525000Y-115775000I-225000J0D01*
G01*
X143075000Y-115775000D01*
G75*
G02*
X142850000Y-115550000I0J225000D01*
G01*
X142850000Y-115050000D01*
G75*
G02*
X143075000Y-114825000I225000J0D01*
G01*
X143525000Y-114825000D01*
G75*
G02*
X143750000Y-115050000I0J-225000D01*
G01*
G37*
G36*
G01*
X145300000Y-115050000D02*
X145300000Y-115550000D01*
G75*
G02*
X145075000Y-115775000I-225000J0D01*
G01*
X144625000Y-115775000D01*
G75*
G02*
X144400000Y-115550000I0J225000D01*
G01*
X144400000Y-115050000D01*
G75*
G02*
X144625000Y-114825000I225000J0D01*
G01*
X145075000Y-114825000D01*
G75*
G02*
X145300000Y-115050000I0J-225000D01*
G01*
G37*
%TD*%
%TO.C,C19*%
G36*
G01*
X141062000Y-118144000D02*
X141062000Y-117644000D01*
G75*
G02*
X141287000Y-117419000I225000J0D01*
G01*
X141737000Y-117419000D01*
G75*
G02*
X141962000Y-117644000I0J-225000D01*
G01*
X141962000Y-118144000D01*
G75*
G02*
X141737000Y-118369000I-225000J0D01*
G01*
X141287000Y-118369000D01*
G75*
G02*
X141062000Y-118144000I0J225000D01*
G01*
G37*
G36*
G01*
X142612000Y-118144000D02*
X142612000Y-117644000D01*
G75*
G02*
X142837000Y-117419000I225000J0D01*
G01*
X143287000Y-117419000D01*
G75*
G02*
X143512000Y-117644000I0J-225000D01*
G01*
X143512000Y-118144000D01*
G75*
G02*
X143287000Y-118369000I-225000J0D01*
G01*
X142837000Y-118369000D01*
G75*
G02*
X142612000Y-118144000I0J225000D01*
G01*
G37*
%TD*%
%TO.C,C20*%
G36*
G01*
X141062000Y-123224000D02*
X141062000Y-122724000D01*
G75*
G02*
X141287000Y-122499000I225000J0D01*
G01*
X141737000Y-122499000D01*
G75*
G02*
X141962000Y-122724000I0J-225000D01*
G01*
X141962000Y-123224000D01*
G75*
G02*
X141737000Y-123449000I-225000J0D01*
G01*
X141287000Y-123449000D01*
G75*
G02*
X141062000Y-123224000I0J225000D01*
G01*
G37*
G36*
G01*
X142612000Y-123224000D02*
X142612000Y-122724000D01*
G75*
G02*
X142837000Y-122499000I225000J0D01*
G01*
X143287000Y-122499000D01*
G75*
G02*
X143512000Y-122724000I0J-225000D01*
G01*
X143512000Y-123224000D01*
G75*
G02*
X143287000Y-123449000I-225000J0D01*
G01*
X142837000Y-123449000D01*
G75*
G02*
X142612000Y-123224000I0J225000D01*
G01*
G37*
%TD*%
%TO.C,C21*%
G36*
G01*
X134925000Y-117450000D02*
X134925000Y-117950000D01*
G75*
G02*
X134700000Y-118175000I-225000J0D01*
G01*
X134250000Y-118175000D01*
G75*
G02*
X134025000Y-117950000I0J225000D01*
G01*
X134025000Y-117450000D01*
G75*
G02*
X134250000Y-117225000I225000J0D01*
G01*
X134700000Y-117225000D01*
G75*
G02*
X134925000Y-117450000I0J-225000D01*
G01*
G37*
G36*
G01*
X136475000Y-117450000D02*
X136475000Y-117950000D01*
G75*
G02*
X136250000Y-118175000I-225000J0D01*
G01*
X135800000Y-118175000D01*
G75*
G02*
X135575000Y-117950000I0J225000D01*
G01*
X135575000Y-117450000D01*
G75*
G02*
X135800000Y-117225000I225000J0D01*
G01*
X136250000Y-117225000D01*
G75*
G02*
X136475000Y-117450000I0J-225000D01*
G01*
G37*
%TD*%
D19*
%TO.C,D1*%
X154125000Y-117200000D03*
X157425000Y-117200000D03*
%TD*%
%TO.C,D2*%
X157425000Y-112400000D03*
X154125000Y-112400000D03*
%TD*%
%TO.C,D3*%
X154125000Y-114800000D03*
X157425000Y-114800000D03*
%TD*%
D12*
%TO.C,L1*%
X113475000Y-123685000D03*
X113475000Y-121315000D03*
%TD*%
D20*
%TO.C,Q1*%
X121625000Y-123600000D03*
X119725000Y-123600000D03*
X120675000Y-121600000D03*
%TD*%
D21*
%TO.C,Q2*%
X155375000Y-109950000D03*
X155375000Y-108050000D03*
X157375000Y-109000000D03*
%TD*%
%TO.C,R1*%
G36*
G01*
X121000000Y-119025000D02*
X121550000Y-119025000D01*
G75*
G02*
X121750000Y-119225000I0J-200000D01*
G01*
X121750000Y-119625000D01*
G75*
G02*
X121550000Y-119825000I-200000J0D01*
G01*
X121000000Y-119825000D01*
G75*
G02*
X120800000Y-119625000I0J200000D01*
G01*
X120800000Y-119225000D01*
G75*
G02*
X121000000Y-119025000I200000J0D01*
G01*
G37*
G36*
G01*
X121000000Y-117375000D02*
X121550000Y-117375000D01*
G75*
G02*
X121750000Y-117575000I0J-200000D01*
G01*
X121750000Y-117975000D01*
G75*
G02*
X121550000Y-118175000I-200000J0D01*
G01*
X121000000Y-118175000D01*
G75*
G02*
X120800000Y-117975000I0J200000D01*
G01*
X120800000Y-117575000D01*
G75*
G02*
X121000000Y-117375000I200000J0D01*
G01*
G37*
%TD*%
%TO.C,R5*%
G36*
G01*
X170000000Y-107075000D02*
X170000000Y-106525000D01*
G75*
G02*
X170200000Y-106325000I200000J0D01*
G01*
X170600000Y-106325000D01*
G75*
G02*
X170800000Y-106525000I0J-200000D01*
G01*
X170800000Y-107075000D01*
G75*
G02*
X170600000Y-107275000I-200000J0D01*
G01*
X170200000Y-107275000D01*
G75*
G02*
X170000000Y-107075000I0J200000D01*
G01*
G37*
G36*
G01*
X168350000Y-107075000D02*
X168350000Y-106525000D01*
G75*
G02*
X168550000Y-106325000I200000J0D01*
G01*
X168950000Y-106325000D01*
G75*
G02*
X169150000Y-106525000I0J-200000D01*
G01*
X169150000Y-107075000D01*
G75*
G02*
X168950000Y-107275000I-200000J0D01*
G01*
X168550000Y-107275000D01*
G75*
G02*
X168350000Y-107075000I0J200000D01*
G01*
G37*
%TD*%
%TO.C,R6*%
G36*
G01*
X170000000Y-105475000D02*
X170000000Y-104925000D01*
G75*
G02*
X170200000Y-104725000I200000J0D01*
G01*
X170600000Y-104725000D01*
G75*
G02*
X170800000Y-104925000I0J-200000D01*
G01*
X170800000Y-105475000D01*
G75*
G02*
X170600000Y-105675000I-200000J0D01*
G01*
X170200000Y-105675000D01*
G75*
G02*
X170000000Y-105475000I0J200000D01*
G01*
G37*
G36*
G01*
X168350000Y-105475000D02*
X168350000Y-104925000D01*
G75*
G02*
X168550000Y-104725000I200000J0D01*
G01*
X168950000Y-104725000D01*
G75*
G02*
X169150000Y-104925000I0J-200000D01*
G01*
X169150000Y-105475000D01*
G75*
G02*
X168950000Y-105675000I-200000J0D01*
G01*
X168550000Y-105675000D01*
G75*
G02*
X168350000Y-105475000I0J200000D01*
G01*
G37*
%TD*%
%TO.C,R10*%
G36*
G01*
X129002000Y-119875000D02*
X128452000Y-119875000D01*
G75*
G02*
X128252000Y-119675000I0J200000D01*
G01*
X128252000Y-119275000D01*
G75*
G02*
X128452000Y-119075000I200000J0D01*
G01*
X129002000Y-119075000D01*
G75*
G02*
X129202000Y-119275000I0J-200000D01*
G01*
X129202000Y-119675000D01*
G75*
G02*
X129002000Y-119875000I-200000J0D01*
G01*
G37*
G36*
G01*
X129002000Y-118225000D02*
X128452000Y-118225000D01*
G75*
G02*
X128252000Y-118025000I0J200000D01*
G01*
X128252000Y-117625000D01*
G75*
G02*
X128452000Y-117425000I200000J0D01*
G01*
X129002000Y-117425000D01*
G75*
G02*
X129202000Y-117625000I0J-200000D01*
G01*
X129202000Y-118025000D01*
G75*
G02*
X129002000Y-118225000I-200000J0D01*
G01*
G37*
%TD*%
%TO.C,R16*%
G36*
G01*
X107050000Y-109375000D02*
X107050000Y-108825000D01*
G75*
G02*
X107250000Y-108625000I200000J0D01*
G01*
X107650000Y-108625000D01*
G75*
G02*
X107850000Y-108825000I0J-200000D01*
G01*
X107850000Y-109375000D01*
G75*
G02*
X107650000Y-109575000I-200000J0D01*
G01*
X107250000Y-109575000D01*
G75*
G02*
X107050000Y-109375000I0J200000D01*
G01*
G37*
G36*
G01*
X108700000Y-109375000D02*
X108700000Y-108825000D01*
G75*
G02*
X108900000Y-108625000I200000J0D01*
G01*
X109300000Y-108625000D01*
G75*
G02*
X109500000Y-108825000I0J-200000D01*
G01*
X109500000Y-109375000D01*
G75*
G02*
X109300000Y-109575000I-200000J0D01*
G01*
X108900000Y-109575000D01*
G75*
G02*
X108700000Y-109375000I0J200000D01*
G01*
G37*
%TD*%
%TO.C,R17*%
G36*
G01*
X108700000Y-101175000D02*
X108700000Y-100625000D01*
G75*
G02*
X108900000Y-100425000I200000J0D01*
G01*
X109300000Y-100425000D01*
G75*
G02*
X109500000Y-100625000I0J-200000D01*
G01*
X109500000Y-101175000D01*
G75*
G02*
X109300000Y-101375000I-200000J0D01*
G01*
X108900000Y-101375000D01*
G75*
G02*
X108700000Y-101175000I0J200000D01*
G01*
G37*
G36*
G01*
X107050000Y-101175000D02*
X107050000Y-100625000D01*
G75*
G02*
X107250000Y-100425000I200000J0D01*
G01*
X107650000Y-100425000D01*
G75*
G02*
X107850000Y-100625000I0J-200000D01*
G01*
X107850000Y-101175000D01*
G75*
G02*
X107650000Y-101375000I-200000J0D01*
G01*
X107250000Y-101375000D01*
G75*
G02*
X107050000Y-101175000I0J200000D01*
G01*
G37*
%TD*%
D22*
%TO.C,U1*%
X115175000Y-119250000D03*
X112175000Y-119250000D03*
D15*
G36*
X114541500Y-115300000D02*
G01*
X114541500Y-118425000D01*
X114125000Y-118425000D01*
X114125000Y-119900000D01*
X113225000Y-119900000D01*
X113225000Y-118425000D01*
X112808500Y-118425000D01*
X112808500Y-115300000D01*
X114541500Y-115300000D01*
G37*
%TD*%
%TO.C,U2*%
G36*
G01*
X129328000Y-116117000D02*
X129328000Y-115917000D01*
G75*
G02*
X129428000Y-115817000I100000J0D01*
G01*
X130703000Y-115817000D01*
G75*
G02*
X130803000Y-115917000I0J-100000D01*
G01*
X130803000Y-116117000D01*
G75*
G02*
X130703000Y-116217000I-100000J0D01*
G01*
X129428000Y-116217000D01*
G75*
G02*
X129328000Y-116117000I0J100000D01*
G01*
G37*
G36*
G01*
X129328000Y-115467000D02*
X129328000Y-115267000D01*
G75*
G02*
X129428000Y-115167000I100000J0D01*
G01*
X130703000Y-115167000D01*
G75*
G02*
X130803000Y-115267000I0J-100000D01*
G01*
X130803000Y-115467000D01*
G75*
G02*
X130703000Y-115567000I-100000J0D01*
G01*
X129428000Y-115567000D01*
G75*
G02*
X129328000Y-115467000I0J100000D01*
G01*
G37*
G36*
G01*
X129328000Y-114817000D02*
X129328000Y-114617000D01*
G75*
G02*
X129428000Y-114517000I100000J0D01*
G01*
X130703000Y-114517000D01*
G75*
G02*
X130803000Y-114617000I0J-100000D01*
G01*
X130803000Y-114817000D01*
G75*
G02*
X130703000Y-114917000I-100000J0D01*
G01*
X129428000Y-114917000D01*
G75*
G02*
X129328000Y-114817000I0J100000D01*
G01*
G37*
G36*
G01*
X129328000Y-114167000D02*
X129328000Y-113967000D01*
G75*
G02*
X129428000Y-113867000I100000J0D01*
G01*
X130703000Y-113867000D01*
G75*
G02*
X130803000Y-113967000I0J-100000D01*
G01*
X130803000Y-114167000D01*
G75*
G02*
X130703000Y-114267000I-100000J0D01*
G01*
X129428000Y-114267000D01*
G75*
G02*
X129328000Y-114167000I0J100000D01*
G01*
G37*
G36*
G01*
X129328000Y-113517000D02*
X129328000Y-113317000D01*
G75*
G02*
X129428000Y-113217000I100000J0D01*
G01*
X130703000Y-113217000D01*
G75*
G02*
X130803000Y-113317000I0J-100000D01*
G01*
X130803000Y-113517000D01*
G75*
G02*
X130703000Y-113617000I-100000J0D01*
G01*
X129428000Y-113617000D01*
G75*
G02*
X129328000Y-113517000I0J100000D01*
G01*
G37*
G36*
G01*
X129328000Y-112867000D02*
X129328000Y-112667000D01*
G75*
G02*
X129428000Y-112567000I100000J0D01*
G01*
X130703000Y-112567000D01*
G75*
G02*
X130803000Y-112667000I0J-100000D01*
G01*
X130803000Y-112867000D01*
G75*
G02*
X130703000Y-112967000I-100000J0D01*
G01*
X129428000Y-112967000D01*
G75*
G02*
X129328000Y-112867000I0J100000D01*
G01*
G37*
G36*
G01*
X129328000Y-112217000D02*
X129328000Y-112017000D01*
G75*
G02*
X129428000Y-111917000I100000J0D01*
G01*
X130703000Y-111917000D01*
G75*
G02*
X130803000Y-112017000I0J-100000D01*
G01*
X130803000Y-112217000D01*
G75*
G02*
X130703000Y-112317000I-100000J0D01*
G01*
X129428000Y-112317000D01*
G75*
G02*
X129328000Y-112217000I0J100000D01*
G01*
G37*
G36*
G01*
X129328000Y-111567000D02*
X129328000Y-111367000D01*
G75*
G02*
X129428000Y-111267000I100000J0D01*
G01*
X130703000Y-111267000D01*
G75*
G02*
X130803000Y-111367000I0J-100000D01*
G01*
X130803000Y-111567000D01*
G75*
G02*
X130703000Y-111667000I-100000J0D01*
G01*
X129428000Y-111667000D01*
G75*
G02*
X129328000Y-111567000I0J100000D01*
G01*
G37*
G36*
G01*
X129328000Y-110917000D02*
X129328000Y-110717000D01*
G75*
G02*
X129428000Y-110617000I100000J0D01*
G01*
X130703000Y-110617000D01*
G75*
G02*
X130803000Y-110717000I0J-100000D01*
G01*
X130803000Y-110917000D01*
G75*
G02*
X130703000Y-111017000I-100000J0D01*
G01*
X129428000Y-111017000D01*
G75*
G02*
X129328000Y-110917000I0J100000D01*
G01*
G37*
G36*
G01*
X129328000Y-110267000D02*
X129328000Y-110067000D01*
G75*
G02*
X129428000Y-109967000I100000J0D01*
G01*
X130703000Y-109967000D01*
G75*
G02*
X130803000Y-110067000I0J-100000D01*
G01*
X130803000Y-110267000D01*
G75*
G02*
X130703000Y-110367000I-100000J0D01*
G01*
X129428000Y-110367000D01*
G75*
G02*
X129328000Y-110267000I0J100000D01*
G01*
G37*
G36*
G01*
X129328000Y-109617000D02*
X129328000Y-109417000D01*
G75*
G02*
X129428000Y-109317000I100000J0D01*
G01*
X130703000Y-109317000D01*
G75*
G02*
X130803000Y-109417000I0J-100000D01*
G01*
X130803000Y-109617000D01*
G75*
G02*
X130703000Y-109717000I-100000J0D01*
G01*
X129428000Y-109717000D01*
G75*
G02*
X129328000Y-109617000I0J100000D01*
G01*
G37*
G36*
G01*
X129328000Y-108967000D02*
X129328000Y-108767000D01*
G75*
G02*
X129428000Y-108667000I100000J0D01*
G01*
X130703000Y-108667000D01*
G75*
G02*
X130803000Y-108767000I0J-100000D01*
G01*
X130803000Y-108967000D01*
G75*
G02*
X130703000Y-109067000I-100000J0D01*
G01*
X129428000Y-109067000D01*
G75*
G02*
X129328000Y-108967000I0J100000D01*
G01*
G37*
G36*
G01*
X129328000Y-108317000D02*
X129328000Y-108117000D01*
G75*
G02*
X129428000Y-108017000I100000J0D01*
G01*
X130703000Y-108017000D01*
G75*
G02*
X130803000Y-108117000I0J-100000D01*
G01*
X130803000Y-108317000D01*
G75*
G02*
X130703000Y-108417000I-100000J0D01*
G01*
X129428000Y-108417000D01*
G75*
G02*
X129328000Y-108317000I0J100000D01*
G01*
G37*
G36*
G01*
X129328000Y-107667000D02*
X129328000Y-107467000D01*
G75*
G02*
X129428000Y-107367000I100000J0D01*
G01*
X130703000Y-107367000D01*
G75*
G02*
X130803000Y-107467000I0J-100000D01*
G01*
X130803000Y-107667000D01*
G75*
G02*
X130703000Y-107767000I-100000J0D01*
G01*
X129428000Y-107767000D01*
G75*
G02*
X129328000Y-107667000I0J100000D01*
G01*
G37*
G36*
G01*
X123603000Y-107667000D02*
X123603000Y-107467000D01*
G75*
G02*
X123703000Y-107367000I100000J0D01*
G01*
X124978000Y-107367000D01*
G75*
G02*
X125078000Y-107467000I0J-100000D01*
G01*
X125078000Y-107667000D01*
G75*
G02*
X124978000Y-107767000I-100000J0D01*
G01*
X123703000Y-107767000D01*
G75*
G02*
X123603000Y-107667000I0J100000D01*
G01*
G37*
G36*
G01*
X123603000Y-108317000D02*
X123603000Y-108117000D01*
G75*
G02*
X123703000Y-108017000I100000J0D01*
G01*
X124978000Y-108017000D01*
G75*
G02*
X125078000Y-108117000I0J-100000D01*
G01*
X125078000Y-108317000D01*
G75*
G02*
X124978000Y-108417000I-100000J0D01*
G01*
X123703000Y-108417000D01*
G75*
G02*
X123603000Y-108317000I0J100000D01*
G01*
G37*
G36*
G01*
X123603000Y-108967000D02*
X123603000Y-108767000D01*
G75*
G02*
X123703000Y-108667000I100000J0D01*
G01*
X124978000Y-108667000D01*
G75*
G02*
X125078000Y-108767000I0J-100000D01*
G01*
X125078000Y-108967000D01*
G75*
G02*
X124978000Y-109067000I-100000J0D01*
G01*
X123703000Y-109067000D01*
G75*
G02*
X123603000Y-108967000I0J100000D01*
G01*
G37*
G36*
G01*
X123603000Y-109617000D02*
X123603000Y-109417000D01*
G75*
G02*
X123703000Y-109317000I100000J0D01*
G01*
X124978000Y-109317000D01*
G75*
G02*
X125078000Y-109417000I0J-100000D01*
G01*
X125078000Y-109617000D01*
G75*
G02*
X124978000Y-109717000I-100000J0D01*
G01*
X123703000Y-109717000D01*
G75*
G02*
X123603000Y-109617000I0J100000D01*
G01*
G37*
G36*
G01*
X123603000Y-110267000D02*
X123603000Y-110067000D01*
G75*
G02*
X123703000Y-109967000I100000J0D01*
G01*
X124978000Y-109967000D01*
G75*
G02*
X125078000Y-110067000I0J-100000D01*
G01*
X125078000Y-110267000D01*
G75*
G02*
X124978000Y-110367000I-100000J0D01*
G01*
X123703000Y-110367000D01*
G75*
G02*
X123603000Y-110267000I0J100000D01*
G01*
G37*
G36*
G01*
X123603000Y-110917000D02*
X123603000Y-110717000D01*
G75*
G02*
X123703000Y-110617000I100000J0D01*
G01*
X124978000Y-110617000D01*
G75*
G02*
X125078000Y-110717000I0J-100000D01*
G01*
X125078000Y-110917000D01*
G75*
G02*
X124978000Y-111017000I-100000J0D01*
G01*
X123703000Y-111017000D01*
G75*
G02*
X123603000Y-110917000I0J100000D01*
G01*
G37*
G36*
G01*
X123603000Y-111567000D02*
X123603000Y-111367000D01*
G75*
G02*
X123703000Y-111267000I100000J0D01*
G01*
X124978000Y-111267000D01*
G75*
G02*
X125078000Y-111367000I0J-100000D01*
G01*
X125078000Y-111567000D01*
G75*
G02*
X124978000Y-111667000I-100000J0D01*
G01*
X123703000Y-111667000D01*
G75*
G02*
X123603000Y-111567000I0J100000D01*
G01*
G37*
G36*
G01*
X123603000Y-112217000D02*
X123603000Y-112017000D01*
G75*
G02*
X123703000Y-111917000I100000J0D01*
G01*
X124978000Y-111917000D01*
G75*
G02*
X125078000Y-112017000I0J-100000D01*
G01*
X125078000Y-112217000D01*
G75*
G02*
X124978000Y-112317000I-100000J0D01*
G01*
X123703000Y-112317000D01*
G75*
G02*
X123603000Y-112217000I0J100000D01*
G01*
G37*
G36*
G01*
X123603000Y-112867000D02*
X123603000Y-112667000D01*
G75*
G02*
X123703000Y-112567000I100000J0D01*
G01*
X124978000Y-112567000D01*
G75*
G02*
X125078000Y-112667000I0J-100000D01*
G01*
X125078000Y-112867000D01*
G75*
G02*
X124978000Y-112967000I-100000J0D01*
G01*
X123703000Y-112967000D01*
G75*
G02*
X123603000Y-112867000I0J100000D01*
G01*
G37*
G36*
G01*
X123603000Y-113517000D02*
X123603000Y-113317000D01*
G75*
G02*
X123703000Y-113217000I100000J0D01*
G01*
X124978000Y-113217000D01*
G75*
G02*
X125078000Y-113317000I0J-100000D01*
G01*
X125078000Y-113517000D01*
G75*
G02*
X124978000Y-113617000I-100000J0D01*
G01*
X123703000Y-113617000D01*
G75*
G02*
X123603000Y-113517000I0J100000D01*
G01*
G37*
G36*
G01*
X123603000Y-114167000D02*
X123603000Y-113967000D01*
G75*
G02*
X123703000Y-113867000I100000J0D01*
G01*
X124978000Y-113867000D01*
G75*
G02*
X125078000Y-113967000I0J-100000D01*
G01*
X125078000Y-114167000D01*
G75*
G02*
X124978000Y-114267000I-100000J0D01*
G01*
X123703000Y-114267000D01*
G75*
G02*
X123603000Y-114167000I0J100000D01*
G01*
G37*
G36*
G01*
X123603000Y-114817000D02*
X123603000Y-114617000D01*
G75*
G02*
X123703000Y-114517000I100000J0D01*
G01*
X124978000Y-114517000D01*
G75*
G02*
X125078000Y-114617000I0J-100000D01*
G01*
X125078000Y-114817000D01*
G75*
G02*
X124978000Y-114917000I-100000J0D01*
G01*
X123703000Y-114917000D01*
G75*
G02*
X123603000Y-114817000I0J100000D01*
G01*
G37*
G36*
G01*
X123603000Y-115467000D02*
X123603000Y-115267000D01*
G75*
G02*
X123703000Y-115167000I100000J0D01*
G01*
X124978000Y-115167000D01*
G75*
G02*
X125078000Y-115267000I0J-100000D01*
G01*
X125078000Y-115467000D01*
G75*
G02*
X124978000Y-115567000I-100000J0D01*
G01*
X123703000Y-115567000D01*
G75*
G02*
X123603000Y-115467000I0J100000D01*
G01*
G37*
G36*
G01*
X123603000Y-116117000D02*
X123603000Y-115917000D01*
G75*
G02*
X123703000Y-115817000I100000J0D01*
G01*
X124978000Y-115817000D01*
G75*
G02*
X125078000Y-115917000I0J-100000D01*
G01*
X125078000Y-116117000D01*
G75*
G02*
X124978000Y-116217000I-100000J0D01*
G01*
X123703000Y-116217000D01*
G75*
G02*
X123603000Y-116117000I0J100000D01*
G01*
G37*
%TD*%
%TO.C,U3*%
G36*
G01*
X143993000Y-113609000D02*
X143993000Y-113309000D01*
G75*
G02*
X144143000Y-113159000I150000J0D01*
G01*
X145443000Y-113159000D01*
G75*
G02*
X145593000Y-113309000I0J-150000D01*
G01*
X145593000Y-113609000D01*
G75*
G02*
X145443000Y-113759000I-150000J0D01*
G01*
X144143000Y-113759000D01*
G75*
G02*
X143993000Y-113609000I0J150000D01*
G01*
G37*
G36*
G01*
X143993000Y-112339000D02*
X143993000Y-112039000D01*
G75*
G02*
X144143000Y-111889000I150000J0D01*
G01*
X145443000Y-111889000D01*
G75*
G02*
X145593000Y-112039000I0J-150000D01*
G01*
X145593000Y-112339000D01*
G75*
G02*
X145443000Y-112489000I-150000J0D01*
G01*
X144143000Y-112489000D01*
G75*
G02*
X143993000Y-112339000I0J150000D01*
G01*
G37*
G36*
G01*
X143993000Y-111069000D02*
X143993000Y-110769000D01*
G75*
G02*
X144143000Y-110619000I150000J0D01*
G01*
X145443000Y-110619000D01*
G75*
G02*
X145593000Y-110769000I0J-150000D01*
G01*
X145593000Y-111069000D01*
G75*
G02*
X145443000Y-111219000I-150000J0D01*
G01*
X144143000Y-111219000D01*
G75*
G02*
X143993000Y-111069000I0J150000D01*
G01*
G37*
G36*
G01*
X143993000Y-109799000D02*
X143993000Y-109499000D01*
G75*
G02*
X144143000Y-109349000I150000J0D01*
G01*
X145443000Y-109349000D01*
G75*
G02*
X145593000Y-109499000I0J-150000D01*
G01*
X145593000Y-109799000D01*
G75*
G02*
X145443000Y-109949000I-150000J0D01*
G01*
X144143000Y-109949000D01*
G75*
G02*
X143993000Y-109799000I0J150000D01*
G01*
G37*
G36*
G01*
X136793000Y-109799000D02*
X136793000Y-109499000D01*
G75*
G02*
X136943000Y-109349000I150000J0D01*
G01*
X138243000Y-109349000D01*
G75*
G02*
X138393000Y-109499000I0J-150000D01*
G01*
X138393000Y-109799000D01*
G75*
G02*
X138243000Y-109949000I-150000J0D01*
G01*
X136943000Y-109949000D01*
G75*
G02*
X136793000Y-109799000I0J150000D01*
G01*
G37*
G36*
G01*
X136793000Y-111069000D02*
X136793000Y-110769000D01*
G75*
G02*
X136943000Y-110619000I150000J0D01*
G01*
X138243000Y-110619000D01*
G75*
G02*
X138393000Y-110769000I0J-150000D01*
G01*
X138393000Y-111069000D01*
G75*
G02*
X138243000Y-111219000I-150000J0D01*
G01*
X136943000Y-111219000D01*
G75*
G02*
X136793000Y-111069000I0J150000D01*
G01*
G37*
G36*
G01*
X136793000Y-112339000D02*
X136793000Y-112039000D01*
G75*
G02*
X136943000Y-111889000I150000J0D01*
G01*
X138243000Y-111889000D01*
G75*
G02*
X138393000Y-112039000I0J-150000D01*
G01*
X138393000Y-112339000D01*
G75*
G02*
X138243000Y-112489000I-150000J0D01*
G01*
X136943000Y-112489000D01*
G75*
G02*
X136793000Y-112339000I0J150000D01*
G01*
G37*
G36*
G01*
X136793000Y-113609000D02*
X136793000Y-113309000D01*
G75*
G02*
X136943000Y-113159000I150000J0D01*
G01*
X138243000Y-113159000D01*
G75*
G02*
X138393000Y-113309000I0J-150000D01*
G01*
X138393000Y-113609000D01*
G75*
G02*
X138243000Y-113759000I-150000J0D01*
G01*
X136943000Y-113759000D01*
G75*
G02*
X136793000Y-113609000I0J150000D01*
G01*
G37*
%TD*%
%TO.C,U4*%
G36*
G01*
X140403000Y-119395000D02*
X140403000Y-119695000D01*
G75*
G02*
X140253000Y-119845000I-150000J0D01*
G01*
X138603000Y-119845000D01*
G75*
G02*
X138453000Y-119695000I0J150000D01*
G01*
X138453000Y-119395000D01*
G75*
G02*
X138603000Y-119245000I150000J0D01*
G01*
X140253000Y-119245000D01*
G75*
G02*
X140403000Y-119395000I0J-150000D01*
G01*
G37*
G36*
G01*
X140403000Y-120665000D02*
X140403000Y-120965000D01*
G75*
G02*
X140253000Y-121115000I-150000J0D01*
G01*
X138603000Y-121115000D01*
G75*
G02*
X138453000Y-120965000I0J150000D01*
G01*
X138453000Y-120665000D01*
G75*
G02*
X138603000Y-120515000I150000J0D01*
G01*
X140253000Y-120515000D01*
G75*
G02*
X140403000Y-120665000I0J-150000D01*
G01*
G37*
G36*
G01*
X140403000Y-121935000D02*
X140403000Y-122235000D01*
G75*
G02*
X140253000Y-122385000I-150000J0D01*
G01*
X138603000Y-122385000D01*
G75*
G02*
X138453000Y-122235000I0J150000D01*
G01*
X138453000Y-121935000D01*
G75*
G02*
X138603000Y-121785000I150000J0D01*
G01*
X140253000Y-121785000D01*
G75*
G02*
X140403000Y-121935000I0J-150000D01*
G01*
G37*
G36*
G01*
X140403000Y-123205000D02*
X140403000Y-123505000D01*
G75*
G02*
X140253000Y-123655000I-150000J0D01*
G01*
X138603000Y-123655000D01*
G75*
G02*
X138453000Y-123505000I0J150000D01*
G01*
X138453000Y-123205000D01*
G75*
G02*
X138603000Y-123055000I150000J0D01*
G01*
X140253000Y-123055000D01*
G75*
G02*
X140403000Y-123205000I0J-150000D01*
G01*
G37*
G36*
G01*
X135453000Y-123205000D02*
X135453000Y-123505000D01*
G75*
G02*
X135303000Y-123655000I-150000J0D01*
G01*
X133653000Y-123655000D01*
G75*
G02*
X133503000Y-123505000I0J150000D01*
G01*
X133503000Y-123205000D01*
G75*
G02*
X133653000Y-123055000I150000J0D01*
G01*
X135303000Y-123055000D01*
G75*
G02*
X135453000Y-123205000I0J-150000D01*
G01*
G37*
G36*
G01*
X135453000Y-121935000D02*
X135453000Y-122235000D01*
G75*
G02*
X135303000Y-122385000I-150000J0D01*
G01*
X133653000Y-122385000D01*
G75*
G02*
X133503000Y-122235000I0J150000D01*
G01*
X133503000Y-121935000D01*
G75*
G02*
X133653000Y-121785000I150000J0D01*
G01*
X135303000Y-121785000D01*
G75*
G02*
X135453000Y-121935000I0J-150000D01*
G01*
G37*
G36*
G01*
X135453000Y-120665000D02*
X135453000Y-120965000D01*
G75*
G02*
X135303000Y-121115000I-150000J0D01*
G01*
X133653000Y-121115000D01*
G75*
G02*
X133503000Y-120965000I0J150000D01*
G01*
X133503000Y-120665000D01*
G75*
G02*
X133653000Y-120515000I150000J0D01*
G01*
X135303000Y-120515000D01*
G75*
G02*
X135453000Y-120665000I0J-150000D01*
G01*
G37*
G36*
G01*
X135453000Y-119395000D02*
X135453000Y-119695000D01*
G75*
G02*
X135303000Y-119845000I-150000J0D01*
G01*
X133653000Y-119845000D01*
G75*
G02*
X133503000Y-119695000I0J150000D01*
G01*
X133503000Y-119395000D01*
G75*
G02*
X133653000Y-119245000I150000J0D01*
G01*
X135303000Y-119245000D01*
G75*
G02*
X135453000Y-119395000I0J-150000D01*
G01*
G37*
%TD*%
D10*
%TO.C,Y1*%
X141613000Y-119484000D03*
X141613000Y-121384000D03*
D23*
X147113000Y-120434000D03*
%TD*%
M02*
